<svg id="one" xmlns="http://www.w3.org/2000/svg" viewBox="0 0 180.08 151.37"><defs><style>.cls-1,.cls-3,.cls-5{fill:#fff;}.cls-1,.cls-2,.cls-5{stroke:#070001;}.cls-1{stroke-width:0.34px;}.cls-2,.cls-4{fill:none;stroke-width:0.25px;}.cls-2,.cls-4,.cls-5{stroke-linecap:round;}.cls-2{stroke-dasharray:1 1;}.cls-3{stroke:#231815;stroke-miterlimit:10;stroke-width:0.72px;}.cls-4{stroke:#7f8080;}.cls-5{stroke-width:0.5px;}.cls-6,.cls-7{fill:#040000;}.cls-6{fill-rule:evenodd;}</style></defs><title>后侧</title><path class="cls-1" d="M379.37,363.05l-1.25.12c-.88.08-2.2.19-3.91.31a363.5,363.5,0,0,1-54.72-.29l-1.62-.14,0,.08c-9,17.47-10.53,79.33-9,91.86v0a9.64,9.64,0,0,0,.34,1.77c8.36,19.11,69.87,14.07,74.94,2.39.31-1,.59-2.07.86-3.15.44-1.81.81-3.71,1.13-5.7C390.76,421.28,383,374.35,379.37,363.05Z" transform="translate(-207.84 -343.78)"/><path class="cls-2" d="M316.87,367.25a260.13,260.13,0,0,0,63-.28" transform="translate(-207.84 -343.78)"/><path class="cls-2" d="M316.36,369s35,5,64.1-.69" transform="translate(-207.84 -343.78)"/><polygon class="cls-1" points="149.51 126.78 129.16 126.78 130.86 20.6 148.51 20.6 149.51 126.78"/><path class="cls-3" d="M308.8,455.07l0-.08v0Z" transform="translate(-207.84 -343.78)"/><path class="cls-1" d="M332.64,345.21c23-2.55,39.46,2,45.47,18-.88.08-2.2.19-3.91.31a363.49,363.49,0,0,1-54.72-.29l-1.62-.14,0,.08C311.86,352.43,325.6,346,332.64,345.21Z" transform="translate(-207.84 -343.78)"/><path class="cls-1" d="M334.67,348.72c19.77-2.2,34,1.7,39.15,15.46-.76.07-1.89.16-3.36.27a313,313,0,0,1-47.11-.25l-1.4-.12,0,.07C316.78,354.93,328.61,349.43,334.67,348.72Z" transform="translate(-207.84 -343.78)"/><line class="cls-2" x1="133.71" y1="22.35" x2="132.08" y2="125.56"/><line class="cls-2" x1="145.3" y1="22.35" x2="146.55" y2="125.46"/><polyline class="cls-4" points="110.08 20.1 113.13 18.56 109.82 19.38 112.98 18.09 109.62 18.71 112.85 17.58 109.46 18.04 112.74 17.07 109.33 17.36 112.65 16.56 109.24 16.68 112.6 16.05 109.18 16 112.57 15.54 109.16 15.32 112.56 15.03 109.17 14.62 112.58 14.53 109.22 13.93 112.64 14.03 109.32 13.23 112.72 13.53 109.45 12.53 112.83 13.05 109.63 11.84 112.97 12.57 109.86 11.16 113.14 12.11 110.13 10.5 113.34 11.65 110.44 9.85 113.57 11.22 110.79 9.23 113.83 10.79 111.19 8.63 114.12 10.39 111.61 8.06 114.43 9.99 112.08 7.52 114.77 9.62 112.56 7.01 115.14 9.26 113.08 6.53 115.53 8.91 113.61 6.08 115.93 8.59 114.15 5.67 116.36 8.28 114.71 5.29 116.81 7.99 115.29 4.93 117.27 7.71 115.87 4.59 117.75 7.45 116.47 4.28 118.24 7.2 117.07 3.99 118.74 6.97 117.68 3.73 119.25 6.76 118.29 3.48 119.78 6.55 118.91 3.25 120.31 6.37 119.53 3.04 120.86 6.19 120.16 2.84 121.42 6.02 120.81 2.66 122.23 5.8 121.95 2.36 123.3 5.54 123.11 2.09 124.38 5.3 124.27 1.85 125.46 5.08 125.43 1.64 126.56 4.89 126.59 1.45 127.65 4.73 127.76 1.28 128.75 4.59 128.93 1.14 129.85 4.47 130.11 1.03 130.96 4.37 131.28 0.93 132.07 4.29 132.46 0.86 133.18 4.24 133.63 0.81 134.3 4.2 134.81 0.79 135.41 4.18 135.99 0.78 136.53 4.19 137.17 0.8 137.65 4.21 138.34 0.84 138.77 4.26 139.52 0.89 139.88 4.32 140.7 0.97 141 4.41 141.87 1.07 142.11 4.51 143.04 1.19 143.22 4.64 144.22 1.33 144.33 4.78 145.38 1.5 145.43 4.94 146.55 1.68 146.53 5.13 147.71 1.89 147.62 5.33 148.87 2.12 148.71 5.56 150.02 2.37 149.78 5.81 151.17 2.65 150.85 6.09 152.31 2.97 151.91 6.39 153.46 3.31 152.96 6.72 154.6 3.69 153.99 7.08 155.72 4.1 154.99 7.47 156.84 4.56 155.96 7.89 157.94 5.08 156.89 8.36 159.04 5.66 157.76 8.86 160.11 6.34 158.34 9.25 160.51 6.62 158.67 9.49 160.9 6.91 158.99 9.74 161.28 7.21 159.31 10 161.65 7.52 159.63 10.26 162.02 7.83 159.94 10.53 162.38 8.15 160.25 10.81 162.74 8.48 160.55 11.1 163.08 8.81 160.85 11.39 163.42 9.15 161.15 11.69 163.76 9.5 161.44 11.99 164.08 9.85 161.72 12.3 164.4 10.2 162 12.62 164.72 10.56 162.28 12.94 165.03 10.92 162.55 13.27 165.33 11.29 162.81 13.59 165.62 11.66 163.08 13.93 165.91 12.04 163.33 14.27 166.2 12.42 163.59 14.61 166.48 12.8 163.83 14.96 166.75 13.19 164.08 15.3 167.01 13.58 164.32 15.66 167.28 13.97 164.55 16.01 167.53 14.36 164.78 16.37 167.78 14.76 165 16.73 168.03 15.16 165.22 17.1 168.27 15.57 165.44 17.48 168.51 15.98 165.66 17.85 168.74 16.39 165.86 18.22 168.96 16.81 166.06 18.6 169.18 17.22 166.25 18.97 169.39 17.63 166.44 19.33 169.59 18.04 166.61 19.69 169.78 18.46 166.77 20.05 169.98 18.9"/><path class="cls-3" d="M387.52,456.79a20.81,20.81,0,0,0-.45-3.34,20.34,20.34,0,0,0-.94-3.11c-.32,2-.69,3.9-1.13,5.7-.26,1.09-.55,2.14-.86,3.15-5.08,11.68-66.58,16.72-74.94-2.39a9.66,9.66,0,0,1-.34-1.77l-.05,0a10.35,10.35,0,0,0-1,3.87c0,.34,0,.71-.06,1.07a59.54,59.54,0,0,0,1.33,12.59c.28,1.45.58,2.9.91,4.35.5,2.21,1,4.38,1.56,6.42,3.36,15,45.68,11,55.09,10.75,14.91-1.36,17.25-10,18.39-17.71.21-1.43.38-2.83.58-4.15.15-1,.31-1.87.51-2.71a64.75,64.75,0,0,0,1.4-11.75C387.55,457.47,387.54,457.13,387.52,456.79Z" transform="translate(-207.84 -343.78)"/><path class="cls-5" d="M322.2,471.73s24.14,5.77,46.27,0V488s-19.91,4-46.27-.75Z" transform="translate(-207.84 -343.78)"/><path class="cls-6" d="M348.61,480.45l-.52,1.06-1.19.18.87.81-.19,1.16,1.07-.56,1.08.53-.23-1.15.84-.84-1.19-.14Z" transform="translate(-207.84 -343.78)"/><path class="cls-7" d="M331.14,478.36l.63,0a.06.06,0,0,1,.05.06l-.45,6.19a.06.06,0,0,1-.06.05l-.65,0a.15.15,0,0,0-.16.13l0,.53a.15.15,0,0,0,.14.16l3.25.22a.15.15,0,0,0,.16-.14l0-.53a.15.15,0,0,0-.14-.16l-.66,0a.06.06,0,0,1-.05-.06l.39-6.2a.06.06,0,0,1,.06-.05l.63,0a.15.15,0,0,0,.16-.14l0-.53a.15.15,0,0,0-.14-.16l-3.11-.21a.15.15,0,0,0-.16.14l0,.53A.15.15,0,0,0,331.14,478.36Zm19.83.48.64,0a.06.06,0,0,1,.06.05l.19,6.21a.06.06,0,0,1-.06.06l-.66,0a.15.15,0,0,0-.15.15v.53a.15.15,0,0,0,.16.14l3.25-.12a.15.15,0,0,0,.15-.15l0-.53a.15.15,0,0,0-.16-.14l-.66,0a.06.06,0,0,1-.06-.05l-.25-6.21a.06.06,0,0,1,.05-.06l.63,0a.15.15,0,0,0,.14-.15l0-.53a.15.15,0,0,0-.15-.14l-3.12.11a.15.15,0,0,0-.14.15v.53A.15.15,0,0,0,351,478.84Zm-13.27-.92-2-.09a.34.34,0,0,0-.35.32l-.39,7.28a.34.34,0,0,0,.33.35l2,.1a2.67,2.67,0,0,0,2.84-2.55l.08-2.67A2.68,2.68,0,0,0,337.7,477.91Zm.83,5.36a1,1,0,0,1-1.1,1l-.61,0a.07.07,0,0,1-.07-.07l.21-4.58a.07.07,0,0,1,.07-.07l.6,0a1,1,0,0,1,1,1.06Zm-8.75-5.85-1.4-.12a.34.34,0,0,0-.31.15q-1.06,1.57-2.16,3.12a.08.08,0,0,1-.15-.06l.33-3.23a.2.2,0,0,0-.18-.22l-1.34-.14a.2.2,0,0,0-.22.18l-.84,7.51a.2.2,0,0,0,.18.22l1.39.15a.2.2,0,0,0,.23-.18l.36-3.52a.09.09,0,0,1,.16,0q.9,1.92,1.84,3.83a.35.35,0,0,0,.29.19l1.48.13a.15.15,0,0,0,.15-.21q-1-2-1.94-4a.33.33,0,0,1,0-.33q1.12-1.62,2.2-3.25A.15.15,0,0,0,329.78,477.42Zm35.59,3.42-.43,0-.46,0a.34.34,0,0,0-.31.37l.07.73a.34.34,0,0,0,.38.3l.34,0a.12.12,0,0,1,.13.11l0,.5h0a.87.87,0,0,1-1.73.14l-.31-3.39a.87.87,0,0,1,.66-.93.86.86,0,0,1,1,.51.33.33,0,0,0,.35.2l1-.1a.34.34,0,0,0,.3-.42,2.51,2.51,0,0,0-2.75-1.81,2.54,2.54,0,0,0-2.16,2.72l.27,3.33a2.52,2.52,0,0,0,2.47,2.3,2.63,2.63,0,0,0,1.48-.42.08.08,0,0,1,.12.05v.06a.16.16,0,0,0,.18.14l1-.1a.16.16,0,0,0,.14-.17l-.21-1.95-.1-1-.12-1.06a.34.34,0,0,0-.38-.3Zm-6.4,1.1q-1.12-2-2.21-4.06a.2.2,0,0,0-.19-.11l-.69,0h0l-.61,0a.2.2,0,0,0-.19.21l.37,7.56a.21.21,0,0,0,.22.19l1.27-.07a.21.21,0,0,0,.2-.21l-.23-4a0,0,0,0,1,.09,0q1.07,2,2.18,3.95a.21.21,0,0,0,.2.11l1.42-.1a.21.21,0,0,0,.2-.22l-.58-7.55a.2.2,0,0,0-.22-.19l-1.22.09a.2.2,0,0,0-.19.22l.28,4.08A0,0,0,0,1,359,481.94Zm-15.1-.75c-.31-.14-1.08-.28-1.17-.81a.8.8,0,0,1,.82-.87,1.55,1.55,0,0,1,1,.62.34.34,0,0,0,.43.07l.83-.5a.34.34,0,0,0,.1-.48,3,3,0,0,0-2.37-1.39,2.61,2.61,0,0,0-2.64,2.52c0,1.4,1.08,1.91,1.9,2.28l.31.14c1,.47,1.22.72,1.22,1a.84.84,0,0,1-.87.82,1.58,1.58,0,0,1-1-.66.36.36,0,0,0-.46-.07l-.88.56a.33.33,0,0,0-.12.44,2.74,2.74,0,0,0,2.44,1.47,2.62,2.62,0,0,0,2.71-2.4C346.21,482.25,344.68,481.56,343.87,481.19Z" transform="translate(-207.84 -343.78)"/><path class="cls-1" d="M216.4,362.45l1.25.12c.88.08,2.2.19,3.91.31a363.5,363.5,0,0,0,54.72-.29l1.62-.14,0,.08c9,17.47,10.53,79.33,9,91.86v0a9.64,9.64,0,0,1-.34,1.77c-8.36,19.11-69.87,14.07-74.94,2.39-.31-1-.59-2.07-.86-3.15-.44-1.81-.81-3.71-1.13-5.7C205,420.68,212.72,373.75,216.4,362.45Z" transform="translate(-207.84 -343.78)"/><path class="cls-2" d="M278.89,366.65a260.13,260.13,0,0,1-63-.28" transform="translate(-207.84 -343.78)"/><path class="cls-2" d="M279.4,368.42s-35,5-64.1-.69" transform="translate(-207.84 -343.78)"/><polygon class="cls-1" points="30.57 126.18 50.92 126.18 49.22 20 31.57 20 30.57 126.18"/><path class="cls-3" d="M287,454.47l0-.08v0Z" transform="translate(-207.84 -343.78)"/><path class="cls-1" d="M263.12,344.61c-23-2.55-39.46,2-45.47,18,.88.08,2.2.19,3.91.31a363.49,363.49,0,0,0,54.72-.29l1.62-.14,0,.08C283.9,351.83,270.17,345.44,263.12,344.61Z" transform="translate(-207.84 -343.78)"/><path class="cls-1" d="M261.09,348.12c-19.77-2.2-34,1.7-39.15,15.46.76.07,1.89.16,3.36.27a313,313,0,0,0,47.11-.25l1.4-.12,0,.07C279,354.33,267.16,348.83,261.09,348.12Z" transform="translate(-207.84 -343.78)"/><line class="cls-2" x1="46.38" y1="21.75" x2="48" y2="124.96"/><line class="cls-2" x1="34.78" y1="21.75" x2="33.54" y2="124.85"/><polyline class="cls-4" points="66.88 18.14 70.15 19.11 67.03 17.73 70.36 18.44 67.17 17.23 70.54 17.77 67.29 16.73 70.69 17.1 67.39 16.21 70.8 16.42 67.46 15.7 70.87 15.74 67.5 15.2 70.92 15.06 67.52 14.69 70.92 14.37 67.51 14.18 70.89 13.67 67.47 13.67 70.82 12.97 67.41 13.18 70.7 12.28 67.31 12.69 70.54 11.59 67.19 12.21 70.34 10.9 67.03 11.74 70.09 10.23 66.84 11.28 69.8 9.57 66.63 10.83 69.47 8.94 66.39 10.4 69.09 8.32 66.11 9.99 68.68 7.74 65.81 9.59 68.24 7.19 65.48 9.2 67.77 6.66 65.13 8.83 67.27 6.17 64.75 8.48 66.74 5.7 64.35 8.14 66.2 5.27 63.94 7.83 65.65 4.87 63.5 7.53 65.08 4.5 63.05 7.24 64.5 4.15 62.58 6.98 63.91 3.83 62.09 6.72 63.31 3.53 61.59 6.48 62.71 3.25 61.09 6.26 62.1 3 60.57 6.05 61.48 2.76 60.03 5.86 60.86 2.54 59.5 5.67 60.23 2.34 58.95 5.5 59.6 2.15 58.38 5.34 58.7 1.91 57.31 5.06 57.55 1.62 56.24 4.81 56.4 1.37 55.16 4.59 55.23 1.14 54.07 4.38 54.07 0.94 52.98 4.21 52.9 0.76 51.88 4.05 51.73 0.61 50.78 3.92 50.56 0.48 49.67 3.81 49.39 0.38 48.56 3.73 48.21 0.29 47.45 3.66 47.04 0.23 46.34 3.61 45.86 0.2 45.23 3.59 44.68 0.18 44.11 3.58 43.5 0.19 42.99 3.6 42.33 0.21 41.87 3.63 41.15 0.26 40.76 3.69 39.97 0.33 39.64 3.76 38.8 0.42 38.52 3.86 37.62 0.53 37.41 3.97 36.45 0.66 36.3 4.1 35.28 0.81 35.2 4.26 34.12 0.98 34.1 4.43 32.95 1.18 33 4.63 31.79 1.4 31.92 4.84 30.64 1.64 30.84 5.08 29.49 1.91 29.76 5.35 28.34 2.2 28.7 5.63 27.19 2.53 27.64 5.95 26.05 2.89 26.61 6.29 24.92 3.29 25.59 6.67 23.8 3.72 24.61 7.08 22.69 4.21 23.65 7.52 21.59 4.76 22.75 8 20.5 5.38 21.91 8.53 19.77 5.88 21.58 8.77 19.38 6.16 21.25 9.01 18.99 6.46 20.93 9.27 18.61 6.76 20.61 9.53 18.24 7.07 20.3 9.79 17.88 7.39 19.98 10.07 17.52 7.71 19.68 10.35 17.17 8.04 19.38 10.64 16.83 8.38 19.08 10.94 16.49 8.72 18.79 11.24 16.16 9.07 18.5 11.55 15.84 9.42 18.22 11.86 15.52 9.78 17.94 12.18 15.21 10.14 17.67 12.5 14.9 10.51 17.4 12.83 14.6 10.88 17.14 13.16 14.31 11.25 16.88 13.49 14.03 11.63 16.62 13.84 13.74 12.01 16.37 14.18 13.47 12.39 16.13 14.53 13.2 12.78 15.88 14.88 12.94 13.17 15.65 15.23 12.68 13.56 15.42 15.59 12.42 13.96 15.19 15.95 12.18 14.36 14.97 16.31 11.93 14.76 14.75 16.69 11.69 15.17 14.53 17.06 11.46 15.59 14.32 17.43 11.23 16 14.12 17.81 11.01 16.41 13.92 18.18 10.8 16.83 13.74 18.55 10.59 17.24 13.56 18.91 10.39 17.65 13.39 19.27 10.2 18.07 13.24 19.6"/><path class="cls-3" d="M208.24,456.19a20.81,20.81,0,0,1,.45-3.34,20.34,20.34,0,0,1,.94-3.11c.32,2,.69,3.9,1.13,5.7.26,1.09.55,2.14.86,3.15,5.08,11.68,66.58,16.72,74.94-2.39a9.66,9.66,0,0,0,.34-1.77l.05,0a10.35,10.35,0,0,1,1,3.87c0,.34,0,.71.06,1.07A59.54,59.54,0,0,1,286.65,472c-.28,1.45-.58,2.9-.91,4.35-.5,2.21-1,4.38-1.56,6.42-3.36,15-45.68,11-55.09,10.75-14.91-1.36-17.25-10-18.39-17.71-.21-1.43-.38-2.83-.58-4.15-.15-1-.31-1.87-.51-2.71a64.75,64.75,0,0,1-1.4-11.75C208.21,456.87,208.22,456.53,208.24,456.19Z" transform="translate(-207.84 -343.78)"/><path class="cls-5" d="M272.76,471.33s-24.14,5.77-46.27,0v16.27s19.91,4,46.27-.75Z" transform="translate(-207.84 -343.78)"/><path class="cls-6" d="M252.94,479.36l-.52,1.06-1.19.18.87.81-.19,1.16L253,482l1.08.53-.23-1.15.84-.84-1.19-.14Z" transform="translate(-207.84 -343.78)"/><path class="cls-7" d="M235.47,477.26l.63,0a.06.06,0,0,1,.05.06l-.45,6.19a.06.06,0,0,1-.06.05l-.65,0a.15.15,0,0,0-.16.13l0,.53a.15.15,0,0,0,.14.16l3.25.22a.15.15,0,0,0,.16-.14l0-.53a.15.15,0,0,0-.14-.16l-.66,0a.06.06,0,0,1-.05-.06l.39-6.2a.06.06,0,0,1,.06-.05l.63,0a.15.15,0,0,0,.16-.14l0-.53a.15.15,0,0,0-.14-.16l-3.11-.21a.15.15,0,0,0-.16.14l0,.53A.15.15,0,0,0,235.47,477.26Zm19.83.48.64,0a.06.06,0,0,1,.06.05l.19,6.21a.06.06,0,0,1-.06.06l-.66,0a.15.15,0,0,0-.15.15v.53a.15.15,0,0,0,.16.14l3.25-.12a.15.15,0,0,0,.15-.15l0-.53a.15.15,0,0,0-.16-.14l-.66,0a.06.06,0,0,1-.06-.05l-.25-6.21a.06.06,0,0,1,.05-.06l.63,0a.15.15,0,0,0,.14-.15l0-.53a.15.15,0,0,0-.15-.14l-3.12.11a.15.15,0,0,0-.14.15v.53A.15.15,0,0,0,255.31,477.74ZM242,476.82l-2-.09a.34.34,0,0,0-.35.32l-.39,7.28a.34.34,0,0,0,.33.35l2,.1a2.67,2.67,0,0,0,2.84-2.55l.08-2.67A2.68,2.68,0,0,0,242,476.82Zm.83,5.36a1,1,0,0,1-1.1,1l-.61,0a.07.07,0,0,1-.07-.07l.21-4.58a.07.07,0,0,1,.07-.07l.6,0a1,1,0,0,1,1,1.06Zm-8.75-5.85-1.4-.12a.34.34,0,0,0-.31.15q-1.06,1.57-2.16,3.12a.08.08,0,0,1-.15-.06l.33-3.23a.2.2,0,0,0-.18-.22l-1.34-.14a.2.2,0,0,0-.22.18l-.85,7.51a.2.2,0,0,0,.18.22l1.39.15a.2.2,0,0,0,.23-.18l.36-3.52a.09.09,0,0,1,.16,0q.9,1.92,1.84,3.83a.35.35,0,0,0,.29.19l1.48.13a.15.15,0,0,0,.15-.21q-1-2-1.94-4a.33.33,0,0,1,0-.33q1.12-1.62,2.2-3.25A.15.15,0,0,0,234.12,476.32Zm35.59,3.42-.43,0-.46,0a.34.34,0,0,0-.31.37l.07.73a.34.34,0,0,0,.38.3l.34,0a.12.12,0,0,1,.13.11l.05.5h0a.87.87,0,0,1-1.73.14l-.31-3.39a.87.87,0,0,1,.66-.93.86.86,0,0,1,1,.51.33.33,0,0,0,.35.2l1-.1a.34.34,0,0,0,.3-.42,2.51,2.51,0,0,0-2.75-1.81,2.54,2.54,0,0,0-2.16,2.72l.27,3.33a2.52,2.52,0,0,0,2.47,2.3,2.62,2.62,0,0,0,1.48-.42.08.08,0,0,1,.12.05V484a.16.16,0,0,0,.18.14l1-.1a.16.16,0,0,0,.14-.17l-.21-1.95-.1-1-.12-1.06a.34.34,0,0,0-.38-.3Zm-6.4,1.1q-1.12-2-2.21-4.06a.2.2,0,0,0-.19-.11l-.69,0h0l-.61,0a.2.2,0,0,0-.19.21l.37,7.56a.21.21,0,0,0,.22.19l1.27-.07a.21.21,0,0,0,.2-.21l-.23-4a0,0,0,0,1,.09,0q1.07,2,2.18,3.95a.21.21,0,0,0,.2.11l1.42-.1a.21.21,0,0,0,.2-.22l-.58-7.55a.2.2,0,0,0-.22-.19l-1.22.09a.2.2,0,0,0-.19.22l.28,4.08A0,0,0,0,1,263.3,480.85Zm-15.1-.75c-.31-.14-1.08-.28-1.17-.81a.8.8,0,0,1,.82-.87,1.55,1.55,0,0,1,1,.62.34.34,0,0,0,.43.07l.83-.5a.34.34,0,0,0,.1-.48,3,3,0,0,0-2.37-1.39,2.61,2.61,0,0,0-2.64,2.52c0,1.4,1.08,1.91,1.9,2.28l.31.14c1,.47,1.22.72,1.22,1a.84.84,0,0,1-.87.82,1.58,1.58,0,0,1-1-.66.36.36,0,0,0-.46-.07l-.88.56a.33.33,0,0,0-.12.44,2.74,2.74,0,0,0,2.44,1.47,2.62,2.62,0,0,0,2.71-2.4C250.55,481.16,249,480.47,248.21,480.09Z" transform="translate(-207.84 -343.78)"/></svg>