<svg id="图层_1" data-name="图层 1" xmlns="http://www.w3.org/2000/svg" xmlns:xlink="http://www.w3.org/1999/xlink" viewBox="0 0 335.44 374.54"><defs><style>.cls-1,.cls-11,.cls-13,.cls-14,.cls-15,.cls-16,.cls-3,.cls-7,.cls-9{fill:none;}.cls-2{fill:#cca535;}.cls-3{stroke:#efe8df;stroke-miterlimit:10;stroke-width:0.33px;}.cls-4,.cls-6,.cls-8{fill:#fff;}.cls-5{fill:#040000;}.cls-11,.cls-13,.cls-14,.cls-15,.cls-16,.cls-6,.cls-7,.cls-8{stroke:#070001;}.cls-6{stroke-width:0.58px;}.cls-7,.cls-8{stroke-width:0.34px;}.cls-9{stroke:#040000;stroke-linejoin:round;stroke-width:3px;}.cls-11,.cls-13,.cls-14,.cls-15,.cls-16,.cls-9{stroke-linecap:round;}.cls-10{fill:url(#新建图案色板_6);}.cls-11,.cls-13,.cls-14,.cls-15,.cls-16{stroke-width:0.25px;}.cls-11{stroke-dasharray:1 1;}.cls-12{fill:#070001;}.cls-14{stroke-dasharray:1 1;}.cls-15{stroke-dasharray:1 1;}.cls-16{stroke-dasharray:1 1;}.cls-17{fill:url(#新建图案色板_6-3);}</style><pattern id="新建图案色板_6" data-name="新建图案色板 6" width="45" height="45" patternTransform="translate(-628.28 544.59) scale(3.2 2.64)" patternUnits="userSpaceOnUse" viewBox="0 0 45 45"><rect class="cls-1" width="45" height="45"/><rect class="cls-2" width="45" height="45"/><line class="cls-3" y1="22.5" x2="45" y2="22.5"/><line class="cls-3" x1="22.5" x2="22.5" y2="45"/></pattern><pattern id="新建图案色板_6-3" data-name="新建图案色板 6" width="45" height="45" patternTransform="matrix(-3.2, 0, 0, 2.64, 643.84, 546.9)" patternUnits="userSpaceOnUse" viewBox="0 0 45 45"><rect class="cls-1" width="45" height="45"/><rect class="cls-2" width="45" height="45"/><line class="cls-3" y1="22.5" x2="45" y2="22.5"/><line class="cls-3" x1="22.5" x2="22.5" y2="45"/></pattern></defs><title>正视图</title><path class="cls-4" d="M252.83,185.08s43.05,28.8,27.69,77-122.31,27.34-119.65-11.79,10.24-56.55,18.61-60.3,33.55-22.86,63.3-10.86S252.83,185.08,252.83,185.08Z" transform="translate(-143.24 -169.75)"/><g id="_编组_" data-name="&lt;编组&gt;"><path id="_路径_" data-name="&lt;路径&gt;" class="cls-5" d="M224.62,250.71h.51l6.2-.07h.39c.35,0,.44.08.45.38q0,.88,0,1.75c0,.28-.09.35-.4.38h-.34l-12.55.15c-.8,0-.8,0-.81-.68,0-.5,0-1,0-1.5,0-.35.14-.51.48-.65,2.15-.87,4.3-1.76,6.45-2.65a1,1,0,0,0,.4-.26h-.51l-6.05.07h-.39c-.25,0-.4-.12-.41-.34q0-.92,0-1.84c0-.21.13-.32.36-.34a3.71,3.71,0,0,1,.39,0l12.6-.15h.25c.4,0,.5.09.51.43,0,.56,0,1.11.06,1.67,0,.33-.12.51-.47.65-2.21.89-4.42,1.81-6.62,2.72l-.46.21Z" transform="translate(-143.24 -169.75)"/><path id="_复合路径_" data-name="&lt;复合路径&gt;" class="cls-5" d="M224.6,214.87l6.11-.07c.13,0,.26,0,.39,0a.54.54,0,0,1,.53.43.75.75,0,0,1,0,.17c0,1.08,0,2.17,0,3.25a4.17,4.17,0,0,1-3.62,3.7,5.69,5.69,0,0,1-1,.11c-1.58,0-3.15.05-4.73.06a4.62,4.62,0,0,1-4.53-3,3.37,3.37,0,0,1-.17-.92c0-1,0-2-.06-3,0-.42.28-.69.77-.69C220.4,214.93,222.5,214.89,224.6,214.87Zm4.19,2.53c-.62-.1-7.95,0-8.34.13,0,.4,0,.81.08,1.22a.72.72,0,0,0,.08.24,1.66,1.66,0,0,0,1.54,1c.77,0,1.54,0,2.31,0s1.81,0,2.71-.05a1.64,1.64,0,0,0,1.63-1.41C228.83,218.13,228.8,217.78,228.79,217.4Z" transform="translate(-143.24 -169.75)"/><path id="_路径_2" data-name="&lt;路径&gt;" class="cls-5" d="M224.05,200.61c-.17,0-.34,0-.51,0l-5.46.06h-.34c-.28,0-.41-.09-.42-.32,0-.67,0-1.34,0-2,0-.23.16-.33.4-.35h.39l12.5-.15c.77,0,.8,0,.81.69,0,.48,0,1,0,1.45s-.05.54-.61.55l-5.12.06c-.16,0-.36-.06-.52.16l.45.23c1.75.81,3.5,1.63,5.26,2.42a.84.84,0,0,1,.62.87c0,.53,0,1.06,0,1.58a1.92,1.92,0,0,1,0,.26c0,.28-.16.35-.46.24l-.31-.14c-1.84-.85-3.68-1.69-5.51-2.55a1,1,0,0,0-1,0c-2,1-3.93,2.06-5.89,3.09l-.34.18c-.42.2-.56.13-.57-.29,0-.6,0-1.2,0-1.8a.8.8,0,0,1,.53-.83c1.93-1,3.85-2,5.78-3l.44-.25Z" transform="translate(-143.24 -169.75)"/><path id="_路径_3" data-name="&lt;路径&gt;" class="cls-5" d="M223.17,259.64c0-.22,0-.39,0-.56,0-.42.22-.6.69-.62H225c.42,0,.65.19.66.55q0,1.35,0,2.69c0,.34-.22.51-.61.55h-.34l-6.3.07h-.34c-.21,0-.35-.1-.35-.29,0-.46,0-.91,0-1.37,0-.2,0-.2.47-.38a9.14,9.14,0,0,1-.39-.95c-.6-2,.77-4.07,3.11-4.61a5.17,5.17,0,0,1,1.07-.14c2,0,4.07-.07,6.1-.07a4.39,4.39,0,0,1,4.26,2.7c.75,2.12-.8,4.39-3.31,4.82-.48.08-.82-.12-.84-.55s0-.94,0-1.41a.6.6,0,0,1,.49-.58,1.26,1.26,0,0,0,.94-1,1.33,1.33,0,0,0-1.41-1.52c-.33,0-.66,0-1,0-1.66,0-3.31,0-5,.07a2.56,2.56,0,0,0-.85.16,1.18,1.18,0,0,0-.82,1.21,1.3,1.3,0,0,0,1,1.13A4.36,4.36,0,0,0,223.17,259.64Z" transform="translate(-143.24 -169.75)"/><path id="_路径_4" data-name="&lt;路径&gt;" class="cls-5" d="M217.14,227.22a4,4,0,0,1,2.3-3.41c.49-.26.76-.22,1.09.18s.57.69.85,1,.23.59-.11.91a4.79,4.79,0,0,0-.87,1,1.19,1.19,0,0,0,1,1.7,1.16,1.16,0,0,0,1.18-.34,5.18,5.18,0,0,0,.57-.79c.25-.43.46-.88.69-1.32s.38-.73.61-1.07a4,4,0,0,1,4.58-1.56,4,4,0,0,1,3.27,4,4.32,4.32,0,0,1-2.36,3.43.65.65,0,0,1-.93-.18q-.44-.57-.84-1.16c-.22-.32-.17-.47.12-.76a6.21,6.21,0,0,0,.85-1,1.1,1.1,0,0,0-.45-1.52,1.19,1.19,0,0,0-1.64.21,4.5,4.5,0,0,0-.53,1,9,9,0,0,1-1.29,2.2,4.74,4.74,0,0,1-7.49-.43A3.87,3.87,0,0,1,217.14,227.22Z" transform="translate(-143.24 -169.75)"/><path id="_路径_5" data-name="&lt;路径&gt;" class="cls-5" d="M230.54,239.67c0-.29,0-.56,0-.83s.06-.4.44-.41h.59c.39,0,.45,0,.46.4q0,2.23.07,4.45c0,.35-.06.4-.45.41-1.19,0-1,0-1-.84,0-.13,0-.25,0-.4l-11.13.13c0,.31,0,.59,0,.87s-.07.37-.43.39-.49,0-.74,0-.31-.09-.31-.26,0-.17,0-.26q0-2.1-.07-4.19c0-.1,0-.2,0-.3s.11-.23.28-.24H219c.25,0,.36.11.36.31s0,.6,0,.89C219.76,239.86,229.77,239.77,230.54,239.67Z" transform="translate(-143.24 -169.75)"/><path id="_路径_6" data-name="&lt;路径&gt;" class="cls-5" d="M230.06,209.35c0-.31,0-.58,0-.85s.07-.4.46-.41c1.13,0,1-.09,1,.84q0,1.88.06,3.77,0,.17,0,.34c0,.18-.09.3-.32.3h-.84c-.23,0-.32-.11-.33-.29s0-.34,0-.51,0-.28,0-.44l-11.1.13c0,.26,0,.53,0,.79,0,.43,0,.46-.53.47h-.54c-.36,0-.4,0-.42-.34s0-.57,0-.86c0-1.18,0-2.37-.05-3.55,0-.48,0-.5.58-.51h.54c.24,0,.36.11.36.32s0,.31,0,.47,0,.28,0,.46Z" transform="translate(-143.24 -169.75)"/><path id="_路径_7" data-name="&lt;路径&gt;" class="cls-5" d="M225.6,237.68c-.43-.37-.81-.65-1.13-1a.85.85,0,0,0-.87-.22c-.48.09-1,.16-1.54.26.19-.33.34-.58.48-.84s.39-.54.39-.81-.27-.5-.42-.76l-.49-.81,1.28.16.24,0a.87.87,0,0,0,.93-.28,12.45,12.45,0,0,1,1-.9c.06.25.12.48.16.72a6.41,6.41,0,0,1,.12.76c0,.19.12.28.3.35l1.64.68-1.1.5c-.79.35-.79.34-.88,1.1C225.71,237,225.66,237.28,225.6,237.68Z" transform="translate(-143.24 -169.75)"/></g><path class="cls-6" d="M195.14,445.62c6.77-21.35.26-91.23-3.81-127.93,6.9,5.13,15.49,8,26.18,7.21,16.84-1.19,28.82-6.33,37.39-13.22-4.24,40.67-8.63,121.13-8.63,132.62,0,11.8,22.55,24.54,32.21,33.36-.36,1.16-.75,2.29-1.13,3.41-.91-.55-1.91-1.14-3.12-1.81-7.19-4-51.13-1.32-73.49-.66-17.42.51-25.63,2.25-33.7,5.79-.3-.64-.57-1.31-.87-2C177.68,478.06,187.81,468.74,195.14,445.62Z" transform="translate(-143.24 -169.75)"/><path class="cls-7" d="M144.13,437.68c2.73,42.65,26.6,113.67,91.75,103.07,44-7.16,54.88-67.91,53.59-112.49-1.53,10.3-4.53,33.22-8.63,45.8A110.35,110.35,0,0,1,276,486.48c-5.2,6.08-12.82,8-28.81.47-20.42-9.6-43.45-3.12-56.59,3.39-13.88,6.88-16.19,3-24-5.63L148.19,355.38C145.07,385.13,142,403.79,144.13,437.68Z" transform="translate(-143.24 -169.75)"/><path class="cls-8" d="M162.38,361.83c2.77-30.32,5.6-56.93,5.6-62.66,0-12.53-6.66-52.11-6.66-52.11,6.39,4.84,26.1,18.91,59.65,19.35,27.94.37,49.2-4.7,58.62-9,1-.44,2.7,2.11,2.2,3-3.46,6.1-8.13,17.59-7.57,42.75.29,12.95-2.37,34-5.54,56.21-5.54,38.91-12.62,81.41-8,90.23,3.86,7.44,20.64,10.88,19.14,17.81-1,4.79,5.25,12.48-8.75,18.47-28.91,12.36-20.34,2.64-61.88-5.28-23.37-4.45-39.41,9.67-43,1.86-3.15-6.89-5.57-12.38-7-26.52C157.46,438.34,159.08,397.92,162.38,361.83Z" transform="translate(-143.24 -169.75)"/><path class="cls-8" d="M166.36,484.38c8.06-3.53,16.74-5.27,34.15-5.78,22.37-.66,66.3-3.3,73.49.66,1.21.67,4.48,1.93,4.48,1.93h0a84.59,84.59,0,0,1-5,11.17c-4.3,7.11-10.53,11-26.52,3-20.42-10.21-36.79-3.32-49.94,3.61-13.88,7.32-19.82,3.83-26.78-6A34.36,34.36,0,0,1,166.36,484.38Z" transform="translate(-143.24 -169.75)"/><path class="cls-9" d="M192.1,517.26s31.81,25.16,64,0" transform="translate(-143.24 -169.75)"/><path class="cls-6" d="M211.35,170.63c1.21-.13,2.27-.13,3.44-.23a85.5,85.5,0,0,1,22.56.83v8.94a46.1,46.1,0,0,0-30.56,1.65V171.28C208.26,171,209.77,170.81,211.35,170.63Z" transform="translate(-143.24 -169.75)"/><path class="cls-10" d="M164,249.7" transform="translate(-143.24 -169.75)"/><path class="cls-1" d="M175.59,269.26l-1.08,3q1.14,1.8,2.31,3.51Z" transform="translate(-143.24 -169.75)"/><polyline class="cls-11" points="49.65 289.83 30.59 281.86 14.22 285.57"/><polyline class="cls-11" points="51.47 286.84 29.99 278.15 13.23 282.24"/><polyline class="cls-11" points="102.31 283.79 121.23 277.49 141.57 289.02"/><polyline class="cls-11" points="104.03 286.51 120.32 280.95 140.82 293.21"/><path class="cls-6" d="M277.82,257.79c.06-.56-.11.95,0,0Z" transform="translate(-143.24 -169.75)"/><line class="cls-11" x1="89.72" y1="0.82" x2="89.72" y2="9.37"/><line class="cls-11" x1="67.53" y1="0.95" x2="67.53" y2="10.66"/><g id="_编组_2" data-name="&lt;编组&gt;"><path id="_路径_8" data-name="&lt;路径&gt;" class="cls-12" d="M246.84,291.11c0-.17,0-.34,0-.52q0-3.11,0-6.22c0-.13,0-.26,0-.39,0-.35.11-.44.5-.44q1.13,0,2.26,0c.36,0,.45.1.48.41,0,.11,0,.23,0,.35q0,6.29-.07,12.59c0,.8,0,.8-.89.8-.64,0-1.29,0-1.93,0a.77.77,0,0,1-.83-.5c-1.08-2.18-2.18-4.35-3.27-6.52a1,1,0,0,0-.33-.4c0,.17,0,.34,0,.51q0,3,0,6.07c0,.13,0,.26,0,.39a.4.4,0,0,1-.45.4l-2.37,0a.39.39,0,0,1-.43-.36,3,3,0,0,1,0-.39q0-6.32.07-12.63c0-.08,0-.16,0-.25,0-.4.12-.5.56-.5.71,0,1.43,0,2.15,0a.78.78,0,0,1,.83.49c1.11,2.24,2.24,4.47,3.36,6.7.08.16.17.31.25.47Z" transform="translate(-143.24 -169.75)"/><path id="_复合路径_2" data-name="&lt;复合路径&gt;" class="cls-12" d="M200.73,290.28q0-3.06,0-6.12a3.16,3.16,0,0,1,0-.39.6.6,0,0,1,.56-.52l.22,0c1.4,0,2.79,0,4.18.06a5,5,0,0,1,4.69,3.72,4.51,4.51,0,0,1,.12,1c0,1.58,0,3.16,0,4.74a4.79,4.79,0,0,1-3.91,4.47,5.43,5.43,0,0,1-1.19.15c-1.28,0-2.57,0-3.86,0a.76.76,0,0,1-.87-.78C200.72,294.49,200.72,292.39,200.73,290.28Zm3.35-4.14a83.27,83.27,0,0,0,0,8.36l1.57-.05a1.1,1.1,0,0,0,.31-.08,1.69,1.69,0,0,0,1.27-1.52c0-.77,0-1.55,0-2.32s0-1.81,0-2.71a1.85,1.85,0,0,0-1.78-1.66C205,286.12,204.55,286.14,204.07,286.14Z" transform="translate(-143.24 -169.75)"/><path id="_路径_9" data-name="&lt;路径&gt;" class="cls-12" d="M182.37,290.49c0,.17,0,.34,0,.51q0,2.74,0,5.48c0,.12,0,.23,0,.35,0,.28-.13.41-.43.41-.86,0-1.73,0-2.59,0a.4.4,0,0,1-.44-.41c0-.13,0-.26,0-.39q0-6.27.07-12.53c0-.78,0-.8.9-.8h1.87c.63,0,.7.07.69.62,0,1.71,0,3.42,0,5.13,0,.17-.09.36.19.52.11-.15.22-.29.31-.44,1.08-1.74,2.17-3.47,3.22-5.21a1.11,1.11,0,0,1,1.13-.6c.68,0,1.36,0,2,0h.33c.36,0,.45.17.3.46-.05.1-.12.2-.18.3-1.13,1.82-2.25,3.65-3.4,5.46a.85.85,0,0,0,0,1c1.3,2,2.57,4,3.86,6l.22.34c.25.42.16.56-.39.56-.77,0-1.54,0-2.31,0a1.07,1.07,0,0,1-1.05-.55c-1.24-2-2.5-3.91-3.76-5.86-.1-.15-.21-.3-.31-.44Z" transform="translate(-143.24 -169.75)"/><path id="_路径_10" data-name="&lt;路径&gt;" class="cls-12" d="M258.3,292.77h-.72c-.54,0-.77-.24-.78-.7s0-.79,0-1.18.25-.64.72-.64q1.73,0,3.47,0a.63.63,0,0,1,.7.62,3.05,3.05,0,0,1,0,.34q0,3.16,0,6.32c0,.11,0,.23,0,.35a.34.34,0,0,1-.38.34c-.59,0-1.17,0-1.76,0-.25,0-.25,0-.48-.48-.41.13-.81.29-1.23.37a4.92,4.92,0,0,1-5.87-3.23,4.09,4.09,0,0,1-.16-1.07c0-2,0-4.08,0-6.12a4.51,4.51,0,0,1,3.56-4.21c2.75-.71,5.63.91,6.14,3.43.1.49-.17.81-.72.83s-1.21,0-1.82,0a.74.74,0,0,1-.73-.5,1.5,1.5,0,0,0-1.21-1,1.61,1.61,0,0,0-2,1.38c0,.33,0,.66,0,1,0,1.66,0,3.32,0,5a2.08,2.08,0,0,0,.19.86,1.68,1.68,0,0,0,3-.16A3.42,3.42,0,0,0,258.3,292.77Z" transform="translate(-143.24 -169.75)"/><path id="_路径_11" data-name="&lt;路径&gt;" class="cls-12" d="M216.47,298.05a5.29,5.29,0,0,1-4.34-2.39c-.33-.5-.26-.76.25-1.09l1.37-.83a.85.85,0,0,1,1.16.13,5.92,5.92,0,0,0,1.23.89,1.6,1.6,0,0,0,2.21-.93,1,1,0,0,0-.41-1.2,6.9,6.9,0,0,0-1-.59c-.55-.26-1.13-.48-1.69-.73s-.93-.4-1.37-.63a3.55,3.55,0,0,1-1.92-4.63,5,5,0,0,1,5.16-3.18,5.74,5.74,0,0,1,4.37,2.45c.26.35.16.69-.25.92s-1,.56-1.5.82a.74.74,0,0,1-1-.14,7.77,7.77,0,0,0-1.25-.88,1.65,1.65,0,0,0-2,.41,1,1,0,0,0,.24,1.65,6.44,6.44,0,0,0,1.28.56,12.67,12.67,0,0,1,2.8,1.35c3.23,2.12,2.34,6.09-.7,7.5A6.07,6.07,0,0,1,216.47,298.05Z" transform="translate(-143.24 -169.75)"/><path id="_路径_12" data-name="&lt;路径&gt;" class="cls-12" d="M232.76,284.92h-1.06c-.46,0-.51-.06-.52-.45,0-.2,0-.4,0-.59,0-.39.07-.45.52-.45l5.73,0c.45,0,.51.07.52.46,0,1.2,0,1-1.1,1l-.52,0c0,3.72,0,7.41-.06,11.16h1.12c.41,0,.48.08.49.44s0,.49,0,.74-.12.3-.35.31h-.33l-5.4,0h-.39c-.2,0-.3-.11-.3-.29s0-.56,0-.84.15-.36.41-.36h1.14C232.78,295.72,232.87,285.69,232.76,284.92Z" transform="translate(-143.24 -169.75)"/><path id="_路径_13" data-name="&lt;路径&gt;" class="cls-12" d="M193.74,284.67h-1.09c-.43,0-.51-.07-.51-.47,0-1.14-.1-1,1.1-1l4.85,0h.44c.24,0,.38.1.38.33s0,.56,0,.84-.15.32-.39.33h-.66l-.57,0c0,3.71,0,7.39-.06,11.13l1,0c.56,0,.59,0,.6.54,0,.18,0,.36,0,.54,0,.36-.06.4-.45.41s-.73,0-1.1,0l-4.57,0c-.62,0-.64,0-.65-.59,0-.18,0-.36,0-.54s.15-.36.42-.36h1.19C193.71,292.13,193.72,288.43,193.74,284.67Z" transform="translate(-143.24 -169.75)"/><path id="_路径_14" data-name="&lt;路径&gt;" class="cls-12" d="M230.1,289.82c-.48.42-.86.8-1.29,1.11a.73.73,0,0,0-.31.86c.11.48.19,1,.3,1.55l-1.07-.5a3,3,0,0,0-1-.41,2.72,2.72,0,0,0-1,.41l-1.06.48.24-1.28a1.86,1.86,0,0,1,.06-.24.76.76,0,0,0-.34-.94,13.74,13.74,0,0,1-1.14-1.07l.94-.15c.33,0,.65-.09,1-.11a.48.48,0,0,0,.45-.29c.28-.51.57-1,.91-1.62.24.43.43.77.62,1.11.43.8.43.8,1.4.91Z" transform="translate(-143.24 -169.75)"/></g><path class="cls-6" d="M149,336.62c2.68-36.07,3.2-32.46,5.56-64.69,3-41.22-.46-91.66,52.27-99.88v9.83A65,65,0,0,0,191,190.56c-12.62,10-20.36,26-24.36,41.92-8,31.85,19.16,51.57,26.17,62.5,3.22,5,5.61,11.13,6.82,22.13,4.07,36.91,8,105.56,1.21,127-7.34,23.26-22.91,35.3-34.42,39.7C146.61,439.63,147.1,370.83,149,336.62Z" transform="translate(-143.24 -169.75)"/><path class="cls-6" d="M238.22,172.15l1.37.27c24.06,5.08,35.21,21.56,40,35.91a127.4,127.4,0,0,1,4.85,50.37c-5.11,47.28-6.89,57.95,4.35,148.23.09.72.2,1.45.31,2.17,1.81,21.37-1.22,41.51-10.16,71.25-.09.28-.18.55-.27.83-9.66-9-36.09-23.19-36.09-35.2,0-14.1-2.64-125.25,2.15-149.43,2.16-10.9,22.28-20.91,29.18-28.75a28.63,28.63,0,0,0,3.87-10c-.11.95.06-.56,0,0a152.81,152.81,0,0,0,1.55-22.15s-.69-31.46-23.74-46.84a61.92,61.92,0,0,0-18.29-8.51V172Z" transform="translate(-143.24 -169.75)"/><path class="cls-11" d="M280.07,256.76c-.21,1.15-1.35,8.5-4.38,12.32-5.83,7.35-26.26,19.21-28.22,29-4.66,23.09-1.68,131.82-1.2,146.26.32,9.51,14,17.84,23.43,24.94,1.93,1.46,8.6,6.21,10.33,7.58" transform="translate(-143.24 -169.75)"/><path class="cls-11" d="M280.07,262.95c-1,10.27-28.25,26.44-29.92,35-4.46,23-.68,133.05-.68,147.45,0,5.55,14.1,15.61,22,21.56.39.29,9.19,6,9.57,6.32" transform="translate(-143.24 -169.75)"/><path class="cls-11" d="M165.51,479.54c7.76-3.8,26.66-17.21,32.73-38.91,5-17.91,4-95.7-5.35-140-1-4.74-11.46-12.29-15.28-17.63-8.63-12-18.61-30.1-12.9-52.71" transform="translate(-143.24 -169.75)"/><path class="cls-11" d="M161.52,240.13c-3.41,19.89,9.93,39.07,13.35,43.83s13.45,11.9,14.64,17.92c12.11,61.1,11.41,121.24,5.47,140-5.66,17.85-22.5,30.79-30.31,34.47" transform="translate(-143.24 -169.75)"/><rect class="cls-8" x="271.1" y="305.56" width="5" height="32.38" rx="1.37" ry="1.37" transform="translate(403.97 473.74) rotate(-180)"/><path class="cls-5" d="M273.61,336.95a1.44,1.44,0,0,0,1.47-1.4V307.94a1.47,1.47,0,0,0-2.94,0v27.62A1.44,1.44,0,0,0,273.61,336.95Z" transform="translate(-143.24 -169.75)"/><rect class="cls-8" x="271.1" y="382.8" width="5" height="32.38" rx="1.37" ry="1.37" transform="translate(403.97 628.22) rotate(-180)"/><path class="cls-11" d="M175.66,274S158.17,440.5,183,470.56" transform="translate(-143.24 -169.75)"/><path class="cls-11" d="M173.8,271.57S152.27,427.75,180,473.51" transform="translate(-143.24 -169.75)"/><path class="cls-11" d="M269.95,271.92s7.42,167.86-9.75,194.64" transform="translate(-143.24 -169.75)"/><path class="cls-11" d="M267.33,274S273,436.1,258,464.14" transform="translate(-143.24 -169.75)"/><rect class="cls-8" x="168.16" y="305.11" width="105.45" height="32.82" rx="3.76" ry="3.76" transform="translate(298.52 473.29) rotate(-180)"/><path class="cls-11" d="M271.54,308.26l-96.54.1a4.67,4.67,0,0,0-4.78,4.54v17.22a4.67,4.67,0,0,0,4.78,4.54H271.1" transform="translate(-143.24 -169.75)"/><line class="cls-13" x1="129.31" y1="163.12" x2="128.81" y2="163.12"/><path class="cls-14" d="M271,332.87l-96-.1a2.58,2.58,0,0,1-2.72-2.4V312.67a2.58,2.58,0,0,1,2.72-2.4h96.54" transform="translate(-143.24 -169.75)"/><line class="cls-13" x1="128.81" y1="140.52" x2="129.31" y2="140.52"/><path class="cls-5" d="M273.61,414.19a1.44,1.44,0,0,0,1.47-1.4V385.18a1.47,1.47,0,0,0-2.94,0v27.62A1.44,1.44,0,0,0,273.61,414.19Z" transform="translate(-143.24 -169.75)"/><rect class="cls-8" x="168.16" y="382.8" width="105.45" height="32.38" rx="3.76" ry="3.76" transform="translate(298.52 628.22) rotate(-180)"/><line class="cls-13" x1="127.66" y1="215.48" x2="127.16" y2="215.48"/><path class="cls-15" d="M269.4,385.23H175a5.09,5.09,0,0,0-5.3,4.85v17.71a5.09,5.09,0,0,0,5.3,4.85l94.95.1" transform="translate(-143.24 -169.75)"/><line class="cls-13" x1="127.21" y1="242.99" x2="127.71" y2="242.99"/><line class="cls-13" x1="128.87" y1="216.42" x2="128.37" y2="216.42"/><path class="cls-16" d="M270.6,386.18H175a4.1,4.1,0,0,0-4.26,3.9v17.71a4.1,4.1,0,0,0,4.26,3.9l96.07-.08" transform="translate(-143.24 -169.75)"/><line class="cls-13" x1="128.33" y1="241.86" x2="128.83" y2="241.86"/><path class="cls-4" d="M369.09,187.39s-43.05,28.8-27.69,77S463.71,291.72,461,252.59,450.8,196,442.43,192.29s-33.55-22.86-63.3-10.86S369.09,187.39,369.09,187.39Z" transform="translate(-143.24 -169.75)"/><g id="_编组_3" data-name="&lt;编组&gt;"><path id="_路径_15" data-name="&lt;路径&gt;" class="cls-5" d="M397.29,253h-.51l-6.2-.07h-.39c-.35,0-.44.08-.45.38q0,.88,0,1.75c0,.28.09.35.4.38h.34l12.55.15c.8,0,.8,0,.81-.68,0-.5,0-1,0-1.5,0-.35-.14-.51-.48-.65-2.15-.87-4.3-1.76-6.45-2.65a1,1,0,0,1-.4-.26H397l6.05.07h.39c.25,0,.4-.12.41-.34q0-.92,0-1.84c0-.21-.13-.32-.36-.34a3.71,3.71,0,0,0-.39,0l-12.6-.15h-.25c-.4,0-.5.09-.51.43,0,.56,0,1.11-.06,1.67,0,.33.12.51.47.65,2.21.89,4.42,1.81,6.62,2.72l.46.21Z" transform="translate(-143.24 -169.75)"/><path id="_复合路径_3" data-name="&lt;复合路径&gt;" class="cls-5" d="M403.62,217.24c.48,0,.79.26.77.69,0,1,0,2-.06,3a3.37,3.37,0,0,1-.17.92,4.62,4.62,0,0,1-4.53,3c-1.58,0-3.15,0-4.73-.06a5.69,5.69,0,0,1-1-.11,4.17,4.17,0,0,1-3.62-3.7c0-1.08,0-2.17,0-3.25a.75.75,0,0,1,0-.17.54.54,0,0,1,.53-.43c.13,0,.26,0,.39,0l6.11.07C399.42,217.2,401.52,217.24,403.62,217.24Zm-10.5,3.55a1.64,1.64,0,0,0,1.63,1.41c.9,0,1.8,0,2.71.05s1.54,0,2.31,0a1.66,1.66,0,0,0,1.54-1,.72.72,0,0,0,.08-.24c0-.41.06-.82.08-1.22-.39-.12-7.72-.23-8.34-.13C393.12,220.09,393.09,220.44,393.12,220.8Z" transform="translate(-143.24 -169.75)"/><path id="_路径_16" data-name="&lt;路径&gt;" class="cls-5" d="M397.86,202.92c.17,0,.34,0,.51,0l5.46.06h.34c.28,0,.41-.09.42-.32,0-.67,0-1.34,0-2,0-.23-.16-.33-.4-.35h-.39l-12.5-.15c-.77,0-.8,0-.81.69,0,.48,0,1,0,1.45s.05.54.61.55l5.12.06c.16,0,.36-.06.52.16l-.45.23c-1.75.81-3.5,1.63-5.26,2.42a.84.84,0,0,0-.62.87c0,.53,0,1.06,0,1.58a1.92,1.92,0,0,0,0,.26c0,.28.16.35.46.24l.31-.14c1.84-.85,3.68-1.69,5.51-2.55a1,1,0,0,1,1,0c2,1,3.93,2.06,5.89,3.09l.34.18c.42.2.56.13.57-.29,0-.6,0-1.2,0-1.8a.8.8,0,0,0-.53-.83c-1.93-1-3.85-2-5.78-3l-.44-.25Z" transform="translate(-143.24 -169.75)"/><path id="_路径_17" data-name="&lt;路径&gt;" class="cls-5" d="M398.74,261.95c0-.22,0-.39,0-.56,0-.42-.22-.6-.69-.62h-1.18c-.42,0-.65.19-.66.55q0,1.35,0,2.69c0,.34.22.51.61.55h.34l6.3.07h.34c.21,0,.35-.1.35-.29,0-.46,0-.91,0-1.37,0-.2,0-.2-.47-.38a9.14,9.14,0,0,0,.39-.95c.6-2-.77-4.07-3.11-4.61a5.17,5.17,0,0,0-1.07-.14c-2,0-4.07-.07-6.1-.07a4.39,4.39,0,0,0-4.26,2.7c-.75,2.12.8,4.39,3.31,4.82.48.08.82-.12.84-.55s0-.94,0-1.41a.6.6,0,0,0-.49-.58,1.26,1.26,0,0,1-.94-1,1.33,1.33,0,0,1,1.41-1.52c.33,0,.66,0,1,0,1.66,0,3.31,0,5,.07a2.56,2.56,0,0,1,.85.16,1.18,1.18,0,0,1,.82,1.21,1.3,1.3,0,0,1-1,1.13A4.36,4.36,0,0,1,398.74,261.95Z" transform="translate(-143.24 -169.75)"/><path id="_路径_18" data-name="&lt;路径&gt;" class="cls-5" d="M404.78,229.53a4,4,0,0,0-2.3-3.41c-.49-.26-.76-.22-1.09.18s-.57.69-.85,1-.23.59.11.91a4.79,4.79,0,0,1,.87,1,1.19,1.19,0,0,1-1,1.7,1.16,1.16,0,0,1-1.18-.34,5.18,5.18,0,0,1-.57-.79c-.25-.43-.46-.88-.69-1.32s-.38-.73-.61-1.07a4,4,0,0,0-4.58-1.56,4,4,0,0,0-3.27,4,4.32,4.32,0,0,0,2.36,3.43.65.65,0,0,0,.93-.18q.44-.57.84-1.16c.22-.32.17-.47-.12-.76a6.21,6.21,0,0,1-.85-1,1.1,1.1,0,0,1,.45-1.52,1.19,1.19,0,0,1,1.64.21,4.5,4.5,0,0,1,.53,1,9,9,0,0,0,1.29,2.2,4.74,4.74,0,0,0,7.49-.43A3.87,3.87,0,0,0,404.78,229.53Z" transform="translate(-143.24 -169.75)"/><path id="_路径_19" data-name="&lt;路径&gt;" class="cls-5" d="M391.38,242c0-.29,0-.56,0-.83s-.06-.4-.44-.41h-.59c-.39,0-.45,0-.46.4q0,2.23-.07,4.45c0,.35.06.4.45.41,1.19,0,1,0,1-.84,0-.13,0-.25,0-.4l11.13.13c0,.31,0,.59,0,.87s.07.37.43.39.49,0,.74,0,.31-.09.31-.26,0-.17,0-.26q0-2.1.07-4.19c0-.1,0-.2,0-.3s-.11-.23-.28-.24h-.84c-.25,0-.36.11-.36.31s0,.6,0,.89C402.16,242.17,392.15,242.08,391.38,242Z" transform="translate(-143.24 -169.75)"/><path id="_路径_20" data-name="&lt;路径&gt;" class="cls-5" d="M391.85,211.66c0-.31,0-.58,0-.85s-.07-.4-.46-.41c-1.13,0-1-.09-1,.84q0,1.88-.06,3.77,0,.17,0,.34c0,.18.09.3.32.3h.84c.23,0,.32-.11.33-.29s0-.34,0-.51,0-.28,0-.44l11.1.13c0,.26,0,.53,0,.79,0,.43,0,.46.53.47H404c.36,0,.4,0,.42-.34s0-.57,0-.86c0-1.18,0-2.37.05-3.55,0-.48,0-.5-.58-.51h-.54c-.24,0-.36.11-.36.32s0,.31,0,.47,0,.28,0,.46Z" transform="translate(-143.24 -169.75)"/><path id="_路径_21" data-name="&lt;路径&gt;" class="cls-5" d="M396.32,240c.43-.37.81-.65,1.13-1a.85.85,0,0,1,.87-.22c.48.09,1,.16,1.54.26-.19-.33-.34-.58-.48-.84s-.39-.54-.39-.81.27-.5.42-.76l.49-.81-1.28.16-.24,0a.87.87,0,0,1-.93-.28,12.45,12.45,0,0,0-1-.9c-.06.25-.12.48-.16.72a6.41,6.41,0,0,0-.12.76c0,.19-.12.28-.3.35l-1.64.68,1.1.5c.79.35.79.34.88,1.1C396.21,239.27,396.26,239.59,396.32,240Z" transform="translate(-143.24 -169.75)"/></g><path class="cls-6" d="M426.78,447.93c-6.77-21.35-.26-91.23,3.81-127.93-6.9,5.13-15.49,8-26.18,7.21C387.57,326,375.59,320.88,367,314c4.24,40.67,8.63,121.13,8.63,132.62,0,11.8-22.55,24.54-32.21,33.36.36,1.16.75,2.29,1.13,3.41.91-.55,1.91-1.14,3.12-1.81,7.19-4,51.13-1.32,73.49-.66,17.42.51,25.63,2.25,33.7,5.79.3-.64.57-1.31.87-2C444.24,480.37,434.11,471.05,426.78,447.93Z" transform="translate(-143.24 -169.75)"/><path class="cls-7" d="M473.73,357.69,455.37,487c-7.83,8.59-10.14,12.51-24,5.63-13.14-6.51-36.17-13-56.59-3.39-16,7.51-23.6,5.61-28.81-.47a110.35,110.35,0,0,1-4.88-12.42c-4.1-12.58-7.1-35.5-8.63-45.8C331.15,475.15,342,535.9,386,543.06c65.15,10.6,89-60.42,91.75-103.07C480,406.1,476.85,387.44,473.73,357.69Z" transform="translate(-143.24 -169.75)"/><path class="cls-8" d="M459.54,364.14c-2.77-30.32-5.6-56.93-5.6-62.66,0-12.53,6.66-52.11,6.66-52.11-6.39,4.84-26.1,18.91-59.65,19.35-27.94.37-49.2-4.7-58.62-9-1-.44-2.7,2.11-2.2,3,3.46,6.1,8.13,17.59,7.57,42.75-.29,12.95,2.37,34,5.54,56.21,5.54,38.91,12.62,81.41,8,90.23-3.86,7.44-20.64,10.88-19.14,17.81,1,4.79-5.25,12.48,8.75,18.47,28.91,12.36,20.34,2.64,61.88-5.28,23.37-4.45,39.41,9.67,43,1.86,3.15-6.89,5.57-12.38,7-26.52C464.45,440.65,462.84,400.23,459.54,364.14Z" transform="translate(-143.24 -169.75)"/><path class="cls-8" d="M454.88,486.7h0c-8.06-3.53-16.28-5.27-33.69-5.78-22.37-.66-66.3-3.3-73.49.66-1.21.67-4.48,1.93-4.48,1.93h0a84.59,84.59,0,0,0,5,11.17c4.3,7.11,10.53,11,26.52,3,20.42-10.21,36.79-3.32,49.94,3.61,13.88,7.32,20.56,4.32,26.78-6C456.26,487.38,454.88,486.7,454.88,486.7Z" transform="translate(-143.24 -169.75)"/><path class="cls-9" d="M429.82,519.57s-31.81,25.16-64,0" transform="translate(-143.24 -169.75)"/><path class="cls-6" d="M410.57,172.94c-1.21-.13-2.27-.13-3.44-.23a85.5,85.5,0,0,0-22.56.83v8.94a46.1,46.1,0,0,1,30.56,1.65V173.59C413.65,173.35,412.15,173.12,410.57,172.94Z" transform="translate(-143.24 -169.75)"/><path class="cls-17" d="M457.93,252" transform="translate(-143.24 -169.75)"/><path class="cls-1" d="M446.33,271.57l1.08,3q-1.14,1.8-2.31,3.51Z" transform="translate(-143.24 -169.75)"/><path class="cls-8" d="M454.88,486.7c.37-.81.27-.6.08-.19l-.08.19Z" transform="translate(-143.24 -169.75)"/><path class="cls-8" d="M454.81,486.84l.07-.14h0Z" transform="translate(-143.24 -169.75)"/><path class="cls-8" d="M455,486.51l-.09.18h0Z" transform="translate(-143.24 -169.75)"/><polyline class="cls-11" points="285.79 292.14 304.85 284.17 321.21 287.88"/><polyline class="cls-11" points="283.97 289.15 305.45 280.46 322.21 284.55"/><polyline class="cls-11" points="233.13 286.11 214.2 279.8 193.87 291.33"/><polyline class="cls-11" points="231.41 288.82 215.12 283.26 194.62 295.52"/><path class="cls-6" d="M344.1,260.11c-.06-.56.11.95,0,0Z" transform="translate(-143.24 -169.75)"/><line class="cls-11" x1="245.72" y1="3.13" x2="245.72" y2="11.68"/><line class="cls-11" x1="267.91" y1="3.26" x2="267.91" y2="12.97"/><g id="_编组_4" data-name="&lt;编组&gt;"><path id="_路径_22" data-name="&lt;路径&gt;" class="cls-12" d="M428.22,293.42c0-.17,0-.34,0-.52q0-3.11,0-6.22c0-.13,0-.26,0-.39,0-.35.11-.44.5-.44q1.13,0,2.26,0c.36,0,.45.1.48.41,0,.11,0,.23,0,.35q0,6.29-.07,12.59c0,.8,0,.8-.89.8-.64,0-1.29,0-1.93,0a.77.77,0,0,1-.83-.5c-1.08-2.18-2.18-4.35-3.27-6.52a1,1,0,0,0-.33-.4c0,.17,0,.34,0,.51q0,3,0,6.07c0,.13,0,.26,0,.39a.4.4,0,0,1-.45.4l-2.37,0a.39.39,0,0,1-.43-.36,3,3,0,0,1,0-.39q0-6.32.07-12.63c0-.08,0-.16,0-.25,0-.4.12-.5.56-.5.71,0,1.43,0,2.15,0a.78.78,0,0,1,.83.49c1.11,2.24,2.24,4.47,3.36,6.7.08.16.17.31.25.47Z" transform="translate(-143.24 -169.75)"/><path id="_复合路径_4" data-name="&lt;复合路径&gt;" class="cls-12" d="M382.11,292.59q0-3.06,0-6.12a3.16,3.16,0,0,1,0-.39.6.6,0,0,1,.56-.52l.22,0c1.4,0,2.79,0,4.18.06a5,5,0,0,1,4.69,3.72,4.51,4.51,0,0,1,.12,1c0,1.58,0,3.16,0,4.74a4.79,4.79,0,0,1-3.91,4.47,5.43,5.43,0,0,1-1.19.15c-1.28,0-2.57,0-3.86,0a.76.76,0,0,1-.87-.78C382.1,296.8,382.1,294.7,382.11,292.59Zm3.35-4.14a83.27,83.27,0,0,0,0,8.36l1.57-.05a1.1,1.1,0,0,0,.31-.08,1.69,1.69,0,0,0,1.27-1.52c0-.77,0-1.55,0-2.32s0-1.81,0-2.71a1.85,1.85,0,0,0-1.78-1.66C386.4,288.43,385.94,288.45,385.46,288.45Z" transform="translate(-143.24 -169.75)"/><path id="_路径_23" data-name="&lt;路径&gt;" class="cls-12" d="M363.76,292.8c0,.17,0,.34,0,.51q0,2.74,0,5.48c0,.12,0,.23,0,.35,0,.28-.13.41-.43.41-.86,0-1.73,0-2.59,0a.4.4,0,0,1-.44-.41c0-.13,0-.26,0-.39q0-6.27.07-12.53c0-.78,0-.8.9-.8h1.87c.63,0,.7.07.69.62,0,1.71,0,3.42,0,5.13,0,.17-.09.36.19.52.11-.15.22-.29.31-.44,1.08-1.74,2.17-3.47,3.22-5.21a1.11,1.11,0,0,1,1.13-.6c.68,0,1.36,0,2,0H371c.36,0,.45.17.3.46-.05.1-.12.2-.18.3-1.13,1.82-2.25,3.65-3.4,5.46a.85.85,0,0,0,0,1c1.3,2,2.57,4,3.86,6l.22.34c.25.42.16.56-.39.56-.77,0-1.54,0-2.31,0a1.07,1.07,0,0,1-1.05-.55c-1.24-2-2.5-3.91-3.76-5.86-.1-.15-.21-.3-.31-.44Z" transform="translate(-143.24 -169.75)"/><path id="_路径_24" data-name="&lt;路径&gt;" class="cls-12" d="M439.68,295.09H439c-.54,0-.77-.24-.78-.7s0-.79,0-1.18.25-.64.72-.64q1.73,0,3.47,0a.63.63,0,0,1,.7.62,3.05,3.05,0,0,1,0,.34q0,3.16,0,6.32c0,.11,0,.23,0,.35a.34.34,0,0,1-.38.34c-.59,0-1.17,0-1.76,0-.25,0-.25,0-.48-.48-.41.13-.81.29-1.23.37a4.92,4.92,0,0,1-5.87-3.23,4.09,4.09,0,0,1-.16-1.07c0-2,0-4.08,0-6.12a4.51,4.51,0,0,1,3.56-4.21c2.75-.71,5.63.91,6.14,3.43.1.49-.17.81-.72.83s-1.21,0-1.82,0a.74.74,0,0,1-.73-.5,1.5,1.5,0,0,0-1.21-1,1.61,1.61,0,0,0-2,1.38c0,.33,0,.66,0,1,0,1.66,0,3.32,0,5a2.08,2.08,0,0,0,.19.86,1.68,1.68,0,0,0,3-.16A3.42,3.42,0,0,0,439.68,295.09Z" transform="translate(-143.24 -169.75)"/><path id="_路径_25" data-name="&lt;路径&gt;" class="cls-12" d="M397.85,300.36a5.29,5.29,0,0,1-4.34-2.39c-.33-.5-.26-.76.25-1.09l1.37-.83a.85.85,0,0,1,1.16.13,5.92,5.92,0,0,0,1.23.89,1.6,1.6,0,0,0,2.21-.93,1,1,0,0,0-.41-1.2,6.9,6.9,0,0,0-1-.59c-.55-.26-1.13-.48-1.69-.73s-.93-.4-1.37-.63a3.55,3.55,0,0,1-1.92-4.63,5,5,0,0,1,5.16-3.18,5.74,5.74,0,0,1,4.37,2.45c.26.35.16.69-.25.92s-1,.56-1.5.82a.74.74,0,0,1-1-.14,7.77,7.77,0,0,0-1.25-.88,1.65,1.65,0,0,0-2,.41,1,1,0,0,0,.24,1.65,6.44,6.44,0,0,0,1.28.56,12.67,12.67,0,0,1,2.8,1.35c3.23,2.12,2.34,6.09-.7,7.5A6.07,6.07,0,0,1,397.85,300.36Z" transform="translate(-143.24 -169.75)"/><path id="_路径_26" data-name="&lt;路径&gt;" class="cls-12" d="M414.14,287.23h-1.06c-.46,0-.51-.06-.52-.45,0-.2,0-.4,0-.59,0-.39.07-.45.52-.45l5.73,0c.45,0,.51.07.52.46,0,1.2,0,1-1.1,1l-.52,0c0,3.72,0,7.41-.06,11.16h1.12c.41,0,.48.08.49.44s0,.49,0,.74-.12.3-.35.31h-.33l-5.4,0h-.39c-.2,0-.3-.11-.3-.29s0-.56,0-.84.15-.36.41-.36H414C414.16,298,414.25,288,414.14,287.23Z" transform="translate(-143.24 -169.75)"/><path id="_路径_27" data-name="&lt;路径&gt;" class="cls-12" d="M375.13,287H374c-.43,0-.51-.07-.51-.47,0-1.14-.1-1,1.1-1l4.85,0h.44c.24,0,.38.1.38.33s0,.56,0,.84-.15.32-.39.33h-.66l-.57,0c0,3.71,0,7.39-.06,11.13l1,0c.56,0,.59,0,.6.54,0,.18,0,.36,0,.54,0,.36-.06.4-.45.41s-.73,0-1.1,0l-4.57,0c-.62,0-.64,0-.65-.59,0-.18,0-.36,0-.54s.15-.36.42-.36h1.19C375.09,294.44,375.11,290.74,375.13,287Z" transform="translate(-143.24 -169.75)"/><path id="_路径_28" data-name="&lt;路径&gt;" class="cls-12" d="M411.48,292.13c-.48.42-.86.8-1.29,1.11a.73.73,0,0,0-.31.86c.11.48.19,1,.3,1.55l-1.07-.5a3,3,0,0,0-1-.41,2.72,2.72,0,0,0-1,.41l-1.06.48.24-1.28a1.86,1.86,0,0,1,.06-.24.76.76,0,0,0-.34-.94,13.74,13.74,0,0,1-1.14-1.07l.94-.15c.33,0,.65-.09,1-.11a.48.48,0,0,0,.45-.29c.28-.51.57-1,.91-1.62.24.43.43.77.62,1.11.43.8.43.8,1.4.91Z" transform="translate(-143.24 -169.75)"/></g><path class="cls-6" d="M473,338.93c-2.68-36.07-3.2-32.46-5.56-64.69-3-41.22.46-91.66-52.27-99.88v9.83a65,65,0,0,1,15.81,8.69c12.62,10,20.36,26,24.36,41.92,8,31.85-19.16,51.57-26.17,62.5-3.22,5-5.61,11.13-6.82,22.13-4.07,36.91-8,105.56-1.21,127,7.34,23.26,22.91,35.3,34.42,39.7C475.31,441.94,474.82,373.14,473,338.93Z" transform="translate(-143.24 -169.75)"/><path class="cls-6" d="M383.7,174.46l-1.37.27c-24.06,5.08-35.21,21.56-40,35.91A127.4,127.4,0,0,0,337.43,261c5.11,47.28,6.89,57.95-4.35,148.23-.09.72-.2,1.45-.31,2.17-1.81,21.37,1.22,41.51,10.16,71.25.09.28.18.55.27.83,9.66-9,36.09-23.19,36.09-35.2,0-14.1,2.64-125.25-2.15-149.43C375,288,354.86,278,348,270.12a28.63,28.63,0,0,1-3.87-10c.11.95-.06-.56,0,0A152.81,152.81,0,0,1,342.55,238s.69-31.46,23.74-46.84a61.92,61.92,0,0,1,18.29-8.51v-8.29Z" transform="translate(-143.24 -169.75)"/><path class="cls-11" d="M341.85,259.07c.21,1.15,1.35,8.5,4.38,12.32,5.83,7.35,26.26,19.21,28.22,29,4.66,23.09,1.68,131.82,1.2,146.26-.32,9.51-14,17.84-23.43,24.94-1.93,1.46-8.6,6.21-10.33,7.58" transform="translate(-143.24 -169.75)"/><path class="cls-11" d="M341.85,265.26c1,10.27,28.25,26.44,29.92,35,4.46,23,.68,133.05.68,147.45,0,5.55-14.1,15.61-22,21.56-.39.29-9.19,6-9.57,6.32" transform="translate(-143.24 -169.75)"/><path class="cls-11" d="M456.41,481.85c-7.76-3.8-26.66-17.21-32.73-38.91-5-17.91-4-95.7,5.35-140,1-4.74,11.46-12.29,15.28-17.63,8.63-12,18.61-30.1,12.9-52.71" transform="translate(-143.24 -169.75)"/><path class="cls-11" d="M457.24,478.66C449.44,475,432.6,462,426.94,444.19c-5.95-18.75-6.65-78.9,5.47-140,1.19-6,11.22-13.14,14.64-17.92s16.76-23.95,13.35-43.83" transform="translate(-143.24 -169.75)"/><rect class="cls-8" x="202.57" y="138.11" width="5" height="32.38" rx="1.37" ry="1.37"/><path class="cls-5" d="M348.31,339.26a1.44,1.44,0,0,1-1.47-1.4V310.25a1.47,1.47,0,0,1,2.94,0v27.62A1.44,1.44,0,0,1,348.31,339.26Z" transform="translate(-143.24 -169.75)"/><rect class="cls-8" x="202.57" y="215.36" width="5" height="32.38" rx="1.37" ry="1.37"/><path class="cls-11" d="M446.26,276.32s17.49,166.49-7.36,196.55" transform="translate(-143.24 -169.75)"/><path class="cls-11" d="M448.12,273.88s21.52,156.18-6.18,201.94" transform="translate(-143.24 -169.75)"/><path class="cls-11" d="M352,274.23s-7.42,167.86,9.75,194.64" transform="translate(-143.24 -169.75)"/><path class="cls-11" d="M354.58,276.34s-5.66,162.06,9.3,190.1" transform="translate(-143.24 -169.75)"/><rect class="cls-8" x="205.07" y="137.67" width="105.45" height="32.82" rx="3.76" ry="3.76"/><path class="cls-11" d="M350.38,310.58l96.54.1a4.67,4.67,0,0,1,4.78,4.54v17.22a4.67,4.67,0,0,1-4.78,4.54H350.81" transform="translate(-143.24 -169.75)"/><line class="cls-13" x1="206.13" y1="165.43" x2="206.63" y2="165.43"/><path class="cls-14" d="M350.88,335.18l96-.1a2.58,2.58,0,0,0,2.72-2.4V315a2.58,2.58,0,0,0-2.72-2.4H350.37" transform="translate(-143.24 -169.75)"/><line class="cls-13" x1="206.63" y1="142.83" x2="206.13" y2="142.83"/><path class="cls-5" d="M348.31,416.5a1.44,1.44,0,0,1-1.47-1.4V387.49a1.47,1.47,0,0,1,2.94,0V415.1A1.44,1.44,0,0,1,348.31,416.5Z" transform="translate(-143.24 -169.75)"/><rect class="cls-8" x="205.07" y="215.36" width="105.45" height="32.38" rx="3.76" ry="3.76"/><line class="cls-13" x1="207.78" y1="217.79" x2="208.28" y2="217.79"/><path class="cls-15" d="M352.51,387.54h94.41a5.09,5.09,0,0,1,5.3,4.85V410.1a5.09,5.09,0,0,1-5.3,4.85L352,415" transform="translate(-143.24 -169.75)"/><line class="cls-13" x1="208.23" y1="245.3" x2="207.73" y2="245.3"/><line class="cls-13" x1="206.57" y1="218.74" x2="207.07" y2="218.74"/><path class="cls-16" d="M351.32,388.49h95.6a4.1,4.1,0,0,1,4.26,3.9V410.1a4.1,4.1,0,0,1-4.26,3.9l-96.07-.08" transform="translate(-143.24 -169.75)"/><line class="cls-13" x1="207.11" y1="244.17" x2="206.61" y2="244.17"/></svg>