<?xml version="1.0" encoding="utf-8"?>
<!-- Generator: Adobe Illustrator 18.1.1, SVG Export Plug-In . SVG Version: 6.00 Build 0)  -->
<svg version="1.1" id="layout_1" xmlns="http://www.w3.org/2000/svg" xmlns:xlink="http://www.w3.org/1999/xlink" x="0px" y="0px"
	 viewBox="0 0 202.8 230.1" enable-background="new 0 0 202.8 230.1" style="max-height: 245px;" xml:space="preserve">
<path fill="#FFFFFF" d="M172.8,9.6c0,0,26.6,17.8,17.1,47.6c-9.5,29.8-75.7,16.9-74-7.3c1.6-24.2,6.3-34.9,11.5-37.3
	c5.2-2.3,20.8-14.1,39.2-6.7C185,13.3,172.8,9.6,172.8,9.6"/>
<path fill="#FFFFFF" d="M170.3,170.5c-4.2-13.2-0.2-56.4,2.4-79c-4.3,3.2-9.6,4.9-16.2,4.5c-10.4-0.7-17.8-3.9-23.1-8.2
	c2.6,25.1,5.3,74.8,5.3,81.9c0,7.3-14,15.2-19.9,20.6c0.2,0.7,0.5,1.4,0.7,2.1c0.6-0.3,1.2-0.7,1.9-1.1c4.4-2.4,31.6-0.8,45.5-0.4
	c10.8,0.3,15.9,1.4,20.9,3.6c0.2-0.4,0.4-0.8,0.5-1.2C181.1,190.6,174.9,184.8,170.3,170.5"/>
<path fill="none" stroke="#060606" stroke-width="0.58" d="M170.3,170.5c-4.2-13.2-0.2-56.4,2.4-79c-4.3,3.2-9.6,4.9-16.2,4.5
	c-10.4-0.7-17.8-3.9-23.1-8.2c2.6,25.1,5.3,74.8,5.3,81.9c0,7.3-14,15.2-19.9,20.6c0.2,0.7,0.5,1.4,0.7,2.1c0.6-0.3,1.2-0.7,1.9-1.1
	c4.4-2.4,31.6-0.8,45.5-0.4c10.8,0.3,15.9,1.4,20.9,3.6c0.2-0.4,0.4-0.8,0.5-1.2C181.1,190.6,174.9,184.8,170.3,170.5z"/>
<path fill="#FFFFFF" d="M200.8,114.8l-11.1,79.9c-4.8,5.3-8,7.7-16.6,3.5c-8.1-4-22.4-8-35-2.1c-9.9,4.6-16.7,3.5-20-0.3
	c-1.1-2.4-2.1-5-3-7.7c-2.5-7.8-2.8-21.2-3.8-27.6c-0.8,27.5,6.5,64.4,33.7,68.8c40.3,6.6,55.1-37.3,56.8-63.7
	C203.2,144.7,202.7,133.2,200.8,114.8"/>
<path fill="none" stroke="#060606" stroke-width="0.339" d="M200.8,114.8l-11.1,79.9c-4.8,5.3-8,7.7-16.6,3.5c-8.1-4-22.4-8-35-2.1
	c-9.9,4.6-16.7,3.5-20-0.3c-1.1-2.4-2.1-5-3-7.7c-2.5-7.8-2.8-21.2-3.8-27.6c-0.8,27.5,6.5,64.4,33.7,68.8
	c40.3,6.6,55.1-37.3,56.8-63.7C203.2,144.7,202.7,133.2,200.8,114.8z"/>
<path fill="#FFFFFF" d="M190.6,118.8c-1.7-18.7-3.5-35.2-3.5-38.7c0-7.7,4.1-32.2,4.1-32.2c-4,3-16.1,11.7-36.9,12
	c-17.3,0.2-30.4-2.9-36.3-5.6c-0.6-0.3-1.7,1.3-1.4,1.8c2.1,3.8,5,10.9,4.7,26.4c-0.2,8,1.5,21,3.4,34.7c3.4,24,7.8,50.3,5,55.7
	c-2.4,4.6-12.8,6.7-11.8,11c0.6,3-3.2,7.7,5.4,11.4c17.9,7.6,12.6,1.6,38.3-3.3c14.5-2.8,25.5,6.9,26.9,1.8c1.1-3.9,4.1-7.8,5-16.5
	C194.6,166.6,192.6,141.1,190.6,118.8"/>
<path fill="none" stroke="#060606" stroke-width="0.339" d="M190.6,118.8c-1.7-18.7-3.5-35.2-3.5-38.7c0-7.7,4.1-32.2,4.1-32.2
	c-4,3-16.1,11.7-36.9,12c-17.3,0.2-30.4-2.9-36.3-5.6c-0.6-0.3-1.7,1.3-1.4,1.8c2.1,3.8,5,10.9,4.7,26.4c-0.2,8,1.5,21,3.4,34.7
	c3.4,24,7.8,50.3,5,55.7c-2.4,4.6-12.8,6.7-11.8,11c0.6,3-3.2,7.7,5.4,11.4c17.9,7.6,12.6,1.6,38.3-3.3c14.5-2.8,25.5,6.9,26.9,1.8
	c1.1-3.9,4.1-7.8,5-16.5C194.6,166.6,192.6,141.1,190.6,118.8z"/>
<path fill="#060606" d="M171.2,75.1c0-0.1,0-0.2,0-0.3c0-1.3,0-2.6,0-3.8c0-0.1,0-0.2,0-0.2c0-0.2,0.1-0.3,0.3-0.3
	c0.5,0,0.9,0,1.4,0c0.2,0,0.3,0.1,0.3,0.3c0,0.1,0,0.1,0,0.2c0,2.6,0,5.2,0,7.8c0,0.5,0,0.5-0.5,0.5c-0.4,0-0.8,0-1.2,0
	c-0.3,0-0.4-0.1-0.5-0.3c-0.7-1.3-1.3-2.7-2-4c0-0.1-0.1-0.2-0.2-0.2c0,0.1,0,0.2,0,0.3c0,1.3,0,2.5,0,3.8c0,0.1,0,0.2,0,0.2
	c0,0.2-0.1,0.2-0.3,0.2c-0.5,0-1,0-1.5,0c-0.2,0-0.2-0.1-0.3-0.2c0-0.1,0-0.2,0-0.2c0-2.6,0-5.2,0-7.8c0-0.1,0-0.1,0-0.2
	c0-0.2,0.1-0.3,0.3-0.3c0.4,0,0.9,0,1.3,0c0.3,0,0.4,0.1,0.5,0.3c0.7,1.4,1.4,2.8,2.1,4.1C171,74.9,171.1,75,171.2,75.1L171.2,75.1z
	"/>
<path fill="#060606" d="M142.7,74.6c0-1.3,0-2.5,0-3.8c0-0.1,0-0.2,0-0.2c0-0.2,0.1-0.3,0.3-0.3c0,0,0.1,0,0.1,0c0.9,0,1.7,0,2.6,0
	c1.1,0,2.5,0.8,2.9,2.3c0,0.2,0.1,0.4,0.1,0.6c0,1,0,2,0,2.9c0,1.3-1,2.4-2.4,2.8c-0.2,0.1-0.5,0.1-0.7,0.1c-0.8,0-1.6,0-2.4,0
	c-0.3,0-0.5-0.2-0.5-0.5C142.7,77.2,142.7,75.9,142.7,74.6 M144.8,72c-0.1,0.4-0.1,4.9,0,5.2c0.3,0,0.6,0,1,0c0.1,0,0.1,0,0.2,0
	c0.5-0.2,0.8-0.5,0.8-0.9c0-0.5,0-1,0-1.4c0-0.6,0-1.1,0-1.7c0-0.5-0.5-1-1.1-1C145.3,72,145.1,72,144.8,72"/>
<path fill="#060606" d="M131.3,74.7c0,0.1,0,0.2,0,0.3c0,1.1,0,2.3,0,3.4c0,0.1,0,0.1,0,0.2c0,0.2-0.1,0.3-0.3,0.3
	c-0.5,0-1.1,0-1.6,0c-0.2,0-0.3-0.1-0.3-0.3c0-0.1,0-0.2,0-0.2c0-2.6,0-5.2,0-7.7c0-0.5,0-0.5,0.6-0.5c0.4,0,0.8,0,1.2,0
	c0.4,0,0.4,0,0.4,0.4c0,1.1,0,2.1,0,3.2c0,0.1-0.1,0.2,0.1,0.3c0.1-0.1,0.1-0.2,0.2-0.3c0.7-1.1,1.3-2.1,2-3.2
	c0.2-0.3,0.4-0.4,0.7-0.4c0.4,0,0.8,0,1.3,0c0.1,0,0.1,0,0.2,0c0.2,0,0.3,0.1,0.2,0.3c0,0.1-0.1,0.1-0.1,0.2
	c-0.7,1.1-1.4,2.3-2.1,3.4c-0.1,0.2-0.1,0.4,0,0.6c0.8,1.2,1.6,2.5,2.4,3.7c0,0.1,0.1,0.1,0.1,0.2c0.2,0.3,0.1,0.3-0.2,0.3
	c-0.5,0-1,0-1.4,0c-0.3,0-0.5-0.1-0.7-0.3c-0.8-1.2-1.5-2.4-2.3-3.6c-0.1-0.1-0.1-0.2-0.2-0.3C131.4,74.7,131.4,74.7,131.3,74.7"/>
<path fill="#060606" d="M178.3,76.1c-0.2,0-0.3,0-0.4,0c-0.3,0-0.5-0.1-0.5-0.4c0-0.2,0-0.5,0-0.7c0-0.3,0.2-0.4,0.4-0.4
	c0.7,0,1.4,0,2.1,0c0.3,0,0.4,0.1,0.4,0.4c0,0.1,0,0.1,0,0.2c0,1.3,0,2.6,0,3.9c0,0.1,0,0.1,0,0.2c0,0.1-0.1,0.2-0.2,0.2
	c-0.4,0-0.7,0-1.1,0c-0.2,0-0.2,0-0.3-0.3c-0.3,0.1-0.5,0.2-0.8,0.2c-1.6,0.3-3.2-0.5-3.6-2c-0.1-0.2-0.1-0.4-0.1-0.7
	c0-1.3,0-2.5,0-3.8c0-1.2,0.9-2.3,2.2-2.6c1.7-0.4,3.5,0.6,3.8,2.1c0.1,0.3-0.1,0.5-0.4,0.5c-0.4,0-0.8,0-1.1,0
	c-0.2,0-0.4-0.1-0.5-0.3c-0.1-0.3-0.4-0.5-0.8-0.6c-0.6-0.1-1.2,0.3-1.2,0.9c0,0.2,0,0.4,0,0.6c0,1,0,2.1,0,3.1c0,0.2,0,0.4,0.1,0.5
	c0.2,0.4,0.6,0.6,1,0.5c0.4,0,0.8-0.2,0.9-0.6C178.4,76.8,178.3,76.5,178.3,76.1"/>
<path fill="#060606" d="M152.4,79.4c-1.1,0-2-0.5-2.7-1.5c-0.2-0.3-0.2-0.5,0.2-0.7c0.3-0.2,0.6-0.3,0.8-0.5
	c0.3-0.2,0.5-0.1,0.7,0.1c0.2,0.2,0.5,0.4,0.8,0.6c0.5,0.3,1.2,0,1.4-0.6c0.1-0.3,0-0.6-0.3-0.7c-0.2-0.1-0.4-0.3-0.6-0.4
	c-0.3-0.2-0.7-0.3-1-0.4c-0.3-0.1-0.6-0.2-0.8-0.4c-1.2-0.7-1.6-1.7-1.2-2.9c0.4-1.2,1.8-2.1,3.2-2c1.2,0.1,2.1,0.6,2.7,1.5
	c0.2,0.2,0.1,0.4-0.2,0.6c-0.3,0.2-0.6,0.3-0.9,0.5c-0.3,0.1-0.4,0.1-0.6-0.1c-0.2-0.2-0.5-0.4-0.8-0.5c-0.4-0.2-0.9-0.1-1.2,0.3
	c-0.3,0.3-0.3,0.8,0.1,1c0.2,0.1,0.5,0.3,0.8,0.3c0.6,0.2,1.2,0.5,1.7,0.8c2,1.3,1.4,3.8-0.4,4.6C153.6,79.3,153.1,79.4,152.4,79.4"
	/>
<path fill="#060606" d="M162.5,71.3c-0.2,0-0.4,0-0.7,0c-0.3,0-0.3,0-0.3-0.3c0-0.1,0-0.2,0-0.4c0-0.2,0-0.3,0.3-0.3
	c1.2,0,2.4,0,3.5,0c0.3,0,0.3,0,0.3,0.3c0,0.7,0,0.6-0.7,0.6c-0.1,0-0.2,0-0.3,0c0,2.3,0,4.6,0,6.9c0.2,0,0.5,0,0.7,0
	c0.3,0,0.3,0,0.3,0.3c0,0.2,0,0.3,0,0.5c0,0.1-0.1,0.2-0.2,0.2c-0.1,0-0.1,0-0.2,0c-1.1,0-2.2,0-3.3,0c-0.1,0-0.2,0-0.2,0
	c-0.1,0-0.2-0.1-0.2-0.2c0-0.2,0-0.3,0-0.5c0-0.2,0.1-0.2,0.3-0.2c0.2,0,0.5,0,0.7,0C162.5,77.9,162.6,71.7,162.5,71.3"/>
<path fill="#060606" d="M138.4,71.1c-0.2,0-0.5,0-0.7,0c-0.3,0-0.3,0-0.3-0.3c0-0.7-0.1-0.6,0.7-0.6c1,0,2,0,3,0c0.1,0,0.2,0,0.3,0
	c0.1,0,0.2,0.1,0.2,0.2c0,0.2,0,0.3,0,0.5c0,0.1-0.1,0.2-0.2,0.2c-0.1,0-0.3,0-0.4,0c-0.1,0-0.2,0-0.4,0c0,2.3,0,4.6,0,6.9
	c0.2,0,0.4,0,0.6,0c0.3,0,0.4,0,0.4,0.3c0,0.1,0,0.2,0,0.3c0,0.2,0,0.2-0.3,0.3c-0.2,0-0.5,0-0.7,0c-0.9,0-1.9,0-2.8,0
	c-0.4,0-0.4,0-0.4-0.4c0-0.1,0-0.2,0-0.3c0-0.1,0.1-0.2,0.3-0.2c0.1,0,0.3,0,0.4,0c0.1,0,0.2,0,0.4,0
	C138.3,75.7,138.4,73.4,138.4,71.1"/>
<path fill="#060606" d="M160.9,74.3c-0.3,0.3-0.5,0.5-0.8,0.7c-0.2,0.2-0.2,0.3-0.2,0.5c0.1,0.3,0.1,0.6,0.2,1
	c-0.3-0.1-0.5-0.2-0.7-0.3c-0.2-0.1-0.4-0.3-0.6-0.3c-0.2,0-0.4,0.2-0.6,0.3c-0.2,0.1-0.4,0.2-0.7,0.3c0.1-0.3,0.1-0.5,0.1-0.8
	c0-0.1,0-0.1,0-0.1c0.1-0.2,0-0.4-0.2-0.6c-0.2-0.2-0.5-0.4-0.7-0.7c0.2,0,0.4-0.1,0.6-0.1c0.2,0,0.4-0.1,0.6-0.1
	c0.2,0,0.2-0.1,0.3-0.2c0.2-0.3,0.4-0.6,0.6-1c0.1,0.3,0.3,0.5,0.4,0.7c0.3,0.5,0.3,0.5,0.9,0.6C160.3,74.2,160.5,74.2,160.9,74.3"
	/>
<path d="M154.2,50.1c0.1,0,0.2,0,0.3,0c1.3,0,2.6,0,3.8,0c0.1,0,0.2,0,0.2,0c0.2,0,0.3,0.1,0.3,0.2c0,0.4,0,0.7,0,1.1
	c0,0.2-0.1,0.2-0.3,0.2c-0.1,0-0.1,0-0.2,0c-2.6,0-5.2,0.1-7.8,0.1c-0.5,0-0.5,0-0.5-0.4c0-0.3,0-0.6,0-0.9c0-0.2,0.1-0.3,0.3-0.4
	c1.3-0.5,2.7-1.1,4-1.6c0.1,0,0.2-0.1,0.2-0.2c-0.1,0-0.2,0-0.3,0c-1.2,0-2.5,0-3.7,0c-0.1,0-0.2,0-0.2,0c-0.2,0-0.3-0.1-0.3-0.2
	c0-0.4,0-0.8,0-1.1c0-0.1,0.1-0.2,0.2-0.2c0.1,0,0.2,0,0.2,0c2.6,0,5.2-0.1,7.8-0.1c0,0,0.1,0,0.2,0c0.2,0,0.3,0.1,0.3,0.3
	c0,0.3,0,0.7,0,1c0,0.2-0.1,0.3-0.3,0.4c-1.4,0.6-2.7,1.1-4.1,1.7C154.4,50,154.3,50,154.2,50.1C154.2,50.1,154.2,50.1,154.2,50.1"
	/>
<path d="M154.2,28l3.8,0c0.1,0,0.2,0,0.2,0c0.2,0,0.3,0.1,0.3,0.3c0,0,0,0.1,0,0.1c0,0.7,0,1.3,0,2c0,0.8-0.7,2-2.2,2.3
	c-0.2,0-0.4,0.1-0.6,0.1c-1,0-2,0-2.9,0c-1.3,0-2.4-0.7-2.8-1.8c-0.1-0.2-0.1-0.4-0.1-0.6c0-0.6,0-1.2,0-1.9c0-0.3,0.2-0.4,0.5-0.4
	C151.6,28,152.9,28,154.2,28 M156.8,29.5c-0.4-0.1-4.9,0-5.2,0.1c0,0.2,0,0.5,0.1,0.8c0,0.1,0,0.1,0.1,0.1c0.2,0.4,0.5,0.6,1,0.6
	c0.5,0,1,0,1.4,0c0.6,0,1.1,0,1.7,0c0.5,0,1-0.4,1-0.9C156.8,30,156.8,29.8,156.8,29.5"/>
<path d="M153.9,19.2c-0.1,0-0.2,0-0.3,0c-1.1,0-2.3,0-3.4,0c-0.1,0-0.1,0-0.2,0c-0.2,0-0.3-0.1-0.3-0.2c0-0.4,0-0.8,0-1.2
	c0-0.1,0.1-0.2,0.2-0.2c0.1,0,0.2,0,0.2,0c2.6,0,5.2-0.1,7.7-0.1c0.5,0,0.5,0,0.5,0.4c0,0.3,0,0.6,0,0.9c0,0.3,0,0.3-0.4,0.3
	c-1.1,0-2.1,0-3.2,0c-0.1,0-0.2,0-0.3,0.1c0.1,0.1,0.2,0.1,0.3,0.1c1.1,0.5,2.2,1,3.3,1.5c0.3,0.1,0.4,0.3,0.4,0.5c0,0.3,0,0.7,0,1
	c0,0.1,0,0.1,0,0.2c0,0.2-0.1,0.2-0.3,0.1c-0.1,0-0.1-0.1-0.2-0.1c-1.1-0.5-2.3-1-3.4-1.6c-0.2-0.1-0.4-0.1-0.6,0
	c-1.2,0.6-2.4,1.3-3.6,1.9c-0.1,0-0.1,0.1-0.2,0.1c-0.3,0.1-0.3,0.1-0.4-0.2c0-0.4,0-0.7,0-1.1c0-0.2,0.1-0.4,0.3-0.5
	c1.2-0.6,2.4-1.2,3.6-1.9C153.7,19.4,153.8,19.3,153.9,19.2C153.9,19.2,153.9,19.2,153.9,19.2"/>
<path d="M153.3,55.6c0-0.1,0-0.2,0-0.3c0-0.3,0.1-0.4,0.4-0.4c0.2,0,0.5,0,0.7,0c0.3,0,0.4,0.1,0.4,0.3c0,0.6,0,1.1,0,1.7
	c0,0.2-0.1,0.3-0.4,0.3c-0.1,0-0.1,0-0.2,0c-1.3,0-2.6,0-3.9,0c-0.1,0-0.1,0-0.2,0c-0.1,0-0.2-0.1-0.2-0.2c0-0.3,0-0.6,0-0.8
	c0-0.1,0-0.1,0.3-0.2c-0.1-0.2-0.2-0.4-0.2-0.6c-0.4-1.3,0.5-2.5,1.9-2.8c0.2-0.1,0.4-0.1,0.7-0.1c1.3,0,2.5,0,3.8,0
	c1.2,0,2.3,0.7,2.6,1.7c0.5,1.3-0.5,2.7-2,3c-0.3,0.1-0.5-0.1-0.5-0.3c0-0.3,0-0.6,0-0.9c0-0.2,0.1-0.3,0.3-0.4
	c0.3-0.1,0.5-0.3,0.6-0.6c0.1-0.5-0.3-0.9-0.9-0.9c-0.2,0-0.4,0-0.6,0c-1,0-2.1,0-3.1,0c-0.2,0-0.4,0-0.5,0.1
	c-0.4,0.2-0.5,0.5-0.5,0.7c0,0.3,0.3,0.6,0.6,0.7C152.7,55.7,153,55.7,153.3,55.6"/>
<path d="M149.6,35.6c0-0.8,0.5-1.6,1.4-2.1c0.3-0.2,0.5-0.1,0.7,0.1c0.2,0.2,0.4,0.4,0.5,0.6c0.2,0.2,0.1,0.4-0.1,0.6
	c-0.2,0.2-0.4,0.4-0.5,0.6c-0.3,0.4,0.1,0.9,0.6,1.1c0.3,0.1,0.5,0,0.7-0.2c0.1-0.2,0.3-0.3,0.4-0.5c0.2-0.3,0.3-0.5,0.4-0.8
	c0.1-0.2,0.2-0.4,0.4-0.7c0.6-1,1.6-1.3,2.8-1c1.2,0.3,2.1,1.3,2,2.4c-0.1,0.9-0.6,1.6-1.5,2.1c-0.2,0.1-0.4,0.1-0.6-0.1
	c-0.2-0.2-0.4-0.5-0.5-0.7c-0.1-0.2-0.1-0.3,0.1-0.5c0.2-0.2,0.4-0.4,0.5-0.6c0.2-0.3,0.1-0.7-0.3-0.9c-0.3-0.2-0.8-0.2-1,0.1
	c-0.1,0.2-0.2,0.4-0.3,0.6c-0.2,0.5-0.5,0.9-0.8,1.4c-1.3,1.6-3.7,1.2-4.6-0.3C149.7,36.5,149.6,36.1,149.6,35.6"/>
<path d="M157.9,43.3c0-0.2,0-0.3,0-0.5c0-0.2,0-0.2,0.3-0.3c0.1,0,0.2,0,0.4,0c0.2,0,0.3,0,0.3,0.2c0,0.9,0,1.8,0,2.7
	c0,0.2,0,0.2-0.3,0.3c-0.7,0-0.6,0-0.6-0.5c0-0.1,0-0.2,0-0.3c-2.3,0-4.6,0.1-6.9,0.1c0,0.2,0,0.4,0,0.5c0,0.2,0,0.2-0.3,0.2
	c-0.2,0-0.3,0-0.5,0c-0.1,0-0.2-0.1-0.2-0.2c0-0.1,0-0.1,0-0.2c0-0.9,0-1.7,0-2.6c0-0.1,0-0.1,0-0.2c0-0.1,0.1-0.1,0.2-0.1
	c0.2,0,0.3,0,0.5,0c0.2,0,0.2,0.1,0.2,0.2c0,0.2,0,0.4,0,0.5C151.2,43.4,157.4,43.4,157.9,43.3"/>
<path d="M157.6,24.6c0-0.2,0-0.4,0-0.5c0-0.2,0-0.2,0.3-0.3c0.7,0,0.6-0.1,0.6,0.5c0,0.8,0,1.6,0,2.3c0,0.1,0,0.1,0,0.2
	c0,0.1-0.1,0.2-0.2,0.2c-0.2,0-0.3,0-0.5,0c-0.1,0-0.2-0.1-0.2-0.2c0-0.1,0-0.2,0-0.3c0-0.1,0-0.2,0-0.3c-2.3,0-4.6,0.1-6.9,0.1
	c0,0.2,0,0.3,0,0.5c0,0.3,0,0.3-0.3,0.3c-0.1,0-0.2,0-0.3,0c-0.2,0-0.2,0-0.3-0.2c0-0.2,0-0.4,0-0.5c0-0.7,0-1.5,0-2.2
	c0-0.3,0-0.3,0.4-0.3c0.1,0,0.2,0,0.3,0c0.1,0,0.2,0.1,0.2,0.2c0,0.1,0,0.2,0,0.3c0,0.1,0,0.2,0,0.3C153,24.6,155.3,24.6,157.6,24.6
	"/>
<path d="M154.8,42.1c-0.3-0.2-0.5-0.4-0.7-0.6c-0.2-0.2-0.3-0.2-0.5-0.1c-0.3,0.1-0.6,0.1-1,0.2c0.1-0.2,0.2-0.4,0.3-0.5
	c0.1-0.2,0.2-0.3,0.2-0.5c0-0.2-0.2-0.3-0.3-0.5c-0.1-0.2-0.2-0.3-0.3-0.5c0.3,0,0.5,0.1,0.8,0.1c0.1,0,0.1,0,0.1,0
	c0.2,0.1,0.4,0,0.6-0.2c0.2-0.2,0.4-0.4,0.6-0.6c0,0.2,0.1,0.3,0.1,0.4c0,0.2,0.1,0.3,0.1,0.5c0,0.1,0.1,0.2,0.2,0.2
	c0.3,0.1,0.6,0.3,1,0.4c-0.3,0.1-0.5,0.2-0.7,0.3c-0.5,0.2-0.5,0.2-0.5,0.7C154.9,41.6,154.9,41.8,154.8,42.1"/>
<path fill="#FFFFFF" d="M200.8,114.8c-0.3-3-0.6-5.5-1.3-10.7c-0.1-0.5-0.3-0.8-0.4-1.2c1.2,22.5,2,62.6-11.3,91.5
	c0.1-0.3,0.2-0.4,0,0.1l0,0c-0.4,0.8-0.2,0.4,0,0c-5-2.2-10.1-3.3-20.8-3.6c-13.8-0.4-41-2-45.5,0.4c-0.7,0.4-1.4,0.8-1.9,1.1
	c0.1-0.1-0.4-1.1,0,0c-0.8-1.9-0.2-0.5-0.9-2.6c-5.5-18-6.5-31.9-6.3-43.2c-0.9,9.4-1.1,10.8-1.1,22.1c0.6,7.1,1.5,15.9,4,24.2
	c0.9,2.9,1.9,5.6,3,8.2c3.2,4,10.1,5.3,20,0.3c12.6-6.3,26.9-2.1,35,2.2c8.6,4.5,11.7,1.9,16.6-3.7
	C201.9,175.7,201.5,138.3,200.8,114.8"/>
<path fill="none" stroke="#060606" stroke-width="0.339" d="M200.8,114.8c-0.3-3-0.6-5.5-1.3-10.7c-0.1-0.5-0.3-0.8-0.4-1.2
	c1.2,22.5,2,62.6-11.3,91.5c0.1-0.3,0.2-0.4,0,0.1l0,0c-0.4,0.8-0.2,0.4,0,0c-5-2.2-10.1-3.3-20.8-3.6c-13.8-0.4-41-2-45.5,0.4
	c-0.7,0.4-1.4,0.8-1.9,1.1c0.1-0.1-0.4-1.1,0,0c-0.8-1.9-0.2-0.5-0.9-2.6c-5.5-18-6.5-31.9-6.3-43.2c-0.9,9.4-1.1,10.8-1.1,22.1
	c0.6,7.1,1.5,15.9,4,24.2c0.9,2.9,1.9,5.6,3,8.2c3.2,4,10.1,5.3,20,0.3c12.6-6.3,26.9-2.1,35,2.2c8.6,4.5,11.7,1.9,16.6-3.7
	C201.9,175.7,201.5,138.3,200.8,114.8z"/>
<path fill="none" stroke="#000000" stroke-width="3" stroke-linecap="round" stroke-linejoin="round" stroke-miterlimit="10" d="
	M172.2,214.8c0,0-19.7,15.5-39.6,0"/>
<path fill="#FFFFFF" d="M198.9,103.2c-1.7-22.3-2-20.1-3.4-40c-1.9-25.5,0.3-56.6-32.3-61.7v6.1c3.6,1.3,6.9,3.2,9.8,5.4
	c7.8,6.2,12.6,16.1,15.1,25.9c4.9,19.7-11.9,31.9-16.2,38.6c-2,3.1-3.5,6.9-4.2,13.7c-2.5,22.8-4.9,65.2-0.8,78.5
	c4.5,14.4,14.2,21.8,21.3,24.5C200.4,166.8,200.1,124.3,198.9,103.2"/>
<path fill="none" stroke="#060606" stroke-width="0.58" d="M198.9,103.2c-1.7-22.3-2-20.1-3.4-40c-1.9-25.5,0.3-56.6-32.3-61.7v6.1
	c3.6,1.3,6.9,3.2,9.8,5.4c7.8,6.2,12.6,16.1,15.1,25.9c4.9,19.7-11.9,31.9-16.2,38.6c-2,3.1-3.5,6.9-4.2,13.7
	c-2.5,22.8-4.9,65.2-0.8,78.5c4.5,14.4,14.2,21.8,21.3,24.5C200.4,166.8,200.1,124.3,198.9,103.2z"/>
<path fill="#FFFFFF" d="M143.7,1.6c-0.2,0-0.6,0.1-0.8,0.2C127.9,4.9,121,15.1,118,23.9c-5.1,16.8-3,31.1-3,31.1
	c3.2,29.2,4.3,35.8-2.7,91.6c-0.1,0.4-0.1,0.9-0.2,1.3c-1.1,13.2,0.8,25.6,6.3,44c0.1,0.2,0.1,0.3,0.2,0.5
	c6-5.5,22.3-14.3,22.3-21.7c0-8.7,1.6-77.4-1.3-92.3c-1.3-6.7-13.8-12.9-18.1-17.8c-1.7-2.6-2.3-5.7-2.4-6.2c0.1,0.6,0-0.3,0,0
	c-0.3-2.9-0.9-6.3-1-13.7c0,0,0.4-19.4,14.7-28.9c3.9-2.6,7.7-4.3,11.3-5.3V1.5C144,1.5,143.9,1.6,143.7,1.6"/>
<path fill="none" stroke="#060606" stroke-width="0.58" d="M143.7,1.6c-0.2,0-0.6,0.1-0.8,0.2C127.9,4.9,121,15.1,118,23.9
	c-5.1,16.8-3,31.1-3,31.1c3.2,29.2,4.3,35.8-2.7,91.6c-0.1,0.4-0.1,0.9-0.2,1.3c-1.1,13.2,0.8,25.6,6.3,44c0.1,0.2,0.1,0.3,0.2,0.5
	c6-5.5,22.3-14.3,22.3-21.7c0-8.7,1.6-77.4-1.3-92.3c-1.3-6.7-13.8-12.9-18.1-17.8c-1.7-2.6-2.3-5.7-2.4-6.2c0.1,0.6,0-0.3,0,0
	c-0.3-2.9-0.9-6.3-1-13.7c0,0,0.4-19.4,14.7-28.9c3.9-2.6,7.7-4.3,11.3-5.3V1.5C144,1.5,143.9,1.6,143.7,1.6z"/>
<path fill="#FFFFFF" d="M160.3,0.7c-0.7-0.1-1.4-0.1-2.1-0.1c-5.3-0.4-10-0.2-14,0.5v5.5c6.9-2,13.2-1.2,18.9,1V1.1
	C162.2,0.9,161.3,0.8,160.3,0.7"/>
<path fill="none" stroke="#060606" stroke-width="0.58" d="M160.3,0.7c-0.7-0.1-1.4-0.1-2.1-0.1c-5.3-0.4-10-0.2-14,0.5v5.5
	c6.9-2,13.2-1.2,18.9,1V1.1C162.2,0.9,161.3,0.8,160.3,0.7z"/>
<path fill="none" stroke="#060606" stroke-width="0.25" stroke-linecap="round" stroke-dasharray="1,1" d="M117.8,53.9
	c0.1,0.7,0.8,5.3,2.7,7.6c3.6,4.5,16.2,11.9,17.5,17.9c2.9,14.3,1,81.4,0.7,90.3c-0.2,5.9-8.7,11-14.5,15.4
	c-1.2,0.9-5.3,3.8-6.4,4.7"/>
<path fill="none" stroke="#060606" stroke-width="0.25" stroke-linecap="round" stroke-dasharray="1,1" d="M117.8,57.7
	c0.6,6.3,17.5,16.3,18.5,21.6c2.8,14.2,0.4,82.2,0.4,91.1c0,3.4-8.7,9.6-13.6,13.3c-0.2,0.2-5.7,3.7-5.9,3.9"/>
<path fill="none" stroke="#060606" stroke-width="0.25" stroke-linecap="round" stroke-dasharray="1,1" d="M188.7,191.5
	c-4.8-2.3-16.5-10.6-20.3-24c-3.1-11.1-2.5-59.1,3.3-86.5c0.6-2.9,7.1-7.6,9.5-10.9c5.3-7.4,11.5-18.6,8-32.6"/>
<path fill="none" stroke="#060606" stroke-width="0.25" stroke-linecap="round" stroke-dasharray="1,1" d="M189.2,189.5
	c-4.8-2.3-15.3-10.3-18.8-21.3c-3.7-11.6-4.1-48.7,3.4-86.5c0.7-3.7,6.9-8.1,9.1-11.1c2.1-2.9,10.4-14.8,8.3-27.1"/>
<path fill="#FFFFFF" d="M187.7,194.5c0.2-0.5,0.2-0.4,0-0.1C187.8,194.4,187.7,194.4,187.7,194.5L187.7,194.5z"/>
<path fill="none" stroke="#060606" stroke-width="0.339" d="M187.7,194.5c0.2-0.5,0.2-0.4,0-0.1
	C187.8,194.4,187.7,194.4,187.7,194.5L187.7,194.5z"/>
<path fill="#FFFFFF" d="M187.7,194.6C187.7,194.5,187.7,194.5,187.7,194.6L187.7,194.6C187.7,194.5,187.7,194.5,187.7,194.6"/>
<path fill="none" stroke="#060606" stroke-width="0.339" d="M187.7,194.6C187.7,194.5,187.7,194.5,187.7,194.6L187.7,194.6
	C187.7,194.5,187.7,194.5,187.7,194.6z"/>
<path fill="#FFFFFF" d="M187.8,194.4c0,0,0,0.1-0.1,0.1c0,0,0,0,0,0C187.7,194.4,187.8,194.4,187.8,194.4"/>
<path fill="none" stroke="#060606" stroke-width="0.339" d="M187.8,194.4c0,0,0,0.1-0.1,0.1c0,0,0,0,0,0
	C187.7,194.4,187.8,194.4,187.8,194.4z"/>
<path fill="#FFFFFF" d="M187.7,194.5L187.7,194.5C187.7,194.5,187.7,194.5,187.7,194.5C187.7,194.5,187.7,194.5,187.7,194.5
	C187.7,194.5,187.7,194.5,187.7,194.5C187.5,194.9,187.3,195.3,187.7,194.5"/>
<path fill="none" stroke="#060606" stroke-width="0.339" d="M187.7,194.5L187.7,194.5C187.7,194.5,187.7,194.5,187.7,194.5
	C187.7,194.5,187.7,194.5,187.7,194.5C187.7,194.5,187.7,194.5,187.7,194.5C187.5,194.9,187.3,195.3,187.7,194.5z"/>
<path fill="#FFFFFF" d="M121.9,104h-0.3c-0.8,0-1.4-0.6-1.4-1.4V85.4c0-0.8,0.6-1.4,1.4-1.4h0.3c0.8,0,1.4,0.6,1.4,1.4v17.3
	C123.3,103.4,122.7,104,121.9,104"/>
<path fill="none" stroke="#060606" stroke-width="0.339" d="M121.9,104h-0.3c-0.8,0-1.4-0.6-1.4-1.4V85.4c0-0.8,0.6-1.4,1.4-1.4h0.3
	c0.8,0,1.4,0.6,1.4,1.4v17.3C123.3,103.4,122.7,104,121.9,104z"/>
<path d="M121.8,103.4c-0.5,0-0.9-0.4-0.9-0.9V85.5c0-0.5,0.4-0.9,0.9-0.9c0.5,0,0.9,0.4,0.9,0.9v17.1
	C122.7,103,122.3,103.4,121.8,103.4"/>
<path fill="#FFFFFF" d="M121.9,151.7h-0.3c-0.8,0-1.4-0.6-1.4-1.4v-17.2c0-0.8,0.6-1.4,1.4-1.4h0.3c0.8,0,1.4,0.6,1.4,1.4v17.2
	C123.3,151.1,122.7,151.7,121.9,151.7"/>
<path fill="none" stroke="#060606" stroke-width="0.339" d="M121.9,151.7h-0.3c-0.8,0-1.4-0.6-1.4-1.4v-17.2c0-0.8,0.6-1.4,1.4-1.4
	h0.3c0.8,0,1.4,0.6,1.4,1.4v17.2C123.3,151.1,122.7,151.7,121.9,151.7z"/>
<path fill="none" stroke="#060606" stroke-width="0.25" stroke-linecap="round" stroke-dasharray="1,1" d="M182.4,64.5
	c0,0,10.8,102.8-4.6,121.4"/>
<path fill="none" stroke="#060606" stroke-width="0.25" stroke-linecap="round" stroke-dasharray="1,1" d="M183.5,63
	c0,0,13.3,96.5-3.8,124.7"/>
<polyline fill="none" stroke="#060606" stroke-width="0.25" stroke-linecap="round" stroke-dasharray="1,1" points="171.7,179.2 
	183.5,174.2 193.6,176.5 "/>
<polyline fill="none" stroke="#060606" stroke-width="0.25" stroke-linecap="round" stroke-dasharray="1,1" points="170.6,177.3 
	183.9,171.9 194.3,174.5 "/>
<path fill="none" stroke="#060606" stroke-width="0.25" stroke-linecap="round" stroke-dasharray="1,1" d="M124,63.2
	c0,0-4.6,103.7,6,120.2"/>
<path fill="none" stroke="#060606" stroke-width="0.25" stroke-linecap="round" stroke-dasharray="1,1" d="M125.7,64.5
	c0,0-3.5,100.1,5.8,117.4"/>
<polyline fill="none" stroke="#060606" stroke-width="0.25" stroke-linecap="round" stroke-dasharray="1,1" points="139.1,175.4 
	127.4,171.5 114.8,178.7 "/>
<polyline fill="none" stroke="#060606" stroke-width="0.25" stroke-linecap="round" stroke-dasharray="1,1" points="138.1,177.1 
	128,173.7 115.3,181.2 "/>
<path fill="#FFFFFF" d="M183.3,104h-57.7c-2.1,0-3.8-1.7-3.8-3.8V87.5c0-2.1,1.7-3.8,3.8-3.8h57.7c2.1,0,3.8,1.7,3.8,3.8v12.8
	C187,102.3,185.3,104,183.3,104"/>
<path fill="none" stroke="#060606" stroke-width="0.339" d="M183.3,104h-57.7c-2.1,0-3.8-1.7-3.8-3.8V87.5c0-2.1,1.7-3.8,3.8-3.8
	h57.7c2.1,0,3.8,1.7,3.8,3.8v12.8C187,102.3,185.3,104,183.3,104z"/>
<path fill="none" stroke="#060606" stroke-width="0.25" stroke-linecap="round" stroke-dasharray="1,1" d="M123.1,85.7l59.7,0.1
	c1.6,0,3,1.3,3,2.8v10.6c0,1.5-1.3,2.8-3,2.8h-59.5"/>
<line fill="none" stroke="#060606" stroke-width="0.25" stroke-linecap="round" x1="122.4" y1="100.9" x2="122.9" y2="100.9"/>
<path fill="none" stroke="#060606" stroke-width="0.25" stroke-linecap="round" stroke-dasharray="1.005,1.005" d="M123.9,100.9
	l58.9-0.1c0.9,0,1.7-0.7,1.7-1.5V88.4c0-0.8-0.8-1.5-1.7-1.5h-59.4"/>
<line fill="none" stroke="#060606" stroke-width="0.25" stroke-linecap="round" x1="122.9" y1="86.9" x2="122.4" y2="86.9"/>
<path fill="#FFFFFF" d="M119.2,54.5C119.1,54.2,119.2,55.1,119.2,54.5"/>
<path fill="none" stroke="#060606" stroke-width="0.58" d="M119.2,54.5C119.1,54.2,119.2,55.1,119.2,54.5z"/>
<path d="M121.8,151.1c-0.5,0-0.9-0.4-0.9-0.9v-17.1c0-0.5,0.4-0.9,0.9-0.9c0.5,0,0.9,0.4,0.9,0.9v17.1
	C122.7,150.7,122.3,151.1,121.8,151.1"/>
<path fill="#FFFFFF" d="M183.3,151.7h-57.7c-2.1,0-3.8-1.7-3.8-3.8v-12.5c0-2.1,1.7-3.8,3.8-3.8h57.7c2.1,0,3.8,1.7,3.8,3.8V148
	C187,150,185.3,151.7,183.3,151.7"/>
<path fill="none" stroke="#060606" stroke-width="0.339" d="M183.3,151.7h-57.7c-2.1,0-3.8-1.7-3.8-3.8v-12.5c0-2.1,1.7-3.8,3.8-3.8
	h57.7c2.1,0,3.8,1.7,3.8,3.8V148C187,150,185.3,151.7,183.3,151.7z"/>
<line fill="none" stroke="#060606" stroke-width="0.25" stroke-linecap="round" x1="123.4" y1="133.2" x2="123.9" y2="133.2"/>
<path fill="none" stroke="#060606" stroke-width="0.25" stroke-linecap="round" stroke-dasharray="0.996,0.996" d="M124.9,133.2
	h57.8c1.8,0,3.3,1.3,3.3,3v10.9c0,1.7-1.5,3-3.3,3l-58.4,0.1"/>
<line fill="none" stroke="#060606" stroke-width="0.25" stroke-linecap="round" x1="123.9" y1="150.2" x2="123.4" y2="150.2"/>
<line fill="none" stroke="#060606" stroke-width="0.25" stroke-linecap="round" x1="122.7" y1="133.8" x2="123.2" y2="133.8"/>
<path fill="none" stroke="#060606" stroke-width="0.25" stroke-linecap="round" stroke-dasharray="0.993,0.993" d="M124.2,133.8
	h58.6c1.5,0,2.6,1.1,2.6,2.4v10.9c0,1.3-1.2,2.4-2.6,2.4l-59.1,0"/>
<line fill="none" stroke="#060606" stroke-width="0.25" stroke-linecap="round" x1="123.2" y1="149.5" x2="122.7" y2="149.5"/>
<line fill="none" stroke="#060606" stroke-width="0.25" stroke-linecap="round" stroke-dasharray="1,1" x1="146.9" y1="0.6" x2="146.9" y2="5.9"/>
<line fill="none" stroke="#060606" stroke-width="0.25" stroke-linecap="round" stroke-dasharray="1,1" x1="160.7" y1="0.7" x2="160.7" y2="6.7"/>
<path fill="#FFFFFF" d="M68.1,9.6c0,0,26.6,17.8,17.1,47.6C75.7,86.9,9.6,74,11.3,49.9c1.6-24.2,6.3-34.9,11.5-37.3
	c5.2-2.3,20.7-14.1,39.1-6.7C80.2,13.3,68.1,9.6,68.1,9.6"/>
<path d="M50.6,50.1c0.1,0,0.2,0,0.3,0c1.3,0,2.6,0,3.8,0c0.1,0,0.2,0,0.2,0c0.2,0,0.3,0.1,0.3,0.2c0,0.4,0,0.7,0,1.1
	c0,0.2-0.1,0.2-0.3,0.2c-0.1,0-0.1,0-0.2,0c-2.6,0-5.2,0.1-7.8,0.1c-0.5,0-0.5,0-0.5-0.4c0-0.3,0-0.6,0-0.9c0-0.2,0.1-0.3,0.3-0.4
	c1.3-0.5,2.7-1.1,4-1.6c0.1,0,0.2-0.1,0.2-0.2c-0.1,0-0.2,0-0.3,0l-3.7,0c-0.1,0-0.2,0-0.2,0c-0.2,0-0.2-0.1-0.3-0.2
	c0-0.4,0-0.8,0-1.1c0-0.1,0.1-0.2,0.2-0.2c0.1,0,0.2,0,0.2,0c2.6,0,5.2-0.1,7.8-0.1c0.1,0,0.1,0,0.2,0c0.2,0,0.3,0.1,0.3,0.3
	c0,0.3,0,0.7,0,1c0,0.2-0.1,0.3-0.3,0.4c-1.4,0.6-2.7,1.1-4.1,1.7C50.8,50,50.7,50,50.6,50.1C50.6,50.1,50.6,50.1,50.6,50.1"/>
<path d="M50.6,28c1.3,0,2.5,0,3.8,0c0.1,0,0.2,0,0.2,0c0.2,0,0.3,0.1,0.3,0.3c0,0,0,0.1,0,0.1c0,0.7,0,1.3,0,2c0,0.8-0.7,2-2.2,2.3
	c-0.2,0-0.4,0.1-0.6,0.1c-1,0-1.9,0-2.9,0c-1.3,0-2.4-0.7-2.8-1.8c-0.1-0.2-0.1-0.4-0.1-0.6c0-0.6,0-1.2,0-1.9
	c0-0.3,0.2-0.4,0.5-0.4C48,28,49.3,28,50.6,28 M53.2,29.5c-0.4-0.1-4.9,0-5.2,0.1c0,0.2,0,0.5,0.1,0.8c0,0.1,0,0.1,0.1,0.1
	c0.2,0.4,0.5,0.6,1,0.6c0.5,0,1,0,1.4,0c0.6,0,1.1,0,1.7,0c0.5,0,1-0.4,1-0.9C53.2,30,53.2,29.8,53.2,29.5"/>
<path d="M50.3,19.2c-0.1,0-0.2,0-0.3,0c-1.1,0-2.3,0-3.4,0c-0.1,0-0.1,0-0.2,0c-0.2,0-0.3-0.1-0.3-0.2c0-0.4,0-0.8,0-1.2
	c0-0.1,0.1-0.2,0.2-0.2c0.1,0,0.2,0,0.2,0c2.6,0,5.1-0.1,7.7-0.1c0.5,0,0.5,0,0.5,0.4c0,0.3,0,0.6,0,0.9c0,0.3,0,0.3-0.4,0.3
	c-1.1,0-2.1,0-3.2,0c-0.1,0-0.2,0-0.3,0.1c0.1,0.1,0.2,0.1,0.3,0.1c1.1,0.5,2.2,1,3.2,1.5c0.3,0.1,0.4,0.3,0.4,0.5c0,0.3,0,0.7,0,1
	c0,0.1,0,0.1,0,0.2c0,0.2-0.1,0.2-0.3,0.1c-0.1,0-0.1-0.1-0.2-0.1c-1.1-0.5-2.3-1-3.4-1.6c-0.2-0.1-0.4-0.1-0.6,0
	c-1.2,0.6-2.4,1.3-3.6,1.9c-0.1,0-0.1,0.1-0.2,0.1c-0.3,0.1-0.3,0.1-0.4-0.2c0-0.4,0-0.7,0-1.1c0-0.2,0.1-0.4,0.3-0.5
	c1.2-0.6,2.4-1.2,3.6-1.9C50.1,19.4,50.2,19.3,50.3,19.2C50.3,19.2,50.3,19.2,50.3,19.2"/>
<path d="M49.8,55.6c0-0.1,0-0.2,0-0.3c0-0.3,0.1-0.4,0.4-0.4c0.2,0,0.5,0,0.7,0c0.3,0,0.4,0.1,0.4,0.3c0,0.6,0,1.1,0,1.7
	c0,0.2-0.1,0.3-0.4,0.3c-0.1,0-0.1,0-0.2,0c-1.3,0-2.6,0-3.9,0c-0.1,0-0.1,0-0.2,0c-0.1,0-0.2-0.1-0.2-0.2c0-0.3,0-0.6,0-0.8
	c0-0.1,0-0.1,0.3-0.2c-0.1-0.2-0.2-0.4-0.2-0.6c-0.4-1.3,0.5-2.5,1.9-2.8c0.2-0.1,0.4-0.1,0.7-0.1c1.3,0,2.5,0,3.8,0
	c1.2,0,2.3,0.7,2.6,1.7c0.5,1.3-0.5,2.7-2,3c-0.3,0.1-0.5-0.1-0.5-0.3c0-0.3,0-0.6,0-0.9c0-0.2,0.1-0.3,0.3-0.4
	c0.3-0.1,0.5-0.3,0.6-0.6c0.1-0.5-0.3-0.9-0.9-0.9c-0.2,0-0.4,0-0.6,0c-1,0-2,0-3.1,0c-0.2,0-0.4,0-0.5,0.1
	c-0.4,0.2-0.5,0.5-0.5,0.7c0,0.3,0.3,0.6,0.6,0.7C49.1,55.7,49.4,55.7,49.8,55.6"/>
<path d="M46,35.6c0-0.8,0.5-1.6,1.4-2.1c0.3-0.2,0.5-0.1,0.7,0.1c0.2,0.2,0.4,0.4,0.5,0.6c0.2,0.2,0.1,0.4-0.1,0.6
	c-0.2,0.2-0.4,0.4-0.5,0.6c-0.3,0.4,0.1,0.9,0.6,1.1c0.3,0.1,0.5,0,0.7-0.2c0.1-0.2,0.3-0.3,0.4-0.5c0.2-0.3,0.3-0.5,0.4-0.8
	c0.1-0.2,0.2-0.4,0.4-0.7c0.6-1,1.6-1.3,2.8-1c1.2,0.3,2.1,1.3,2,2.4c-0.1,0.9-0.6,1.6-1.5,2.1c-0.2,0.1-0.4,0.1-0.6-0.1
	c-0.2-0.2-0.4-0.5-0.5-0.7c-0.1-0.2-0.1-0.3,0.1-0.5c0.2-0.2,0.4-0.4,0.5-0.6c0.2-0.3,0.1-0.7-0.3-0.9c-0.3-0.2-0.8-0.2-1,0.1
	c-0.1,0.2-0.2,0.4-0.3,0.6c-0.2,0.5-0.5,0.9-0.8,1.4c-1.3,1.6-3.7,1.2-4.6-0.3C46.2,36.5,46,36.1,46,35.6"/>
<path d="M54.3,43.3c0-0.2,0-0.3,0-0.5c0-0.2,0-0.2,0.3-0.3c0.1,0,0.2,0,0.4,0c0.2,0,0.3,0,0.3,0.2c0,0.9,0,1.8,0,2.7
	c0,0.2,0,0.2-0.3,0.3c-0.7,0-0.6,0-0.6-0.5c0-0.1,0-0.2,0-0.3c-2.3,0-4.6,0.1-6.9,0.1c0,0.2,0,0.4,0,0.5c0,0.2,0,0.2-0.3,0.2
	c-0.2,0-0.3,0-0.5,0c-0.1,0-0.2-0.1-0.2-0.2c0-0.1,0-0.1,0-0.2c0-0.9,0-1.7,0-2.6c0-0.1,0-0.1,0-0.2c0-0.1,0.1-0.1,0.2-0.1
	c0.2,0,0.3,0,0.5,0c0.2,0,0.2,0.1,0.2,0.2c0,0.2,0,0.4,0,0.5C47.6,43.4,53.8,43.4,54.3,43.3"/>
<path d="M54,24.6c0-0.2,0-0.4,0-0.5c0-0.2,0-0.2,0.3-0.3c0.7,0,0.6-0.1,0.6,0.5c0,0.8,0,1.6,0,2.3c0,0.1,0,0.1,0,0.2
	c0,0.1-0.1,0.2-0.2,0.2c-0.2,0-0.3,0-0.5,0C54.1,27,54,27,54,26.9c0-0.1,0-0.2,0-0.3c0-0.1,0-0.2,0-0.3c-2.3,0-4.6,0.1-6.9,0.1
	c0,0.2,0,0.3,0,0.5c0,0.3,0,0.3-0.3,0.3c-0.1,0-0.2,0-0.3,0c-0.2,0-0.2,0-0.3-0.2c0-0.2,0-0.4,0-0.5c0-0.7,0-1.5,0-2.2
	c0-0.3,0-0.3,0.4-0.3c0.1,0,0.2,0,0.3,0c0.2,0,0.2,0.1,0.2,0.2c0,0.1,0,0.2,0,0.3c0,0.1,0,0.2,0,0.3C49.4,24.6,51.7,24.6,54,24.6"/>
<path d="M51.2,42.1c-0.3-0.2-0.5-0.4-0.7-0.6c-0.2-0.2-0.3-0.2-0.5-0.1c-0.3,0.1-0.6,0.1-1,0.2c0.1-0.2,0.2-0.4,0.3-0.5
	c0.1-0.2,0.2-0.3,0.2-0.5c0-0.2-0.2-0.3-0.3-0.5c-0.1-0.2-0.2-0.3-0.3-0.5c0.3,0,0.5,0.1,0.8,0.1c0.1,0,0.1,0,0.1,0
	c0.2,0.1,0.4,0,0.6-0.2c0.2-0.2,0.4-0.4,0.6-0.6c0,0.2,0.1,0.3,0.1,0.4c0,0.2,0.1,0.3,0.1,0.5c0,0.1,0.1,0.2,0.2,0.2
	c0.3,0.1,0.6,0.3,1,0.4c-0.3,0.1-0.5,0.2-0.7,0.3c-0.5,0.2-0.5,0.2-0.5,0.7C51.3,41.6,51.3,41.8,51.2,42.1"/>
<path fill="#FFFFFF" d="M32.4,170.5c4.2-13.2,0.2-56.4-2.4-79c4.3,3.2,9.6,4.9,16.2,4.5c10.4-0.7,17.8-3.9,23.1-8.2
	c-2.6,25.1-5.3,74.8-5.3,81.9c0,7.3,13.9,15.2,19.9,20.6c-0.2,0.7-0.5,1.4-0.7,2.1c-0.6-0.3-1.2-0.7-1.9-1.1
	c-4.4-2.4-31.6-0.8-45.4-0.4c-10.8,0.3-15.8,1.4-20.8,3.6c-0.2-0.4-0.4-0.8-0.5-1.2C21.6,190.6,27.9,184.8,32.4,170.5"/>
<path fill="none" stroke="#060606" stroke-width="0.58" d="M32.4,170.5c4.2-13.2,0.2-56.4-2.4-79c4.3,3.2,9.6,4.9,16.2,4.5
	c10.4-0.7,17.8-3.9,23.1-8.2c-2.6,25.1-5.3,74.8-5.3,81.9c0,7.3,13.9,15.2,19.9,20.6c-0.2,0.7-0.5,1.4-0.7,2.1
	c-0.6-0.3-1.2-0.7-1.9-1.1c-4.4-2.4-31.6-0.8-45.4-0.4c-10.8,0.3-15.8,1.4-20.8,3.6c-0.2-0.4-0.4-0.8-0.5-1.2
	C21.6,190.6,27.9,184.8,32.4,170.5z"/>
<path fill="#FFFFFF" d="M0.9,165.6c1.7,26.3,16.4,70.2,56.7,63.7c27.2-4.4,34.5-41.2,33.7-68.8c-0.9,6.4-1.2,19.8-3.8,27.6
	c-0.9,2.7-1.9,5.3-3,7.7c-3.2,3.8-10,4.9-19.9,0.3c-12.6-5.9-26.8-1.9-35,2.1c-8.6,4.2-11.7,1.8-16.5-3.5L2,114.8
	C0.1,133.2-0.4,144.7,0.9,165.6"/>
<path fill="none" stroke="#060606" stroke-width="0.339" d="M0.9,165.6c1.7,26.3,16.4,70.2,56.7,63.7c27.2-4.4,34.5-41.2,33.7-68.8
	c-0.9,6.4-1.2,19.8-3.8,27.6c-0.9,2.7-1.9,5.3-3,7.7c-3.2,3.8-10,4.9-19.9,0.3c-12.6-5.9-26.8-1.9-35,2.1
	c-8.6,4.2-11.7,1.8-16.5-3.5L2,114.8C0.1,133.2-0.4,144.7,0.9,165.6z"/>
<path fill="#FFFFFF" d="M12.2,118.8c1.7-18.7,3.5-35.2,3.5-38.7c0-7.7-4.1-32.2-4.1-32.2c3.9,3,16.1,11.7,36.8,12
	c17.3,0.2,30.4-2.9,36.2-5.6c0.6-0.3,1.7,1.3,1.4,1.8c-2.1,3.8-5,10.9-4.7,26.4c0.2,8-1.5,21-3.4,34.7c-3.4,24-7.8,50.3-5,55.7
	c2.4,4.6,12.8,6.7,11.8,11c-0.6,3,3.2,7.7-5.4,11.4c-17.9,7.6-12.6,1.6-38.2-3.3c-14.4-2.8-25.5,6.9-26.9,1.8
	c-1.1-3.9-4.1-7.8-5-16.5C8.2,166.6,10.2,141.1,12.2,118.8"/>
<path fill="none" stroke="#060606" stroke-width="0.339" d="M12.2,118.8c1.7-18.7,3.5-35.2,3.5-38.7c0-7.7-4.1-32.2-4.1-32.2
	c3.9,3,16.1,11.7,36.8,12c17.3,0.2,30.4-2.9,36.2-5.6c0.6-0.3,1.7,1.3,1.4,1.8c-2.1,3.8-5,10.9-4.7,26.4c0.2,8-1.5,21-3.4,34.7
	c-3.4,24-7.8,50.3-5,55.7c2.4,4.6,12.8,6.7,11.8,11c-0.6,3,3.2,7.7-5.4,11.4c-17.9,7.6-12.6,1.6-38.2-3.3
	c-14.4-2.8-25.5,6.9-26.9,1.8c-1.1-3.9-4.1-7.8-5-16.5C8.2,166.6,10.2,141.1,12.2,118.8z"/>
<path fill="#FFFFFF" d="M2,114.8c0.3-3,0.6-5.5,1.3-10.7c0.1-0.5,0.3-0.8,0.4-1.2c-1.2,22.5-2,62.6,11.3,91.5
	c-0.1-0.3-0.2-0.4,0,0.1l0,0c0.4,0.8,0.2,0.4,0,0c5-2.2,10.1-3.3,20.8-3.6c13.8-0.4,41-2,45.4,0.4c0.7,0.4,1.4,0.8,1.9,1.1
	c-0.1-0.1,0.4-1.1,0,0c0.8-1.9,0.2-0.5,0.9-2.6c5.5-18,6.5-31.9,6.3-43.2c0.9,9.4,1.1,10.8,1.1,22.1c-0.6,7.1-1.5,15.9-4,24.2
	c-0.9,2.9-1.9,5.6-3,8.2c-3.2,4-10,5.3-19.9,0.3c-12.6-6.3-26.8-2.1-35,2.2c-8.6,4.5-11.7,1.9-16.5-3.7C0.9,175.7,1.3,138.3,2,114.8
	"/>
<path fill="none" stroke="#060606" stroke-width="0.339" d="M2,114.8c0.3-3,0.6-5.5,1.3-10.7c0.1-0.5,0.3-0.8,0.4-1.2
	c-1.2,22.5-2,62.6,11.3,91.5c-0.1-0.3-0.2-0.4,0,0.1l0,0c0.4,0.8,0.2,0.4,0,0c5-2.2,10.1-3.3,20.8-3.6c13.8-0.4,41-2,45.4,0.4
	c0.7,0.4,1.4,0.8,1.9,1.1c-0.1-0.1,0.4-1.1,0,0c0.8-1.9,0.2-0.5,0.9-2.6c5.5-18,6.5-31.9,6.3-43.2c0.9,9.4,1.1,10.8,1.1,22.1
	c-0.6,7.1-1.5,15.9-4,24.2c-0.9,2.9-1.9,5.6-3,8.2c-3.2,4-10,5.3-19.9,0.3c-12.6-6.3-26.8-2.1-35,2.2c-8.6,4.5-11.7,1.9-16.5-3.7
	C0.9,175.7,1.3,138.3,2,114.8z"/>
<path fill="none" stroke="#000000" stroke-width="3" stroke-linecap="round" stroke-linejoin="round" stroke-miterlimit="10" d="
	M30.6,214.8c0,0,19.7,15.5,39.5,0"/>
<path fill="#FFFFFF" d="M42.4,0.7c0.7-0.1,1.4-0.1,2.1-0.1c5.3-0.4,10-0.2,13.9,0.5v5.5c-6.8-2-13.2-1.2-18.9,1V1.1
	C40.5,0.9,41.5,0.8,42.4,0.7"/>
<path fill="none" stroke="#060606" stroke-width="0.58" d="M42.4,0.7c0.7-0.1,1.4-0.1,2.1-0.1c5.3-0.4,10-0.2,13.9,0.5v5.5
	c-6.8-2-13.2-1.2-18.9,1V1.1C40.5,0.9,41.5,0.8,42.4,0.7z"/>
<path fill="#FFFFFF" d="M15.1,194.5c-0.2-0.5-0.2-0.4,0-0.1C15,194.4,15.1,194.4,15.1,194.5L15.1,194.5z"/>
<path fill="none" stroke="#060606" stroke-width="0.339" d="M15.1,194.5c-0.2-0.5-0.2-0.4,0-0.1C15,194.4,15.1,194.4,15.1,194.5
	L15.1,194.5z"/>
<path fill="#FFFFFF" d="M15.1,194.6C15.1,194.5,15.1,194.5,15.1,194.6L15.1,194.6C15.1,194.5,15.1,194.5,15.1,194.6"/>
<path fill="none" stroke="#060606" stroke-width="0.339" d="M15.1,194.6C15.1,194.5,15.1,194.5,15.1,194.6L15.1,194.6
	C15.1,194.5,15.1,194.5,15.1,194.6z"/>
<path fill="#FFFFFF" d="M15,194.4c0,0,0,0.1,0.1,0.1l0,0C15.1,194.4,15,194.4,15,194.4"/>
<path fill="none" stroke="#060606" stroke-width="0.339" d="M15,194.4c0,0,0,0.1,0.1,0.1l0,0C15.1,194.4,15,194.4,15,194.4z"/>
<path fill="#FFFFFF" d="M15.1,194.5L15.1,194.5C15.1,194.5,15.1,194.5,15.1,194.5C15.1,194.5,15.1,194.5,15.1,194.5L15.1,194.5
	C15.3,194.9,15.5,195.3,15.1,194.5"/>
<path fill="none" stroke="#060606" stroke-width="0.339" d="M15.1,194.5L15.1,194.5C15.1,194.5,15.1,194.5,15.1,194.5
	C15.1,194.5,15.1,194.5,15.1,194.5L15.1,194.5C15.3,194.9,15.5,195.3,15.1,194.5z"/>
<polyline fill="none" stroke="#060606" stroke-width="0.25" stroke-linecap="round" stroke-dasharray="1,1" points="31,179.2 
	19.3,174.2 9.2,176.5 "/>
<polyline fill="none" stroke="#060606" stroke-width="0.25" stroke-linecap="round" stroke-dasharray="1,1" points="32.2,177.3 
	18.9,171.9 8.5,174.5 "/>
<polyline fill="none" stroke="#060606" stroke-width="0.25" stroke-linecap="round" stroke-dasharray="1,1" points="63.6,175.4 
	75.3,171.5 87.8,178.7 "/>
<polyline fill="none" stroke="#060606" stroke-width="0.25" stroke-linecap="round" stroke-dasharray="1,1" points="64.6,177.1 
	74.7,173.7 87.4,181.2 "/>
<path fill="#FFFFFF" d="M83.5,54.5C83.5,54.2,83.4,55.1,83.5,54.5"/>
<path fill="none" stroke="#060606" stroke-width="0.58" d="M83.5,54.5C83.5,54.2,83.4,55.1,83.5,54.5z"/>
<line fill="none" stroke="#060606" stroke-width="0.25" stroke-linecap="round" stroke-dasharray="1,1" x1="55.8" y1="0.6" x2="55.8" y2="5.9"/>
<line fill="none" stroke="#060606" stroke-width="0.25" stroke-linecap="round" stroke-dasharray="1,1" x1="42.1" y1="0.7" x2="42.1" y2="6.7"/>
<path fill="#060606" d="M64.4,75.1c0-0.1,0-0.2,0-0.3c0-1.3,0-2.6,0-3.8c0-0.1,0-0.2,0-0.2c0-0.2,0.1-0.3,0.3-0.3c0.5,0,0.9,0,1.4,0
	c0.2,0,0.3,0.1,0.3,0.3c0,0.1,0,0.1,0,0.2c0,2.6,0,5.2,0,7.8c0,0.5,0,0.5-0.5,0.5c-0.4,0-0.8,0-1.2,0c-0.3,0-0.4-0.1-0.5-0.3
	c-0.7-1.3-1.3-2.7-2-4c0-0.1-0.1-0.2-0.2-0.2c0,0.1,0,0.2,0,0.3c0,1.3,0,2.5,0,3.8c0,0.1,0,0.2,0,0.2c0,0.2-0.1,0.2-0.3,0.2
	c-0.5,0-1,0-1.5,0c-0.2,0-0.2-0.1-0.3-0.2c0-0.1,0-0.2,0-0.2c0-2.6,0-5.2,0-7.8c0-0.1,0-0.1,0-0.2c0-0.2,0.1-0.3,0.3-0.3
	c0.4,0,0.9,0,1.3,0c0.3,0,0.4,0.1,0.5,0.3c0.7,1.4,1.4,2.8,2.1,4.1C64.2,74.9,64.2,75,64.4,75.1L64.4,75.1z"/>
<path fill="#060606" d="M35.9,74.6c0-1.3,0-2.5,0-3.8c0-0.1,0-0.2,0-0.2c0-0.2,0.1-0.3,0.3-0.3c0,0,0.1,0,0.1,0c0.9,0,1.7,0,2.6,0
	c1.1,0,2.5,0.8,2.9,2.3c0.1,0.2,0.1,0.4,0.1,0.6c0,1,0,2,0,2.9c0,1.3-1,2.4-2.4,2.8C39.3,78.9,39,79,38.8,79c-0.8,0-1.6,0-2.4,0
	c-0.3,0-0.5-0.2-0.5-0.5C35.9,77.2,35.9,75.9,35.9,74.6 M38,72c-0.1,0.4-0.1,4.9,0,5.2c0.3,0,0.6,0,1,0c0.1,0,0.1,0,0.2,0
	c0.5-0.2,0.8-0.5,0.8-0.9c0-0.5,0-1,0-1.4c0-0.6,0-1.1,0-1.7c0-0.5-0.5-1-1.1-1C38.5,72,38.2,72,38,72"/>
<path fill="#060606" d="M24.5,74.7c0,0.1,0,0.2,0,0.3c0,1.1,0,2.3,0,3.4c0,0.1,0,0.1,0,0.2c0,0.2-0.1,0.3-0.3,0.3
	c-0.5,0-1.1,0-1.6,0c-0.2,0-0.3-0.1-0.3-0.3c0-0.1,0-0.2,0-0.2c0-2.6,0-5.2,0-7.7c0-0.5,0-0.5,0.6-0.5c0.4,0,0.8,0,1.2,0
	c0.4,0,0.4,0,0.4,0.4c0,1.1,0,2.1,0,3.2c0,0.1-0.1,0.2,0.1,0.3c0.1-0.1,0.1-0.2,0.2-0.3c0.7-1.1,1.3-2.1,2-3.2
	c0.2-0.3,0.4-0.4,0.7-0.4c0.4,0,0.8,0,1.3,0c0.1,0,0.1,0,0.2,0c0.2,0,0.3,0.1,0.2,0.3c0,0.1-0.1,0.1-0.1,0.2
	c-0.7,1.1-1.4,2.3-2.1,3.4c-0.1,0.2-0.1,0.4,0,0.6c0.8,1.2,1.6,2.5,2.4,3.7c0,0.1,0.1,0.1,0.1,0.2c0.2,0.3,0.1,0.3-0.2,0.3
	c-0.5,0-1,0-1.4,0c-0.3,0-0.5-0.1-0.7-0.3c-0.8-1.2-1.5-2.4-2.3-3.6c-0.1-0.1-0.1-0.2-0.2-0.3C24.6,74.7,24.6,74.7,24.5,74.7"/>
<path fill="#060606" d="M71.4,76.1c-0.2,0-0.3,0-0.4,0c-0.3,0-0.5-0.1-0.5-0.4c0-0.2,0-0.5,0-0.7c0-0.3,0.2-0.4,0.4-0.4
	c0.7,0,1.4,0,2.1,0c0.3,0,0.4,0.1,0.4,0.4c0,0.1,0,0.1,0,0.2c0,1.3,0,2.6,0,3.9c0,0.1,0,0.1,0,0.2c0,0.1-0.1,0.2-0.2,0.2
	c-0.4,0-0.7,0-1.1,0c-0.2,0-0.2,0-0.3-0.3c-0.3,0.1-0.5,0.2-0.8,0.2c-1.6,0.3-3.2-0.5-3.6-2c-0.1-0.2-0.1-0.4-0.1-0.7
	c0-1.3,0-2.5,0-3.8c0-1.2,0.9-2.3,2.2-2.6c1.7-0.4,3.5,0.6,3.8,2.1c0.1,0.3-0.1,0.5-0.4,0.5c-0.4,0-0.7,0-1.1,0
	c-0.2,0-0.4-0.1-0.5-0.3c-0.1-0.3-0.4-0.5-0.8-0.6c-0.6-0.1-1.2,0.3-1.2,0.9c0,0.2,0,0.4,0,0.6c0,1,0,2.1,0,3.1c0,0.2,0,0.4,0.1,0.5
	c0.2,0.4,0.6,0.6,0.9,0.5c0.4,0,0.8-0.2,0.9-0.6C71.5,76.8,71.5,76.5,71.4,76.1"/>
<path fill="#060606" d="M45.6,79.4c-1.1,0-2-0.5-2.7-1.5c-0.2-0.3-0.2-0.5,0.2-0.7c0.3-0.2,0.6-0.3,0.8-0.5c0.3-0.2,0.5-0.1,0.7,0.1
	c0.2,0.2,0.5,0.4,0.8,0.6c0.5,0.3,1.2,0,1.4-0.6c0.1-0.3,0-0.6-0.3-0.7c-0.2-0.1-0.4-0.3-0.6-0.4c-0.3-0.2-0.7-0.3-1-0.4
	c-0.3-0.1-0.6-0.2-0.8-0.4c-1.2-0.7-1.6-1.7-1.2-2.9c0.4-1.2,1.8-2.1,3.2-2c1.2,0.1,2.1,0.6,2.7,1.5c0.2,0.2,0.1,0.4-0.2,0.6
	c-0.3,0.2-0.6,0.3-0.9,0.5c-0.3,0.1-0.4,0.1-0.6-0.1c-0.2-0.2-0.5-0.4-0.8-0.5c-0.4-0.2-0.9-0.1-1.2,0.3c-0.3,0.3-0.3,0.8,0.1,1
	c0.2,0.1,0.5,0.3,0.8,0.3c0.6,0.2,1.2,0.5,1.7,0.8c2,1.3,1.4,3.8-0.4,4.6C46.8,79.3,46.3,79.4,45.6,79.4"/>
<path fill="#060606" d="M55.7,71.3c-0.2,0-0.4,0-0.7,0c-0.3,0-0.3,0-0.3-0.3c0-0.1,0-0.2,0-0.4c0-0.2,0-0.3,0.3-0.3
	c1.2,0,2.4,0,3.5,0c0.3,0,0.3,0,0.3,0.3c0,0.7,0,0.6-0.7,0.6c-0.1,0-0.2,0-0.3,0c0,2.3,0,4.6,0,6.9c0.2,0,0.5,0,0.7,0
	c0.3,0,0.3,0,0.3,0.3c0,0.2,0,0.3,0,0.5c0,0.1-0.1,0.2-0.2,0.2c-0.1,0-0.1,0-0.2,0c-1.1,0-2.2,0-3.3,0c-0.1,0-0.2,0-0.2,0
	c-0.1,0-0.2-0.1-0.2-0.2c0-0.2,0-0.3,0-0.5c0-0.2,0.1-0.2,0.3-0.2c0.2,0,0.5,0,0.7,0C55.7,77.9,55.7,71.7,55.7,71.3"/>
<path fill="#060606" d="M31.6,71.1c-0.2,0-0.5,0-0.7,0c-0.3,0-0.3,0-0.3-0.3c0-0.7-0.1-0.6,0.7-0.6c1,0,2,0,3,0c0.1,0,0.2,0,0.3,0
	c0.1,0,0.2,0.1,0.2,0.2c0,0.2,0,0.3,0,0.5c0,0.1-0.1,0.2-0.2,0.2c-0.1,0-0.3,0-0.4,0c-0.1,0-0.2,0-0.4,0c0,2.3,0,4.6,0,6.9
	c0.2,0,0.4,0,0.6,0c0.3,0,0.4,0,0.4,0.3c0,0.1,0,0.2,0,0.3c0,0.2,0,0.2-0.3,0.3c-0.2,0-0.5,0-0.7,0c-0.9,0-1.9,0-2.8,0
	c-0.4,0-0.4,0-0.4-0.4c0-0.1,0-0.2,0-0.3c0-0.1,0.1-0.2,0.3-0.2c0.1,0,0.3,0,0.4,0c0.1,0,0.2,0,0.4,0C31.5,75.7,31.6,73.4,31.6,71.1
	"/>
<path fill="#060606" d="M54,74.3c-0.3,0.3-0.5,0.5-0.8,0.7C53,75.1,53,75.3,53,75.5c0.1,0.3,0.1,0.6,0.2,1c-0.3-0.1-0.5-0.2-0.7-0.3
	c-0.2-0.1-0.4-0.3-0.6-0.3c-0.2,0-0.4,0.2-0.6,0.3c-0.2,0.1-0.4,0.2-0.7,0.3c0.1-0.3,0.1-0.5,0.1-0.8c0-0.1,0-0.1,0-0.1
	c0.1-0.2,0-0.4-0.2-0.6c-0.2-0.2-0.5-0.4-0.7-0.7c0.2,0,0.4-0.1,0.6-0.1c0.2,0,0.4-0.1,0.6-0.1c0.1,0,0.2-0.1,0.3-0.2
	c0.2-0.3,0.4-0.6,0.6-1c0.1,0.3,0.3,0.5,0.4,0.7c0.3,0.5,0.3,0.5,0.9,0.6C53.5,74.2,53.7,74.2,54,74.3"/>
<path fill="#FFFFFF" d="M3.9,103.2c1.7-22.3,2-20.1,3.4-40C9.2,37.8,7,6.6,39.6,1.5v6.1c-3.6,1.3-6.8,3.2-9.8,5.4
	c-7.8,6.2-12.6,16.1-15,25.9C9.9,58.5,26.6,70.7,31,77.5c2,3.1,3.5,6.9,4.2,13.7c2.5,22.8,4.9,65.2,0.7,78.5
	c-4.5,14.4-14.2,21.8-21.3,24.5C2.5,166.8,2.8,124.3,3.9,103.2"/>
<path fill="none" stroke="#060606" stroke-width="0.58" d="M3.9,103.2c1.7-22.3,2-20.1,3.4-40C9.2,37.8,7,6.6,39.6,1.5v6.1
	c-3.6,1.3-6.8,3.2-9.8,5.4c-7.8,6.2-12.6,16.1-15,25.9C9.9,58.5,26.6,70.7,31,77.5c2,3.1,3.5,6.9,4.2,13.7
	c2.5,22.8,4.9,65.2,0.7,78.5c-4.5,14.4-14.2,21.8-21.3,24.5C2.5,166.8,2.8,124.3,3.9,103.2z"/>
<path fill="#FFFFFF" d="M59,1.6c0.2,0,0.6,0.1,0.8,0.2c14.9,3.1,21.8,13.3,24.7,22.2c5.1,16.8,3,31.1,3,31.1
	c-3.2,29.2-4.3,35.8,2.7,91.6c0.1,0.4,0.1,0.9,0.2,1.3c1.1,13.2-0.8,25.6-6.3,44c-0.1,0.2-0.1,0.3-0.2,0.5
	c-6-5.5-22.3-14.3-22.3-21.7c0-8.7-1.6-77.4,1.3-92.3c1.3-6.7,13.8-12.9,18-17.8c1.7-2.6,2.3-5.7,2.4-6.2c-0.1,0.6,0-0.3,0,0
	c0.3-2.9,0.9-6.3,1-13.7c0,0-0.4-19.4-14.7-28.9c-3.9-2.6-7.7-4.3-11.3-5.3V1.5C58.7,1.5,58.9,1.6,59,1.6"/>
<path fill="none" stroke="#060606" stroke-width="0.58" d="M59,1.6c0.2,0,0.6,0.1,0.8,0.2c14.9,3.1,21.8,13.3,24.7,22.2
	c5.1,16.8,3,31.1,3,31.1c-3.2,29.2-4.3,35.8,2.7,91.6c0.1,0.4,0.1,0.9,0.2,1.3c1.1,13.2-0.8,25.6-6.3,44c-0.1,0.2-0.1,0.3-0.2,0.5
	c-6-5.5-22.3-14.3-22.3-21.7c0-8.7-1.6-77.4,1.3-92.3c1.3-6.7,13.8-12.9,18-17.8c1.7-2.6,2.3-5.7,2.4-6.2c-0.1,0.6,0-0.3,0,0
	c0.3-2.9,0.9-6.3,1-13.7c0,0-0.4-19.4-14.7-28.9c-3.9-2.6-7.7-4.3-11.3-5.3V1.5C58.7,1.5,58.9,1.6,59,1.6z"/>
<path fill="none" stroke="#060606" stroke-width="0.25" stroke-linecap="round" stroke-dasharray="1,1" d="M84.9,53.9
	c-0.1,0.7-0.8,5.3-2.7,7.6C78.6,66,66,73.3,64.8,79.4c-2.9,14.3-1,81.4-0.7,90.3c0.2,5.9,8.7,11,14.5,15.4c1.2,0.9,5.3,3.8,6.4,4.7"
	/>
<path fill="none" stroke="#060606" stroke-width="0.25" stroke-linecap="round" stroke-dasharray="1,1" d="M84.9,57.7
	C84.3,64,67.4,74,66.4,79.3c-2.8,14.2-0.4,82.2-0.4,91.1c0,3.4,8.7,9.6,13.6,13.3c0.2,0.2,5.7,3.7,5.9,3.9"/>
<path fill="none" stroke="#060606" stroke-width="0.25" stroke-linecap="round" stroke-dasharray="1,1" d="M14.1,191.5
	c4.8-2.3,16.5-10.6,20.2-24c3.1-11.1,2.5-59.1-3.3-86.5C30.4,78,24,73.3,21.6,70c-5.3-7.4-11.5-18.6-8-32.6"/>
<path fill="none" stroke="#060606" stroke-width="0.25" stroke-linecap="round" stroke-dasharray="1,1" d="M11.7,43.6
	c-2.1,12.3,6.1,24.1,8.2,27.1c2.1,3,8.3,7.4,9,11.1c7.5,37.7,7.1,74.9,3.4,86.5c-3.5,11-13.9,19-18.7,21.3"/>
<path fill="#FFFFFF" d="M80.7,104h0.3c0.8,0,1.4-0.6,1.4-1.4V85.4c0-0.8-0.6-1.4-1.4-1.4h-0.3c-0.8,0-1.4,0.6-1.4,1.4v17.3
	C79.4,103.4,80,104,80.7,104"/>
<path fill="none" stroke="#060606" stroke-width="0.339" d="M80.7,104h0.3c0.8,0,1.4-0.6,1.4-1.4V85.4c0-0.8-0.6-1.4-1.4-1.4h-0.3
	c-0.8,0-1.4,0.6-1.4,1.4v17.3C79.4,103.4,80,104,80.7,104z"/>
<path d="M80.9,103.4c0.5,0,0.9-0.4,0.9-0.9V85.5c0-0.5-0.4-0.9-0.9-0.9S80,85,80,85.5v17.1C80,103,80.4,103.4,80.9,103.4"/>
<path fill="#FFFFFF" d="M80.7,151.7h0.3c0.8,0,1.4-0.6,1.4-1.4v-17.3c0-0.8-0.6-1.4-1.4-1.4h-0.3c-0.8,0-1.4,0.6-1.4,1.4v17.3
	C79.4,151.1,80,151.7,80.7,151.7"/>
<path fill="none" stroke="#060606" stroke-width="0.339" d="M80.7,151.7h0.3c0.8,0,1.4-0.6,1.4-1.4v-17.3c0-0.8-0.6-1.4-1.4-1.4
	h-0.3c-0.8,0-1.4,0.6-1.4,1.4v17.3C79.4,151.1,80,151.7,80.7,151.7z"/>
<path fill="none" stroke="#060606" stroke-width="0.25" stroke-linecap="round" stroke-dasharray="1,1" d="M20.4,64.5
	c0,0-10.8,102.8,4.5,121.4"/>
<path fill="none" stroke="#060606" stroke-width="0.25" stroke-linecap="round" stroke-dasharray="1,1" d="M19.2,63
	c0,0-13.3,96.5,3.8,124.7"/>
<path fill="none" stroke="#060606" stroke-width="0.25" stroke-linecap="round" stroke-dasharray="1,1" d="M78.6,63.2
	c0,0,4.6,103.7-6,120.2"/>
<path fill="none" stroke="#060606" stroke-width="0.25" stroke-linecap="round" stroke-dasharray="1,1" d="M77,64.5
	c0,0,3.5,100.1-5.7,117.4"/>
<path fill="#FFFFFF" d="M19.5,104h57.6c2.1,0,3.8-1.7,3.8-3.8V87.5c0-2.1-1.7-3.8-3.8-3.8H19.5c-2.1,0-3.8,1.7-3.8,3.8v12.8
	C15.8,102.3,17.5,104,19.5,104"/>
<path fill="none" stroke="#060606" stroke-width="0.339" d="M19.5,104h57.6c2.1,0,3.8-1.7,3.8-3.8V87.5c0-2.1-1.7-3.8-3.8-3.8H19.5
	c-2.1,0-3.8,1.7-3.8,3.8v12.8C15.8,102.3,17.5,104,19.5,104z"/>
<path fill="none" stroke="#060606" stroke-width="0.25" stroke-linecap="round" stroke-dasharray="1,1" d="M79.6,85.7L20,85.7
	c-1.6,0-3,1.3-3,2.8v10.6c0,1.5,1.3,2.8,3,2.8h59.4"/>
<line fill="none" stroke="#060606" stroke-width="0.25" stroke-linecap="round" x1="80.2" y1="100.9" x2="79.7" y2="100.9"/>
<path fill="none" stroke="#060606" stroke-width="0.25" stroke-linecap="round" stroke-dasharray="1.003,1.003" d="M78.7,100.9
	L20,100.8c-0.9,0-1.7-0.7-1.7-1.5V88.4c0-0.8,0.8-1.5,1.7-1.5h59.3"/>
<line fill="none" stroke="#060606" stroke-width="0.25" stroke-linecap="round" x1="79.7" y1="86.9" x2="80.2" y2="86.9"/>
<path d="M80.9,151.1c0.5,0,0.9-0.4,0.9-0.9v-17.1c0-0.5-0.4-0.9-0.9-0.9s-0.9,0.4-0.9,0.9v17.1C80,150.7,80.4,151.1,80.9,151.1"/>
<path fill="#FFFFFF" d="M19.5,151.7h57.6c2.1,0,3.8-1.7,3.8-3.8v-12.5c0-2.1-1.7-3.8-3.8-3.8H19.5c-2.1,0-3.8,1.7-3.8,3.8V148
	C15.8,150,17.5,151.7,19.5,151.7"/>
<path fill="none" stroke="#060606" stroke-width="0.339" d="M19.5,151.7h57.6c2.1,0,3.8-1.7,3.8-3.8v-12.5c0-2.1-1.7-3.8-3.8-3.8
	H19.5c-2.1,0-3.8,1.7-3.8,3.8V148C15.8,150,17.5,151.7,19.5,151.7z"/>
<line fill="none" stroke="#060606" stroke-width="0.25" stroke-linecap="round" x1="79.2" y1="133.2" x2="78.7" y2="133.2"/>
<path fill="none" stroke="#060606" stroke-width="0.25" stroke-linecap="round" stroke-dasharray="0.995,0.995" d="M77.7,133.2H20
	c-1.8,0-3.3,1.3-3.3,3v10.9c0,1.7,1.5,3,3.3,3l58.3,0.1"/>
<line fill="none" stroke="#060606" stroke-width="0.25" stroke-linecap="round" x1="78.8" y1="150.2" x2="79.3" y2="150.2"/>
<line fill="none" stroke="#060606" stroke-width="0.25" stroke-linecap="round" x1="80" y1="133.8" x2="79.5" y2="133.8"/>
<path fill="none" stroke="#060606" stroke-width="0.25" stroke-linecap="round" stroke-dasharray="1.006,1.006" d="M78.5,133.8H20
	c-1.5,0-2.6,1.1-2.6,2.4v10.9c0,1.3,1.2,2.4,2.6,2.4l59,0"/>
<line fill="none" stroke="#060606" stroke-width="0.25" stroke-linecap="round" x1="79.5" y1="149.5" x2="80" y2="149.5"/>
</svg>
