<?xml version="1.0" encoding="utf-8"?>
<!-- Generator: Adobe Illustrator 18.1.1, SVG Export Plug-In . SVG Version: 6.00 Build 0)  -->
<svg version="1.1" id="layout_1" xmlns="http://www.w3.org/2000/svg" xmlns:xlink="http://www.w3.org/1999/xlink" x="0px" y="0px"
	 viewBox="0 0 179.3 150.8" enable-background="new 0 0 179.3 150.8" xml:space="preserve" style="max-height: 245px;">
<path fill="#FFFFFF" d="M100.2,110.7C100.2,110.7,100.2,110.6,100.2,110.7C100.2,110.6,100.2,110.6,100.2,110.7
	C100.2,110.7,100.2,110.7,100.2,110.7"/>
<path fill="none" stroke="#231814" stroke-width="0.724" stroke-miterlimit="10" d="M100.2,110.7
	C100.2,110.7,100.2,110.6,100.2,110.7C100.2,110.6,100.2,110.6,100.2,110.7C100.2,110.7,100.2,110.7,100.2,110.7z"/>
<path fill="#FFFFFF" d="M124,0.8c23-2.6,39.5,2,45.5,18c-0.9,0.1-2.2,0.2-3.9,0.3c-9.5,0.7-31,1.7-54.7-0.3c-0.5,0-1.1-0.1-1.6-0.1
	c0,0,0,0.1,0,0.1C103.2,8.1,117,1.7,124,0.8"/>
<path fill="none" stroke="#060606" stroke-width="0.339" d="M124,0.8c23-2.6,39.5,2,45.5,18c-0.9,0.1-2.2,0.2-3.9,0.3
	c-9.5,0.7-31,1.7-54.7-0.3c-0.5,0-1.1-0.1-1.6-0.1c0,0,0,0.1,0,0.1C103.2,8.1,117,1.7,124,0.8z"/>
<path fill="#FFFFFF" d="M126,4.3c19.8-2.2,34,1.7,39.1,15.5c-0.8,0.1-1.9,0.2-3.4,0.3c-8.2,0.6-26.7,1.5-47.1-0.2
	c-0.5,0-0.9-0.1-1.4-0.1c0,0,0,0,0,0.1C108.1,10.6,120,5.1,126,4.3"/>
<path fill="none" stroke="#060606" stroke-width="0.339" d="M126,4.3c19.8-2.2,34,1.7,39.1,15.5c-0.8,0.1-1.9,0.2-3.4,0.3
	c-8.2,0.6-26.7,1.5-47.1-0.2c-0.5,0-0.9-0.1-1.4-0.1c0,0,0,0,0,0.1C108.1,10.6,120,5.1,126,4.3z"/>
<path fill="#FFFFFF" d="M170.7,18.7c0,0-0.4,0-1.3,0.1c-0.9,0.1-2.2,0.2-3.9,0.3c-9.5,0.7-31.1,1.7-54.7-0.3c-0.5,0-1.1-0.1-1.6-0.1
	c0,0,0,0.1,0,0.1c-9,17.5-10.5,79.3-9,91.9c0,0,0,0,0,0c0.1,0.8,0.2,1.4,0.3,1.8c8.4,19.1,69.9,14.1,74.9,2.4c0.3-1,0.6-2.1,0.9-3.2
	c0.4-1.8,0.8-3.7,1.1-5.7C182.1,76.9,174.4,30,170.7,18.7"/>
<path fill="none" stroke="#060606" stroke-width="0.339" d="M170.7,18.7c0,0-0.4,0-1.3,0.1c-0.9,0.1-2.2,0.2-3.9,0.3
	c-9.5,0.7-31.1,1.7-54.7-0.3c-0.5,0-1.1-0.1-1.6-0.1c0,0,0,0.1,0,0.1c-9,17.5-10.5,79.3-9,91.9c0,0,0,0,0,0c0.1,0.8,0.2,1.4,0.3,1.8
	c8.4,19.1,69.9,14.1,74.9,2.4c0.3-1,0.6-2.1,0.9-3.2c0.4-1.8,0.8-3.7,1.1-5.7C182.1,76.9,174.4,30,170.7,18.7z"/>
<line fill="#FFFFFF" x1="130.1" y1="20" x2="128.4" y2="125"/>
<line fill="none" stroke="#060606" stroke-width="0.339" x1="130.1" y1="20" x2="128.4" y2="125"/>
<line fill="none" stroke="#060606" stroke-width="0.25" stroke-linecap="round" stroke-dasharray="1,1" x1="132.9" y1="20" x2="131.3" y2="125"/>
<line fill="#FFFFFF" x1="147.5" y1="20" x2="148.7" y2="124.9"/>
<line fill="none" stroke="#060606" stroke-width="0.339" x1="147.5" y1="20" x2="148.7" y2="124.9"/>
<line fill="none" stroke="#060606" stroke-width="0.25" stroke-linecap="round" stroke-dasharray="1,1" x1="144.5" y1="20" x2="145.7" y2="124.9"/>
<polyline fill="none" stroke="#808080" stroke-width="0.25" stroke-linecap="round" points="109.3,19.5 112.3,18 109,18.8 
	112.2,17.5 108.8,18.1 112,17 108.7,17.4 111.9,16.5 108.5,16.8 111.9,16 108.4,16.1 111.8,15.4 108.4,15.4 111.8,14.9 108.4,14.7 
	111.8,14.4 108.4,14 111.8,13.9 108.4,13.3 111.8,13.4 108.5,12.6 111.9,12.9 108.7,11.9 112,12.4 108.8,11.2 112.2,12 109.1,10.6 
	112.3,11.5 109.3,9.9 112.5,11.1 109.6,9.3 112.8,10.6 110,8.6 113,10.2 110.4,8 113.3,9.8 110.8,7.5 113.6,9.4 111.3,6.9 114,9 
	111.8,6.4 114.3,8.7 112.3,5.9 114.7,8.3 112.8,5.5 115.1,8 113.4,5.1 115.6,7.7 113.9,4.7 116,7.4 114.5,4.3 116.5,7.1 115.1,4 
	116.9,6.8 115.7,3.7 117.4,6.6 116.3,3.4 117.9,6.4 116.9,3.1 118.5,6.2 117.5,2.9 119,6 118.1,2.6 119.5,5.8 118.7,2.4 120.1,5.6 
	119.4,2.2 120.6,5.4 120,2.1 121.4,5.2 121.2,1.8 122.5,4.9 122.3,1.5 123.6,4.7 123.5,1.2 124.7,4.5 124.6,1 125.8,4.3 125.8,0.8 
	126.8,4.1 127,0.7 127.9,4 128.1,0.5 129.1,3.9 129.3,0.4 130.2,3.8 130.5,0.3 131.3,3.7 131.7,0.3 132.4,3.6 132.8,0.2 133.5,3.6 
	134,0.2 134.6,3.6 135.2,0.2 135.7,3.6 136.4,0.2 136.8,3.6 137.5,0.2 138,3.7 138.7,0.3 139.1,3.7 139.9,0.4 140.2,3.8 141.1,0.5 
	141.3,3.9 142.2,0.6 142.4,4 143.4,0.7 143.5,4.2 144.6,0.9 144.6,4.3 145.7,1.1 145.7,4.5 146.9,1.3 146.8,4.7 148.1,1.5 147.9,5 
	149.2,1.8 149,5.2 150.4,2.1 150,5.5 151.5,2.4 151.1,5.8 152.7,2.7 152.2,6.1 153.8,3.1 153.2,6.5 154.9,3.5 154.2,6.9 156,4 
	155.2,7.3 157.1,4.5 156.1,7.8 158.2,5.1 157,8.3 159.3,5.7 157.5,8.6 159.7,6 157.9,8.9 160.1,6.3 158.2,9.1 160.5,6.6 158.5,9.4 
	160.9,6.9 158.8,9.7 161.2,7.2 159.1,9.9 161.6,7.6 159.4,10.2 161.9,7.9 159.8,10.5 162.3,8.2 160.1,10.8 162.6,8.6 160.3,11.1 
	163,8.9 160.6,11.4 163.3,9.2 160.9,11.7 163.6,9.6 161.2,12 163.9,10 161.5,12.3 164.2,10.3 161.7,12.7 164.5,10.7 162,13 
	164.8,11.1 162.3,13.3 165.1,11.4 162.5,13.7 165.4,11.8 162.8,14 165.7,12.2 163,14.4 165.9,12.6 163.3,14.7 166.2,13 163.5,15.1 
	166.5,13.4 163.7,15.4 166.7,13.8 164,15.8 167,14.2 164.2,16.1 167.2,14.6 164.4,16.5 167.5,15 164.6,16.9 167.7,15.4 164.9,17.2 
	167.9,15.8 165.1,17.6 168.2,16.2 165.3,18 168.4,16.6 165.5,18.4 168.6,17 165.6,18.7 168.8,17.4 165.8,19.1 169,17.9 166,19.4 
	169.2,18.3 "/>
<path fill="none" stroke="#060606" stroke-width="0.25" stroke-linecap="round" stroke-dasharray="1,1" d="M108.2,22.9
	c0,0,29.6,4.2,63-0.3"/>
<path fill="none" stroke="#060606" stroke-width="0.25" stroke-linecap="round" stroke-dasharray="1,1" d="M107.7,24.6
	c0,0,35,5,64.1-0.7"/>
<path fill="#FFFFFF" d="M138.5,131.1c21.5,0,35.6-6.7,38.4-14.6c1.1-3,1.5-5.4,1.5-7.4c-0.2-1-0.5-2.1-0.9-3.1
	c-0.3,2-0.7,3.9-1.1,5.7c-0.3,1.1-0.5,2.1-0.9,3.2c-5.1,11.7-66.6,16.7-74.9-2.4c-0.1-0.4-0.2-1-0.3-1.8c0,0,0,0-0.1,0
	c-0.5,1-0.8,2.3-1,3.9c0,0.3,0,0.7-0.1,1.1C100.6,122.3,108.2,131.1,138.5,131.1"/>
<path fill="none" stroke="#231814" stroke-width="0.724" stroke-miterlimit="10" d="M138.5,131.1c21.5,0,35.6-6.7,38.4-14.6
	c1.1-3,1.5-5.4,1.5-7.4c-0.2-1-0.5-2.1-0.9-3.1c-0.3,2-0.7,3.9-1.1,5.7c-0.3,1.1-0.5,2.1-0.9,3.2c-5.1,11.7-66.6,16.7-74.9-2.4
	c-0.1-0.4-0.2-1-0.3-1.8c0,0,0,0-0.1,0c-0.5,1-0.8,2.3-1,3.9c0,0.3,0,0.7-0.1,1.1C100.6,122.3,108.2,131.1,138.5,131.1z"/>
<path fill="#FFFFFF" d="M178.9,112.4c-0.1-1.1-0.2-2.2-0.4-3.3c-0.1,2-0.4,4.4-1.5,7.4c-2.8,7.9-16.9,14.6-38.4,14.6
	c-30.3,0-37.9-8.8-39.4-15.5c-0.1,3.5,0.4,8,1.3,12.6c0.3,1.4,0.6,2.9,0.9,4.3c0.5,2.2,1,4.4,1.6,6.4c3.4,15,45.7,11,55.1,10.7
	c14.9-1.4,17.3-10,18.4-17.7c0.2-1.4,0.4-2.8,0.6-4.1c0.1-1,0.3-1.9,0.5-2.7c0.8-4.7,1.4-8.4,1.4-11.7
	C178.9,113.1,178.9,112.8,178.9,112.4"/>
<path fill="none" stroke="#231814" stroke-width="0.724" stroke-miterlimit="10" d="M178.9,112.4c-0.1-1.1-0.2-2.2-0.4-3.3
	c-0.1,2-0.4,4.4-1.5,7.4c-2.8,7.9-16.9,14.6-38.4,14.6c-30.3,0-37.9-8.8-39.4-15.5c-0.1,3.5,0.4,8,1.3,12.6c0.3,1.4,0.6,2.9,0.9,4.3
	c0.5,2.2,1,4.4,1.6,6.4c3.4,15,45.7,11,55.1,10.7c14.9-1.4,17.3-10,18.4-17.7c0.2-1.4,0.4-2.8,0.6-4.1c0.1-1,0.3-1.9,0.5-2.7
	c0.8-4.7,1.4-8.4,1.4-11.7C178.9,113.1,178.9,112.8,178.9,112.4z"/>
<path fill="#FFFFFF" d="M113.6,127.4c0,0,24.1,5.8,46.3,0v16.3c0,0-19.9,4-46.3-0.8V127.4z"/>
<path fill="none" stroke="#060606" stroke-width="0.5" stroke-linecap="round" d="M113.6,127.4c0,0,24.1,5.8,46.3,0v16.3
	c0,0-19.9,4-46.3-0.8V127.4z"/>
<path fill-rule="evenodd" clip-rule="evenodd" d="M140,136.1c-0.2,0.4-0.3,0.7-0.5,1.1c-0.4,0.1-0.8,0.1-1.2,0.2
	c0.3,0.3,0.6,0.5,0.9,0.8c-0.1,0.4-0.1,0.8-0.2,1.2c0.4-0.2,0.7-0.4,1.1-0.6c0.4,0.2,0.7,0.4,1.1,0.5l-0.2-1.2
	c0.3-0.3,0.6-0.6,0.8-0.8c-0.4,0-0.8-0.1-1.2-0.1C140.3,136.8,140.1,136.4,140,136.1"/>
<path d="M122.5,134c0.2,0,0.4,0,0.6,0c0,0,0.1,0,0.1,0.1c-0.1,2.1-0.3,4.1-0.4,6.2c0,0,0,0.1-0.1,0.1c-0.2,0-0.4,0-0.7,0
	c-0.1,0-0.2,0.1-0.2,0.1l0,0.5c0,0.1,0.1,0.2,0.1,0.2c1.1,0.1,2.2,0.2,3.2,0.2c0.1,0,0.2-0.1,0.2-0.1c0-0.2,0-0.4,0-0.5
	c0-0.1-0.1-0.2-0.1-0.2c-0.2,0-0.4,0-0.7,0c0,0-0.1,0-0.1-0.1c0.1-2.1,0.3-4.1,0.4-6.2c0,0,0-0.1,0.1-0.1c0.2,0,0.4,0,0.6,0
	c0.1,0,0.2-0.1,0.2-0.1c0-0.2,0-0.4,0-0.5c0-0.1-0.1-0.2-0.1-0.2c-1-0.1-2.1-0.1-3.1-0.2c-0.1,0-0.2,0.1-0.2,0.1l0,0.5
	C122.4,133.9,122.4,134,122.5,134 M142.3,134.5c0.2,0,0.4,0,0.6,0c0,0,0.1,0,0.1,0.1c0.1,2.1,0.1,4.1,0.2,6.2c0,0,0,0.1-0.1,0.1
	c-0.2,0-0.4,0-0.7,0c-0.1,0-0.2,0.1-0.1,0.2c0,0.2,0,0.4,0,0.5c0,0.1,0.1,0.1,0.2,0.1c1.1,0,2.2-0.1,3.3-0.1c0.1,0,0.1-0.1,0.1-0.2
	c0-0.2,0-0.4,0-0.5c0-0.1-0.1-0.1-0.2-0.1c-0.2,0-0.4,0-0.7,0c0,0-0.1,0-0.1-0.1c-0.1-2.1-0.2-4.1-0.3-6.2c0,0,0-0.1,0.1-0.1
	c0.2,0,0.4,0,0.6,0c0.1,0,0.1-0.1,0.1-0.2c0-0.2,0-0.4,0-0.5c0-0.1-0.1-0.1-0.2-0.1c-1,0-2.1,0.1-3.1,0.1c-0.1,0-0.1,0.1-0.1,0.2
	c0,0.2,0,0.4,0,0.5C142.2,134.4,142.2,134.5,142.3,134.5 M129.1,133.5c-0.7,0-1.3-0.1-2-0.1c-0.2,0-0.3,0.1-0.4,0.3
	c-0.1,2.4-0.3,4.9-0.4,7.3c0,0.2,0.1,0.3,0.3,0.4c0.7,0,1.4,0.1,2,0.1c1.5,0.1,2.8-1.1,2.8-2.5c0-0.9,0.1-1.8,0.1-2.7
	C131.7,134.8,130.5,133.6,129.1,133.5 M129.9,138.9c0,0.6-0.5,1-1.1,1c-0.2,0-0.4,0-0.6,0c0,0-0.1,0-0.1-0.1
	c0.1-1.5,0.1-3.1,0.2-4.6c0,0,0-0.1,0.1-0.1c0.2,0,0.4,0,0.6,0c0.6,0,1,0.5,1,1.1C130,137.1,129.9,138,129.9,138.9 M121.1,133
	c-0.5,0-0.9-0.1-1.4-0.1c-0.1,0-0.2,0-0.3,0.1c-0.7,1-1.4,2.1-2.2,3.1c0,0.1-0.2,0-0.2-0.1c0.1-1.1,0.2-2.2,0.3-3.2
	c0-0.1-0.1-0.2-0.2-0.2c-0.4,0-0.9-0.1-1.3-0.1c-0.1,0-0.2,0.1-0.2,0.2c-0.3,2.5-0.6,5-0.8,7.5c0,0.1,0.1,0.2,0.2,0.2
	c0.5,0.1,0.9,0.1,1.4,0.1c0.1,0,0.2-0.1,0.2-0.2c0.1-1.2,0.2-2.3,0.4-3.5c0-0.1,0.1-0.1,0.2,0c0.6,1.3,1.2,2.6,1.8,3.8
	c0.1,0.1,0.2,0.2,0.3,0.2c0.5,0,1,0.1,1.5,0.1c0.1,0,0.2-0.1,0.2-0.2c-0.7-1.3-1.3-2.6-1.9-4c-0.1-0.1,0-0.2,0-0.3
	c0.7-1.1,1.5-2.2,2.2-3.3C121.3,133.2,121.3,133,121.1,133 M156.7,136.5c-0.1,0-0.3,0-0.4,0c-0.2,0-0.3,0-0.5,0
	c-0.2,0-0.3,0.2-0.3,0.4c0,0.2,0,0.5,0.1,0.7c0,0.2,0.2,0.3,0.4,0.3c0.1,0,0.2,0,0.3,0c0.1,0,0.1,0,0.1,0.1l0,0.5h0
	c0,0.5-0.4,0.9-0.9,0.9c-0.4,0-0.8-0.4-0.8-0.8c-0.1-1.1-0.2-2.3-0.3-3.4c0-0.4,0.2-0.8,0.7-0.9c0.4-0.1,0.8,0.1,1,0.5
	c0.1,0.1,0.2,0.2,0.3,0.2c0.3,0,0.7-0.1,1-0.1c0.2,0,0.3-0.2,0.3-0.4c-0.3-1.2-1.5-2-2.7-1.8c-1.3,0.2-2.3,1.4-2.2,2.7l0.3,3.3
	c0.1,1.3,1.2,2.3,2.5,2.3c0.6,0,1.1-0.2,1.5-0.4c0,0,0.1,0,0.1,0.1c0,0,0,0,0,0.1c0,0.1,0.1,0.1,0.2,0.1c0.3,0,0.7-0.1,1-0.1
	c0.1,0,0.2-0.1,0.1-0.2c-0.1-0.6-0.1-1.3-0.2-1.9c0-0.3-0.1-0.6-0.1-1c0-0.4-0.1-0.7-0.1-1.1c0-0.2-0.2-0.3-0.4-0.3
	C157.3,136.4,157,136.4,156.7,136.5 M150.3,137.6c-0.7-1.4-1.5-2.7-2.2-4.1c0-0.1-0.1-0.1-0.2-0.1c-0.2,0-0.5,0-0.7,0l0,0
	c-0.2,0-0.4,0-0.6,0c-0.1,0-0.2,0.1-0.2,0.2c0.1,2.5,0.2,5,0.4,7.6c0,0.1,0.1,0.2,0.2,0.2c0.4,0,0.8,0,1.3-0.1
	c0.1,0,0.2-0.1,0.2-0.2l-0.2-4c0,0,0.1-0.1,0.1,0c0.7,1.3,1.4,2.6,2.2,3.9c0,0.1,0.1,0.1,0.2,0.1c0.5,0,0.9-0.1,1.4-0.1
	c0.1,0,0.2-0.1,0.2-0.2c-0.2-2.5-0.4-5-0.6-7.5c0-0.1-0.1-0.2-0.2-0.2c-0.4,0-0.8,0.1-1.2,0.1c-0.1,0-0.2,0.1-0.2,0.2
	C150.2,134.8,150.3,136.2,150.3,137.6C150.4,137.6,150.3,137.6,150.3,137.6 M135.2,136.8c-0.3-0.1-1.1-0.3-1.2-0.8
	c-0.1-0.5,0.4-0.9,0.8-0.9c0.3,0,0.7,0.3,1,0.6c0.1,0.1,0.3,0.2,0.4,0.1c0.3-0.2,0.6-0.3,0.8-0.5c0.2-0.1,0.2-0.3,0.1-0.5
	c-0.5-0.8-1.4-1.4-2.4-1.4c-1.4,0-2.6,1.1-2.6,2.5c0,1.4,1.1,1.9,1.9,2.3c0.1,0,0.2,0.1,0.3,0.1c1,0.5,1.2,0.7,1.2,1
	c0,0.5-0.4,0.8-0.9,0.8c-0.3,0-0.7-0.3-1-0.7c-0.1-0.1-0.3-0.2-0.5-0.1c-0.3,0.2-0.6,0.4-0.9,0.6c-0.2,0.1-0.2,0.3-0.1,0.4
	c0.4,0.8,1.3,1.4,2.4,1.5c1.4,0,2.6-1,2.7-2.4C137.6,137.9,136,137.2,135.2,136.8"/>
<path fill="#FFFFFF" d="M79.1,110.7C79.1,110.7,79.1,110.6,79.1,110.7C79.1,110.6,79.1,110.6,79.1,110.7
	C79.1,110.7,79.1,110.7,79.1,110.7"/>
<path fill="none" stroke="#231814" stroke-width="0.724" stroke-miterlimit="10" d="M79.1,110.7C79.1,110.7,79.1,110.6,79.1,110.7
	C79.1,110.6,79.1,110.6,79.1,110.7C79.1,110.7,79.1,110.7,79.1,110.7z"/>
<path fill="#FFFFFF" d="M55.3,0.8c-23-2.6-39.5,2-45.5,18c0.9,0.1,2.2,0.2,3.9,0.3c9.5,0.7,31,1.7,54.7-0.3c0.5,0,1.1-0.1,1.6-0.1
	c0,0,0,0.1,0,0.1C76.1,8.1,62.3,1.7,55.3,0.8"/>
<path fill="none" stroke="#060606" stroke-width="0.339" d="M55.3,0.8c-23-2.6-39.5,2-45.5,18c0.9,0.1,2.2,0.2,3.9,0.3
	c9.5,0.7,31,1.7,54.7-0.3c0.5,0,1.1-0.1,1.6-0.1c0,0,0,0.1,0,0.1C76.1,8.1,62.3,1.7,55.3,0.8z"/>
<path fill="#FFFFFF" d="M53.3,4.3C33.5,2.1,19.3,6,14.1,19.8c0.8,0.1,1.9,0.2,3.4,0.3c8.2,0.6,26.7,1.5,47.1-0.2
	c0.5,0,0.9-0.1,1.4-0.1c0,0,0,0,0,0.1C71.1,10.6,59.3,5.1,53.3,4.3"/>
<path fill="none" stroke="#060606" stroke-width="0.339" d="M53.3,4.3C33.5,2.1,19.3,6,14.1,19.8c0.8,0.1,1.9,0.2,3.4,0.3
	c8.2,0.6,26.7,1.5,47.1-0.2c0.5,0,0.9-0.1,1.4-0.1c0,0,0,0,0,0.1C71.1,10.6,59.3,5.1,53.3,4.3z"/>
<path fill="#FFFFFF" d="M8.6,18.7c0,0,0.4,0,1.3,0.1c0.9,0.1,2.2,0.2,3.9,0.3c9.5,0.7,31.1,1.7,54.7-0.3c0.5,0,1.1-0.1,1.6-0.1
	c0,0,0,0.1,0,0.1c9,17.5,10.5,79.3,9,91.9c0,0,0,0,0,0c-0.1,0.8-0.2,1.4-0.3,1.8c-8.4,19.1-69.9,14.1-74.9,2.4
	c-0.3-1-0.6-2.1-0.9-3.2c-0.4-1.8-0.8-3.7-1.1-5.7C-2.8,76.9,4.9,30,8.6,18.7"/>
<path fill="none" stroke="#060606" stroke-width="0.339" d="M8.6,18.7c0,0,0.4,0,1.3,0.1c0.9,0.1,2.2,0.2,3.9,0.3
	c9.5,0.7,31.1,1.7,54.7-0.3c0.5,0,1.1-0.1,1.6-0.1c0,0,0,0.1,0,0.1c9,17.5,10.5,79.3,9,91.9c0,0,0,0,0,0c-0.1,0.8-0.2,1.4-0.3,1.8
	c-8.4,19.1-69.9,14.1-74.9,2.4c-0.3-1-0.6-2.1-0.9-3.2c-0.4-1.8-0.8-3.7-1.1-5.7C-2.8,76.9,4.9,30,8.6,18.7z"/>
<line fill="#FFFFFF" x1="49.2" y1="20" x2="50.8" y2="125"/>
<line fill="none" stroke="#060606" stroke-width="0.339" x1="49.2" y1="20" x2="50.8" y2="125"/>
<line fill="none" stroke="#060606" stroke-width="0.25" stroke-linecap="round" stroke-dasharray="1,1" x1="46.4" y1="20" x2="48" y2="125"/>
<line fill="#FFFFFF" x1="31.8" y1="20" x2="30.6" y2="124.9"/>
<line fill="none" stroke="#060606" stroke-width="0.339" x1="31.8" y1="20" x2="30.6" y2="124.9"/>
<line fill="none" stroke="#060606" stroke-width="0.25" stroke-linecap="round" stroke-dasharray="1,1" x1="34.8" y1="20" x2="33.5" y2="124.9"/>
<polyline fill="none" stroke="#808080" stroke-width="0.25" stroke-linecap="round" points="66.9,18.1 70.1,19.1 67,17.7 70.4,18.4 
	67.2,17.2 70.5,17.8 67.3,16.7 70.7,17.1 67.4,16.2 70.8,16.4 67.5,15.7 70.9,15.7 67.5,15.2 70.9,15.1 67.5,14.7 70.9,14.4 
	67.5,14.2 70.9,13.7 67.5,13.7 70.8,13 67.4,13.2 70.7,12.3 67.3,12.7 70.5,11.6 67.2,12.2 70.3,10.9 67,11.7 70.1,10.2 66.8,11.3 
	69.8,9.6 66.6,10.8 69.5,8.9 66.4,10.4 69.1,8.3 66.1,10 68.7,7.7 65.8,9.6 68.2,7.2 65.5,9.2 67.8,6.7 65.1,8.8 67.3,6.2 64.8,8.5 
	66.7,5.7 64.4,8.1 66.2,5.3 63.9,7.8 65.6,4.9 63.5,7.5 65.1,4.5 63,7.2 64.5,4.2 62.6,7 63.9,3.8 62.1,6.7 63.3,3.5 61.6,6.5 
	62.7,3.3 61.1,6.3 62.1,3 60.6,6.1 61.5,2.8 60,5.9 60.9,2.5 59.5,5.7 60.2,2.3 58.9,5.5 59.6,2.1 58.4,5.3 58.7,1.9 57.3,5.1 
	57.6,1.6 56.2,4.8 56.4,1.4 55.2,4.6 55.2,1.1 54.1,4.4 54.1,0.9 53,4.2 52.9,0.8 51.9,4.1 51.7,0.6 50.8,3.9 50.6,0.5 49.7,3.8 
	49.4,0.4 48.6,3.7 48.2,0.3 47.5,3.7 47,0.2 46.3,3.6 45.9,0.2 45.2,3.6 44.7,0.2 44.1,3.6 43.5,0.2 43,3.6 42.3,0.2 41.9,3.6 
	41.1,0.3 40.8,3.7 40,0.3 39.6,3.8 38.8,0.4 38.5,3.9 37.6,0.5 37.4,4 36.5,0.7 36.3,4.1 35.3,0.8 35.2,4.3 34.1,1 34.1,4.4 33,1.2 
	33,4.6 31.8,1.4 31.9,4.8 30.6,1.6 30.8,5.1 29.5,1.9 29.8,5.3 28.3,2.2 28.7,5.6 27.2,2.5 27.6,6 26.1,2.9 26.6,6.3 24.9,3.3 
	25.6,6.7 23.8,3.7 24.6,7.1 22.7,4.2 23.7,7.5 21.6,4.8 22.7,8 20.5,5.4 21.9,8.5 19.8,5.9 21.6,8.8 19.4,6.2 21.3,9 19,6.5 
	20.9,9.3 18.6,6.8 20.6,9.5 18.2,7.1 20.3,9.8 17.9,7.4 20,10.1 17.5,7.7 19.7,10.4 17.2,8 19.4,10.6 16.8,8.4 19.1,10.9 16.5,8.7 
	18.8,11.2 16.2,9.1 18.5,11.5 15.8,9.4 18.2,11.9 15.5,9.8 17.9,12.2 15.2,10.1 17.7,12.5 14.9,10.5 17.4,12.8 14.6,10.9 17.1,13.2 
	14.3,11.2 16.9,13.5 14,11.6 16.6,13.8 13.7,12 16.4,14.2 13.5,12.4 16.1,14.5 13.2,12.8 15.9,14.9 12.9,13.2 15.6,15.2 12.7,13.6 
	15.4,15.6 12.4,14 15.2,16 12.2,14.4 15,16.3 11.9,14.8 14.7,16.7 11.7,15.2 14.5,17.1 11.5,15.6 14.3,17.4 11.2,16 14.1,17.8 
	11,16.4 13.9,18.2 10.8,16.8 13.7,18.5 10.6,17.2 13.6,18.9 10.4,17.6 13.4,19.3 10.2,18.1 13.2,19.6 "/>
<path fill="none" stroke="#060606" stroke-width="0.25" stroke-linecap="round" stroke-dasharray="1,1" d="M71.1,22.9
	c0,0-29.6,4.2-63-0.3"/>
<path fill="none" stroke="#060606" stroke-width="0.25" stroke-linecap="round" stroke-dasharray="1,1" d="M71.6,24.6
	c0,0-35,5-64.1-0.7"/>
<path fill="#FFFFFF" d="M40.8,131.1c-21.5,0-35.6-6.7-38.4-14.6c-1.1-3-1.5-5.4-1.5-7.4c0.2-1,0.5-2.1,0.9-3.1
	c0.3,2,0.7,3.9,1.1,5.7c0.3,1.1,0.5,2.1,0.9,3.2c5.1,11.7,66.6,16.7,74.9-2.4c0.1-0.4,0.2-1,0.3-1.8c0,0,0,0,0.1,0
	c0.5,1,0.8,2.3,1,3.9c0,0.3,0,0.7,0.1,1.1C78.7,122.3,71,131.1,40.8,131.1"/>
<path fill="none" stroke="#231814" stroke-width="0.724" stroke-miterlimit="10" d="M40.8,131.1c-21.5,0-35.6-6.7-38.4-14.6
	c-1.1-3-1.5-5.4-1.5-7.4c0.2-1,0.5-2.1,0.9-3.1c0.3,2,0.7,3.9,1.1,5.7c0.3,1.1,0.5,2.1,0.9,3.2c5.1,11.7,66.6,16.7,74.9-2.4
	c0.1-0.4,0.2-1,0.3-1.8c0,0,0,0,0.1,0c0.5,1,0.8,2.3,1,3.9c0,0.3,0,0.7,0.1,1.1C78.7,122.3,71,131.1,40.8,131.1z"/>
<path fill="#FFFFFF" d="M0.4,112.4c0.1-1.1,0.2-2.2,0.4-3.3c0.1,2,0.4,4.4,1.5,7.4c2.8,7.9,16.9,14.6,38.4,14.6
	c30.3,0,37.9-8.8,39.4-15.5c0.1,3.5-0.4,8-1.3,12.6c-0.3,1.4-0.6,2.9-0.9,4.3c-0.5,2.2-1,4.4-1.6,6.4c-3.4,15-45.7,11-55.1,10.7
	C6.3,148.4,4,139.7,2.9,132c-0.2-1.4-0.4-2.8-0.6-4.1c-0.1-1-0.3-1.9-0.5-2.7c-0.8-4.7-1.4-8.4-1.4-11.7
	C0.4,113.1,0.4,112.8,0.4,112.4"/>
<path fill="none" stroke="#231814" stroke-width="0.724" stroke-miterlimit="10" d="M0.4,112.4c0.1-1.1,0.2-2.2,0.4-3.3
	c0.1,2,0.4,4.4,1.5,7.4c2.8,7.9,16.9,14.6,38.4,14.6c30.3,0,37.9-8.8,39.4-15.5c0.1,3.5-0.4,8-1.3,12.6c-0.3,1.4-0.6,2.9-0.9,4.3
	c-0.5,2.2-1,4.4-1.6,6.4c-3.4,15-45.7,11-55.1,10.7C6.3,148.4,4,139.7,2.9,132c-0.2-1.4-0.4-2.8-0.6-4.1c-0.1-1-0.3-1.9-0.5-2.7
	c-0.8-4.7-1.4-8.4-1.4-11.7C0.4,113.1,0.4,112.8,0.4,112.4z"/>
<path fill="#FFFFFF" d="M65.7,127.4c0,0-24.1,5.8-46.3,0v16.3c0,0,19.9,4,46.3-0.8V127.4z"/>
<path fill="none" stroke="#060606" stroke-width="0.5" stroke-linecap="round" d="M65.7,127.4c0,0-24.1,5.8-46.3,0v16.3
	c0,0,19.9,4,46.3-0.8V127.4z"/>
<path fill-rule="evenodd" clip-rule="evenodd" d="M45.9,135.4c-0.2,0.4-0.3,0.7-0.5,1.1c-0.4,0.1-0.8,0.1-1.2,0.2
	c0.3,0.3,0.6,0.5,0.9,0.8c-0.1,0.4-0.1,0.8-0.2,1.2c0.4-0.2,0.7-0.4,1.1-0.6c0.4,0.2,0.7,0.4,1.1,0.5l-0.2-1.2
	c0.3-0.3,0.6-0.6,0.8-0.8c-0.4,0-0.8-0.1-1.2-0.1C46.3,136.1,46.1,135.7,45.9,135.4"/>
<path d="M28.4,133.3c0.2,0,0.4,0,0.6,0c0,0,0.1,0,0.1,0.1c-0.1,2.1-0.3,4.1-0.4,6.2c0,0,0,0.1-0.1,0.1c-0.2,0-0.4,0-0.7,0
	c-0.1,0-0.2,0.1-0.2,0.1l0,0.5c0,0.1,0.1,0.2,0.1,0.2c1.1,0.1,2.2,0.2,3.2,0.2c0.1,0,0.2-0.1,0.2-0.1c0-0.2,0-0.4,0-0.5
	c0-0.1-0.1-0.2-0.1-0.2c-0.2,0-0.4,0-0.7,0c0,0-0.1,0-0.1-0.1c0.1-2.1,0.3-4.1,0.4-6.2c0,0,0-0.1,0.1-0.1c0.2,0,0.4,0,0.6,0
	c0.1,0,0.2-0.1,0.2-0.1c0-0.2,0-0.4,0-0.5c0-0.1-0.1-0.1-0.1-0.2c-1-0.1-2.1-0.1-3.1-0.2c-0.1,0-0.2,0.1-0.2,0.1l0,0.5
	C28.3,133.2,28.4,133.3,28.4,133.3 M48.3,133.8c0.2,0,0.4,0,0.6,0c0,0,0.1,0,0.1,0.1l0.2,6.2c0,0,0,0.1-0.1,0.1c-0.2,0-0.4,0-0.7,0
	c-0.1,0-0.2,0.1-0.1,0.2c0,0.2,0,0.4,0,0.5c0,0.1,0.1,0.1,0.2,0.1c1.1,0,2.2-0.1,3.3-0.1c0.1,0,0.1-0.1,0.1-0.2c0-0.2,0-0.4,0-0.5
	c0-0.1-0.1-0.1-0.2-0.1c-0.2,0-0.4,0-0.7,0c0,0-0.1,0-0.1-0.1c-0.1-2.1-0.2-4.1-0.2-6.2c0,0,0-0.1,0.1-0.1c0.2,0,0.4,0,0.6,0
	c0.1,0,0.1-0.1,0.1-0.2c0-0.2,0-0.4,0-0.5c0-0.1-0.1-0.1-0.2-0.1c-1,0-2.1,0.1-3.1,0.1c-0.1,0-0.1,0.1-0.1,0.2c0,0.2,0,0.4,0,0.5
	C48.1,133.7,48.2,133.8,48.3,133.8 M35,132.9c-0.7,0-1.3-0.1-2-0.1c-0.2,0-0.3,0.1-0.4,0.3c-0.1,2.4-0.3,4.9-0.4,7.3
	c0,0.2,0.1,0.3,0.3,0.4c0.7,0,1.4,0.1,2,0.1c1.5,0.1,2.8-1.1,2.8-2.5c0-0.9,0.1-1.8,0.1-2.7C37.6,134.1,36.5,132.9,35,132.9
	 M35.8,138.2c0,0.6-0.5,1-1.1,1l-0.6,0c0,0-0.1,0-0.1-0.1l0.2-4.6c0,0,0-0.1,0.1-0.1c0.2,0,0.4,0,0.6,0c0.6,0,1,0.5,1,1.1
	C35.9,136.4,35.9,137.3,35.8,138.2 M27.1,132.4c-0.5,0-0.9-0.1-1.4-0.1c-0.1,0-0.2,0-0.3,0.1c-0.7,1-1.4,2.1-2.2,3.1
	c0,0.1-0.2,0-0.2-0.1c0.1-1.1,0.2-2.2,0.3-3.2c0-0.1-0.1-0.2-0.2-0.2c-0.4,0-0.9-0.1-1.3-0.1c-0.1,0-0.2,0.1-0.2,0.2
	c-0.3,2.5-0.6,5-0.8,7.5c0,0.1,0.1,0.2,0.2,0.2c0.5,0.1,0.9,0.1,1.4,0.2c0.1,0,0.2-0.1,0.2-0.2c0.1-1.2,0.2-2.3,0.4-3.5
	c0-0.1,0.1-0.1,0.2,0c0.6,1.3,1.2,2.6,1.8,3.8c0.1,0.1,0.2,0.2,0.3,0.2c0.5,0,1,0.1,1.5,0.1c0.1,0,0.2-0.1,0.2-0.2
	c-0.7-1.3-1.3-2.6-1.9-4c-0.1-0.1,0-0.2,0-0.3c0.7-1.1,1.5-2.2,2.2-3.3C27.3,132.5,27.2,132.4,27.1,132.4 M62.7,135.8
	c-0.1,0-0.3,0-0.4,0c-0.2,0-0.3,0-0.5,0c-0.2,0-0.3,0.2-0.3,0.4c0,0.2,0,0.5,0.1,0.7c0,0.2,0.2,0.3,0.4,0.3l0.3,0
	c0.1,0,0.1,0,0.1,0.1c0,0.2,0,0.3,0.1,0.5c0,0,0,0,0,0c0,0.5-0.4,0.9-0.9,0.9c-0.4,0-0.8-0.4-0.8-0.8c-0.1-1.1-0.2-2.3-0.3-3.4
	c0-0.4,0.2-0.8,0.7-0.9c0.4-0.1,0.8,0.1,1,0.5c0.1,0.1,0.2,0.2,0.3,0.2c0.3,0,0.7-0.1,1-0.1c0.2,0,0.4-0.2,0.3-0.4
	c-0.3-1.2-1.5-2-2.7-1.8c-1.3,0.2-2.3,1.4-2.2,2.7l0.3,3.3c0.1,1.3,1.2,2.3,2.5,2.3c0.6,0,1.1-0.2,1.5-0.4c0,0,0.1,0,0.1,0.1
	c0,0,0,0,0,0.1c0,0.1,0.1,0.1,0.2,0.1c0.3,0,0.7-0.1,1-0.1c0.1,0,0.2-0.1,0.1-0.2c-0.1-0.7-0.1-1.3-0.2-1.9c0-0.3-0.1-0.6-0.1-1
	c0-0.4-0.1-0.7-0.1-1.1c0-0.2-0.2-0.3-0.4-0.3C63.3,135.7,63,135.7,62.7,135.8 M56.3,136.9c-0.7-1.4-1.5-2.7-2.2-4.1
	c0-0.1-0.1-0.1-0.2-0.1l-0.7,0c0,0,0,0,0,0c-0.2,0-0.4,0-0.6,0c-0.1,0-0.2,0.1-0.2,0.2c0.1,2.5,0.2,5,0.4,7.6c0,0.1,0.1,0.2,0.2,0.2
	c0.4,0,0.8,0,1.3-0.1c0.1,0,0.2-0.1,0.2-0.2c-0.1-1.3-0.2-2.6-0.2-4c0,0,0.1-0.1,0.1,0c0.7,1.3,1.4,2.6,2.2,3.9
	c0,0.1,0.1,0.1,0.2,0.1c0.5,0,0.9-0.1,1.4-0.1c0.1,0,0.2-0.1,0.2-0.2c-0.2-2.5-0.4-5-0.6-7.5c0-0.1-0.1-0.2-0.2-0.2
	c-0.4,0-0.8,0.1-1.2,0.1c-0.1,0-0.2,0.1-0.2,0.2C56.2,134.1,56.3,135.5,56.3,136.9C56.4,136.9,56.3,136.9,56.3,136.9 M41.2,136.1
	c-0.3-0.1-1.1-0.3-1.2-0.8c-0.1-0.5,0.4-0.9,0.8-0.9c0.3,0,0.7,0.3,1,0.6c0.1,0.1,0.3,0.2,0.4,0.1c0.3-0.2,0.6-0.3,0.8-0.5
	c0.2-0.1,0.2-0.3,0.1-0.5c-0.5-0.8-1.4-1.4-2.4-1.4c-1.4,0-2.6,1.1-2.6,2.5c0,1.4,1.1,1.9,1.9,2.3c0.1,0,0.2,0.1,0.3,0.1
	c1,0.5,1.2,0.7,1.2,1c0,0.5-0.4,0.8-0.9,0.8c-0.3,0-0.7-0.3-1-0.7c-0.1-0.1-0.3-0.2-0.5-0.1c-0.3,0.2-0.6,0.4-0.9,0.6
	c-0.2,0.1-0.2,0.3-0.1,0.4c0.4,0.8,1.3,1.5,2.4,1.5c1.4,0,2.6-1,2.7-2.4C43.5,137.2,42,136.5,41.2,136.1"/>
</svg>
