<?xml version="1.0" encoding="utf-8"?>
<!-- Generator: Adobe Illustrator 18.1.1, SVG Export Plug-In . SVG Version: 6.00 Build 0)  -->
<svg version="1.1" id="layer_left" xmlns="http://www.w3.org/2000/svg" xmlns:xlink="http://www.w3.org/1999/xlink" x="0px" y="0px"
	 viewBox="0 0 351.6 227.1" enable-background="new 0 0 351.6 227.1" xml:space="preserve">
<g>
	<defs>
		<polyline id="SVGID_1_" points="-340.4,533.5 -340.4,-61.8 501.5,-61.8 501.5,533.5 		"/>
		<clipPath id="clipPath"><path fill="#FFFFFF" d="M343.4,129.7c-3.2-9.6-9.8-28.4-12-44.7c-1.5-11.3-1-33.3-0.5-45.7
		c0-0.6-0.7-1.5-1.1-1.4c-1.2,0.3-2.3,0.5-3.5,0.7c-28.7,5.8-50.4,2.8-64.5-1.8c-0.7-0.2-1.3-0.4-1.9-0.7c-2.1-0.7-4.1-1.5-6.1-2.3
		c-0.6-0.3-1.2-0.5-1.8-0.8c-11-4.5-18.7-6.1-25.3-4.5c-1.9,0.5-4,1.1-6.2,2c-2.6,1.1-5.3,2.5-7.5,4.5c-14,12.8-27.5,45.3-45.9,65.4
		c-18.4,20.1-51.3,22.7-62.5,28c-3.4,1.6-9.6,6.9-12.9,10.7c-0.2,0.2-0.3,0.4-0.5,0.6c-5.3,6-10.6,12.7-14.9,18.3
		c-1.5,4.8-3.9,10-7.8,13.4c11.8,2.9,22.5,4.9,30.2,5.8c71.2,8.1,137.1,5.3,151,5.2c13.9-0.1,78.1-2.6,85.5-3.2
		c2-0.1,3.8-0.4,5.3-0.7c1.9-0.3,3.5-0.6,4.6-0.5C348.4,164.6,345.8,137.1,343.4,129.7"/></clipPath>
	</defs>
	<clipPath id="SVGID_2_">
		<use xlink:href="#SVGID_1_"  overflow="visible"/>
	</clipPath>
	<path clip-path="url(#SVGID_2_)" fill="#0C0B0B" d="M347.2,225c0,1.2-77.7,2.1-173.6,2.1C77.7,227.1,0,226.2,0,225
		c0-1.2,77.7-2.1,173.6-2.1C269.5,222.8,347.2,223.8,347.2,225"/>
	<path class="front_part_5 left_side" clip-path="url(#SVGID_2_)" fill="#0C0B0B" d="M23.1,165.1c2.1-2.1,0.5-5.5-4-8.4c-0.7-0.5-1.3-0.9-1.7-1.2
		c-0.1,0.4,1.2,0.8,0.5,0.8c-3.4,0.2-6.2,3.5-7,5.5c0,0.1-0.3,0.1-0.5,0.1c0.4,0.2,0.8,0.4,1.2,0.5
		C13.7,162.9,20.9,167.3,23.1,165.1"/>
	<path clip-path="url(#SVGID_2_)" fill="#FFFFFF" d="M111.1,121.7c0,0-2.1,1-2.3,6.1c-0.2,5.1,4.8,4,4.8,4l2.2-8.5L111.1,121.7z"/>
	<path clip-path="url(#SVGID_2_)" fill="none" stroke="#19192F" stroke-width="0.556" stroke-miterlimit="10" d="M111.1,121.7
		c0,0-2.1,1-2.3,6.1c-0.2,5.1,4.8,4,4.8,4l2.2-8.5L111.1,121.7z"/>
	<path clip-path="url(#SVGID_2_)" fill="#FFFFFF" d="M80.9,142.9c-0.2,0.9-2.1,1.8-3.3,9.1c-0.3,1.9-0.8,3.9-1.4,6.1
		c4.3-5.6,9.7-12.3,14.9-18.3c-3.6,1-7.3,1.9-10.3,2.6C80.9,142.4,80.9,142.7,80.9,142.9"/>
	<path clip-path="url(#SVGID_2_)" fill="none" stroke="#060606" stroke-width="0.58" d="M80.9,142.9c-0.2,0.9-2.1,1.8-3.3,9.1
		c-0.3,1.9-0.8,3.9-1.4,6.1c4.3-5.6,9.7-12.3,14.9-18.3c-3.6,1-7.3,1.9-10.3,2.6C80.9,142.4,80.9,142.7,80.9,142.9z"/>
	<path class="front_part_4" clip-path="url(#SVGID_2_)" fill="#FFFFFF" d="M251.8,33.1c0.4-9.6-1.5-13.4-6.6-19.5c-2.4-2.9-6.3-5.1-9.8-6.7
		c-0.1,0.6-0.4,1.2-0.8,1.8c-2,2.8-10.6,16.3-14.2,21.9c2.2-0.9,4.3-1.5,6.2-2C233.2,27,240.8,28.6,251.8,33.1"/>
	<path clip-path="url(#SVGID_2_)" fill="none" stroke="#060606" stroke-width="0.58" d="M251.8,33.1c0.4-9.6-1.5-13.4-6.6-19.5
		c-2.4-2.9-6.3-5.1-9.8-6.7c-0.1,0.6-0.4,1.2-0.8,1.8c-2,2.8-10.6,16.3-14.2,21.9c2.2-0.9,4.3-1.5,6.2-2
		C233.2,27,240.8,28.6,251.8,33.1z"/>
	<path clip-path="url(#SVGID_2_)" fill="#FFFFFF" d="M245.2,13.6c5.1,6.1,7,9.9,6.6,19.5c0.6,0.2,1.2,0.5,1.8,0.8
		c1.9,0.8,4,1.6,6.1,2.3c1-14.1-1.9-20.5-7.8-27.5c-3.1-3.6-8.6-6.3-12.5-7.9c-4.3,1.9-3.5,3.9-4,6.1
		C238.9,8.5,242.8,10.7,245.2,13.6"/>
	<path clip-path="url(#SVGID_2_)" fill="none" stroke="#060606" stroke-width="0.58" d="M245.2,13.6c5.1,6.1,7,9.9,6.6,19.5
		c0.6,0.2,1.2,0.5,1.8,0.8c1.9,0.8,4,1.6,6.1,2.3c1-14.1-1.9-20.5-7.8-27.5c-3.1-3.6-8.6-6.3-12.5-7.9c-4.3,1.9-3.5,3.9-4,6.1
		C238.9,8.5,242.8,10.7,245.2,13.6z"/>

		<path clip-path="url(#SVGID_2_)" fill="none" stroke="#090909" stroke-width="0.123" stroke-linecap="round" stroke-miterlimit="10" d="
		M238,0.1c0.2,0.1-2.4,6.9-2.1,7c0.1,0,3-6.7,3.1-6.6c0.1,0-2.6,6.8-2.5,6.9c0.1,0.1,3.2-6.6,3.3-6.5c0.1,0.1-2.8,6.8-2.7,6.8
		c0.1,0.1,3.4-6.5,3.5-6.4c0.1,0.1-3,6.7-2.8,6.7c0.1,0.1,3.5-6.4,3.7-6.3c0.1,0.1-3.1,6.6-3,6.7c0.1,0.1,3.7-6.3,3.8-6.2
		c0.1,0.1-3.3,6.5-3.2,6.6c0.1,0.1,3.8-6.2,4-6.1c0.1,0.1-3.4,6.4-3.3,6.5c0.1,0.1,4-6.1,4.1-6.1c0.1,0.1-3.6,6.4-3.5,6.4
		c0.1,0.1,4.1-6,4.3-6c0.1,0.1-3.7,6.3-3.6,6.4c0.1,0.1,4.3-5.9,4.4-5.9c0.1,0.1-3.9,6.2-3.8,6.3c0.1,0.1,4.4-5.8,4.5-5.7
		c0.1,0.1-4,6.1-3.9,6.2c0.1,0.1,4.6-5.7,4.7-5.6c0.1,0.1-4.2,6-4.1,6.1c0.1,0.1,4.7-5.6,4.8-5.5c0.1,0.1-4.3,5.9-4.2,6
		c0.1,0.1,4.8-5.5,4.9-5.4c0.1,0.1-4.5,5.8-4.4,5.9c0.1,0.1,5-5.4,5.1-5.3c0.1,0.1-4.6,5.7-4.5,5.7c0.1,0.1,5.1-5.2,5.2-5.1
		s-4.8,5.5-4.7,5.6c0.1,0.1,5.3-5.1,5.4-5c0.1,0.1-4.9,5.4-4.8,5.5c0.1,0.1,5.4-4.9,5.5-4.8c0.1,0.1-5.1,5.3-5,5.4
		c0.1,0.1,5.5-4.8,5.6-4.7c0.1,0.1-5.2,5.1-5.1,5.2c0.1,0.1,5.7-4.6,5.8-4.5c0.1,0.1-5.4,5-5.3,5.1c0.1,0.1,5.8-4.5,5.9-4.3
		c0.1,0.1-5.5,4.8-5.4,4.9c0.1,0.1,5.9-4.3,6-4.2c0.1,0.1-5.7,4.6-5.6,4.7c0.1,0.1,6.1-4.1,6.1-4c0.1,0.1-5.8,4.4-5.7,4.6
		c0.1,0.1,6.2-3.9,6.3-3.8c0.1,0.1-5.9,4.3-5.9,4.4c0.1,0.1,6.3-3.7,6.4-3.6c0.1,0.1-6.1,4.1-6,4.2c0.1,0.1,6.4-3.5,6.5-3.4
		c0.1,0.1-6.2,3.9-6.1,4c0.1,0.1,6.5-3.3,6.6-3.2c0.1,0.1-6.3,3.7-6.3,3.8c0.1,0.1,6.6-3.1,6.7-2.9c0.1,0.1-6.4,3.5-6.4,3.6
		c0.1,0.1,6.7-2.9,6.8-2.7c0.1,0.1-6.5,3.2-6.5,3.4c0.1,0.1,6.8-2.6,6.9-2.5c0.1,0.1-6.7,3-6.6,3.2c0.1,0.1,6.9-2.4,7-2.3
		c0,0.1-6.8,2.8-6.7,2.9c0,0.1,7-2.2,7-2c0,0.1-6.8,2.6-6.8,2.7c0,0.1,7.1-1.9,7.1-1.8c0,0.1-6.9,2.3-6.9,2.5c0,0.1,7.1-1.7,7.1-1.6
		c0,0.1-7,2.1-7,2.3c0,0.1,7.2-1.5,7.2-1.3c0,0.1-7.1,1.9-7,2c0,0.1,7.2-1.2,7.2-1.1c0,0.1-7.1,1.7-7.1,1.8c0,0.1,7.2-1,7.3-0.9
		c0,0.1-7.2,1.4-7.1,1.6c0,0.1,7.3-0.8,7.3-0.6c0,0.1-7.2,1.2-7.2,1.3c0,0.1,7.3-0.5,7.3-0.4c0,0.1-7.2,1-7.2,1.1
		c0,0.1,7.3-0.3,7.3-0.2c0,0.1-7.3,0.8-7.3,0.9c0,0.1,7.3-0.1,7.3,0c0,0.1-7.3,0.6-7.3,0.7c0,0.1,7.3,0.1,7.3,0.2
		c0,0.1-7.3,0.3-7.3,0.5c0,0.1,7.3,0.3,7.3,0.5c0,0.1-7.3,0.1-7.3,0.3c0,0.1,7.3,0.5,7.3,0.6c0,0.1-7.3-0.1-7.3,0.1
		c0,0.1,7.3,0.7,7.3,0.8c0,0.1-7.3-0.2-7.3-0.1c0,0.1,7.3,0.9,7.2,1c0,0.1-7.3-0.4-7.3-0.3c0,0.1,7.2,1.1,7.2,1.2
		c0,0.1-7.3-0.6-7.3-0.5c0,0.1,7.2,1.2,7.2,1.4c0,0.1-7.3-0.8-7.3-0.6c0,0.1,7.2,1.4,7.1,1.6c0,0.1-7.2-0.9-7.3-0.8
		c0,0.1,7.1,1.6,7.1,1.7c0,0.1-7.2-1.1-7.3-1c0,0.1,7.1,1.7,7.1,1.9c0,0.1-7.2-1.3-7.2-1.1"/>
	<path clip-path="url(#SVGID_2_)" fill="#FFFFFF" d="M186.3,88.3c0,0-10-10-12.4-11.9c-2.3-1.9,0.6-7.5,6.4-0.9l12.5,7.3L186.3,88.3
		z"/>
	<path clip-path="url(#SVGID_2_)" fill="none" stroke="#060606" stroke-width="0.58" d="M186.3,88.3c0,0-10-10-12.4-11.9
		c-2.3-1.9,0.6-7.5,6.4-0.9l12.5,7.3L186.3,88.3z"/>
	<path clip-path="url(#SVGID_2_)" fill="#FFFFFF" d="M337.9,129.5c-3.2-9.6-9.8-28.4-12-44.7c-1.6-11.7,5.7-48.6,3.7-47.6
		c-32.6,6.7-54.7,3.2-68.8-1.4c-0.7-0.2-1.3-0.4-1.9-0.7c-2.1-0.7-7.3-2.9-7.9-3.1c-11-4.5-18.6-5.7-25.1-4.1c-1.9,0.5-4,1.1-6.2,2
		c-2.6,1.1-5.3,2.5-7.5,4.5c-14,12.8-27.5,45.3-45.9,65.4c-18.4,20.1-51.3,22.7-62.5,28c-3.4,1.6-9.6,6.9-12.9,10.7
		c-0.2,0.2-0.3,0.4-0.5,0.6c-5.3,6-10.6,12.7-14.9,18.3c-1.5,4.8-3.9,10-7.8,13.4c11.8,2.9,22.5,4.9,30.2,5.8
		c71.2,8.1,137.1,5.3,151,5.2c13.9-0.1,78.1-2.6,85.5-3.2c2-0.1,3.8-0.4,5.3-0.7C342.9,164.4,340.4,136.9,337.9,129.5"/>
	<path clip-path="url(#SVGID_2_)" fill="none" stroke="#060606" stroke-width="0.58" d="M337.9,129.5c-3.2-9.6-9.8-28.4-12-44.7
		c-1.6-11.7,5.7-48.6,3.7-47.6c-32.6,6.7-54.7,3.2-68.8-1.4c-0.7-0.2-1.3-0.4-1.9-0.7c-2.1-0.7-7.3-2.9-7.9-3.1
		c-11-4.5-18.6-5.7-25.1-4.1c-1.9,0.5-4,1.1-6.2,2c-2.6,1.1-5.3,2.5-7.5,4.5c-14,12.8-27.5,45.3-45.9,65.4
		c-18.4,20.1-51.3,22.7-62.5,28c-3.4,1.6-9.6,6.9-12.9,10.7c-0.2,0.2-0.3,0.4-0.5,0.6c-5.3,6-10.6,12.7-14.9,18.3
		c-1.5,4.8-3.9,10-7.8,13.4c11.8,2.9,22.5,4.9,30.2,5.8c71.2,8.1,137.1,5.3,151,5.2c13.9-0.1,78.1-2.6,85.5-3.2
		c2-0.1,3.8-0.4,5.3-0.7C342.9,164.4,340.4,136.9,337.9,129.5z"/>
	<path clip-path="url(#SVGID_2_)" fill="#FFFFFF" d="M343.4,129.7c-3.2-9.6-9.8-28.4-12-44.7c-1.5-11.3-1-33.3-0.5-45.7
		c0-0.6-0.7-1.5-1.1-1.4c-1.2,0.3-2.3,0.5-3.5,0.7c-28.7,5.8-50.4,2.8-64.5-1.8c-0.7-0.2-1.3-0.4-1.9-0.7c-2.1-0.7-4.1-1.5-6.1-2.3
		c-0.6-0.3-1.2-0.5-1.8-0.8c-11-4.5-18.7-6.1-25.3-4.5c-1.9,0.5-4,1.1-6.2,2c-2.6,1.1-5.3,2.5-7.5,4.5c-14,12.8-27.5,45.3-45.9,65.4
		c-18.4,20.1-51.3,22.7-62.5,28c-3.4,1.6-9.6,6.9-12.9,10.7c-0.2,0.2-0.3,0.4-0.5,0.6c-5.3,6-10.6,12.7-14.9,18.3
		c-1.5,4.8-3.9,10-7.8,13.4c11.8,2.9,22.5,4.9,30.2,5.8c71.2,8.1,137.1,5.3,151,5.2c13.9-0.1,78.1-2.6,85.5-3.2
		c2-0.1,3.8-0.4,5.3-0.7c1.9-0.3,3.5-0.6,4.6-0.5C348.4,164.6,345.8,137.1,343.4,129.7"/>
	<g style="clip-path:url(#clipPath);">
	<image xmlns:link="http://www.w3.org/1999/xlink" id="left_upload" class="left_part_1" xlink:href="" width="296" height="165" x="79" y="30" preserveAspectRatio="none"/>
	</g>
	<path clip-path="url(#SVGID_2_)" fill="none" stroke="#060606" stroke-width="0.58" d="M343.4,129.7c-3.2-9.6-9.8-28.4-12-44.7
		c-1.5-11.3-1-33.3-0.5-45.7c0-0.6-0.7-1.5-1.1-1.4c-1.2,0.3-2.3,0.5-3.5,0.7c-28.7,5.8-50.4,2.8-64.5-1.8c-0.7-0.2-1.3-0.4-1.9-0.7
		c-2.1-0.7-4.1-1.5-6.1-2.3c-0.6-0.3-1.2-0.5-1.8-0.8c-11-4.5-18.7-6.1-25.3-4.5c-1.9,0.5-4,1.1-6.2,2c-2.6,1.1-5.3,2.5-7.5,4.5
		c-14,12.8-27.5,45.3-45.9,65.4c-18.4,20.1-51.3,22.7-62.5,28c-3.4,1.6-9.6,6.9-12.9,10.7c-0.2,0.2-0.3,0.4-0.5,0.6
		c-5.3,6-10.6,12.7-14.9,18.3c-1.5,4.8-3.9,10-7.8,13.4c11.8,2.9,22.5,4.9,30.2,5.8c71.2,8.1,137.1,5.3,151,5.2
		c13.9-0.1,78.1-2.6,85.5-3.2c2-0.1,3.8-0.4,5.3-0.7c1.9-0.3,3.5-0.6,4.6-0.5C348.4,164.6,345.8,137.1,343.4,129.7z"/>
	<path clip-path="url(#SVGID_2_)" fill="#FFFFFF" d="M331.3,85c-1.5-11.3-1-33.3-0.5-45.7c0-0.6-0.7-1.5-1.1-1.4
		c-1.2,0.3-2.3,0.5-3.5,0.7c-0.9,0.2-0.9,0.2-1.7,0.3c-0.2,6.4-0.1,18.7,0.6,28.4c1.2,16.2,3.9,38.7,12.3,60.7
		c5.1,13.4,4.5,36,2.7,50.5c0.1,0,0.2,0,0.4-0.1c1.9-0.3,3.5-0.6,4.6-0.5c3.2-13.4,0.7-40.9-1.8-48.3
		C340.2,120.1,333.5,101.3,331.3,85"/>
	<path clip-path="url(#SVGID_2_)" fill="none" stroke="#060606" stroke-width="0.58" d="M331.3,85c-1.5-11.3-1-33.3-0.5-45.7
		c0-0.6-0.7-1.5-1.1-1.4c-1.2,0.3-2.3,0.5-3.5,0.7c-0.9,0.2-0.9,0.2-1.7,0.3c-0.2,6.4-0.1,18.7,0.6,28.4
		c1.2,16.2,3.9,38.7,12.3,60.7c5.1,13.4,4.5,36,2.7,50.5c0.1,0,0.2,0,0.4-0.1c1.9-0.3,3.5-0.6,4.6-0.5c3.2-13.4,0.7-40.9-1.8-48.3
		C340.2,120.1,333.5,101.3,331.3,85z"/>

		<path clip-path="url(#SVGID_2_)" fill="none" stroke="#090909" stroke-width="0.58" stroke-linecap="round" stroke-miterlimit="10" stroke-dasharray="1.623,1.275" d="
		M326,38.6c-0.2,6.4-0.1,18.7,0.6,28.4c1.2,16.2,3.9,38.7,12.3,60.7c5.1,13.4,4.5,36,2.7,50.5c0.1,0,0.2,0,0.4-0.1"/>

		<path clip-path="url(#SVGID_2_)" fill="none" stroke="#090909" stroke-width="0.58" stroke-linecap="round" stroke-miterlimit="10" stroke-dasharray="1.623,1.275" d="
		M329.7,40.4c-10.7,2-27.3,4.1-37.2,3.9c-11.4-0.3-22-2-31.6-5.1c-0.7-0.2-1.3-0.4-2-0.7c-2.1-0.7-4.2-1.5-6.2-2.4
		c-0.6-0.3-1.2-0.5-1.8-0.7c-8-3.3-13.7-4.8-18.4-4.9c-1.9,0-3.6,0.1-5.3,0.5c-2.1,0.5-4,1.1-5.8,1.9c-2.8,1.1-5,2.5-6.7,4
		c-6.7,6.2-13.6,17.5-20.8,29.4c-7.6,12.6-15.5,25.6-24.9,35.8c-13.8,15-34.7,20.5-50,24.5c-5.5,1.4-10.3,2.7-13.3,4.1
		c-2.9,1.3-8.8,6.2-12.1,10.1l-0.5,0.6c-4.4,5-9.3,11-14.6,17.9c-4,6.5-4.9,8.8-7,12.3"/>

		<path clip-path="url(#SVGID_2_)" fill="none" stroke="#090909" stroke-width="0.58" stroke-linecap="round" stroke-miterlimit="10" stroke-dasharray="1.623,1.275" d="
		M74.2,172c1.1-3.8,4.8-8.7,6.4-11.6c5.2-6.7,10-12.5,14.2-17.4l0.5-0.6c3.4-3.9,9-8.4,11.3-9.4c2.7-1.3,7.4-2.5,12.8-3.9
		c15.6-4.1,37-9.7,51.2-25.2c9.6-10.4,17.5-23.5,25.2-36.2c7.2-11.8,13.9-22.9,20.4-28.9c1.5-1.3,3.5-2.5,6-3.5
		c1.7-0.7,3.5-1.3,5.5-1.7c1.5-0.4,3-0.5,4.6-0.5c4.5,0.1,9.9,1.6,17.5,4.7c0.6,0.2,1.2,0.5,1.8,0.7c2,0.9,4.2,1.7,6.3,2.5
		c0.7,0.2,1.3,0.5,2,0.7c9.8,3.2,20.6,5,32.3,5.2c9.1,0.2,27.4-2.2,37.2-3.8"/>
	<path class="left_part_2 right_part_2" clip-path="url(#SVGID_2_)" fill="#FFFFFF" d="M336.3,191.4c-7.5,0.6-71.6,3.1-85.5,3.2c-13.9,0.1-79.8,2.9-151-5.2
		c-5-0.6-11.5-1.7-18.9-3.3c6.4,2.3,11.3,5.7,14.7,11.2c0.6,0.9,1.2,2,1.9,3.3c1,1.7,2.1,3.6,3.3,5.5c3.7,6.1,7.5,12.4,11.9,15.6
		c16.1,0.9,29.1,0.8,37.1,0.8c15.4,0,134.8,0.2,151.6,0.3c7.7,0,22.5-0.9,36.4-2.1c0.5-3.6,1.1-8.3,1.8-12.8
		c0.2-1.8,0.5-3.5,0.7-5.2c0.6-3.9,1-7.2,1.3-8.8c0.2-1.4,0.6-2.4,1-3.2C340.8,190.9,338.7,191.2,336.3,191.4"/>
	<path clip-path="url(#SVGID_2_)" fill="none" stroke="#060606" stroke-width="0.58" d="M336.3,191.4c-7.5,0.6-71.6,3.1-85.5,3.2
		c-13.9,0.1-79.8,2.9-151-5.2c-5-0.6-11.5-1.7-18.9-3.3c6.4,2.3,11.3,5.7,14.7,11.2c0.6,0.9,1.2,2,1.9,3.3c1,1.7,2.1,3.6,3.3,5.5
		c3.7,6.1,7.5,12.4,11.9,15.6c16.1,0.9,29.1,0.8,37.1,0.8c15.4,0,134.8,0.2,151.6,0.3c7.7,0,22.5-0.9,36.4-2.1
		c0.5-3.6,1.1-8.3,1.8-12.8c0.2-1.8,0.5-3.5,0.7-5.2c0.6-3.9,1-7.2,1.3-8.8c0.2-1.4,0.6-2.4,1-3.2
		C340.8,190.9,338.7,191.2,336.3,191.4z"/>
	<path class="front_part_3" clip-path="url(#SVGID_2_)" fill="#FFFFFF" d="M100.7,206.1c-1.2-2-2.3-3.9-3.3-5.5c-0.7-1.2-1.4-2.3-1.9-3.3
		c-3.4-5.5-8.3-9-14.7-11.2c-1.8-0.6-3.7-1.2-5.8-1.6c-9.3-2.1-22.8-10-28.8-16.7c-1-1.1-1.8-2.3-2.4-3.5c-3.1-6.1-1.4-13,5.7-17.1
		c1-0.6,2-1.2,3.1-1.8c0.2-0.1,0.3-0.2,0.5-0.3c-1-0.6-2.5-1.6-5.3-1.3c-5.4,0.7-20.9,2.8-30.3,11.3c-0.1,0.1-0.2,0.1-0.2,0.2
		c0.5,0.4,1,0.8,1.7,1.2c4.5,2.9,6.1,6.4,4,8.4c-2.2,2.2-9.3-2.1-11.6-2.8c-0.4-0.1-0.8-0.3-1.2-0.5c-0.5,0-1.1-0.2-1.2,0
		c-8.1,9.2-8.5,22.7-3.7,32.9c12.4,5.6,30.6,12.7,53.4,18.9c20.7,5.6,38.5,8,53.1,8.9c0.5,0,0.7-0.6,0.2-1.1
		C108,217.6,104,211.5,100.7,206.1"/>
	<path clip-path="url(#SVGID_2_)" fill="none" stroke="#060606" stroke-width="0.58" d="M100.7,206.1c-1.2-2-2.3-3.9-3.3-5.5
		c-0.7-1.2-1.4-2.3-1.9-3.3c-3.4-5.5-8.3-9-14.7-11.2c-1.8-0.6-3.7-1.2-5.8-1.6c-9.3-2.1-22.8-10-28.8-16.7c-1-1.1-1.8-2.3-2.4-3.5
		c-3.1-6.1-1.4-13,5.7-17.1c1-0.6,2-1.2,3.1-1.8c0.2-0.1,0.3-0.2,0.5-0.3c-1-0.6-2.5-1.6-5.3-1.3c-5.4,0.7-20.9,2.8-30.3,11.3
		c-0.1,0.1-0.2,0.1-0.2,0.2c0.5,0.4,1,0.8,1.7,1.2c4.5,2.9,6.1,6.4,4,8.4c-2.2,2.2-9.3-2.1-11.6-2.8c-0.4-0.1-0.8-0.3-1.2-0.5
		c-0.5,0-1.1-0.2-1.2,0c-8.1,9.2-8.5,22.7-3.7,32.9c12.4,5.6,30.6,12.7,53.4,18.9c20.7,5.6,38.5,8,53.1,8.9c0.5,0,0.7-0.6,0.2-1.1
		C108,217.6,104,211.5,100.7,206.1z"/>
	<path clip-path="url(#SVGID_2_)" fill="#FFFFFF" d="M349.5,189.4c-0.5,0-1.2,0-2.2-0.1c-1.1,0-2.5-0.1-3.9-0.1
		c-0.3,0.3-0.7,0.8-1,1.4c-0.4,0.8-0.8,1.8-1,3.2c-0.3,1.7-0.8,5-1.3,8.8c-0.2,1.6-0.5,3.4-0.7,5.2c-0.6,4.5-1.3,9.2-1.8,12.8
		c2.7-0.2,5.6-0.6,7.7-1.4c2.8-2.8,3.9-14,5-18.7C351.8,194.7,351.7,189.4,349.5,189.4"/>
	<path clip-path="url(#SVGID_2_)" fill="none" stroke="#060606" stroke-width="0.58" d="M349.5,189.4c-0.5,0-1.2,0-2.2-0.1
		c-1.1,0-2.5-0.1-3.9-0.1c-0.3,0.3-0.7,0.8-1,1.4c-0.4,0.8-0.8,1.8-1,3.2c-0.3,1.7-0.8,5-1.3,8.8c-0.2,1.6-0.5,3.4-0.7,5.2
		c-0.6,4.5-1.3,9.2-1.8,12.8c2.7-0.2,5.6-0.6,7.7-1.4c2.8-2.8,3.9-14,5-18.7C351.8,194.7,351.7,189.4,349.5,189.4z"/>
	<path class="front_part_2" clip-path="url(#SVGID_2_)" fill="#FFFFFF" d="M80.8,142.2c-0.3-0.7-1.7-1.2-4.8-0.6c-2.7,0.6-12.5,1.7-22.7,3.5
		c-0.2,0-0.5,0.1-0.7,0.1c-1.1,0.6-2.1,1.2-3.1,1.8c-7.1,4.1-8.8,11-5.7,17.1c8.2,2.8,16.6,5.3,24.5,7.2c3.9-3.4,6.3-8.5,7.8-13.4
		c0.6-2.1,1.1-4.2,1.4-6.1c1.3-7.3,3.1-8.2,3.3-9.1C80.9,142.7,80.9,142.4,80.8,142.2"/>
	<path clip-path="url(#SVGID_2_)" fill="none" stroke="#595757" stroke-width="0.952" d="M80.8,142.2c-0.3-0.7-1.7-1.2-4.8-0.6
		c-2.7,0.6-12.5,1.7-22.7,3.5c-0.2,0-0.5,0.1-0.7,0.1c-1.1,0.6-2.1,1.2-3.1,1.8c-7.1,4.1-8.8,11-5.7,17.1c8.2,2.8,16.6,5.3,24.5,7.2
		c3.9-3.4,6.3-8.5,7.8-13.4c0.6-2.1,1.1-4.2,1.4-6.1c1.3-7.3,3.1-8.2,3.3-9.1C80.9,142.7,80.9,142.4,80.8,142.2z"/>
	<path clip-path="url(#SVGID_2_)" fill="#FFFFFF" d="M53.3,145.2c-0.1,0-0.1-0.1-0.2-0.1c-0.2,0.1-0.3,0.2-0.5,0.3
		C52.8,145.3,53.1,145.2,53.3,145.2"/>
	<path clip-path="url(#SVGID_2_)" fill="none" stroke="#19192F" stroke-width="0.556" stroke-miterlimit="10" d="M53.3,145.2
		c-0.1,0-0.1-0.1-0.2-0.1c-0.2,0.1-0.3,0.2-0.5,0.3C52.8,145.3,53.1,145.2,53.3,145.2z"/>
	<path clip-path="url(#SVGID_2_)" fill="#FFFFFF" d="M205.7,94.4c9.6,5.1,16,5.6,25.9-12.3c11-19.7-0.4-24.3-10.4-30.4
		c-3.5-2.1-13.8-7.8-18-8.9c-4.1-1.1-7.2-3.9-13.5,5.7c-6.3,9.6-11.5,16.7-14.1,20.2c-3.6,4.8-1.4,9.7-0.2,8
		C176.9,74.6,196,89.3,205.7,94.4"/>
	<path clip-path="url(#SVGID_2_)" fill="none" stroke="#060606" stroke-width="0.58" d="M205.7,94.4c9.6,5.1,16,5.6,25.9-12.3
		c11-19.7-0.4-24.3-10.4-30.4c-3.5-2.1-13.8-7.8-18-8.9c-4.1-1.1-7.2-3.9-13.5,5.7c-6.3,9.6-11.5,16.7-14.1,20.2
		c-3.6,4.8-1.4,9.7-0.2,8C176.9,74.6,196,89.3,205.7,94.4z"/>
	<path clip-path="url(#SVGID_2_)" class="part2 front_part_1" fill="#FFFFFF" d="M205.5,92.7c9.6,5.1,15.3,6.7,25.3-11.1c11-19.7,0.2-25.4-9.8-31.6
		c-3.5-2.1-13.8-7.8-18-8.9c-4.1-1.1-7.2-3.9-13.5,5.7c-6.3,9.6-10.5,16.1-13.1,19.6c-3.6,4.8-4.4,10.2-2.8,8.9
		C177.1,72.7,195.9,87.6,205.5,92.7"/>
	<path clip-path="url(#SVGID_2_)" fill="none" stroke="#060606" stroke-width="0.58" d="M205.5,92.7c9.6,5.1,15.3,6.7,25.3-11.1
		c11-19.7,0.2-25.4-9.8-31.6c-3.5-2.1-13.8-7.8-18-8.9c-4.1-1.1-7.2-3.9-13.5,5.7c-6.3,9.6-10.5,16.1-13.1,19.6
		c-3.6,4.8-4.4,10.2-2.8,8.9C177.1,72.7,195.9,87.6,205.5,92.7z"/>

		<path clip-path="url(#SVGID_2_)" fill="none" stroke="#090909" stroke-width="0.58" stroke-linecap="round" stroke-miterlimit="10" stroke-dasharray="1.623,1.275" d="
		M196,41.5c0.8,0,3.8,0.9,4.8,1.2c0.5,0.2,1.1,0.4,1.7,0.5c3.6,1,13.4,6.2,17.4,8.6l1,0.6c9.8,6,17.5,10.7,7.9,27.9
		c-6.6,11.9-10.6,13.4-13.5,13.4c-2.4-0.1-5-1.2-8.7-3.2c-3.1-1.7-7.3-4.4-11.7-7.3c-9.3-6.2-17.8-11.6-21.4-9.9"/>

		<path clip-path="url(#SVGID_2_)" fill="none" stroke="#090909" stroke-width="0.58" stroke-linecap="round" stroke-miterlimit="10" stroke-dasharray="1.623,1.275" d="
		M193.1,43.1c0.4,0.1,6.2,1.6,7,1.8c0.6,0.2,1.2,0.4,1.9,0.6c3.3,0.9,12.8,6,16.7,8.4l1,0.6c9.8,6,15.7,9.6,7.1,24.9
		c-6.9,12.3-10.2,12.2-11.5,12.2c-1.9,0-4.3-1.1-7.6-2.9c-3-1.6-7.1-4.3-11.5-7.2c-7.8-5.1-15.4-10.4-21.5-11.3"/>
	<path clip-path="url(#SVGID_2_)" fill="#FFFFFF" d="M113.1,129.1c1.9,5.6,1.5,5.8,5.7,15.4c4.4,10,6.9,13.6,26.2,6.9
		c21.2-7.3,19.3-20.6,14-31c-1.8-3.6-2.3-5.8-4.8-9.6c-2.3-3.6-2.9-8-13.4-3.2c-10.4,4.9-21.8,9.4-25.9,11c-3.7,1.4-6.1,4.3-4.8,5
		C111.7,124.5,111.9,125.6,113.1,129.1"/>
	<path clip-path="url(#SVGID_2_)" fill="none" stroke="#060606" stroke-width="0.58" d="M113.1,129.1c1.9,5.6,1.5,5.8,5.7,15.4
		c4.4,10,6.9,13.6,26.2,6.9c21.2-7.3,19.3-20.6,14-31c-1.8-3.6-2.3-5.8-4.8-9.6c-2.3-3.6-2.9-8-13.4-3.2c-10.4,4.9-21.8,9.4-25.9,11
		c-3.7,1.4-6.1,4.3-4.8,5C111.7,124.5,111.9,125.6,113.1,129.1z"/>
	<path clip-path="url(#SVGID_2_)" class="part2 front_part_1" fill="#FFFFFF" d="M114.1,128.7c0.9,2.5,0.6,3.6,5.3,14c4.5,9.9,6.9,13.6,26.2,6.9
		c21.2-7.3,19.3-20.6,14-31c-1.8-3.6-2.3-5.8-4.8-9.6c-2.3-3.6-2.9-8-13.4-3.2c-10.4,4.9-18.9,9.7-23,11.3
		c-3.2,1.2-10.3,5.3-7.8,5.6C112.3,122.9,113.6,127.6,114.1,128.7"/>
	<path clip-path="url(#SVGID_2_)" fill="none" stroke="#060606" stroke-width="0.58" d="M114.1,128.7c0.9,2.5,0.6,3.6,5.3,14
		c4.5,9.9,6.9,13.6,26.2,6.9c21.2-7.3,19.3-20.6,14-31c-1.8-3.6-2.3-5.8-4.8-9.6c-2.3-3.6-2.9-8-13.4-3.2
		c-10.4,4.9-18.9,9.7-23,11.3c-3.2,1.2-10.3,5.3-7.8,5.6C112.3,122.9,113.6,127.6,114.1,128.7z"/>

		<path clip-path="url(#SVGID_2_)" fill="none" stroke="#090909" stroke-width="0.58" stroke-linecap="round" stroke-miterlimit="10" stroke-dasharray="1.623,1.275" d="
		M148.1,104c1.5,0,2.6,2.6,3.8,4.7c0.3,0.5,0.6,1,0.9,1.5c1.5,2.3,2.2,3.9,3,5.8c0.5,1.1,1,2.2,1.7,3.6c3.3,6.6,4.1,12,2.3,16.5
		c-1.9,4.8-7,8.6-15,11.4c-6.6,2.3-11.2,3.3-14.3,3.3h0c-4.6-0.1-6-2.4-9-9c-4.3-9.3-7.2-21.3-9.8-20.8"/>

		<path clip-path="url(#SVGID_2_)" fill="none" stroke="#090909" stroke-width="0.58" stroke-linecap="round" stroke-miterlimit="10" stroke-dasharray="1.623,1.275" d="
		M146.7,103.9c0.3,0.2,3,5.5,3.2,5.9c0.3,0.5,0.6,1,1,1.6c1.4,2.2,2,3.6,2.8,5.5c0.5,1.1,1,2.3,1.7,3.7c3,6,3.7,10.8,2.2,14.6
		c-1.7,4.1-6.3,7.5-13.6,10.1c-6.3,2.2-10.7,3.2-13.5,3.1h0c-3.1-0.1-4-1.1-7-7.6c-4.1-8.9-7-20.6-10.3-21.1"/>

		<polyline clip-path="url(#SVGID_2_)" fill="none" stroke="#090909" stroke-width="0.58" stroke-linecap="round" stroke-miterlimit="10" stroke-dasharray="1.623,1.275" points="
		80.3,152.4 106.9,160 97.1,177 	"/>

		<polyline clip-path="url(#SVGID_2_)" fill="none" stroke="#090909" stroke-width="0.58" stroke-linecap="round" stroke-miterlimit="10" stroke-dasharray="1.623,1.275" points="
		82.7,149.4 110.8,158.3 100.5,177.4 	"/>
	<path clip-path="url(#SVGID_2_)" fill="#FFFFFF" d="M347.4,180.1c-0.2-1.5-1-2-2.4-2.1c-1.2-0.1-2.7,0.2-4.6,0.5
		c-1.5,0.2-3.3,0.5-5.3,0.7c-7.5,0.6-71.6,3.1-85.5,3.2c-13.9,0.1-79.8,2.9-151-5.2c-7.7-0.9-18.4-2.8-30.2-5.8
		c-7.9-2-16.3-4.4-24.5-7.2c0.6,1.2,1.4,2.4,2.4,3.5c6,6.7,19.5,14.6,28.8,16.7c2,0.5,4,1,5.8,1.6c7.4,1.6,14,2.7,18.9,3.3
		c71.2,8.1,137.1,5.3,151,5.2c13.9-0.1,78.1-2.6,85.5-3.2c2.4-0.2,4.5-0.5,6.2-0.8c0.3-0.6,0.6-1,1-1.4c1.4,0,2.7,0.1,3.9,0.1
		C347.5,186.8,347.7,182.6,347.4,180.1"/>
	<path clip-path="url(#SVGID_2_)" fill="none" stroke="#060606" stroke-width="0.58" d="M347.4,180.1c-0.2-1.5-1-2-2.4-2.1
		c-1.2-0.1-2.7,0.2-4.6,0.5c-1.5,0.2-3.3,0.5-5.3,0.7c-7.5,0.6-71.6,3.1-85.5,3.2c-13.9,0.1-79.8,2.9-151-5.2
		c-7.7-0.9-18.4-2.8-30.2-5.8c-7.9-2-16.3-4.4-24.5-7.2c0.6,1.2,1.4,2.4,2.4,3.5c6,6.7,19.5,14.6,28.8,16.7c2,0.5,4,1,5.8,1.6
		c7.4,1.6,14,2.7,18.9,3.3c71.2,8.1,137.1,5.3,151,5.2c13.9-0.1,78.1-2.6,85.5-3.2c2.4-0.2,4.5-0.5,6.2-0.8c0.3-0.6,0.6-1,1-1.4
		c1.4,0,2.7,0.1,3.9,0.1C347.5,186.8,347.7,182.6,347.4,180.1z"/>
	<path clip-path="url(#SVGID_2_)" fill="#FFFFFF" d="M343.4,130c0.3,1.2,0.6,2.3,0.8,3.4C343.9,132,343.7,130.9,343.4,130"/>
	<path clip-path="url(#SVGID_2_)" fill="none" stroke="#060606" stroke-width="0.58" d="M343.4,130c0.3,1.2,0.6,2.3,0.8,3.4
		C343.9,132,343.7,130.9,343.4,130z"/>
	<path clip-path="url(#SVGID_2_)" fill="#313232" d="M344.2,133.4c0.4,2.2,0.9,5,1.2,8C345.2,138.8,344.8,136.1,344.2,133.4"/>
	<path clip-path="url(#SVGID_2_)" fill="none" stroke="#060606" stroke-width="0.613" stroke-miterlimit="10" d="M344.2,133.4
		c0.4,2.2,0.9,5,1.2,8C345.2,138.8,344.8,136.1,344.2,133.4z"/>

		<path clip-path="url(#SVGID_2_)" fill="none" stroke="#090909" stroke-width="0.58" stroke-linecap="round" stroke-miterlimit="10" stroke-dasharray="1.623,1.275" d="
		M75.6,157.1c0,0,28,5.2,69.2-4.7c41.2-9.9,85.2-53.7,114.9-116.3"/>

		<path clip-path="url(#SVGID_2_)" fill="none" stroke="#090909" stroke-width="0.58" stroke-linecap="round" stroke-miterlimit="10" stroke-dasharray="1.623,1.275" d="
		M74.5,159.9c0,0,30.4,6.1,73.2-5.6c40.9-11.2,81.8-50.8,113.1-115"/>
	<path clip-path="url(#SVGID_2_)" fill="#313232" d="M343.4,130c-0.4-1.6-0.9-3.2-1.5-4.9c-0.5-1.6-1.2-3.4-1.8-5.1
		c1.2,3.8,2.4,7.2,3.3,9.8C343.3,129.8,343.3,129.9,343.4,130"/>
	<path clip-path="url(#SVGID_2_)" fill="none" stroke="#060606" stroke-width="0.613" stroke-miterlimit="10" d="M343.4,130
		c-0.4-1.6-0.9-3.2-1.5-4.9c-0.5-1.6-1.2-3.4-1.8-5.1c1.2,3.8,2.4,7.2,3.3,9.8C343.3,129.8,343.3,129.9,343.4,130z"/>
</g>
</svg>
