<?xml version="1.0" encoding="utf-8"?>
<!-- Generator: Adobe Illustrator 18.1.1, SVG Export Plug-In . SVG Version: 6.00 Build 0)  -->
<svg version="1.1" id="layout_1" xmlns="http://www.w3.org/2000/svg" xmlns:xlink="http://www.w3.org/1999/xlink" x="0px" y="0px"
	 viewBox="0 0 258.5 152.8" enable-background="new 0 0 258.5 152.8" xml:space="preserve">
<path fill="#FFFFFF" d="M151.1,72.7c0,0,5.4-8.3,8-7.7c2.5,0.6-4,9.4-4,9.4L151.1,72.7z"/>
<path fill="none" stroke="#060606" stroke-width="0.339" d="M151.1,72.7c0,0,5.4-8.3,8-7.7c2.5,0.6-4,9.4-4,9.4L151.1,72.7z"/>
<path fill="#FFFFFF" d="M120,28.7c0,0,9.6-5,11.4-3.1c1.8,1.8-8.9,6.7-8.9,6.7L120,28.7z"/>
<path fill="none" stroke="#060606" stroke-width="0.339" d="M120,28.7c0,0,9.6-5,11.4-3.1c1.8,1.8-8.9,6.7-8.9,6.7L120,28.7z"/>
<path fill="#0C0B0B" d="M26,151.4c0,0.8,52,1.4,116.2,1.4c64.2,0,116.2-0.6,116.2-1.4c0-0.8-52-1.4-116.2-1.4
	C78,150,26,150.6,26,151.4"/>
<path fill="#0C0B0B" d="M243,111.3c-1.4-1.4-0.3-3.7,2.7-5.6c0.5-0.3,0.9-0.6,1.2-0.8c0.1,0.3-0.8,0.5-0.3,0.6
	c2.3,0.2,4.1,2.3,4.7,3.7c0,0.1,0.2,0.1,0.4,0.1c-0.3,0.1-0.5,0.2-0.8,0.3C249.3,109.9,244.5,112.8,243,111.3"/>
<path fill="#FFFFFF" d="M204.3,96.4c0.1,0.6,1.4,1.2,2.2,6.1c0.2,1.2,0.5,2.6,1,4.1c-2.9-3.7-6.5-8.2-10-12.3
	c2.4,0.7,4.9,1.3,6.9,1.7C204.3,96.1,204.3,96.3,204.3,96.4"/>
<path fill="none" stroke="#060606" stroke-width="0.339" d="M204.3,96.4c0.1,0.6,1.4,1.2,2.2,6.1c0.2,1.2,0.5,2.6,1,4.1
	c-2.9-3.7-6.5-8.2-10-12.3c2.4,0.7,4.9,1.3,6.9,1.7C204.3,96.1,204.3,96.3,204.3,96.4z"/>
<path fill="#FFFFFF" d="M89.8,22.9c-0.3-6.4,1-8.9,4.4-13c1.6-1.9,4.2-3.4,6.6-4.5c0.1,0.4,0.2,0.8,0.5,1.2
	c1.3,1.9,7.1,10.9,9.5,14.6c-1.4-0.6-2.9-1-4.1-1.3C102.3,18.9,97.2,19.9,89.8,22.9"/>
<path fill="none" stroke="#060606" stroke-width="0.339" d="M89.8,22.9c-0.3-6.4,1-8.9,4.4-13c1.6-1.9,4.2-3.4,6.6-4.5
	c0.1,0.4,0.2,0.8,0.5,1.2c1.3,1.9,7.1,10.9,9.5,14.6c-1.4-0.6-2.9-1-4.1-1.3C102.3,18.9,97.2,19.9,89.8,22.9z"/>
<path fill="#0C0B0B" d="M127.3,8c-0.1-0.1-0.1-0.2-0.2-0.3c-0.7-1.2-1.4-2.4-2.2-3.6c0-0.1-0.1-0.1-0.1-0.2
	c-0.1-0.2-0.1-0.3,0.1-0.4c0.4-0.2,0.8-0.5,1.2-0.7c0.2-0.1,0.3-0.1,0.4,0.1c0,0.1,0.1,0.1,0.1,0.2c1.5,2.4,2.9,4.8,4.4,7.2
	c0.3,0.5,0.3,0.5-0.2,0.7c-0.3,0.2-0.7,0.4-1,0.6c-0.2,0.2-0.4,0.1-0.6,0c-1.3-0.9-2.6-1.8-4-2.7c-0.1-0.1-0.2-0.1-0.3-0.1
	c0.1,0.1,0.1,0.2,0.2,0.3c0.7,1.2,1.4,2.3,2.1,3.5c0,0.1,0.1,0.1,0.1,0.2c0.1,0.1,0.1,0.3-0.1,0.4c-0.4,0.2-0.8,0.5-1.2,0.7
	c-0.1,0.1-0.3,0-0.4-0.1c-0.1-0.1-0.1-0.1-0.1-0.2l-4.4-7.3c0,0-0.1-0.1-0.1-0.1c-0.1-0.2-0.1-0.3,0.1-0.5c0.4-0.2,0.7-0.4,1.1-0.7
	c0.2-0.1,0.4-0.1,0.6,0c1.4,0.9,2.7,1.9,4.1,2.8C127,7.9,127.1,8,127.3,8C127.2,8,127.2,8,127.3,8"/>
<path fill="#0C0B0B" d="M103.4,22c-0.7-1.2-1.4-2.3-2.1-3.5c0-0.1-0.1-0.1-0.1-0.2c-0.1-0.2,0-0.3,0.1-0.5c0,0,0.1-0.1,0.1-0.1
	c0.7-0.4,1.4-0.9,2.2-1.3c0.9-0.5,2.5-0.6,3.7,0.7c0.2,0.2,0.3,0.4,0.4,0.6c0.6,0.9,1.1,1.8,1.6,2.7c0.7,1.2,0.6,2.8-0.4,3.8
	c-0.2,0.2-0.4,0.3-0.6,0.5c-0.7,0.4-1.3,0.8-2,1.2c-0.3,0.2-0.6,0.1-0.7-0.2C104.8,24.5,104.1,23.3,103.4,22 M103.6,18.6
	c0.1,0.4,2.7,4.6,2.9,4.8c0.3-0.2,0.5-0.3,0.8-0.5c0.1,0,0.1-0.1,0.1-0.1c0.3-0.4,0.4-0.8,0.1-1.3c-0.2-0.5-0.5-0.9-0.8-1.3
	c-0.3-0.5-0.6-1-1-1.5c-0.3-0.5-1-0.7-1.5-0.4C104.1,18.3,103.9,18.5,103.6,18.6"/>
<path fill="#0C0B0B" d="M94,27.9c0.1,0.1,0.1,0.2,0.2,0.3c0.6,1,1.3,2.1,1.9,3.1c0,0.1,0.1,0.1,0.1,0.2c0.1,0.2,0.1,0.3-0.1,0.4
	c-0.4,0.3-0.9,0.5-1.3,0.8c-0.2,0.1-0.3,0-0.4-0.1c0-0.1-0.1-0.1-0.1-0.2c-1.5-2.4-2.9-4.8-4.4-7.2c-0.3-0.4-0.3-0.5,0.2-0.7
	c0.3-0.2,0.6-0.4,1-0.6c0.3-0.2,0.4-0.2,0.6,0.1c0.6,1,1.2,2,1.8,2.9c0.1,0.1,0.1,0.2,0.3,0.2c0-0.1,0-0.2,0-0.4
	c-0.1-1.3-0.1-2.7-0.2-4c0-0.3,0.1-0.5,0.4-0.7c0.4-0.2,0.7-0.4,1.1-0.6c0.1,0,0.1-0.1,0.2-0.1c0.2-0.1,0.3,0,0.3,0.2
	c0,0.1,0,0.2,0,0.2c0.1,1.4,0.1,2.8,0.2,4.2c0,0.3,0.1,0.5,0.4,0.6c1.4,0.7,2.7,1.5,4.1,2.2c0.1,0,0.2,0.1,0.2,0.1
	c0.3,0.2,0.3,0.3,0,0.4c-0.4,0.2-0.8,0.5-1.2,0.7c-0.3,0.2-0.5,0.2-0.7,0c-1.3-0.7-2.7-1.4-4-2.2C94.3,28,94.2,27.9,94,27.9
	C94.1,27.9,94.1,27.9,94,27.9"/>
<path fill="#0C0B0B" d="M133.7,5.3c-0.1,0.1-0.3,0.2-0.4,0.2c-0.3,0.2-0.5,0.1-0.6-0.2c-0.1-0.2-0.3-0.4-0.4-0.7
	c-0.1-0.2-0.1-0.4,0.1-0.6c0.6-0.4,1.2-0.7,1.8-1.1c0.2-0.1,0.4-0.1,0.6,0.1c0,0.1,0.1,0.1,0.1,0.2c0.7,1.2,1.5,2.4,2.2,3.6
	c0,0.1,0.1,0.1,0.1,0.2c0.1,0.1,0.1,0.2-0.1,0.3c-0.3,0.2-0.6,0.4-0.9,0.5c-0.1,0.1-0.1,0.1-0.4-0.1c-0.2,0.2-0.3,0.4-0.5,0.6
	c-1.2,1.1-3,1.1-4.1,0c-0.2-0.2-0.3-0.4-0.5-0.6c-0.7-1.2-1.4-2.3-2.1-3.5c-0.7-1.1-0.5-2.6,0.4-3.5c1.2-1.3,3.2-1.3,4.3,0
	c0.2,0.2,0.2,0.5-0.1,0.7c-0.3,0.2-0.6,0.4-0.9,0.6c-0.2,0.1-0.4,0.1-0.6-0.1c-0.3-0.2-0.6-0.3-1-0.2c-0.6,0.2-0.8,0.9-0.5,1.4
	c0.1,0.2,0.2,0.4,0.3,0.6c0.6,1,1.1,1.9,1.7,2.9c0.1,0.2,0.2,0.3,0.4,0.4c0.4,0.3,0.8,0.2,1.1,0c0.3-0.3,0.5-0.6,0.4-1
	C134.1,5.9,133.9,5.7,133.7,5.3"/>
<path fill="#0C0B0B" d="M114.1,21.5c-0.9,0.5-2,0.6-3.1,0c-0.3-0.2-0.4-0.4-0.3-0.7c0.1-0.3,0.3-0.6,0.4-0.9
	c0.1-0.3,0.3-0.4,0.6-0.3c0.3,0.1,0.6,0.1,0.9,0.1c0.6,0,1-0.6,0.8-1.2c-0.1-0.3-0.3-0.5-0.6-0.6c-0.2,0-0.5,0-0.7,0
	c-0.4,0-0.7,0.1-1.1,0.1c-0.3,0-0.6,0.1-0.9,0.1c-1.4,0-2.3-0.8-2.6-2c-0.4-1.4,0.3-2.8,1.5-3.4c1-0.5,2.1-0.4,3.1,0
	c0.3,0.1,0.3,0.3,0.2,0.6c-0.2,0.3-0.3,0.6-0.5,0.9c-0.1,0.3-0.3,0.3-0.6,0.2c-0.3-0.1-0.6-0.1-0.9-0.1c-0.5,0-0.8,0.4-0.9,0.9
	c0,0.5,0.2,0.8,0.7,0.9c0.3,0,0.6,0,0.8-0.1c0.6-0.1,1.3-0.2,1.9-0.1c2.4,0.2,3.3,2.7,2.3,4.5C115.1,20.8,114.7,21.2,114.1,21.5"/>
<path fill="#0C0B0B" d="M117.9,8.9c-0.2,0.1-0.4,0.2-0.5,0.3c-0.2,0.1-0.3,0.1-0.4-0.1c-0.1-0.1-0.1-0.2-0.2-0.3
	c-0.1-0.2-0.1-0.3,0.1-0.4c1-0.6,2-1.2,2.9-1.8c0.2-0.1,0.3-0.1,0.4,0.1c0.4,0.7,0.4,0.6-0.2,0.9c-0.1,0.1-0.2,0.1-0.3,0.2
	c1.3,2.1,2.6,4.3,3.9,6.4c0.2-0.1,0.4-0.2,0.6-0.3c0.2-0.1,0.3-0.1,0.4,0.1c0.1,0.1,0.2,0.3,0.3,0.4c0.1,0.1,0,0.2-0.1,0.3
	c-0.1,0-0.1,0.1-0.2,0.1c-0.9,0.6-1.9,1.1-2.8,1.7c-0.1,0-0.1,0.1-0.2,0.1c-0.1,0.1-0.2,0-0.3-0.1c-0.1-0.2-0.2-0.3-0.3-0.5
	c-0.1-0.1,0-0.3,0.1-0.3c0.2-0.1,0.4-0.2,0.6-0.4C121.7,15.1,118.2,9.3,117.9,8.9"/>
<path fill="#0C0B0B" d="M97.8,21c-0.2,0.1-0.4,0.2-0.6,0.3c-0.2,0.1-0.3,0.1-0.4-0.1c-0.4-0.7-0.4-0.6,0.2-0.9
	c0.8-0.5,1.7-1,2.5-1.5c0.1,0,0.2-0.1,0.2-0.1c0.1-0.1,0.2-0.1,0.3,0.1c0.1,0.2,0.2,0.3,0.3,0.5c0.1,0.1,0,0.2-0.1,0.3
	c-0.1,0.1-0.2,0.1-0.3,0.2c-0.1,0.1-0.2,0.1-0.3,0.2c1.3,2.1,2.6,4.2,3.9,6.4c0.2-0.1,0.4-0.2,0.5-0.3c0.3-0.2,0.3-0.2,0.5,0.1
	c0.1,0.1,0.1,0.2,0.2,0.3c0.1,0.2,0.1,0.2-0.1,0.4c-0.2,0.1-0.4,0.2-0.6,0.3c-0.8,0.5-1.6,0.9-2.4,1.4c-0.3,0.2-0.3,0.2-0.5-0.1
	c-0.1-0.1-0.1-0.2-0.2-0.3c-0.1-0.1,0-0.3,0.1-0.3c0.1-0.1,0.2-0.1,0.3-0.2c0.1-0.1,0.2-0.1,0.3-0.2C100.4,25.3,99.1,23.2,97.8,21"
	/>
<path fill="#0C0B0B" d="M118.2,12.5c-0.1,0.4-0.2,0.7-0.3,1c-0.1,0.2,0,0.4,0.1,0.6c0.2,0.2,0.4,0.5,0.7,0.8c-0.3,0-0.5,0-0.7,0
	c-0.2,0-0.5,0-0.7,0.1c-0.2,0.1-0.2,0.4-0.4,0.5c-0.1,0.2-0.2,0.4-0.4,0.6c-0.1-0.3-0.2-0.6-0.3-0.8c0-0.1,0-0.1-0.1-0.2
	c-0.1-0.3-0.2-0.4-0.5-0.4c-0.3,0-0.6-0.2-1-0.3c0.1-0.1,0.3-0.3,0.4-0.4c0.2-0.1,0.3-0.3,0.5-0.4c0.1-0.1,0.1-0.2,0.1-0.3
	c0-0.4-0.1-0.8-0.1-1.2c0.3,0.2,0.5,0.3,0.7,0.4c0.5,0.3,0.5,0.3,1,0.1C117.7,12.8,118,12.7,118.2,12.5"/>
<path fill="#FFFFFF" d="M94.3,9.9c-3.4,4.1-4.7,6.6-4.4,13c-0.4,0.2-0.8,0.3-1.2,0.5C87.3,24,86,24.5,84.6,25
	c-0.6-9.4,1.3-13.7,5.2-18.4c2-2.4,5.7-4.2,8.4-5.3c2.9,1.3,2.4,2.6,2.7,4.1C98.5,6.4,95.9,8,94.3,9.9"/>
<path fill="none" stroke="#060606" stroke-width="0.339" d="M94.3,9.9c-3.4,4.1-4.7,6.6-4.4,13c-0.4,0.2-0.8,0.3-1.2,0.5
	C87.3,24,86,24.5,84.6,25c-0.6-9.4,1.3-13.7,5.2-18.4c2-2.4,5.7-4.2,8.4-5.3c2.9,1.3,2.4,2.6,2.7,4.1C98.5,6.4,95.9,8,94.3,9.9z"/>
<path fill="none" stroke="#090909" stroke-width="7.200000e-002" stroke-linecap="round" stroke-miterlimit="10" d="M99.1,0.8
	c-0.1,0,1.6,4.6,1.4,4.7c-0.1,0-2-4.5-2.1-4.4c-0.1,0,1.7,4.6,1.7,4.6c-0.1,0-2.1-4.4-2.2-4.4c-0.1,0,1.9,4.5,1.8,4.6
	c-0.1,0-2.3-4.3-2.4-4.3c-0.1,0,2,4.5,1.9,4.5c-0.1,0-2.4-4.3-2.5-4.2c-0.1,0,2.1,4.4,2,4.5c-0.1,0-2.5-4.2-2.6-4.2
	c-0.1,0,2.2,4.4,2.1,4.4c-0.1,0-2.6-4.2-2.7-4.1c-0.1,0,2.3,4.3,2.2,4.4c-0.1,0-2.7-4.1-2.8-4.1c-0.1,0,2.4,4.3,2.3,4.3
	c-0.1,0-2.8-4-2.8-4c-0.1,0.1,2.5,4.2,2.4,4.3c-0.1,0-2.9-4-2.9-3.9c-0.1,0.1,2.6,4.1,2.5,4.2c-0.1,0.1-3-3.9-3-3.8
	c-0.1,0.1,2.7,4.1,2.6,4.1c-0.1,0.1-3.1-3.8-3.1-3.8c-0.1,0.1,2.8,4,2.7,4.1c-0.1,0.1-3.1-3.8-3.2-3.7c-0.1,0.1,2.9,3.9,2.8,4
	c-0.1,0.1-3.2-3.7-3.3-3.6c-0.1,0.1,3,3.9,2.9,3.9c-0.1,0.1-3.3-3.6-3.4-3.5c-0.1,0.1,3.1,3.8,3,3.8c-0.1,0.1-3.4-3.5-3.5-3.4
	c-0.1,0.1,3.2,3.7,3.1,3.8c-0.1,0.1-3.5-3.4-3.6-3.3c-0.1,0.1,3.3,3.6,3.2,3.7c-0.1,0.1-3.6-3.3-3.7-3.2s3.4,3.5,3.3,3.6
	C93.6,10.2,90,7,89.9,7c-0.1,0.1,3.5,3.4,3.4,3.5c-0.1,0.1-3.8-3.1-3.9-3c-0.1,0.1,3.6,3.3,3.5,3.4c-0.1,0.1-3.9-3-3.9-2.9
	c-0.1,0.1,3.7,3.2,3.6,3.3c-0.1,0.1-4-2.9-4-2.8c-0.1,0.1,3.8,3.1,3.7,3.2c-0.1,0.1-4.1-2.7-4.1-2.7c-0.1,0.1,3.9,3,3.8,3.1
	c-0.1,0.1-4.1-2.6-4.2-2.5c-0.1,0.1,4,2.9,3.9,2.9c-0.1,0.1-4.2-2.5-4.3-2.4c0,0.1,4.1,2.7,4,2.8c0,0.1-4.3-2.3-4.3-2.3
	c0,0.1,4.2,2.6,4.1,2.7c0,0.1-4.4-2.2-4.4-2.1c0,0.1,4.2,2.5,4.2,2.5c0,0.1-4.4-2.1-4.5-2c0,0.1,4.3,2.3,4.3,2.4
	c0,0.1-4.5-1.9-4.5-1.8c0,0.1,4.4,2.2,4.3,2.3c0,0.1-4.6-1.8-4.6-1.7s4.5,2,4.4,2.1c0,0.1-4.6-1.6-4.7-1.5c0,0.1,4.5,1.9,4.5,2
	c0,0.1-4.7-1.4-4.7-1.4c0,0.1,4.6,1.7,4.6,1.8c0,0.1-4.7-1.3-4.7-1.2c0,0.1,4.6,1.6,4.6,1.7c0,0.1-4.8-1.1-4.8-1
	c0,0.1,4.7,1.4,4.7,1.5c0,0.1-4.8-1-4.8-0.9c0,0.1,4.7,1.3,4.7,1.4c0,0.1-4.8-0.8-4.8-0.7c0,0.1,4.8,1.1,4.7,1.2
	c0,0.1-4.9-0.7-4.9-0.6c0,0.1,4.8,1,4.8,1.1c0,0.1-4.9-0.5-4.9-0.4c0,0.1,4.8,0.8,4.8,0.9c0,0.1-4.9-0.4-4.9-0.3
	c0,0.1,4.8,0.7,4.8,0.8c0,0.1-4.9-0.2-4.9-0.1c0,0.1,4.9,0.5,4.9,0.6s-4.9-0.1-4.9,0c0,0.1,4.9,0.4,4.9,0.5c0,0.1-4.9,0.1-4.9,0.2
	c0,0.1,4.9,0.2,4.9,0.3c0,0.1-4.9,0.2-4.9,0.3c0,0.1,4.9,0.1,4.9,0.2c0,0.1-4.9,0.3-4.9,0.4c0,0.1,4.9,0,4.9,0.1
	c0,0.1-4.9,0.5-4.9,0.6c0,0.1,4.9-0.2,4.9-0.1c0,0.1-4.9,0.6-4.8,0.7c0,0.1,4.9-0.3,4.9-0.2c0,0.1-4.8,0.7-4.8,0.8
	c0,0.1,4.9-0.4,4.9-0.3c0,0.1-4.8,0.8-4.8,0.9c0,0.1,4.9-0.5,4.9-0.4c0,0.1-4.8,0.9-4.8,1c0,0.1,4.9-0.6,4.9-0.5
	c0,0.1-4.8,1.1-4.8,1.1c0,0.1,4.8-0.7,4.9-0.6c0,0.1-4.8,1.2-4.7,1.3c0,0.1,4.8-0.8,4.8-0.8"/>
<path fill="#FFFFFF" d="M32.2,87.5c2.1-6.4,6.6-19,8-29.9c1-7.8-3.8-32.5-2.5-31.9c21.8,4.5,36.6,2.1,46.1-1
	c0.4-0.1,0.9-0.3,1.3-0.4c1.4-0.5,4.9-1.9,5.3-2.1c7.4-3,12.4-3.8,16.8-2.7c1.2,0.3,2.7,0.7,4.1,1.3c1.8,0.7,3.6,1.7,5,3
	c9.4,8.6,18.4,30.3,30.7,43.8C159.4,81,181.4,82.8,189,86.3c2.3,1.1,6.5,4.6,8.7,7.1c0.1,0.1,0.2,0.3,0.3,0.4c3.5,4,7.1,8.5,10,12.3
	c1,3.2,2.6,6.7,5.2,9c-7.9,2-15.1,3.3-20.2,3.9c-47.7,5.4-91.8,3.5-101.1,3.5c-9.3,0-52.3-1.8-57.3-2.1c-1.3-0.1-2.5-0.3-3.5-0.4
	C28.8,110.8,30.6,92.4,32.2,87.5"/>
<path fill="none" stroke="#060606" stroke-width="0.339" d="M32.2,87.5c2.1-6.4,6.6-19,8-29.9c1-7.8-3.8-32.5-2.5-31.9
	c21.8,4.5,36.6,2.1,46.1-1c0.4-0.1,0.9-0.3,1.3-0.4c1.4-0.5,4.9-1.9,5.3-2.1c7.4-3,12.4-3.8,16.8-2.7c1.2,0.3,2.7,0.7,4.1,1.3
	c1.8,0.7,3.6,1.7,5,3c9.4,8.6,18.4,30.3,30.7,43.8C159.4,81,181.4,82.8,189,86.3c2.3,1.1,6.5,4.6,8.7,7.1c0.1,0.1,0.2,0.3,0.3,0.4
	c3.5,4,7.1,8.5,10,12.3c1,3.2,2.6,6.7,5.2,9c-7.9,2-15.1,3.3-20.2,3.9c-47.7,5.4-91.8,3.5-101.1,3.5c-9.3,0-52.3-1.8-57.3-2.1
	c-1.3-0.1-2.5-0.3-3.5-0.4C28.8,110.8,30.6,92.4,32.2,87.5z"/>
<path fill="#FFFFFF" d="M28.6,87.6c2.1-6.4,6.6-19,8-29.9c1-7.6,0.7-22.3,0.4-30.6c0-0.4,0.5-1,0.7-1c0.8,0.2,1.6,0.3,2.3,0.5
	c19.2,3.9,33.7,1.9,43.2-1.2c0.4-0.1,0.9-0.3,1.3-0.4c1.4-0.5,2.8-1,4.1-1.6c0.4-0.2,0.8-0.3,1.2-0.5c7.4-3,12.5-4.1,16.9-3
	c1.2,0.3,2.7,0.7,4.1,1.3c1.8,0.7,3.6,1.7,5,3c9.4,8.6,18.4,30.3,30.7,43.8c12.3,13.4,34.3,15.2,41.9,18.7c2.3,1.1,6.5,4.6,8.7,7.1
	c0.1,0.1,0.2,0.3,0.3,0.4c3.5,4,7.1,8.5,10,12.3c1,3.2,2.6,6.7,5.2,9c-7.9,2-15.1,3.3-20.2,3.9c-47.7,5.4-91.8,3.5-101.1,3.5
	c-9.3,0-52.3-1.8-57.3-2.1c-1.3-0.1-2.5-0.3-3.5-0.4c-1.3-0.2-2.3-0.4-3.1-0.3C25.2,111,26.9,92.6,28.6,87.6"/>
<path fill="none" stroke="#060606" stroke-width="0.339" d="M28.6,87.6c2.1-6.4,6.6-19,8-29.9c1-7.6,0.7-22.3,0.4-30.6
	c0-0.4,0.5-1,0.7-1c0.8,0.2,1.6,0.3,2.3,0.5c19.2,3.9,33.7,1.9,43.2-1.2c0.4-0.1,0.9-0.3,1.3-0.4c1.4-0.5,2.8-1,4.1-1.6
	c0.4-0.2,0.8-0.3,1.2-0.5c7.4-3,12.5-4.1,16.9-3c1.2,0.3,2.7,0.7,4.1,1.3c1.8,0.7,3.6,1.7,5,3c9.4,8.6,18.4,30.3,30.7,43.8
	c12.3,13.4,34.3,15.2,41.9,18.7c2.3,1.1,6.5,4.6,8.7,7.1c0.1,0.1,0.2,0.3,0.3,0.4c3.5,4,7.1,8.5,10,12.3c1,3.2,2.6,6.7,5.2,9
	c-7.9,2-15.1,3.3-20.2,3.9c-47.7,5.4-91.8,3.5-101.1,3.5c-9.3,0-52.3-1.8-57.3-2.1c-1.3-0.1-2.5-0.3-3.5-0.4
	c-1.3-0.2-2.3-0.4-3.1-0.3C25.2,111,26.9,92.6,28.6,87.6z"/>
<path fill="#FFFFFF" d="M36.6,57.7c1-7.6,0.7-22.3,0.4-30.6c0-0.4,0.5-1,0.7-1c0.8,0.2,1.6,0.3,2.3,0.5c0.6,0.1,0.6,0.1,1.1,0.2
	c0.1,4.3,0.1,12.5-0.4,19c-0.8,10.9-2.6,25.9-8.3,40.7c-3.4,9-3,24.1-1.8,33.8c-0.1,0-0.2,0-0.2,0c-1.3-0.2-2.3-0.4-3.1-0.3
	c-2.2-9-0.5-27.4,1.2-32.4C30.7,81.2,35.2,68.6,36.6,57.7"/>
<path fill="none" stroke="#060606" stroke-width="0.339" d="M36.6,57.7c1-7.6,0.7-22.3,0.4-30.6c0-0.4,0.5-1,0.7-1
	c0.8,0.2,1.6,0.3,2.3,0.5c0.6,0.1,0.6,0.1,1.1,0.2c0.1,4.3,0.1,12.5-0.4,19c-0.8,10.9-2.6,25.9-8.3,40.7c-3.4,9-3,24.1-1.8,33.8
	c-0.1,0-0.2,0-0.2,0c-1.3-0.2-2.3-0.4-3.1-0.3c-2.2-9-0.5-27.4,1.2-32.4C30.7,81.2,35.2,68.6,36.6,57.7z"/>
<path fill="none" stroke="#090909" stroke-width="0.339" stroke-linecap="round" stroke-miterlimit="10" stroke-dasharray="0.948,0.745" d="
	M40.2,26.6c0.1,4.3,0.1,12.5-0.4,19c-0.8,10.9-2.6,25.9-8.3,40.7c-3.4,9-3,24.1-1.8,33.8c-0.1,0-0.2,0-0.2,0"/>
<path fill="none" stroke="#090909" stroke-width="0.339" stroke-linecap="round" stroke-miterlimit="10" stroke-dasharray="0.948,0.745" d="
	M37.7,27.8c7.2,1.3,18.3,2.8,24.9,2.6c7.6-0.2,14.8-1.3,21.1-3.4c0.4-0.1,0.9-0.3,1.3-0.5c1.4-0.5,2.8-1,4.1-1.6
	c0.4-0.2,0.8-0.3,1.2-0.5c5.3-2.2,9.1-3.2,12.3-3.3c1.3,0,2.4,0.1,3.5,0.4c1.4,0.3,2.7,0.8,3.9,1.2c1.9,0.8,3.4,1.7,4.5,2.7
	c4.5,4.1,9.1,11.7,13.9,19.7c5.1,8.4,10.4,17.1,16.7,24c9.2,10,23.3,13.7,33.5,16.4c3.7,1,6.9,1.8,8.9,2.7c1.9,0.9,5.9,4.2,8.1,6.7
	l0.3,0.4c2.9,3.4,6.2,7.4,9.8,12c2.7,4.3,3.3,5.9,4.7,8.2"/>
<path fill="none" stroke="#090909" stroke-width="0.339" stroke-linecap="round" stroke-miterlimit="10" stroke-dasharray="0.948,0.745" d="
	M208.8,115.9c-0.8-2.6-3.2-5.8-4.3-7.8c-3.5-4.5-6.7-8.4-9.5-11.6l-0.3-0.4c-2.3-2.6-6-5.6-7.6-6.3c-1.8-0.9-5-1.7-8.6-2.6
	c-10.5-2.7-24.8-6.5-34.3-16.9c-6.4-7-11.7-15.8-16.9-24.3c-4.8-7.9-9.3-15.3-13.6-19.3c-1-0.9-2.3-1.7-4-2.4
	c-1.1-0.5-2.3-0.8-3.7-1.2c-1-0.2-2-0.3-3.1-0.3c-3,0.1-6.6,1-11.7,3.1c-0.4,0.2-0.8,0.3-1.2,0.5c-1.4,0.6-2.8,1.1-4.2,1.6
	c-0.5,0.2-0.9,0.3-1.4,0.5c-6.5,2.1-13.8,3.3-21.6,3.5c-6.1,0.1-18.4-1.5-24.9-2.6"/>
<path fill="#FFFFFF" d="M33.3,128.9c5,0.4,47.9,2.1,57.3,2.1c9.3,0,53.5,1.9,101.1-3.5c3.3-0.4,7.7-1.1,12.7-2.2
	c-4.3,1.5-7.6,3.8-9.8,7.5c-0.4,0.6-0.8,1.4-1.3,2.2c-0.7,1.1-1.4,2.4-2.2,3.7c-2.5,4.1-5,8.3-7.9,10.5c-10.8,0.6-19.5,0.5-24.8,0.5
	c-10.3,0-90.2,0.1-101.5,0.2c-5.2,0-15-0.6-24.4-1.4c-0.3-2.4-0.8-5.6-1.2-8.6c-0.2-1.2-0.3-2.4-0.5-3.5c-0.4-2.6-0.7-4.8-0.9-5.9
	c-0.2-0.9-0.4-1.6-0.7-2.1C30.3,128.6,31.7,128.8,33.3,128.9"/>
<path fill="none" stroke="#060606" stroke-width="0.339" d="M33.3,128.9c5,0.4,47.9,2.1,57.3,2.1c9.3,0,53.5,1.9,101.1-3.5
	c3.3-0.4,7.7-1.1,12.7-2.2c-4.3,1.5-7.6,3.8-9.8,7.5c-0.4,0.6-0.8,1.4-1.3,2.2c-0.7,1.1-1.4,2.4-2.2,3.7c-2.5,4.1-5,8.3-7.9,10.5
	c-10.8,0.6-19.5,0.5-24.8,0.5c-10.3,0-90.2,0.1-101.5,0.2c-5.2,0-15-0.6-24.4-1.4c-0.3-2.4-0.8-5.6-1.2-8.6
	c-0.2-1.2-0.3-2.4-0.5-3.5c-0.4-2.6-0.7-4.8-0.9-5.9c-0.2-0.9-0.4-1.6-0.7-2.1C30.3,128.6,31.7,128.8,33.3,128.9z"/>
<path fill="#FFFFFF" d="M191,138.7c0.8-1.3,1.5-2.6,2.2-3.7c0.5-0.8,0.9-1.6,1.3-2.2c2.3-3.7,5.6-6,9.8-7.5c1.2-0.4,2.5-0.8,3.9-1.1
	c6.2-1.4,15.3-6.7,19.3-11.2c0.7-0.8,1.2-1.6,1.6-2.4c2.1-4.1,0.9-8.7-3.8-11.4c-0.6-0.4-1.3-0.8-2-1.2c-0.1-0.1-0.2-0.1-0.3-0.2
	c0.6-0.4,1.7-1.1,3.5-0.9c3.6,0.4,14,1.9,20.3,7.5c0.1,0.1,0.1,0.1,0.1,0.1c-0.3,0.2-0.7,0.5-1.2,0.8c-3,2-4.1,4.3-2.7,5.6
	c1.5,1.5,6.2-1.4,7.8-1.9c0.3-0.1,0.5-0.2,0.8-0.3c0.3,0,0.7-0.1,0.8,0c5.4,6.2,5.7,15.2,2.5,22c-8.3,3.7-20.5,8.5-35.8,12.6
	c-13.9,3.7-25.8,5.3-35.5,6c-0.4,0-0.5-0.4-0.1-0.7C186.1,146.5,188.8,142.4,191,138.7"/>
<path fill="none" stroke="#060606" stroke-width="0.339" d="M191,138.7c0.8-1.3,1.5-2.6,2.2-3.7c0.5-0.8,0.9-1.6,1.3-2.2
	c2.3-3.7,5.6-6,9.8-7.5c1.2-0.4,2.5-0.8,3.9-1.1c6.2-1.4,15.3-6.7,19.3-11.2c0.7-0.8,1.2-1.6,1.6-2.4c2.1-4.1,0.9-8.7-3.8-11.4
	c-0.6-0.4-1.3-0.8-2-1.2c-0.1-0.1-0.2-0.1-0.3-0.2c0.6-0.4,1.7-1.1,3.5-0.9c3.6,0.4,14,1.9,20.3,7.5c0.1,0.1,0.1,0.1,0.1,0.1
	c-0.3,0.2-0.7,0.5-1.2,0.8c-3,2-4.1,4.3-2.7,5.6c1.5,1.5,6.2-1.4,7.8-1.9c0.3-0.1,0.5-0.2,0.8-0.3c0.3,0,0.7-0.1,0.8,0
	c5.4,6.2,5.7,15.2,2.5,22c-8.3,3.7-20.5,8.5-35.8,12.6c-13.9,3.7-25.8,5.3-35.5,6c-0.4,0-0.5-0.4-0.1-0.7
	C186.1,146.5,188.8,142.4,191,138.7z"/>
<path fill="#FFFFFF" d="M24.5,127.6c0.3,0,0.8,0,1.4,0c0.8,0,1.7,0,2.6-0.1c0.2,0.2,0.4,0.5,0.6,0.9c0.3,0.5,0.5,1.2,0.7,2.1
	c0.2,1.1,0.5,3.3,0.9,5.9c0.2,1.1,0.3,2.3,0.5,3.5c0.4,3,0.8,6.2,1.2,8.6c-1.8-0.2-3.8-0.4-5.2-0.9c-1.9-1.9-2.6-9.4-3.4-12.5
	C22.9,131.1,23,127.6,24.5,127.6"/>
<path fill="none" stroke="#060606" stroke-width="0.339" d="M24.5,127.6c0.3,0,0.8,0,1.4,0c0.8,0,1.7,0,2.6-0.1
	c0.2,0.2,0.4,0.5,0.6,0.9c0.3,0.5,0.5,1.2,0.7,2.1c0.2,1.1,0.5,3.3,0.9,5.9c0.2,1.1,0.3,2.3,0.5,3.5c0.4,3,0.8,6.2,1.2,8.6
	c-1.8-0.2-3.8-0.4-5.2-0.9c-1.9-1.9-2.6-9.4-3.4-12.5C22.9,131.1,23,127.6,24.5,127.6z"/>
<path fill="#FFFFFF" d="M204.4,96c0.2-0.5,1.1-0.8,3.2-0.4c1.8,0.4,8.3,1.1,15.2,2.4c0.2,0,0.3,0.1,0.5,0.1c0.7,0.4,1.4,0.8,2,1.2
	c4.7,2.8,5.9,7.4,3.8,11.4c-5.5,1.9-11.1,3.5-16.4,4.8c-2.6-2.3-4.2-5.7-5.2-9c-0.4-1.4-0.7-2.8-1-4.1c-0.9-4.9-2.1-5.5-2.2-6.1
	C204.3,96.3,204.3,96.1,204.4,96"/>
<path fill="none" stroke="#595757" stroke-width="0.556" d="M204.4,96c0.2-0.5,1.1-0.8,3.2-0.4c1.8,0.4,8.3,1.1,15.2,2.4
	c0.2,0,0.3,0.1,0.5,0.1c0.7,0.4,1.4,0.8,2,1.2c4.7,2.8,5.9,7.4,3.8,11.4c-5.5,1.9-11.1,3.5-16.4,4.8c-2.6-2.3-4.2-5.7-5.2-9
	c-0.4-1.4-0.7-2.8-1-4.1c-0.9-4.9-2.1-5.5-2.2-6.1C204.3,96.3,204.3,96.1,204.4,96z"/>
<path fill="#FFFFFF" d="M222.8,98c0,0,0.1-0.1,0.1-0.1c0.1,0.1,0.2,0.1,0.3,0.2C223.1,98,222.9,98,222.8,98"/>
<path fill="none" stroke="#19192F" stroke-width="0.325" stroke-miterlimit="10" d="M222.8,98c0,0,0.1-0.1,0.1-0.1
	c0.1,0.1,0.2,0.1,0.3,0.2C223.1,98,222.9,98,222.8,98z"/>
<polyline fill="none" stroke="#090909" stroke-width="0.339" stroke-linecap="round" stroke-miterlimit="10" stroke-dasharray="0.948,0.745" points="
	204.7,102.8 186.9,107.9 193.4,119.3 "/>
<polyline fill="none" stroke="#090909" stroke-width="0.339" stroke-linecap="round" stroke-miterlimit="10" stroke-dasharray="0.948,0.745" points="
	203.1,100.8 184.3,106.7 191.2,119.5 "/>
<path fill="#FFFFFF" d="M25.8,121.4c0.1-1,0.7-1.3,1.6-1.4c0.8,0,1.8,0.1,3.1,0.3c1,0.2,2.2,0.3,3.5,0.4c5,0.4,47.9,2.1,57.3,2.1
	c9.3,0,53.5,1.9,101.1-3.5c5.1-0.6,12.3-1.9,20.2-3.9c5.3-1.3,10.9-2.9,16.4-4.8c-0.4,0.8-1,1.6-1.6,2.4c-4,4.5-13,9.8-19.3,11.2
	c-1.4,0.3-2.7,0.7-3.9,1.1c-5,1.1-9.3,1.8-12.7,2.2C144,133,99.9,131.1,90.5,131c-9.3,0-52.3-1.8-57.3-2.1c-1.6-0.1-3-0.4-4.2-0.5
	c-0.2-0.4-0.4-0.7-0.6-0.9c-0.9,0-1.8,0-2.6,0.1C25.8,125.9,25.7,123,25.8,121.4"/>
<path fill="none" stroke="#060606" stroke-width="0.339" d="M25.8,121.4c0.1-1,0.7-1.3,1.6-1.4c0.8,0,1.8,0.1,3.1,0.3
	c1,0.2,2.2,0.3,3.5,0.4c5,0.4,47.9,2.1,57.3,2.1c9.3,0,53.5,1.9,101.1-3.5c5.1-0.6,12.3-1.9,20.2-3.9c5.3-1.3,10.9-2.9,16.4-4.8
	c-0.4,0.8-1,1.6-1.6,2.4c-4,4.5-13,9.8-19.3,11.2c-1.4,0.3-2.7,0.7-3.9,1.1c-5,1.1-9.3,1.8-12.7,2.2C144,133,99.9,131.1,90.5,131
	c-9.3,0-52.3-1.8-57.3-2.1c-1.6-0.1-3-0.4-4.2-0.5c-0.2-0.4-0.4-0.7-0.6-0.9c-0.9,0-1.8,0-2.6,0.1C25.8,125.9,25.7,123,25.8,121.4z"
	/>
<path fill="#FFFFFF" d="M28.6,87.8c-0.2,0.8-0.4,1.5-0.6,2.3C28.2,89.2,28.4,88.4,28.6,87.8"/>
<path fill="none" stroke="#060606" stroke-width="0.339" d="M28.6,87.8c-0.2,0.8-0.4,1.5-0.6,2.3C28.2,89.2,28.4,88.4,28.6,87.8z"/>
<path fill="#313232" d="M28,90.1c-0.3,1.5-0.6,3.3-0.8,5.4C27.3,93.7,27.6,91.9,28,90.1"/>
<path fill="none" stroke="#060606" stroke-width="0.358" stroke-miterlimit="10" d="M28,90.1c-0.3,1.5-0.6,3.3-0.8,5.4
	C27.3,93.7,27.6,91.9,28,90.1z"/>
<path fill="none" stroke="#090909" stroke-width="0.339" stroke-linecap="round" stroke-miterlimit="10" stroke-dasharray="0.948,0.745" d="
	M207.8,106c0,0-18.7,3.5-46.3-3.1c-27.6-6.6-57-36-76.9-77.8"/>
<path fill="none" stroke="#090909" stroke-width="0.339" stroke-linecap="round" stroke-miterlimit="10" stroke-dasharray="0.948,0.745" d="
	M208.6,107.8c0,0-20.4,4.1-49-3.7c-27.4-7.5-54.8-34-75.7-77"/>
<path fill="#313232" d="M28.6,87.8c0.3-1.1,0.6-2.2,1-3.3c0.4-1.1,0.8-2.3,1.2-3.4c-0.8,2.5-1.6,4.8-2.2,6.6
	C28.6,87.7,28.6,87.7,28.6,87.8"/>
<path fill="none" stroke="#060606" stroke-width="0.358" stroke-miterlimit="10" d="M28.6,87.8c0.3-1.1,0.6-2.2,1-3.3
	c0.4-1.1,0.8-2.3,1.2-3.4c-0.8,2.5-1.6,4.8-2.2,6.6C28.6,87.7,28.6,87.7,28.6,87.8z"/>
<path fill="#0C0B0B" d="M23.5,138.6c0-0.1,0-0.1,0-0.2c0-0.8,0-1.6,0-2.4c0,0,0-0.1,0-0.2c0-0.1,0-0.2,0.2-0.2c0.3,0,0.5,0,0.8,0
	c0.1,0,0.2,0,0.2,0.2c0,0,0,0.1,0,0.1c0,1.6,0,3.2,0,4.9c0,0.3,0,0.3-0.3,0.3c-0.2,0-0.4,0-0.7,0c-0.2,0-0.2-0.1-0.3-0.2
	c-0.4-0.8-0.8-1.7-1.2-2.5c0-0.1-0.1-0.1-0.1-0.2c0,0.1,0,0.1,0,0.2c0,0.8,0,1.6,0,2.3c0,0.1,0,0.1,0,0.2c0,0.1-0.1,0.2-0.2,0.2
	c-0.3,0-0.5,0-0.8,0c-0.1,0-0.1-0.1-0.2-0.1c0-0.1,0-0.1,0-0.2c0-1.6,0-3.3,0-4.9c0,0,0-0.1,0-0.1c0-0.2,0-0.2,0.2-0.2
	c0.2,0,0.5,0,0.7,0c0.1,0,0.2,0,0.3,0.2c0.4,0.9,0.8,1.7,1.2,2.6C23.4,138.5,23.5,138.6,23.5,138.6
	C23.5,138.6,23.5,138.6,23.5,138.6"/>
<path fill="#0C0B0B" d="M7.6,138.6c0-0.8,0-1.6,0-2.4c0-0.1,0-0.1,0-0.2c0-0.1,0.1-0.2,0.2-0.2c0,0,0.1,0,0.1,0c0.5,0,1,0,1.4,0
	c0.6,0,1.4,0.5,1.6,1.4c0,0.1,0,0.3,0,0.4c0,0.6,0,1.2,0,1.8c0,0.8-0.5,1.5-1.3,1.7c-0.1,0-0.3,0.1-0.4,0.1c-0.4,0-0.9,0-1.3,0
	c-0.2,0-0.3-0.1-0.3-0.3C7.6,140.2,7.6,139.4,7.6,138.6 M8.7,137c0,0.2,0,3.1,0,3.2c0.2,0,0.4,0,0.5,0c0,0,0.1,0,0.1,0
	c0.3-0.1,0.4-0.3,0.4-0.6c0-0.3,0-0.6,0-0.9c0-0.3,0-0.7,0-1c0-0.3-0.3-0.6-0.6-0.6C9,136.9,8.9,137,8.7,137"/>
<path fill="#0C0B0B" d="M1.2,138.8c0,0.1,0,0.1,0,0.2c0,0.7,0,1.4,0,2.1c0,0,0,0.1,0,0.1c0,0.1,0,0.2-0.1,0.2c-0.3,0-0.6,0-0.9,0
	c-0.1,0-0.1-0.1-0.2-0.2c0,0,0-0.1,0-0.2c0-1.6,0-3.2,0-4.8c0-0.3,0-0.3,0.3-0.3c0.2,0,0.4,0,0.6,0c0.2,0,0.2,0,0.2,0.2
	c0,0.7,0,1.3,0,2c0,0.1,0,0.1,0.1,0.2c0-0.1,0.1-0.1,0.1-0.2c0.4-0.7,0.7-1.3,1.1-2c0.1-0.2,0.2-0.2,0.4-0.2c0.2,0,0.5,0,0.7,0
	c0,0,0.1,0,0.1,0c0.1,0,0.2,0.1,0.1,0.2c0,0,0,0.1-0.1,0.1c-0.4,0.7-0.8,1.4-1.1,2.1c-0.1,0.1-0.1,0.3,0,0.4
	c0.5,0.8,0.9,1.5,1.4,2.3c0,0,0.1,0.1,0.1,0.1c0.1,0.2,0.1,0.2-0.1,0.2c-0.3,0-0.5,0-0.8,0c-0.2,0-0.3-0.1-0.4-0.2
	c-0.4-0.8-0.9-1.5-1.3-2.2C1.4,138.9,1.3,138.8,1.2,138.8C1.3,138.8,1.3,138.8,1.2,138.8"/>
<path fill="#0C0B0B" d="M27.5,139.2c-0.1,0-0.2,0-0.2,0c-0.2,0-0.3-0.1-0.3-0.3c0-0.2,0-0.3,0-0.5c0-0.2,0.1-0.2,0.2-0.3
	c0.4,0,0.8,0,1.2,0c0.2,0,0.2,0.1,0.2,0.2c0,0,0,0.1,0,0.1c0,0.8,0,1.6,0,2.4c0,0,0,0.1,0,0.1c0,0.1,0,0.1-0.1,0.1
	c-0.2,0-0.4,0-0.6,0c-0.1,0-0.1,0-0.2-0.2c-0.1,0.1-0.3,0.1-0.4,0.2c-0.9,0.2-1.8-0.3-2-1.2c0-0.1-0.1-0.3-0.1-0.4
	c0-0.8,0-1.6,0-2.4c0-0.8,0.5-1.4,1.2-1.6c0.9-0.3,2,0.3,2.1,1.3c0,0.2-0.1,0.3-0.2,0.3c-0.2,0-0.4,0-0.6,0c-0.1,0-0.2-0.1-0.3-0.2
	c-0.1-0.2-0.2-0.3-0.4-0.4c-0.4-0.1-0.7,0.2-0.7,0.5c0,0.1,0,0.3,0,0.4c0,0.6,0,1.3,0,1.9c0,0.1,0,0.2,0.1,0.3
	c0.1,0.3,0.4,0.3,0.5,0.3c0.2,0,0.4-0.2,0.5-0.4C27.5,139.6,27.5,139.4,27.5,139.2"/>
<path fill="#0C0B0B" d="M13.1,141.5c-0.6,0-1.1-0.3-1.5-0.9c-0.1-0.2-0.1-0.3,0.1-0.4c0.2-0.1,0.3-0.2,0.5-0.3
	c0.2-0.1,0.3-0.1,0.4,0c0.1,0.1,0.3,0.3,0.4,0.3c0.3,0.2,0.7,0,0.8-0.4c0-0.2,0-0.3-0.1-0.5c-0.1-0.1-0.2-0.2-0.4-0.2
	c-0.2-0.1-0.4-0.2-0.6-0.3c-0.2-0.1-0.3-0.1-0.5-0.2c-0.7-0.4-0.9-1-0.7-1.8c0.2-0.8,1-1.3,1.8-1.3c0.7,0,1.2,0.4,1.5,0.9
	c0.1,0.1,0.1,0.3-0.1,0.4c-0.2,0.1-0.3,0.2-0.5,0.3c-0.1,0.1-0.2,0.1-0.3,0c-0.1-0.1-0.3-0.2-0.4-0.3c-0.2-0.1-0.5,0-0.7,0.2
	c-0.2,0.2-0.1,0.5,0.1,0.6c0.1,0.1,0.3,0.2,0.4,0.2c0.3,0.1,0.7,0.3,1,0.5c1.1,0.8,0.8,2.3-0.2,2.9
	C13.7,141.4,13.4,141.5,13.1,141.5"/>
<path fill="#0C0B0B" d="M18.6,136.3c-0.1,0-0.2,0-0.4,0c-0.2,0-0.2,0-0.2-0.2c0-0.1,0-0.2,0-0.2c0-0.2,0-0.2,0.2-0.2
	c0.7,0,1.3,0,2,0c0.2,0,0.2,0,0.2,0.2c0,0.5,0,0.4-0.4,0.4c-0.1,0-0.1,0-0.2,0c0,1.4,0,2.9,0,4.3c0.1,0,0.3,0,0.4,0
	c0.1,0,0.2,0,0.2,0.2c0,0.1,0,0.2,0,0.3c0,0.1,0,0.1-0.1,0.1c0,0-0.1,0-0.1,0c-0.6,0-1.2,0-1.9,0c0,0-0.1,0-0.1,0
	c-0.1,0-0.1,0-0.1-0.1c0-0.1,0-0.2,0-0.3c0-0.1,0.1-0.1,0.1-0.1c0.1,0,0.3,0,0.4,0C18.7,140.5,18.7,136.6,18.6,136.3"/>
<path fill="#0C0B0B" d="M5.1,136.5c-0.1,0-0.3,0-0.4,0c-0.2,0-0.2,0-0.2-0.2c0-0.4,0-0.4,0.4-0.4c0.6,0,1.1,0,1.7,0
	c0.1,0,0.1,0,0.2,0c0.1,0,0.1,0,0.1,0.1c0,0.1,0,0.2,0,0.3c0,0.1-0.1,0.1-0.1,0.1c-0.1,0-0.2,0-0.2,0c-0.1,0-0.1,0-0.2,0
	c0,1.4,0,2.9,0,4.3c0.1,0,0.2,0,0.4,0c0.2,0,0.2,0,0.2,0.2c0,0.1,0,0.1,0,0.2c0,0.1,0,0.2-0.2,0.2c-0.1,0-0.3,0-0.4,0
	c-0.5,0-1.1,0-1.6,0c-0.2,0-0.2,0-0.2-0.2c0-0.1,0-0.1,0-0.2c0-0.1,0-0.1,0.1-0.1c0.1,0,0.1,0,0.2,0c0.1,0,0.1,0,0.2,0
	C5.2,139.3,5.2,137.9,5.1,136.5"/>
<path fill="#0C0B0B" d="M17.7,138.2c-0.2,0.2-0.3,0.3-0.4,0.4c-0.1,0.1-0.1,0.2-0.1,0.3c0,0.2,0.1,0.4,0.1,0.6
	c-0.1-0.1-0.3-0.1-0.4-0.2c-0.1-0.1-0.2-0.2-0.4-0.2c-0.1,0-0.2,0.1-0.3,0.2c-0.1,0.1-0.2,0.1-0.4,0.2c0-0.2,0.1-0.3,0.1-0.5
	c0,0,0-0.1,0-0.1c0-0.1,0-0.3-0.1-0.4c-0.1-0.1-0.3-0.3-0.4-0.4c0.1,0,0.2,0,0.3-0.1c0.1,0,0.2,0,0.3,0c0.1,0,0.1,0,0.2-0.1
	c0.1-0.2,0.2-0.4,0.3-0.6c0.1,0.2,0.2,0.3,0.2,0.4c0.2,0.3,0.2,0.3,0.5,0.3C17.4,138.2,17.6,138.2,17.7,138.2"/>
<path fill="#FFFFFF" d="M125.2,68.4c-1.8,0-3.5-0.9-4.5-2.3l-15.4-21.8c-0.9-1.2-1.2-2.7-0.9-4.1c0.3-1.5,1.1-2.7,2.3-3.6l0.1-0.1
	c0.9-0.7,2-1,3.2-1c1.8,0,3.5,0.9,4.5,2.3l15.4,21.8c0.9,1.2,1.2,2.7,0.9,4.1c-0.3,1.5-1.1,2.7-2.3,3.6l-0.1,0.1
	C127.5,68,126.4,68.4,125.2,68.4"/>
<path fill="none" stroke="#060606" stroke-width="0.339" d="M125.2,68.4c-1.8,0-3.5-0.9-4.5-2.3l-15.4-21.8
	c-0.9-1.2-1.2-2.7-0.9-4.1c0.3-1.5,1.1-2.7,2.3-3.6l0.1-0.1c0.9-0.7,2-1,3.2-1c1.8,0,3.5,0.9,4.5,2.3l15.4,21.8
	c0.9,1.2,1.2,2.7,0.9,4.1c-0.3,1.5-1.1,2.7-2.3,3.6l-0.1,0.1C127.5,68,126.4,68.4,125.2,68.4z"/>
<path fill="#0C0B0B" d="M127.1,64.6l-0.6,0.4c-1,0.7-2.4,0.5-3.1-0.5l-15.8-22.3c-0.7-1-0.5-2.4,0.5-3.1l0.6-0.4
	c1-0.7,2.4-0.5,3.1,0.5l15.8,22.3C128.3,62.5,128.1,63.9,127.1,64.6"/>
<path fill="#FFFFFF" d="M123.4,62.7c0.8,1.2,2.3,1.6,3.3,1L147,50.5c1-0.6,1.2-2.1,0.4-3.3l-13.7-20.7c-0.7-1.2-4-1.7-3.1-1
	c0.9,0.7-20.9,13.4-20.9,13.4c-1.1,0.7-1.2,2.3-0.3,3.6L123.4,62.7z"/>
<path fill="none" stroke="#060606" stroke-width="0.339" d="M123.4,62.7c0.8,1.2,2.3,1.6,3.3,1L147,50.5c1-0.6,1.2-2.1,0.4-3.3
	l-13.7-20.7c-0.7-1.2-4-1.7-3.1-1c0.9,0.7-20.9,13.4-20.9,13.4c-1.1,0.7-1.2,2.3-0.3,3.6L123.4,62.7z"/>
<line fill="none" stroke="#000000" stroke-width="0.384" stroke-linecap="round" stroke-miterlimit="10" stroke-dasharray="1.536,0.768" x1="112.2" y1="41.1" x2="133.4" y2="28"/>
<line fill="none" stroke="#000000" stroke-width="0.384" stroke-linecap="round" stroke-miterlimit="10" stroke-dasharray="1.536,0.768" x1="146.5" y1="46.8" x2="125.7" y2="60.3"/>
<path fill="none" stroke="#000000" stroke-width="0.384" stroke-linecap="round" stroke-miterlimit="10" stroke-dasharray="1.536,0.768" d="
	M146.1,48.3c0.2,0.4,0.1,0.7,0,0.8l-20.3,13.1c0,0-0.1,0-0.2,0"/>
<path fill="none" stroke="#000000" stroke-width="0.384" stroke-linecap="round" stroke-miterlimit="10" stroke-dasharray="1.536,0.768" d="
	M110.3,40.6c0-0.1,0.1-0.2,0.1-0.3l20.9-13.4"/>
<path fill="#FFFFFF" d="M177.9,101.2c-1.5,1-3.4,1.1-5.1,0.4l-24.7-10.2c-1.4-0.6-2.4-1.6-3-3c-0.6-1.4-0.6-2.9,0-4.2l0-0.1
	c0.4-1,1.2-1.9,2.2-2.6c1.5-1,3.4-1.1,5.1-0.4l24.7,10.2c1.4,0.6,2.4,1.6,3,3c0.6,1.4,0.6,2.9,0,4.2l0,0.1
	C179.6,99.7,178.8,100.6,177.9,101.2"/>
<path fill="none" stroke="#060606" stroke-width="0.339" d="M177.9,101.2c-1.5,1-3.4,1.1-5.1,0.4l-24.7-10.2c-1.4-0.6-2.4-1.6-3-3
	c-0.6-1.4-0.6-2.9,0-4.2l0-0.1c0.4-1,1.2-1.9,2.2-2.6c1.5-1,3.4-1.1,5.1-0.4l24.7,10.2c1.4,0.6,2.4,1.6,3,3c0.6,1.4,0.6,2.9,0,4.2
	l0,0.1C179.6,99.7,178.8,100.6,177.9,101.2z"/>
<path fill="#0C0B0B" d="M177.4,97.1l-0.3,0.7c-0.5,1.1-1.8,1.7-2.9,1.2l-25.3-10.5c-1.1-0.5-1.7-1.8-1.2-2.9l0.3-0.7
	c0.5-1.1,1.8-1.7,2.9-1.2l25.3,10.4C177.4,94.6,177.9,95.9,177.4,97.1"/>
<path fill="#FFFFFF" d="M173.3,97.4c1.3,0.6,2.8,0.1,3.3-0.9l8-17.5c0.5-1.1-0.1-2.4-1.4-3l-21.6-11.2c-1.3-0.6-4.3,0.7-3.2,0.8
	c1.1,0.1-9.4,19.2-9.4,19.2c-0.5,1.2,0.2,2.6,1.6,3.2L173.3,97.4z"/>
<path fill="none" stroke="#060606" stroke-width="0.339" d="M173.3,97.4c1.3,0.6,2.8,0.1,3.3-0.9l8-17.5c0.5-1.1-0.1-2.4-1.4-3
	l-21.6-11.2c-1.3-0.6-4.3,0.7-3.2,0.8c1.1,0.1-9.4,19.2-9.4,19.2c-0.5,1.2,0.2,2.6,1.6,3.2L173.3,97.4z"/>
<line fill="none" stroke="#000000" stroke-width="0.384" stroke-linecap="round" stroke-miterlimit="10" stroke-dasharray="1.536,0.768" x1="152.3" y1="85.1" x2="162.1" y2="66"/>
<path fill="none" stroke="#000000" stroke-width="0.384" stroke-linecap="round" stroke-miterlimit="10" stroke-dasharray="1.536,0.768" d="
	M150.4,85.7c0-0.1-0.1-0.2,0-0.3l9.4-19.2"/>
</svg>
