<?xml version="1.0" encoding="utf-8"?>
<!-- Generator: Adobe Illustrator 18.1.1, SVG Export Plug-In . SVG Version: 6.00 Build 0)  -->
<svg version="1.1" id="图层_1" xmlns="http://www.w3.org/2000/svg" xmlns:xlink="http://www.w3.org/1999/xlink" x="0px" y="0px"
	 viewBox="0 0 235.4 152" enable-background="new 0 0 235.4 152" xml:space="preserve">
	 <g style="transform:rotateY(180deg) translate(-100%, 0);">
	 <defs>
		<clipPath id="clipPath2">
			<path fill="#FFFFFF" d="M229.9,86.8c-2.1-6.4-6.6-19-8-29.9c-1-7.6-0.7-22.3-0.4-30.6c0-0.4-0.5-1-0.7-1c-0.8,0.2-1.6,0.3-2.3,0.5
	c-19.2,3.9-33.7,1.9-43.2-1.2c-0.4-0.1-0.9-0.3-1.3-0.4c-1.4-0.5-2.8-1-4.1-1.6c-0.4-0.2-0.8-0.3-1.2-0.5c-7.4-3-12.5-4.1-16.9-3
	c-1.2,0.3-2.7,0.7-4.1,1.3c-1.8,0.7-3.6,1.7-5,3c-9.4,8.6-18.4,30.3-30.7,43.8C99.6,80.7,77.6,82.5,70,86c-2.3,1.1-6.5,4.6-8.7,7.1
	c-0.1,0.1-0.2,0.3-0.3,0.4c-3.5,4-7.1,8.5-10,12.3c-1,3.2-2.6,6.7-5.2,9c7.9,2,15.1,3.3,20.2,3.9c47.7,5.4,91.8,3.5,101.1,3.5
	c9.3,0,52.3-1.8,57.3-2.1c1.3-0.1,2.5-0.3,3.5-0.4c1.3-0.2,2.3-0.4,3.1-0.3C233.2,110.2,231.5,91.8,229.9,86.8"/>
		</clipPath>
	</defs>
<path fill="#FFFFFF" d="M107.3,72c0,0-5.4-8.3-8-7.7c-2.5,0.6,4,9.4,4,9.4L107.3,72z"/>
<path fill="none" stroke="#060606" stroke-width="0.339" d="M107.3,72c0,0-5.4-8.3-8-7.7c-2.5,0.6,4,9.4,4,9.4L107.3,72z"/>
<path fill="#FFFFFF" d="M138.5,27.9c0,0-9.6-5-11.4-3.1c-1.8,1.8,8.9,6.7,8.9,6.7L138.5,27.9z"/>
<path fill="none" stroke="#060606" stroke-width="0.339" d="M138.5,27.9c0,0-9.6-5-11.4-3.1c-1.8,1.8,8.9,6.7,8.9,6.7L138.5,27.9z"
	/>
<path fill="#0C0B0B" d="M232.5,150.6c0,0.8-52,1.4-116.2,1.4C52,152,0,151.4,0,150.6c0-0.8,52-1.4,116.2-1.4
	C180.4,149.2,232.5,149.8,232.5,150.6"/>
<path class="left_side front_part_5" fill="#0C0B0B" d="M15.4,110.5c1.4-1.4,0.3-3.7-2.7-5.6c-0.5-0.3-0.9-0.6-1.2-0.8c-0.1,0.3,0.8,0.5,0.3,0.6
	c-2.3,0.2-4.1,2.3-4.7,3.7c0,0.1-0.2,0.1-0.4,0.1c0.3,0.1,0.5,0.2,0.8,0.3C9.2,109.1,14,112,15.4,110.5"/>
<path fill="#FFFFFF" d="M54.2,95.6c-0.1,0.6-1.4,1.2-2.2,6.1c-0.2,1.2-0.5,2.6-1,4.1c2.9-3.7,6.5-8.2,10-12.3
	c-2.4,0.7-4.9,1.3-6.9,1.7C54.2,95.4,54.2,95.5,54.2,95.6"/>
<path fill="none" stroke="#060606" stroke-width="0.339" d="M54.2,95.6c-0.1,0.6-1.4,1.2-2.2,6.1c-0.2,1.2-0.5,2.6-1,4.1
	c2.9-3.7,6.5-8.2,10-12.3c-2.4,0.7-4.9,1.3-6.9,1.7C54.2,95.4,54.2,95.5,54.2,95.6z"/>
<path fill="#FFFFFF" d="M168.6,22.1c0.3-6.4-1-8.9-4.4-13c-1.6-1.9-4.2-3.4-6.6-4.5c-0.1,0.4-0.2,0.8-0.5,1.2
	c-1.3,1.9-7.1,10.9-9.5,14.6c1.4-0.6,2.9-1,4.1-1.3C156.1,18.1,161.2,19.1,168.6,22.1"/>
<path fill="none" stroke="#060606" stroke-width="0.339" d="M168.6,22.1c0.3-6.4-1-8.9-4.4-13c-1.6-1.9-4.2-3.4-6.6-4.5
	c-0.1,0.4-0.2,0.8-0.5,1.2c-1.3,1.9-7.1,10.9-9.5,14.6c1.4-0.6,2.9-1,4.1-1.3C156.1,18.1,161.2,19.1,168.6,22.1z"/>
<path fill="#FFFFFF" d="M164.2,9.1c3.4,4.1,4.7,6.6,4.4,13c0.4,0.2,0.8,0.3,1.2,0.5c1.3,0.5,2.6,1.1,4.1,1.6
	c0.6-9.4-1.3-13.7-5.2-18.4c-2-2.4-5.7-4.2-8.4-5.3c-2.9,1.3-2.4,2.6-2.7,4.1C159.9,5.7,162.6,7.2,164.2,9.1"/>
<path fill="none" stroke="#060606" stroke-width="0.339" d="M164.2,9.1c3.4,4.1,4.7,6.6,4.4,13c0.4,0.2,0.8,0.3,1.2,0.5
	c1.3,0.5,2.6,1.1,4.1,1.6c0.6-9.4-1.3-13.7-5.2-18.4c-2-2.4-5.7-4.2-8.4-5.3c-2.9,1.3-2.4,2.6-2.7,4.1
	C159.9,5.7,162.6,7.2,164.2,9.1z"/>
<path fill="none" stroke="#090909" stroke-width="7.200000e-002" stroke-linecap="round" stroke-miterlimit="10" d="M159.4,0
	c0.1,0-1.6,4.6-1.4,4.7c0.1,0,2-4.5,2.1-4.4c0.1,0-1.7,4.6-1.7,4.6c0.1,0,2.1-4.4,2.2-4.4c0.1,0-1.9,4.5-1.8,4.6
	c0.1,0,2.3-4.3,2.4-4.3c0.1,0-2,4.5-1.9,4.5c0.1,0,2.4-4.3,2.5-4.2c0.1,0-2.1,4.4-2,4.5c0.1,0,2.5-4.2,2.6-4.2
	c0.1,0-2.2,4.4-2.1,4.4c0.1,0,2.6-4.2,2.7-4.1c0.1,0-2.3,4.3-2.2,4.4c0.1,0,2.7-4.1,2.8-4.1c0.1,0-2.4,4.3-2.3,4.3
	c0.1,0,2.8-4,2.8-4c0.1,0.1-2.5,4.2-2.4,4.3c0.1,0,2.9-4,2.9-3.9c0.1,0.1-2.6,4.1-2.5,4.2c0.1,0.1,3-3.9,3-3.8
	c0.1,0.1-2.7,4.1-2.6,4.1c0.1,0.1,3.1-3.8,3.1-3.8c0.1,0.1-2.8,4-2.7,4.1c0.1,0.1,3.1-3.8,3.2-3.7c0.1,0.1-2.9,3.9-2.8,4
	c0.1,0.1,3.2-3.7,3.3-3.6c0.1,0.1-3,3.9-2.9,3.9c0.1,0.1,3.3-3.6,3.4-3.5c0.1,0.1-3.1,3.8-3,3.8c0.1,0.1,3.4-3.5,3.5-3.4
	c0.1,0.1-3.2,3.7-3.1,3.8c0.1,0.1,3.5-3.4,3.6-3.3c0.1,0.1-3.3,3.6-3.2,3.7c0.1,0.1,3.6-3.3,3.7-3.2s-3.4,3.5-3.3,3.6
	c0.1,0.1,3.7-3.2,3.8-3.1c0.1,0.1-3.5,3.4-3.4,3.5c0.1,0.1,3.8-3.1,3.9-3c0.1,0.1-3.6,3.3-3.5,3.4c0.1,0.1,3.9-3,3.9-2.9
	c0.1,0.1-3.7,3.2-3.6,3.3c0.1,0.1,4-2.9,4-2.8c0.1,0.1-3.8,3.1-3.7,3.2c0.1,0.1,4.1-2.7,4.1-2.7c0.1,0.1-3.9,3-3.8,3.1
	c0.1,0.1,4.1-2.6,4.2-2.5c0.1,0.1-4,2.9-3.9,2.9c0.1,0.1,4.2-2.5,4.3-2.4c0,0.1-4.1,2.7-4,2.8c0,0.1,4.3-2.3,4.3-2.3
	c0,0.1-4.2,2.6-4.1,2.7c0,0.1,4.4-2.2,4.4-2.1c0,0.1-4.2,2.5-4.2,2.5c0,0.1,4.4-2.1,4.5-2c0,0.1-4.3,2.3-4.3,2.4
	c0,0.1,4.5-1.9,4.5-1.8c0,0.1-4.4,2.2-4.3,2.3c0,0.1,4.6-1.8,4.6-1.7s-4.5,2-4.4,2.1c0,0.1,4.6-1.6,4.7-1.5c0,0.1-4.5,1.9-4.5,2
	c0,0.1,4.7-1.4,4.7-1.4c0,0.1-4.6,1.7-4.6,1.8c0,0.1,4.7-1.3,4.7-1.2c0,0.1-4.6,1.6-4.6,1.7c0,0.1,4.8-1.1,4.8-1
	c0,0.1-4.7,1.4-4.7,1.5c0,0.1,4.8-1,4.8-0.9c0,0.1-4.7,1.3-4.7,1.4c0,0.1,4.8-0.8,4.8-0.7c0,0.1-4.8,1.1-4.7,1.2
	c0,0.1,4.9-0.7,4.9-0.6c0,0.1-4.8,1-4.8,1.1c0,0.1,4.9-0.5,4.9-0.4c0,0.1-4.8,0.8-4.8,0.9c0,0.1,4.9-0.4,4.9-0.3
	c0,0.1-4.8,0.7-4.8,0.8c0,0.1,4.9-0.2,4.9-0.1c0,0.1-4.9,0.5-4.9,0.6s4.9-0.1,4.9,0c0,0.1-4.9,0.4-4.9,0.5c0,0.1,4.9,0.1,4.9,0.2
	c0,0.1-4.9,0.2-4.9,0.3c0,0.1,4.9,0.2,4.9,0.3c0,0.1-4.9,0.1-4.9,0.2c0,0.1,4.9,0.3,4.9,0.4c0,0.1-4.9,0-4.9,0.1
	c0,0.1,4.9,0.5,4.9,0.6c0,0.1-4.9-0.2-4.9-0.1c0,0.1,4.9,0.6,4.8,0.7c0,0.1-4.9-0.3-4.9-0.2c0,0.1,4.8,0.7,4.8,0.8
	c0,0.1-4.9-0.4-4.9-0.3c0,0.1,4.8,0.8,4.8,0.9c0,0.1-4.9-0.5-4.9-0.4c0,0.1,4.8,0.9,4.8,1c0,0.1-4.9-0.6-4.9-0.5
	c0,0.1,4.8,1.1,4.8,1.1c0,0.1-4.8-0.7-4.9-0.6c0,0.1,4.8,1.2,4.7,1.3c0,0.1-4.8-0.8-4.8-0.8"/>
<path fill="#FFFFFF" d="M226.2,86.7c-2.1-6.4-6.6-19-8-29.9c-1-7.8,3.8-32.5,2.5-31.9c-21.8,4.5-36.6,2.1-46.1-1
	c-0.4-0.1-0.9-0.3-1.3-0.4c-1.4-0.5-4.9-1.9-5.3-2.1c-7.4-3-12.4-3.8-16.8-2.7c-1.2,0.3-2.7,0.7-4.1,1.3c-1.8,0.7-3.6,1.7-5,3
	c-9.4,8.6-18.4,30.3-30.7,43.8C99,80.2,77,82,69.5,85.5c-2.3,1.1-6.5,4.6-8.7,7.1c-0.1,0.1-0.2,0.3-0.3,0.4c-3.5,4-7.1,8.5-10,12.3
	c-1,3.2-2.6,6.7-5.2,9c7.9,2,15.1,3.3,20.2,3.9c47.7,5.4,91.8,3.5,101.1,3.5c9.3,0,52.3-1.8,57.3-2.1c1.3-0.1,2.5-0.3,3.5-0.4
	C229.6,110.1,227.9,91.6,226.2,86.7"/>
<path fill="none" stroke="#060606" stroke-width="0.339" d="M226.2,86.7c-2.1-6.4-6.6-19-8-29.9c-1-7.8,3.8-32.5,2.5-31.9
	c-21.8,4.5-36.6,2.1-46.1-1c-0.4-0.1-0.9-0.3-1.3-0.4c-1.4-0.5-4.9-1.9-5.3-2.1c-7.4-3-12.4-3.8-16.8-2.7c-1.2,0.3-2.7,0.7-4.1,1.3
	c-1.8,0.7-3.6,1.7-5,3c-9.4,8.6-18.4,30.3-30.7,43.8C99,80.2,77,82,69.5,85.5c-2.3,1.1-6.5,4.6-8.7,7.1c-0.1,0.1-0.2,0.3-0.3,0.4
	c-3.5,4-7.1,8.5-10,12.3c-1,3.2-2.6,6.7-5.2,9c7.9,2,15.1,3.3,20.2,3.9c47.7,5.4,91.8,3.5,101.1,3.5c9.3,0,52.3-1.8,57.3-2.1
	c1.3-0.1,2.5-0.3,3.5-0.4C229.6,110.1,227.9,91.6,226.2,86.7z"/>
<path fill="#FFFFFF" d="M229.9,86.8c-2.1-6.4-6.6-19-8-29.9c-1-7.6-0.7-22.3-0.4-30.6c0-0.4-0.5-1-0.7-1c-0.8,0.2-1.6,0.3-2.3,0.5
	c-19.2,3.9-33.7,1.9-43.2-1.2c-0.4-0.1-0.9-0.3-1.3-0.4c-1.4-0.5-2.8-1-4.1-1.6c-0.4-0.2-0.8-0.3-1.2-0.5c-7.4-3-12.5-4.1-16.9-3
	c-1.2,0.3-2.7,0.7-4.1,1.3c-1.8,0.7-3.6,1.7-5,3c-9.4,8.6-18.4,30.3-30.7,43.8C99.6,80.7,77.6,82.5,70,86c-2.3,1.1-6.5,4.6-8.7,7.1
	c-0.1,0.1-0.2,0.3-0.3,0.4c-3.5,4-7.1,8.5-10,12.3c-1,3.2-2.6,6.7-5.2,9c7.9,2,15.1,3.3,20.2,3.9c47.7,5.4,91.8,3.5,101.1,3.5
	c9.3,0,52.3-1.8,57.3-2.1c1.3-0.1,2.5-0.3,3.5-0.4c1.3-0.2,2.3-0.4,3.1-0.3C233.2,110.2,231.5,91.8,229.9,86.8"/>
	<g style="clip-path:url(#clipPath2);">
	<image xmlns:link="http://www.w3.org/1999/xlink" id="right_upload" class="right_part_1" xlink:href="" width="234" height="130" x="0" y="0" preserveAspectRatio="none"/>
	</g>
<path fill="none" stroke="#060606" stroke-width="0.339" d="M229.9,86.8c-2.1-6.4-6.6-19-8-29.9c-1-7.6-0.7-22.3-0.4-30.6
	c0-0.4-0.5-1-0.7-1c-0.8,0.2-1.6,0.3-2.3,0.5c-19.2,3.9-33.7,1.9-43.2-1.2c-0.4-0.1-0.9-0.3-1.3-0.4c-1.4-0.5-2.8-1-4.1-1.6
	c-0.4-0.2-0.8-0.3-1.2-0.5c-7.4-3-12.5-4.1-16.9-3c-1.2,0.3-2.7,0.7-4.1,1.3c-1.8,0.7-3.6,1.7-5,3c-9.4,8.6-18.4,30.3-30.7,43.8
	C99.6,80.7,77.6,82.5,70,86c-2.3,1.1-6.5,4.6-8.7,7.1c-0.1,0.1-0.2,0.3-0.3,0.4c-3.5,4-7.1,8.5-10,12.3c-1,3.2-2.6,6.7-5.2,9
	c7.9,2,15.1,3.3,20.2,3.9c47.7,5.4,91.8,3.5,101.1,3.5c9.3,0,52.3-1.8,57.3-2.1c1.3-0.1,2.5-0.3,3.5-0.4c1.3-0.2,2.3-0.4,3.1-0.3
	C233.2,110.2,231.5,91.8,229.9,86.8z"/>
<path fill="#FFFFFF" d="M221.8,56.9c-1-7.6-0.7-22.3-0.4-30.6c0-0.4-0.5-1-0.7-1c-0.8,0.2-1.6,0.3-2.3,0.5c-0.6,0.1-0.6,0.1-1.1,0.2
	c-0.1,4.3-0.1,12.5,0.4,19c0.8,10.9,2.6,25.9,8.3,40.7c3.4,9,3,24.1,1.8,33.8c0.1,0,0.2,0,0.2,0c1.3-0.2,2.3-0.4,3.1-0.3
	c2.2-9,0.5-27.4-1.2-32.4C227.8,80.4,223.3,67.8,221.8,56.9"/>
<path fill="none" stroke="#060606" stroke-width="0.339" d="M221.8,56.9c-1-7.6-0.7-22.3-0.4-30.6c0-0.4-0.5-1-0.7-1
	c-0.8,0.2-1.6,0.3-2.3,0.5c-0.6,0.1-0.6,0.1-1.1,0.2c-0.1,4.3-0.1,12.5,0.4,19c0.8,10.9,2.6,25.9,8.3,40.7c3.4,9,3,24.1,1.8,33.8
	c0.1,0,0.2,0,0.2,0c1.3-0.2,2.3-0.4,3.1-0.3c2.2-9,0.5-27.4-1.2-32.4C227.8,80.4,223.3,67.8,221.8,56.9z"/>
<path fill="none" stroke="#090909" stroke-width="0.339" stroke-linecap="round" stroke-miterlimit="10" stroke-dasharray="0.948,0.745" d="
	M218.3,25.8c-0.1,4.3-0.1,12.5,0.4,19c0.8,10.9,2.6,25.9,8.3,40.7c3.4,9,3,24.1,1.8,33.8c0.1,0,0.2,0,0.2,0"/>
<path fill="none" stroke="#090909" stroke-width="0.339" stroke-linecap="round" stroke-miterlimit="10" stroke-dasharray="0.948,0.745" d="
	M220.7,27.1c-7.2,1.3-18.3,2.8-24.9,2.6c-7.6-0.2-14.8-1.3-21.1-3.4c-0.4-0.1-0.9-0.3-1.3-0.5c-1.4-0.5-2.8-1-4.1-1.6
	c-0.4-0.2-0.8-0.3-1.2-0.5c-5.3-2.2-9.1-3.2-12.3-3.3c-1.3,0-2.4,0.1-3.5,0.4c-1.4,0.3-2.7,0.8-3.9,1.2c-1.9,0.8-3.4,1.7-4.5,2.7
	c-4.5,4.1-9.1,11.7-13.9,19.7c-5.1,8.4-10.4,17.1-16.7,24c-9.2,10-23.3,13.7-33.5,16.4c-3.7,1-6.9,1.8-8.9,2.7
	c-1.9,0.9-5.9,4.2-8.1,6.7l-0.3,0.4c-2.9,3.4-6.2,7.4-9.8,12c-2.7,4.3-3.3,5.9-4.7,8.2"/>
<path fill="none" stroke="#090909" stroke-width="0.339" stroke-linecap="round" stroke-miterlimit="10" stroke-dasharray="0.948,0.745" d="
	M49.7,115.2c0.8-2.6,3.2-5.8,4.3-7.8c3.5-4.5,6.7-8.4,9.5-11.6l0.3-0.4c2.3-2.6,6-5.6,7.6-6.3c1.8-0.9,5-1.7,8.6-2.6
	c10.5-2.7,24.8-6.5,34.3-16.9c6.4-7,11.7-15.8,16.9-24.3c4.8-7.9,9.3-15.3,13.6-19.3c1-0.9,2.3-1.7,4-2.4c1.1-0.5,2.3-0.8,3.7-1.2
	c1-0.2,2-0.3,3.1-0.3c3,0.1,6.6,1,11.7,3.1c0.4,0.2,0.8,0.3,1.2,0.5c1.4,0.6,2.8,1.1,4.2,1.6c0.5,0.2,0.9,0.3,1.4,0.5
	c6.5,2.1,13.8,3.3,21.6,3.5c6.1,0.1,18.4-1.5,24.9-2.6"/>
<path class="left_part_2 right_part_2" fill="#FFFFFF" d="M225.2,128.1c-5,0.4-47.9,2.1-57.3,2.1c-9.3,0-53.5,1.9-101.1-3.5c-3.3-0.4-7.7-1.1-12.7-2.2
	c4.3,1.5,7.6,3.8,9.8,7.5c0.4,0.6,0.8,1.4,1.3,2.2c0.7,1.1,1.4,2.4,2.2,3.7c2.5,4.1,5,8.3,7.9,10.5c10.8,0.6,19.5,0.5,24.8,0.5
	c10.3,0,90.2,0.1,101.5,0.2c5.2,0,15-0.6,24.4-1.4c0.3-2.4,0.8-5.6,1.2-8.6c0.2-1.2,0.3-2.4,0.5-3.5c0.4-2.6,0.7-4.8,0.9-5.9
	c0.2-0.9,0.4-1.6,0.7-2.1C228.2,127.8,226.8,128,225.2,128.1"/>
<path fill="none" stroke="#060606" stroke-width="0.339" d="M225.2,128.1c-5,0.4-47.9,2.1-57.3,2.1c-9.3,0-53.5,1.9-101.1-3.5
	c-3.3-0.4-7.7-1.1-12.7-2.2c4.3,1.5,7.6,3.8,9.8,7.5c0.4,0.6,0.8,1.4,1.3,2.2c0.7,1.1,1.4,2.4,2.2,3.7c2.5,4.1,5,8.3,7.9,10.5
	c10.8,0.6,19.5,0.5,24.8,0.5c10.3,0,90.2,0.1,101.5,0.2c5.2,0,15-0.6,24.4-1.4c0.3-2.4,0.8-5.6,1.2-8.6c0.2-1.2,0.3-2.4,0.5-3.5
	c0.4-2.6,0.7-4.8,0.9-5.9c0.2-0.9,0.4-1.6,0.7-2.1C228.2,127.8,226.8,128,225.2,128.1z"/>
<path class="front_part_3" fill="#FFFFFF" d="M67.4,138c-0.8-1.3-1.5-2.6-2.2-3.7c-0.5-0.8-0.9-1.6-1.3-2.2c-2.3-3.7-5.6-6-9.8-7.5
	c-1.2-0.4-2.5-0.8-3.9-1.1C44,122.1,35,116.8,31,112.3c-0.7-0.8-1.2-1.6-1.6-2.4c-2.1-4.1-0.9-8.7,3.8-11.4c0.6-0.4,1.3-0.8,2-1.2
	c0.1-0.1,0.2-0.1,0.3-0.2c-0.6-0.4-1.7-1.1-3.5-0.9c-3.6,0.4-14,1.9-20.3,7.5c-0.1,0.1-0.1,0.1-0.1,0.1c0.3,0.2,0.7,0.5,1.2,0.8
	c3,2,4.1,4.3,2.7,5.6c-1.5,1.5-6.2-1.4-7.8-1.9c-0.3-0.1-0.5-0.2-0.8-0.3c-0.3,0-0.7-0.1-0.8,0c-5.4,6.2-5.7,15.2-2.5,22
	c8.3,3.7,20.5,8.5,35.8,12.6c13.9,3.7,25.8,5.3,35.5,6c0.4,0,0.5-0.4,0.1-0.7C72.3,145.7,69.7,141.6,67.4,138"/>
<path fill="none" stroke="#060606" stroke-width="0.339" d="M67.4,138c-0.8-1.3-1.5-2.6-2.2-3.7c-0.5-0.8-0.9-1.6-1.3-2.2
	c-2.3-3.7-5.6-6-9.8-7.5c-1.2-0.4-2.5-0.8-3.9-1.1C44,122.1,35,116.8,31,112.3c-0.7-0.8-1.2-1.6-1.6-2.4c-2.1-4.1-0.9-8.7,3.8-11.4
	c0.6-0.4,1.3-0.8,2-1.2c0.1-0.1,0.2-0.1,0.3-0.2c-0.6-0.4-1.7-1.1-3.5-0.9c-3.6,0.4-14,1.9-20.3,7.5c-0.1,0.1-0.1,0.1-0.1,0.1
	c0.3,0.2,0.7,0.5,1.2,0.8c3,2,4.1,4.3,2.7,5.6c-1.5,1.5-6.2-1.4-7.8-1.9c-0.3-0.1-0.5-0.2-0.8-0.3c-0.3,0-0.7-0.1-0.8,0
	c-5.4,6.2-5.7,15.2-2.5,22c8.3,3.7,20.5,8.5,35.8,12.6c13.9,3.7,25.8,5.3,35.5,6c0.4,0,0.5-0.4,0.1-0.7
	C72.3,145.7,69.7,141.6,67.4,138z"/>
<path fill="#FFFFFF" d="M234,126.8c-0.3,0-0.8,0-1.4,0c-0.8,0-1.7,0-2.6-0.1c-0.2,0.2-0.4,0.5-0.6,0.9c-0.3,0.5-0.5,1.2-0.7,2.1
	c-0.2,1.1-0.5,3.3-0.9,5.9c-0.2,1.1-0.3,2.3-0.5,3.5c-0.4,3-0.8,6.2-1.2,8.6c1.8-0.2,3.8-0.4,5.2-0.9c1.9-1.9,2.6-9.4,3.4-12.5
	C235.6,130.3,235.5,126.8,234,126.8"/>
<path fill="none" stroke="#060606" stroke-width="0.339" d="M234,126.8c-0.3,0-0.8,0-1.4,0c-0.8,0-1.7,0-2.6-0.1
	c-0.2,0.2-0.4,0.5-0.6,0.9c-0.3,0.5-0.5,1.2-0.7,2.1c-0.2,1.1-0.5,3.3-0.9,5.9c-0.2,1.1-0.3,2.3-0.5,3.5c-0.4,3-0.8,6.2-1.2,8.6
	c1.8-0.2,3.8-0.4,5.2-0.9c1.9-1.9,2.6-9.4,3.4-12.5C235.6,130.3,235.5,126.8,234,126.8z"/>
<path class="front_part_2" fill="#FFFFFF" d="M54.1,95.2c-0.2-0.5-1.1-0.8-3.2-0.4c-1.8,0.4-8.3,1.1-15.2,2.4c-0.2,0-0.3,0.1-0.5,0.1
	c-0.7,0.4-1.4,0.8-2,1.2c-4.7,2.8-5.9,7.4-3.8,11.4c5.5,1.9,11.1,3.5,16.4,4.8c2.6-2.3,4.2-5.7,5.2-9c0.4-1.4,0.7-2.8,1-4.1
	c0.9-4.9,2.1-5.5,2.2-6.1C54.2,95.5,54.2,95.4,54.1,95.2"/>
<path fill="none" stroke="#595757" stroke-width="0.556" d="M54.1,95.2c-0.2-0.5-1.1-0.8-3.2-0.4c-1.8,0.4-8.3,1.1-15.2,2.4
	c-0.2,0-0.3,0.1-0.5,0.1c-0.7,0.4-1.4,0.8-2,1.2c-4.7,2.8-5.9,7.4-3.8,11.4c5.5,1.9,11.1,3.5,16.4,4.8c2.6-2.3,4.2-5.7,5.2-9
	c0.4-1.4,0.7-2.8,1-4.1c0.9-4.9,2.1-5.5,2.2-6.1C54.2,95.5,54.2,95.4,54.1,95.2z"/>
<path fill="#FFFFFF" d="M35.7,97.2c0,0-0.1-0.1-0.1-0.1c-0.1,0.1-0.2,0.1-0.3,0.2C35.4,97.2,35.5,97.2,35.7,97.2"/>
<path fill="none" stroke="#19192F" stroke-width="0.325" stroke-miterlimit="10" d="M35.7,97.2c0,0-0.1-0.1-0.1-0.1
	c-0.1,0.1-0.2,0.1-0.3,0.2C35.4,97.2,35.5,97.2,35.7,97.2z"/>
<polyline fill="none" stroke="#090909" stroke-width="0.339" stroke-linecap="round" stroke-miterlimit="10" stroke-dasharray="0.948,0.745" points="
	53.8,102 71.6,107.1 65,118.5 "/>
<polyline fill="none" stroke="#090909" stroke-width="0.339" stroke-linecap="round" stroke-miterlimit="10" stroke-dasharray="0.948,0.745" points="
	55.4,100 74.2,106 67.3,118.7 "/>
<path fill="#FFFFFF" d="M232.6,120.6c-0.1-1-0.7-1.3-1.6-1.4c-0.8,0-1.8,0.1-3.1,0.3c-1,0.2-2.2,0.3-3.5,0.4
	c-5,0.4-47.9,2.1-57.3,2.1c-9.3,0-53.5,1.9-101.1-3.5c-5.1-0.6-12.3-1.9-20.2-3.9c-5.3-1.3-10.9-2.9-16.4-4.8c0.4,0.8,1,1.6,1.6,2.4
	c4,4.5,13,9.8,19.3,11.2c1.4,0.3,2.7,0.7,3.9,1.1c5,1.1,9.3,1.8,12.7,2.2c47.7,5.4,91.8,3.5,101.1,3.5c9.3,0,52.3-1.8,57.3-2.1
	c1.6-0.1,3-0.4,4.2-0.5c0.2-0.4,0.4-0.7,0.6-0.9c0.9,0,1.8,0,2.6,0.1C232.7,125.1,232.8,122.2,232.6,120.6"/>
<path fill="none" stroke="#060606" stroke-width="0.339" d="M232.6,120.6c-0.1-1-0.7-1.3-1.6-1.4c-0.8,0-1.8,0.1-3.1,0.3
	c-1,0.2-2.2,0.3-3.5,0.4c-5,0.4-47.9,2.1-57.3,2.1c-9.3,0-53.5,1.9-101.1-3.5c-5.1-0.6-12.3-1.9-20.2-3.9
	c-5.3-1.3-10.9-2.9-16.4-4.8c0.4,0.8,1,1.6,1.6,2.4c4,4.5,13,9.8,19.3,11.2c1.4,0.3,2.7,0.7,3.9,1.1c5,1.1,9.3,1.8,12.7,2.2
	c47.7,5.4,91.8,3.5,101.1,3.5c9.3,0,52.3-1.8,57.3-2.1c1.6-0.1,3-0.4,4.2-0.5c0.2-0.4,0.4-0.7,0.6-0.9c0.9,0,1.8,0,2.6,0.1
	C232.7,125.1,232.8,122.2,232.6,120.6z"/>
<path fill="#FFFFFF" d="M229.9,87c0.2,0.8,0.4,1.5,0.6,2.3C230.3,88.4,230.1,87.6,229.9,87"/>
<path fill="none" stroke="#060606" stroke-width="0.339" d="M229.9,87c0.2,0.8,0.4,1.5,0.6,2.3C230.3,88.4,230.1,87.6,229.9,87z"/>
<path fill="#313232" d="M230.5,89.3c0.3,1.5,0.6,3.3,0.8,5.4C231.1,92.9,230.9,91.1,230.5,89.3"/>
<path fill="none" stroke="#060606" stroke-width="0.358" stroke-miterlimit="10" d="M230.5,89.3c0.3,1.5,0.6,3.3,0.8,5.4
	C231.1,92.9,230.9,91.1,230.5,89.3z"/>
<path fill="none" stroke="#090909" stroke-width="0.339" stroke-linecap="round" stroke-miterlimit="10" stroke-dasharray="0.948,0.745" d="
	M50.6,105.2c0,0,18.7,3.5,46.3-3.1c27.6-6.6,57-36,76.9-77.8"/>
<path fill="none" stroke="#090909" stroke-width="0.339" stroke-linecap="round" stroke-miterlimit="10" stroke-dasharray="0.948,0.745" d="
	M49.9,107c0,0,20.4,4.1,49-3.7c27.4-7.5,54.8-34,75.7-77"/>
<path fill="#313232" d="M229.9,87c-0.3-1.1-0.6-2.2-1-3.3c-0.4-1.1-0.8-2.3-1.2-3.4c0.8,2.5,1.6,4.8,2.2,6.6
	C229.9,86.9,229.9,87,229.9,87"/>
<path fill="none" stroke="#060606" stroke-width="0.358" stroke-miterlimit="10" d="M229.9,87c-0.3-1.1-0.6-2.2-1-3.3
	c-0.4-1.1-0.8-2.3-1.2-3.4c0.8,2.5,1.6,4.8,2.2,6.6C229.9,86.9,229.9,87,229.9,87z"/>
<path class="right_part_3" fill="#FFFFFF" d="M133.2,67.6c1.8,0,3.5-0.9,4.5-2.3l15.4-21.8c0.9-1.2,1.2-2.7,0.9-4.1c-0.3-1.5-1.1-2.7-2.3-3.6l-0.1-0.1
	c-0.9-0.7-2-1-3.2-1c-1.8,0-3.5,0.9-4.5,2.3l-15.4,21.8c-0.9,1.2-1.2,2.7-0.9,4.1c0.3,1.5,1.1,2.7,2.3,3.6l0.1,0.1
	C131,67.2,132.1,67.6,133.2,67.6"/>
<path fill="none" stroke="#060606" stroke-width="0.339" d="M133.2,67.6c1.8,0,3.5-0.9,4.5-2.3l15.4-21.8c0.9-1.2,1.2-2.7,0.9-4.1
	c-0.3-1.5-1.1-2.7-2.3-3.6l-0.1-0.1c-0.9-0.7-2-1-3.2-1c-1.8,0-3.5,0.9-4.5,2.3l-15.4,21.8c-0.9,1.2-1.2,2.7-0.9,4.1
	c0.3,1.5,1.1,2.7,2.3,3.6l0.1,0.1C131,67.2,132.1,67.6,133.2,67.6z"/>
<path fill="#0C0B0B" d="M131.4,63.9l0.6,0.4c1,0.7,2.4,0.5,3.1-0.5l15.8-22.3c0.7-1,0.5-2.4-0.5-3.1l-0.6-0.4
	c-1-0.7-2.4-0.5-3.1,0.5l-15.8,22.3C130.2,61.8,130.4,63.2,131.4,63.9"/>
<path class="front_part_1" fill="#FFFFFF" d="M135.1,61.9c-0.8,1.2-2.3,1.6-3.3,1l-20.3-13.1c-1-0.6-1.2-2.1-0.4-3.3l13.7-20.7c0.7-1.2,4-1.7,3.1-1
	c-0.9,0.7,20.9,13.4,20.9,13.4c1.1,0.7,1.2,2.3,0.3,3.6L135.1,61.9z"/>
<path fill="none" stroke="#060606" stroke-width="0.339" d="M135.1,61.9c-0.8,1.2-2.3,1.6-3.3,1l-20.3-13.1c-1-0.6-1.2-2.1-0.4-3.3
	l13.7-20.7c0.7-1.2,4-1.7,3.1-1c-0.9,0.7,20.9,13.4,20.9,13.4c1.1,0.7,1.2,2.3,0.3,3.6L135.1,61.9z"/>
<line fill="none" stroke="#000000" stroke-width="0.384" stroke-linecap="round" stroke-miterlimit="10" stroke-dasharray="1.536,0.768" x1="146.2" y1="40.4" x2="125" y2="27.2"/>
<line fill="none" stroke="#000000" stroke-width="0.384" stroke-linecap="round" stroke-miterlimit="10" stroke-dasharray="1.536,0.768" x1="112" y1="46" x2="132.7" y2="59.5"/>
<path fill="none" stroke="#000000" stroke-width="0.384" stroke-linecap="round" stroke-miterlimit="10" stroke-dasharray="1.536,0.768" d="
	M112.4,47.5c-0.2,0.4-0.1,0.7,0,0.8l20.3,13.1c0,0,0.1,0,0.2,0"/>
<path fill="none" stroke="#000000" stroke-width="0.384" stroke-linecap="round" stroke-miterlimit="10" stroke-dasharray="1.536,0.768" d="
	M148.1,39.8c0-0.1-0.1-0.2-0.1-0.3l-20.9-13.4"/>
<path class="right_part_3" fill="#FFFFFF" d="M80.6,100.4c1.5,1,3.4,1.1,5.1,0.4l24.7-10.2c1.4-0.6,2.4-1.6,3-3c0.6-1.4,0.6-2.9,0-4.2l0-0.1
	c-0.4-1-1.2-1.9-2.2-2.6c-1.5-1-3.4-1.1-5.1-0.4L81.4,90.5c-1.4,0.6-2.4,1.6-3,3c-0.6,1.4-0.6,2.9,0,4.2l0,0.1
	C78.9,98.9,79.6,99.8,80.6,100.4"/>
<path fill="none" stroke="#060606" stroke-width="0.339" d="M80.6,100.4c1.5,1,3.4,1.1,5.1,0.4l24.7-10.2c1.4-0.6,2.4-1.6,3-3
	c0.6-1.4,0.6-2.9,0-4.2l0-0.1c-0.4-1-1.2-1.9-2.2-2.6c-1.5-1-3.4-1.1-5.1-0.4L81.4,90.5c-1.4,0.6-2.4,1.6-3,3
	c-0.6,1.4-0.6,2.9,0,4.2l0,0.1C78.9,98.9,79.6,99.8,80.6,100.4z"/>
<path fill="#0C0B0B" d="M81,96.3l0.3,0.7c0.5,1.1,1.8,1.7,2.9,1.2l25.3-10.5c1.1-0.5,1.7-1.8,1.2-2.9l-0.3-0.7
	c-0.5-1.1-1.8-1.7-2.9-1.2L82.2,93.4C81.1,93.9,80.6,95.2,81,96.3"/>
<path class="front_part_1" fill="#FFFFFF" d="M85.2,96.6c-1.3,0.6-2.8,0.1-3.3-0.9l-8-17.5c-0.5-1.1,0.1-2.4,1.4-3l21.6-11.2c1.3-0.6,4.3,0.7,3.2,0.8
	c-1.1,0.1,9.4,19.2,9.4,19.2c0.5,1.2-0.2,2.6-1.6,3.2L85.2,96.6z"/>
<path fill="none" stroke="#060606" stroke-width="0.339" d="M85.2,96.6c-1.3,0.6-2.8,0.1-3.3-0.9l-8-17.5c-0.5-1.1,0.1-2.4,1.4-3
	l21.6-11.2c1.3-0.6,4.3,0.7,3.2,0.8c-1.1,0.1,9.4,19.2,9.4,19.2c0.5,1.2-0.2,2.6-1.6,3.2L85.2,96.6z"/>
<line fill="none" stroke="#000000" stroke-width="0.384" stroke-linecap="round" stroke-miterlimit="10" stroke-dasharray="1.536,0.768" x1="106.1" y1="84.3" x2="96.3" y2="65.2"/>
<path fill="none" stroke="#000000" stroke-width="0.384" stroke-linecap="round" stroke-miterlimit="10" stroke-dasharray="1.536,0.768" d="
	M108,84.9c0-0.1,0.1-0.2,0-0.3l-9.4-19.2"/>
	</g>
</svg>
