<?xml version="1.0" encoding="utf-8"?>
<!-- Generator: Adobe Illustrator 18.1.1, SVG Export Plug-In . SVG Version: 6.00 Build 0)  -->
<svg version="1.1" id="layer_right" xmlns="http://www.w3.org/2000/svg" xmlns:xlink="http://www.w3.org/1999/xlink" x="0px" y="0px"
	 viewBox="0 0 235.4 152" enable-background="new 0 0 235.4 152" xml:space="preserve">
<defs>
  <clipPath id="clipPath2">
    <path fill="#FFFFFF" d="M5.5,86.8c2.1-6.4,6.6-19,8-29.9c1-7.6,0.7-22.3,0.4-30.6c0-0.4,0.5-1,0.7-1c0.8,0.2,1.6,0.3,2.3,0.5
	c19.2,3.9,33.7,1.9,43.2-1.2c0.4-0.1,0.9-0.3,1.3-0.4c1.4-0.5,2.8-1,4.1-1.6c0.4-0.2,0.8-0.3,1.2-0.5c7.4-3,12.5-4.1,16.9-3
	c1.2,0.3,2.7,0.7,4.1,1.3c1.8,0.7,3.6,1.7,5,3c9.4,8.6,18.4,30.3,30.7,43.8c12.3,13.4,34.3,15.2,41.9,18.7c2.3,1.1,6.5,4.6,8.7,7.1
	c0.1,0.1,0.2,0.3,0.3,0.4c3.5,4,7.1,8.5,10,12.3c1,3.2,2.6,6.7,5.2,9c-7.9,2-15.1,3.3-20.2,3.9c-47.7,5.4-91.8,3.5-101.1,3.5
	c-9.3,0-52.3-1.8-57.3-2.1c-1.3-0.1-2.5-0.3-3.5-0.4c-1.3-0.2-2.3-0.4-3.1-0.3C2.1,110.2,3.9,91.8,5.5,86.8"/>
  </clipPath>
</defs>
<path fill="#FFFFFF" d="M128.1,72c0,0,5.4-8.3,8-7.7c2.5,0.6-4,9.4-4,9.4L128.1,72z"/>
<path fill="none" stroke="#060606" stroke-width="0.339" d="M128.1,72c0,0,5.4-8.3,8-7.7c2.5,0.6-4,9.4-4,9.4L128.1,72z"/>
<path fill="#FFFFFF" d="M96.9,27.9c0,0,9.6-5,11.4-3.1c1.8,1.8-8.9,6.7-8.9,6.7L96.9,27.9z"/>
<path fill="none" stroke="#060606" stroke-width="0.339" d="M96.9,27.9c0,0,9.6-5,11.4-3.1c1.8,1.8-8.9,6.7-8.9,6.7L96.9,27.9z"/>
<path fill="#0C0B0B" d="M2.9,150.6c0,0.8,52,1.4,116.2,1.4c64.2,0,116.2-0.6,116.2-1.4c0-0.8-52-1.4-116.2-1.4
	C55,149.2,2.9,149.8,2.9,150.6"/>
<path class="left_side front_part_5" fill="#0C0B0B" d="M220,110.5c-1.4-1.4-0.3-3.7,2.7-5.6c0.5-0.3,0.9-0.6,1.2-0.8c0.1,0.3-0.8,0.5-0.3,0.6
	c2.3,0.2,4.1,2.3,4.7,3.7c0,0.1,0.2,0.1,0.4,0.1c-0.3,0.1-0.5,0.2-0.8,0.3C226.2,109.1,221.4,112,220,110.5"/>
<path fill="#FFFFFF" d="M181.2,95.6c0.1,0.6,1.4,1.2,2.2,6.1c0.2,1.2,0.5,2.6,1,4.1c-2.9-3.7-6.5-8.2-10-12.3
	c2.4,0.7,4.9,1.3,6.9,1.7C181.2,95.4,181.2,95.5,181.2,95.6"/>
<path fill="none" stroke="#060606" stroke-width="0.339" d="M181.2,95.6c0.1,0.6,1.4,1.2,2.2,6.1c0.2,1.2,0.5,2.6,1,4.1
	c-2.9-3.7-6.5-8.2-10-12.3c2.4,0.7,4.9,1.3,6.9,1.7C181.2,95.4,181.2,95.5,181.2,95.6z"/>
<path fill="#FFFFFF" d="M66.8,22.1c-0.3-6.4,1-8.9,4.4-13c1.6-1.9,4.2-3.4,6.6-4.5C77.9,5,78,5.4,78.3,5.8
	c1.3,1.9,7.1,10.9,9.5,14.6c-1.4-0.6-2.9-1-4.1-1.3C79.3,18.1,74.2,19.1,66.8,22.1"/>
<path fill="none" stroke="#060606" stroke-width="0.339" d="M66.8,22.1c-0.3-6.4,1-8.9,4.4-13c1.6-1.9,4.2-3.4,6.6-4.5
	C77.9,5,78,5.4,78.3,5.8c1.3,1.9,7.1,10.9,9.5,14.6c-1.4-0.6-2.9-1-4.1-1.3C79.3,18.1,74.2,19.1,66.8,22.1z"/>
<path fill="#FFFFFF" d="M71.2,9.1c-3.4,4.1-4.7,6.6-4.4,13c-0.4,0.2-0.8,0.3-1.2,0.5c-1.3,0.5-2.6,1.1-4.1,1.6
	c-0.6-9.4,1.3-13.7,5.2-18.4c2-2.4,5.7-4.2,8.4-5.3c2.9,1.3,2.4,2.6,2.7,4.1C75.5,5.7,72.8,7.2,71.2,9.1"/>
<path fill="none" stroke="#060606" stroke-width="0.339" d="M71.2,9.1c-3.4,4.1-4.7,6.6-4.4,13c-0.4,0.2-0.8,0.3-1.2,0.5
	c-1.3,0.5-2.6,1.1-4.1,1.6c-0.6-9.4,1.3-13.7,5.2-18.4c2-2.4,5.7-4.2,8.4-5.3c2.9,1.3,2.4,2.6,2.7,4.1C75.5,5.7,72.8,7.2,71.2,9.1z"
	/>
<path fill="none" stroke="#090909" stroke-width="7.200000e-002" stroke-linecap="round" stroke-miterlimit="10" d="M76,0
	c-0.1,0,1.6,4.6,1.4,4.7c-0.1,0-2-4.5-2.1-4.4c-0.1,0,1.7,4.6,1.7,4.6c-0.1,0-2.1-4.4-2.2-4.4c-0.1,0,1.9,4.5,1.8,4.6
	c-0.1,0-2.3-4.3-2.4-4.3c-0.1,0,2,4.5,1.9,4.5c-0.1,0-2.4-4.3-2.5-4.2c-0.1,0,2.1,4.4,2,4.5c-0.1,0-2.5-4.2-2.6-4.2
	c-0.1,0,2.2,4.4,2.1,4.4c-0.1,0-2.6-4.2-2.7-4.1c-0.1,0,2.3,4.3,2.2,4.4c-0.1,0-2.7-4.1-2.8-4.1c-0.1,0,2.4,4.3,2.3,4.3
	c-0.1,0-2.8-4-2.8-4c-0.1,0.1,2.5,4.2,2.4,4.3c-0.1,0-2.9-4-2.9-3.9c-0.1,0.1,2.6,4.1,2.5,4.2c-0.1,0.1-3-3.9-3-3.8
	c-0.1,0.1,2.7,4.1,2.6,4.1c-0.1,0.1-3.1-3.8-3.1-3.8c-0.1,0.1,2.8,4,2.7,4.1c-0.1,0.1-3.1-3.8-3.2-3.7c-0.1,0.1,2.9,3.9,2.8,4
	c-0.1,0.1-3.2-3.7-3.3-3.6C69,4.2,72.1,8,72,8c-0.1,0.1-3.3-3.6-3.4-3.5c-0.1,0.1,3.1,3.8,3,3.8c-0.1,0.1-3.4-3.5-3.5-3.4
	c-0.1,0.1,3.2,3.7,3.1,3.8c-0.1,0.1-3.5-3.4-3.6-3.3C67.6,5.4,71,9,70.9,9c-0.1,0.1-3.6-3.3-3.7-3.2s3.4,3.5,3.3,3.6
	c-0.1,0.1-3.7-3.2-3.8-3.1c-0.1,0.1,3.5,3.4,3.4,3.5c-0.1,0.1-3.8-3.1-3.9-3c-0.1,0.1,3.6,3.3,3.5,3.4c-0.1,0.1-3.9-3-3.9-2.9
	c-0.1,0.1,3.7,3.2,3.6,3.3c-0.1,0.1-4-2.9-4-2.8c-0.1,0.1,3.8,3.1,3.7,3.2c-0.1,0.1-4.1-2.7-4.1-2.7c-0.1,0.1,3.9,3,3.8,3.1
	c-0.1,0.1-4.1-2.6-4.2-2.5c-0.1,0.1,4,2.9,3.9,2.9c-0.1,0.1-4.2-2.5-4.3-2.4c0,0.1,4.1,2.7,4,2.8c0,0.1-4.3-2.3-4.3-2.3
	c0,0.1,4.2,2.6,4.1,2.7c0,0.1-4.4-2.2-4.4-2.1c0,0.1,4.2,2.5,4.2,2.5c0,0.1-4.4-2.1-4.5-2c0,0.1,4.3,2.3,4.3,2.4
	c0,0.1-4.5-1.9-4.5-1.8c0,0.1,4.4,2.2,4.3,2.3c0,0.1-4.6-1.8-4.6-1.7s4.5,2,4.4,2.1c0,0.1-4.6-1.6-4.7-1.5c0,0.1,4.5,1.9,4.5,2
	c0,0.1-4.7-1.4-4.7-1.4c0,0.1,4.6,1.7,4.6,1.8c0,0.1-4.7-1.3-4.7-1.2c0,0.1,4.6,1.6,4.6,1.7c0,0.1-4.8-1.1-4.8-1
	c0,0.1,4.7,1.4,4.7,1.5c0,0.1-4.8-1-4.8-0.9c0,0.1,4.7,1.3,4.7,1.4c0,0.1-4.8-0.8-4.8-0.7c0,0.1,4.8,1.1,4.7,1.2
	c0,0.1-4.9-0.7-4.9-0.6c0,0.1,4.8,1,4.8,1.1c0,0.1-4.9-0.5-4.9-0.4c0,0.1,4.8,0.8,4.8,0.9c0,0.1-4.9-0.4-4.9-0.3
	c0,0.1,4.8,0.7,4.8,0.8c0,0.1-4.9-0.2-4.9-0.1c0,0.1,4.9,0.5,4.9,0.6s-4.9-0.1-4.9,0c0,0.1,4.9,0.4,4.9,0.5c0,0.1-4.9,0.1-4.9,0.2
	c0,0.1,4.9,0.2,4.9,0.3c0,0.1-4.9,0.2-4.9,0.3c0,0.1,4.9,0.1,4.9,0.2c0,0.1-4.9,0.3-4.9,0.4c0,0.1,4.9,0,4.9,0.1
	c0,0.1-4.9,0.5-4.9,0.6c0,0.1,4.9-0.2,4.9-0.1c0,0.1-4.9,0.6-4.8,0.7c0,0.1,4.9-0.3,4.9-0.2c0,0.1-4.8,0.7-4.8,0.8
	c0,0.1,4.9-0.4,4.9-0.3c0,0.1-4.8,0.8-4.8,0.9c0,0.1,4.9-0.5,4.9-0.4c0,0.1-4.8,0.9-4.8,1c0,0.1,4.9-0.6,4.9-0.5
	c0,0.1-4.8,1.1-4.8,1.1c0,0.1,4.8-0.7,4.9-0.6c0,0.1-4.8,1.2-4.7,1.3c0,0.1,4.8-0.8,4.8-0.8"/>
<path fill="#FFFFFF" d="M9.1,86.7c2.1-6.4,6.6-19,8-29.9c1-7.8-3.8-32.5-2.5-31.9c21.8,4.5,36.6,2.1,46.1-1c0.4-0.1,0.9-0.3,1.3-0.4
	c1.4-0.5,4.9-1.9,5.3-2.1c7.4-3,12.4-3.8,16.8-2.7c1.2,0.3,2.7,0.7,4.1,1.3c1.8,0.7,3.6,1.7,5,3c9.4,8.6,18.4,30.3,30.7,43.8
	c12.3,13.4,34.3,15.2,41.9,18.7c2.3,1.1,6.5,4.6,8.7,7.1c0.1,0.1,0.2,0.3,0.3,0.4c3.5,4,7.1,8.5,10,12.3c1,3.2,2.6,6.7,5.2,9
	c-7.9,2-15.1,3.3-20.2,3.9c-47.7,5.4-91.8,3.5-101.1,3.5c-9.3,0-52.3-1.8-57.3-2.1c-1.3-0.1-2.5-0.3-3.5-0.4
	C5.8,110.1,7.5,91.6,9.1,86.7"/>
<path fill="none" stroke="#060606" stroke-width="0.339" d="M9.1,86.7c2.1-6.4,6.6-19,8-29.9c1-7.8-3.8-32.5-2.5-31.9
	c21.8,4.5,36.6,2.1,46.1-1c0.4-0.1,0.9-0.3,1.3-0.4c1.4-0.5,4.9-1.9,5.3-2.1c7.4-3,12.4-3.8,16.8-2.7c1.2,0.3,2.7,0.7,4.1,1.3
	c1.8,0.7,3.6,1.7,5,3c9.4,8.6,18.4,30.3,30.7,43.8c12.3,13.4,34.3,15.2,41.9,18.7c2.3,1.1,6.5,4.6,8.7,7.1c0.1,0.1,0.2,0.3,0.3,0.4
	c3.5,4,7.1,8.5,10,12.3c1,3.2,2.6,6.7,5.2,9c-7.9,2-15.1,3.3-20.2,3.9c-47.7,5.4-91.8,3.5-101.1,3.5c-9.3,0-52.3-1.8-57.3-2.1
	c-1.3-0.1-2.5-0.3-3.5-0.4C5.8,110.1,7.5,91.6,9.1,86.7z"/>
<path fill="#FFFFFF" d="M5.5,86.8c2.1-6.4,6.6-19,8-29.9c1-7.6,0.7-22.3,0.4-30.6c0-0.4,0.5-1,0.7-1c0.8,0.2,1.6,0.3,2.3,0.5
	c19.2,3.9,33.7,1.9,43.2-1.2c0.4-0.1,0.9-0.3,1.3-0.4c1.4-0.5,2.8-1,4.1-1.6c0.4-0.2,0.8-0.3,1.2-0.5c7.4-3,12.5-4.1,16.9-3
	c1.2,0.3,2.7,0.7,4.1,1.3c1.8,0.7,3.6,1.7,5,3c9.4,8.6,18.4,30.3,30.7,43.8c12.3,13.4,34.3,15.2,41.9,18.7c2.3,1.1,6.5,4.6,8.7,7.1
	c0.1,0.1,0.2,0.3,0.3,0.4c3.5,4,7.1,8.5,10,12.3c1,3.2,2.6,6.7,5.2,9c-7.9,2-15.1,3.3-20.2,3.9c-47.7,5.4-91.8,3.5-101.1,3.5
	c-9.3,0-52.3-1.8-57.3-2.1c-1.3-0.1-2.5-0.3-3.5-0.4c-1.3-0.2-2.3-0.4-3.1-0.3C2.1,110.2,3.9,91.8,5.5,86.8"/>
<g style="clip-path:url(#clipPath2);">
<image id="right_upload" xmlns:link="http://www.w3.org/1999/xlink" class="right_part_1" xlink:href="" width="234" height="130" x="0" y="0" preserveAspectRatio="none" />
</g>
<path fill="none" stroke="#060606" stroke-width="0.339" d="M5.5,86.8c2.1-6.4,6.6-19,8-29.9c1-7.6,0.7-22.3,0.4-30.6
	c0-0.4,0.5-1,0.7-1c0.8,0.2,1.6,0.3,2.3,0.5c19.2,3.9,33.7,1.9,43.2-1.2c0.4-0.1,0.9-0.3,1.3-0.4c1.4-0.5,2.8-1,4.1-1.6
	c0.4-0.2,0.8-0.3,1.2-0.5c7.4-3,12.5-4.1,16.9-3c1.2,0.3,2.7,0.7,4.1,1.3c1.8,0.7,3.6,1.7,5,3c9.4,8.6,18.4,30.3,30.7,43.8
	c12.3,13.4,34.3,15.2,41.9,18.7c2.3,1.1,6.5,4.6,8.7,7.1c0.1,0.1,0.2,0.3,0.3,0.4c3.5,4,7.1,8.5,10,12.3c1,3.2,2.6,6.7,5.2,9
	c-7.9,2-15.1,3.3-20.2,3.9c-47.7,5.4-91.8,3.5-101.1,3.5c-9.3,0-52.3-1.8-57.3-2.1c-1.3-0.1-2.5-0.3-3.5-0.4
	c-1.3-0.2-2.3-0.4-3.1-0.3C2.1,110.2,3.9,91.8,5.5,86.8z"/>
<path fill="#FFFFFF" d="M13.6,56.9c1-7.6,0.7-22.3,0.4-30.6c0-0.4,0.5-1,0.7-1c0.8,0.2,1.6,0.3,2.3,0.5c0.6,0.1,0.6,0.1,1.1,0.2
	c0.1,4.3,0.1,12.5-0.4,19C17,55.9,15.2,71,9.5,85.7c-3.4,9-3,24.1-1.8,33.8c-0.1,0-0.2,0-0.2,0c-1.3-0.2-2.3-0.4-3.1-0.3
	c-2.2-9-0.5-27.4,1.2-32.4C7.6,80.4,12.1,67.8,13.6,56.9"/>
<path fill="none" stroke="#060606" stroke-width="0.339" d="M13.6,56.9c1-7.6,0.7-22.3,0.4-30.6c0-0.4,0.5-1,0.7-1
	c0.8,0.2,1.6,0.3,2.3,0.5c0.6,0.1,0.6,0.1,1.1,0.2c0.1,4.3,0.1,12.5-0.4,19C17,55.9,15.2,71,9.5,85.7c-3.4,9-3,24.1-1.8,33.8
	c-0.1,0-0.2,0-0.2,0c-1.3-0.2-2.3-0.4-3.1-0.3c-2.2-9-0.5-27.4,1.2-32.4C7.6,80.4,12.1,67.8,13.6,56.9z"/>
<path fill="none" stroke="#090909" stroke-width="0.339" stroke-linecap="round" stroke-miterlimit="10" stroke-dasharray="0.948,0.745" d="
	M17.1,25.8c0.1,4.3,0.1,12.5-0.4,19c-0.8,10.9-2.6,25.9-8.3,40.7c-3.4,9-3,24.1-1.8,33.8c-0.1,0-0.2,0-0.2,0"/>
<path fill="none" stroke="#090909" stroke-width="0.339" stroke-linecap="round" stroke-miterlimit="10" stroke-dasharray="0.948,0.745" d="
	M14.7,27.1c7.2,1.3,18.3,2.8,24.9,2.6c7.6-0.2,14.8-1.3,21.1-3.4c0.4-0.1,0.9-0.3,1.3-0.5c1.4-0.5,2.8-1,4.1-1.6
	c0.4-0.2,0.8-0.3,1.2-0.5c5.3-2.2,9.1-3.2,12.3-3.3c1.3,0,2.4,0.1,3.5,0.4c1.4,0.3,2.7,0.8,3.9,1.2c1.9,0.8,3.4,1.7,4.5,2.7
	c4.5,4.1,9.1,11.7,13.9,19.7c5.1,8.4,10.4,17.1,16.7,24c9.2,10,23.3,13.7,33.5,16.4c3.7,1,6.9,1.8,8.9,2.7c1.9,0.9,5.9,4.2,8.1,6.7
	l0.3,0.4c2.9,3.4,6.2,7.4,9.8,12c2.7,4.3,3.3,5.9,4.7,8.2"/>
<path fill="none" stroke="#090909" stroke-width="0.339" stroke-linecap="round" stroke-miterlimit="10" stroke-dasharray="0.948,0.745" d="
	M185.7,115.2c-0.8-2.6-3.2-5.8-4.3-7.8c-3.5-4.5-6.7-8.4-9.5-11.6l-0.3-0.4c-2.3-2.6-6-5.6-7.6-6.3c-1.8-0.9-5-1.7-8.6-2.6
	c-10.5-2.7-24.8-6.5-34.3-16.9c-6.4-7-11.7-15.8-16.9-24.3c-4.8-7.9-9.3-15.3-13.6-19.3c-1-0.9-2.3-1.7-4-2.4
	c-1.1-0.5-2.3-0.8-3.7-1.2c-1-0.2-2-0.3-3.1-0.3c-3,0.1-6.6,1-11.7,3.1c-0.4,0.2-0.8,0.3-1.2,0.5c-1.4,0.6-2.8,1.1-4.2,1.6
	c-0.5,0.2-0.9,0.3-1.4,0.5c-6.5,2.1-13.8,3.3-21.6,3.5c-6.1,0.1-18.4-1.5-24.9-2.6"/>
<path class="right_part_2" fill="#FFFFFF" d="M10.2,128.1c5,0.4,47.9,2.1,57.3,2.1c9.3,0,53.5,1.9,101.1-3.5c3.3-0.4,7.7-1.1,12.7-2.2
	c-4.3,1.5-7.6,3.8-9.8,7.5c-0.4,0.6-0.8,1.4-1.3,2.2c-0.7,1.1-1.4,2.4-2.2,3.7c-2.5,4.1-5,8.3-7.9,10.5c-10.8,0.6-19.5,0.5-24.8,0.5
	c-10.3,0-90.2,0.1-101.5,0.2c-5.2,0-15-0.6-24.4-1.4c-0.3-2.4-0.8-5.6-1.2-8.6c-0.2-1.2-0.3-2.4-0.5-3.5c-0.4-2.6-0.7-4.8-0.9-5.9
	c-0.2-0.9-0.4-1.6-0.7-2.1C7.2,127.8,8.6,128,10.2,128.1"/>
<path fill="none" stroke="#060606" stroke-width="0.339" d="M10.2,128.1c5,0.4,47.9,2.1,57.3,2.1c9.3,0,53.5,1.9,101.1-3.5
	c3.3-0.4,7.7-1.1,12.7-2.2c-4.3,1.5-7.6,3.8-9.8,7.5c-0.4,0.6-0.8,1.4-1.3,2.2c-0.7,1.1-1.4,2.4-2.2,3.7c-2.5,4.1-5,8.3-7.9,10.5
	c-10.8,0.6-19.5,0.5-24.8,0.5c-10.3,0-90.2,0.1-101.5,0.2c-5.2,0-15-0.6-24.4-1.4c-0.3-2.4-0.8-5.6-1.2-8.6
	c-0.2-1.2-0.3-2.4-0.5-3.5c-0.4-2.6-0.7-4.8-0.9-5.9c-0.2-0.9-0.4-1.6-0.7-2.1C7.2,127.8,8.6,128,10.2,128.1z"/>
<path fill="#FFFFFF" d="M168,138c0.8-1.3,1.5-2.6,2.2-3.7c0.5-0.8,0.9-1.6,1.3-2.2c2.3-3.7,5.6-6,9.8-7.5c1.2-0.4,2.5-0.8,3.9-1.1
	c6.2-1.4,15.3-6.7,19.3-11.2c0.7-0.8,1.2-1.6,1.6-2.4c2.1-4.1,0.9-8.7-3.8-11.4c-0.6-0.4-1.3-0.8-2-1.2c-0.1-0.1-0.2-0.1-0.3-0.2
	c0.6-0.4,1.7-1.1,3.5-0.9c3.6,0.4,14,1.9,20.3,7.5c0.1,0.1,0.1,0.1,0.1,0.1c-0.3,0.2-0.7,0.5-1.2,0.8c-3,2-4.1,4.3-2.7,5.6
	c1.5,1.5,6.2-1.4,7.8-1.9c0.3-0.1,0.5-0.2,0.8-0.3c0.3,0,0.7-0.1,0.8,0c5.4,6.2,5.7,15.2,2.5,22c-8.3,3.7-20.5,8.5-35.8,12.6
	c-13.9,3.7-25.8,5.3-35.5,6c-0.4,0-0.5-0.4-0.1-0.7C163.1,145.7,165.7,141.6,168,138"/>
<path fill="none" stroke="#060606" stroke-width="0.339" d="M168,138c0.8-1.3,1.5-2.6,2.2-3.7c0.5-0.8,0.9-1.6,1.3-2.2
	c2.3-3.7,5.6-6,9.8-7.5c1.2-0.4,2.5-0.8,3.9-1.1c6.2-1.4,15.3-6.7,19.3-11.2c0.7-0.8,1.2-1.6,1.6-2.4c2.1-4.1,0.9-8.7-3.8-11.4
	c-0.6-0.4-1.3-0.8-2-1.2c-0.1-0.1-0.2-0.1-0.3-0.2c0.6-0.4,1.7-1.1,3.5-0.9c3.6,0.4,14,1.9,20.3,7.5c0.1,0.1,0.1,0.1,0.1,0.1
	c-0.3,0.2-0.7,0.5-1.2,0.8c-3,2-4.1,4.3-2.7,5.6c1.5,1.5,6.2-1.4,7.8-1.9c0.3-0.1,0.5-0.2,0.8-0.3c0.3,0,0.7-0.1,0.8,0
	c5.4,6.2,5.7,15.2,2.5,22c-8.3,3.7-20.5,8.5-35.8,12.6c-13.9,3.7-25.8,5.3-35.5,6c-0.4,0-0.5-0.4-0.1-0.7
	C163.1,145.7,165.7,141.6,168,138z"/>
<path fill="#FFFFFF" d="M1.4,126.8c0.3,0,0.8,0,1.4,0c0.8,0,1.7,0,2.6-0.1c0.2,0.2,0.4,0.5,0.6,0.9c0.3,0.5,0.5,1.2,0.7,2.1
	c0.2,1.1,0.5,3.3,0.9,5.9c0.2,1.1,0.3,2.3,0.5,3.5c0.4,3,0.8,6.2,1.2,8.6c-1.8-0.2-3.8-0.4-5.2-0.9c-1.9-1.9-2.6-9.4-3.4-12.5
	C-0.2,130.3-0.1,126.8,1.4,126.8"/>
<path fill="none" stroke="#060606" stroke-width="0.339" d="M1.4,126.8c0.3,0,0.8,0,1.4,0c0.8,0,1.7,0,2.6-0.1
	c0.2,0.2,0.4,0.5,0.6,0.9c0.3,0.5,0.5,1.2,0.7,2.1c0.2,1.1,0.5,3.3,0.9,5.9c0.2,1.1,0.3,2.3,0.5,3.5c0.4,3,0.8,6.2,1.2,8.6
	c-1.8-0.2-3.8-0.4-5.2-0.9c-1.9-1.9-2.6-9.4-3.4-12.5C-0.2,130.3-0.1,126.8,1.4,126.8z"/>
<path fill="#FFFFFF" d="M181.3,95.2c0.2-0.5,1.1-0.8,3.2-0.4c1.8,0.4,8.3,1.1,15.2,2.4c0.2,0,0.3,0.1,0.5,0.1c0.7,0.4,1.4,0.8,2,1.2
	c4.7,2.8,5.9,7.4,3.8,11.4c-5.5,1.9-11.1,3.5-16.4,4.8c-2.6-2.3-4.2-5.7-5.2-9c-0.4-1.4-0.7-2.8-1-4.1c-0.9-4.9-2.1-5.5-2.2-6.1
	C181.2,95.5,181.2,95.4,181.3,95.2"/>
<path fill="none" stroke="#595757" stroke-width="0.556" d="M181.3,95.2c0.2-0.5,1.1-0.8,3.2-0.4c1.8,0.4,8.3,1.1,15.2,2.4
	c0.2,0,0.3,0.1,0.5,0.1c0.7,0.4,1.4,0.8,2,1.2c4.7,2.8,5.9,7.4,3.8,11.4c-5.5,1.9-11.1,3.5-16.4,4.8c-2.6-2.3-4.2-5.7-5.2-9
	c-0.4-1.4-0.7-2.8-1-4.1c-0.9-4.9-2.1-5.5-2.2-6.1C181.2,95.5,181.2,95.4,181.3,95.2z"/>
<path fill="#FFFFFF" d="M199.7,97.2c0,0,0.1-0.1,0.1-0.1c0.1,0.1,0.2,0.1,0.3,0.2C200,97.2,199.9,97.2,199.7,97.2"/>
<path fill="none" stroke="#19192F" stroke-width="0.325" stroke-miterlimit="10" d="M199.7,97.2c0,0,0.1-0.1,0.1-0.1
	c0.1,0.1,0.2,0.1,0.3,0.2C200,97.2,199.9,97.2,199.7,97.2z"/>
<polyline fill="none" stroke="#090909" stroke-width="0.339" stroke-linecap="round" stroke-miterlimit="10" stroke-dasharray="0.948,0.745" points="
	181.6,102 163.8,107.1 170.4,118.5 "/>
<polyline fill="none" stroke="#090909" stroke-width="0.339" stroke-linecap="round" stroke-miterlimit="10" stroke-dasharray="0.948,0.745" points="
	180,100 161.2,106 168.1,118.7 "/>
<path fill="#FFFFFF" d="M2.8,120.6c0.1-1,0.7-1.3,1.6-1.4c0.8,0,1.8,0.1,3.1,0.3c1,0.2,2.2,0.3,3.5,0.4c5,0.4,47.9,2.1,57.3,2.1
	c9.3,0,53.5,1.9,101.1-3.5c5.1-0.6,12.3-1.9,20.2-3.9c5.3-1.3,10.9-2.9,16.4-4.8c-0.4,0.8-1,1.6-1.6,2.4c-4,4.5-13,9.8-19.3,11.2
	c-1.4,0.3-2.7,0.7-3.9,1.1c-5,1.1-9.3,1.8-12.7,2.2c-47.7,5.4-91.8,3.5-101.1,3.5c-9.3,0-52.3-1.8-57.3-2.1c-1.6-0.1-3-0.4-4.2-0.5
	c-0.2-0.4-0.4-0.7-0.6-0.9c-0.9,0-1.8,0-2.6,0.1C2.7,125.1,2.6,122.2,2.8,120.6"/>
<path fill="none" stroke="#060606" stroke-width="0.339" d="M2.8,120.6c0.1-1,0.7-1.3,1.6-1.4c0.8,0,1.8,0.1,3.1,0.3
	c1,0.2,2.2,0.3,3.5,0.4c5,0.4,47.9,2.1,57.3,2.1c9.3,0,53.5,1.9,101.1-3.5c5.1-0.6,12.3-1.9,20.2-3.9c5.3-1.3,10.9-2.9,16.4-4.8
	c-0.4,0.8-1,1.6-1.6,2.4c-4,4.5-13,9.8-19.3,11.2c-1.4,0.3-2.7,0.7-3.9,1.1c-5,1.1-9.3,1.8-12.7,2.2c-47.7,5.4-91.8,3.5-101.1,3.5
	c-9.3,0-52.3-1.8-57.3-2.1c-1.6-0.1-3-0.4-4.2-0.5c-0.2-0.4-0.4-0.7-0.6-0.9c-0.9,0-1.8,0-2.6,0.1C2.7,125.1,2.6,122.2,2.8,120.6z"
	/>
<path fill="#FFFFFF" d="M5.5,87c-0.2,0.8-0.4,1.5-0.6,2.3C5.1,88.4,5.3,87.6,5.5,87"/>
<path fill="none" stroke="#060606" stroke-width="0.339" d="M5.5,87c-0.2,0.8-0.4,1.5-0.6,2.3C5.1,88.4,5.3,87.6,5.5,87z"/>
<path fill="#313232" d="M4.9,89.3c-0.3,1.5-0.6,3.3-0.8,5.4C4.3,92.9,4.5,91.1,4.9,89.3"/>
<path fill="none" stroke="#060606" stroke-width="0.358" stroke-miterlimit="10" d="M4.9,89.3c-0.3,1.5-0.6,3.3-0.8,5.4
	C4.3,92.9,4.5,91.1,4.9,89.3z"/>
<path fill="none" stroke="#090909" stroke-width="0.339" stroke-linecap="round" stroke-miterlimit="10" stroke-dasharray="0.948,0.745" d="
	M184.8,105.2c0,0-18.7,3.5-46.3-3.1c-27.6-6.6-57-36-76.9-77.8"/>
<path fill="none" stroke="#090909" stroke-width="0.339" stroke-linecap="round" stroke-miterlimit="10" stroke-dasharray="0.948,0.745" d="
	M185.5,107c0,0-20.4,4.1-49-3.7c-27.4-7.5-54.8-34-75.7-77"/>
<path fill="#313232" d="M5.5,87c0.3-1.1,0.6-2.2,1-3.3c0.4-1.1,0.8-2.3,1.2-3.4c-0.8,2.5-1.6,4.8-2.2,6.6C5.5,86.9,5.5,87,5.5,87"/>
<path fill="none" stroke="#060606" stroke-width="0.358" stroke-miterlimit="10" d="M5.5,87c0.3-1.1,0.6-2.2,1-3.3
	c0.4-1.1,0.8-2.3,1.2-3.4c-0.8,2.5-1.6,4.8-2.2,6.6C5.5,86.9,5.5,87,5.5,87z"/>
<path class="right_part_3" fill="#FFFFFF" d="M102.2,67.6c-1.8,0-3.5-0.9-4.5-2.3L82.2,43.4c-0.9-1.2-1.2-2.7-0.9-4.1c0.3-1.5,1.1-2.7,2.3-3.6l0.1-0.1
	c0.9-0.7,2-1,3.2-1c1.8,0,3.5,0.9,4.5,2.3l15.4,21.8c0.9,1.2,1.2,2.7,0.9,4.1c-0.3,1.5-1.1,2.7-2.3,3.6l-0.1,0.1
	C104.4,67.2,103.3,67.6,102.2,67.6"/>
<path fill="none" stroke="#060606" stroke-width="0.339" d="M102.2,67.6c-1.8,0-3.5-0.9-4.5-2.3L82.2,43.4c-0.9-1.2-1.2-2.7-0.9-4.1
	c0.3-1.5,1.1-2.7,2.3-3.6l0.1-0.1c0.9-0.7,2-1,3.2-1c1.8,0,3.5,0.9,4.5,2.3l15.4,21.8c0.9,1.2,1.2,2.7,0.9,4.1
	c-0.3,1.5-1.1,2.7-2.3,3.6l-0.1,0.1C104.4,67.2,103.3,67.6,102.2,67.6z"/>
<path fill="#0C0B0B" d="M104,63.9l-0.6,0.4c-1,0.7-2.4,0.5-3.1-0.5L84.5,41.4c-0.7-1-0.5-2.4,0.5-3.1l0.6-0.4c1-0.7,2.4-0.5,3.1,0.5
	l15.8,22.3C105.2,61.8,105,63.2,104,63.9"/>
<path fill="#FFFFFF" d="M100.3,61.9c0.8,1.2,2.3,1.6,3.3,1l20.3-13.1c1-0.6,1.2-2.1,0.4-3.3l-13.7-20.7c-0.7-1.2-4-1.7-3.1-1
	c0.9,0.7-20.9,13.4-20.9,13.4c-1.1,0.7-1.2,2.3-0.3,3.6L100.3,61.9z"/>
<path fill="none" stroke="#060606" stroke-width="0.339" d="M100.3,61.9c0.8,1.2,2.3,1.6,3.3,1l20.3-13.1c1-0.6,1.2-2.1,0.4-3.3
	l-13.7-20.7c-0.7-1.2-4-1.7-3.1-1c0.9,0.7-20.9,13.4-20.9,13.4c-1.1,0.7-1.2,2.3-0.3,3.6L100.3,61.9z"/>
<line fill="none" stroke="#000000" stroke-width="0.384" stroke-linecap="round" stroke-miterlimit="10" stroke-dasharray="1.536,0.768" x1="89.2" y1="40.4" x2="110.4" y2="27.2"/>
<line fill="none" stroke="#000000" stroke-width="0.384" stroke-linecap="round" stroke-miterlimit="10" stroke-dasharray="1.536,0.768" x1="123.4" y1="46" x2="102.7" y2="59.5"/>
<path fill="none" stroke="#000000" stroke-width="0.384" stroke-linecap="round" stroke-miterlimit="10" stroke-dasharray="1.536,0.768" d="
	M123,47.5c0.2,0.4,0.1,0.7,0,0.8l-20.3,13.1c0,0-0.1,0-0.2,0"/>
<path fill="none" stroke="#000000" stroke-width="0.384" stroke-linecap="round" stroke-miterlimit="10" stroke-dasharray="1.536,0.768" d="
	M87.2,39.8c0-0.1,0.1-0.2,0.1-0.3l20.9-13.4"/>
<path fill="#FFFFFF" d="M154.8,100.4c-1.5,1-3.4,1.1-5.1,0.4L125,90.6c-1.4-0.6-2.4-1.6-3-3c-0.6-1.4-0.6-2.9,0-4.2l0-0.1
	c0.4-1,1.2-1.9,2.2-2.6c1.5-1,3.4-1.1,5.1-0.4L154,90.5c1.4,0.6,2.4,1.6,3,3c0.6,1.4,0.6,2.9,0,4.2l0,0.1
	C156.5,98.9,155.8,99.8,154.8,100.4"/>
<path class="right_part_3" fill="none" stroke="#060606" stroke-width="0.339" d="M154.8,100.4c-1.5,1-3.4,1.1-5.1,0.4L125,90.6c-1.4-0.6-2.4-1.6-3-3
	c-0.6-1.4-0.6-2.9,0-4.2l0-0.1c0.4-1,1.2-1.9,2.2-2.6c1.5-1,3.4-1.1,5.1-0.4L154,90.5c1.4,0.6,2.4,1.6,3,3c0.6,1.4,0.6,2.9,0,4.2
	l0,0.1C156.5,98.9,155.8,99.8,154.8,100.4z"/>
<path fill="#0C0B0B" d="M154.4,96.3l-0.3,0.7c-0.5,1.1-1.8,1.7-2.9,1.2l-25.3-10.5c-1.1-0.5-1.7-1.8-1.2-2.9l0.3-0.7
	c0.5-1.1,1.8-1.7,2.9-1.2l25.3,10.4C154.3,93.9,154.8,95.2,154.4,96.3"/>
<path fill="#FFFFFF" d="M150.2,96.6c1.3,0.6,2.8,0.1,3.3-0.9l8-17.5c0.5-1.1-0.1-2.4-1.4-3l-21.6-11.2c-1.3-0.6-4.3,0.7-3.2,0.8
	c1.1,0.1-9.4,19.2-9.4,19.2c-0.5,1.2,0.2,2.6,1.6,3.2L150.2,96.6z"/>
<path fill="none" stroke="#060606" stroke-width="0.339" d="M150.2,96.6c1.3,0.6,2.8,0.1,3.3-0.9l8-17.5c0.5-1.1-0.1-2.4-1.4-3
	l-21.6-11.2c-1.3-0.6-4.3,0.7-3.2,0.8c1.1,0.1-9.4,19.2-9.4,19.2c-0.5,1.2,0.2,2.6,1.6,3.2L150.2,96.6z"/>
<line fill="none" stroke="#000000" stroke-width="0.384" stroke-linecap="round" stroke-miterlimit="10" stroke-dasharray="1.536,0.768" x1="129.3" y1="84.3" x2="139.1" y2="65.2"/>
<path fill="none" stroke="#000000" stroke-width="0.384" stroke-linecap="round" stroke-miterlimit="10" stroke-dasharray="1.536,0.768" d="
	M127.4,84.9c0-0.1-0.1-0.2,0-0.3l9.4-19.2"/>
</svg>
