<?xml version="1.0" encoding="utf-8"?>
<!-- Generator: Adobe Illustrator 18.1.1, SVG Export Plug-In . SVG Version: 6.00 Build 0)  -->
<svg version="1.1" id="layer_back" xmlns="http://www.w3.org/2000/svg" xmlns:xlink="http://www.w3.org/1999/xlink" x="0px" y="0px"
	 viewBox="229.5 382.5 127.1 106.7" enable-background="new 229.5 382.5 127.1 106.7" xml:space="preserve">
<defs>
<clipPath id="clipPath7">
	<path fill="#FFFFFF" stroke="#040000" stroke-width="0.3386" d="M252.1,396.6c-5.4-0.1-9.9-0.4-12.8-0.6c-1.2-0.1-2.1-0.1-2.8-0.2
		c-0.6-0.1-0.9-0.1-0.9-0.1c-2.6,8-8.1,41.2-4.8,61.7c0.2,1.4,0.5,2.8,0.8,4c0.2,0.8,0.4,1.5,0.6,2.3c1.4,3.3,9.4,5.9,18.7,6.9
		L252.1,396.6z"/>
</clipPath>
<clipPath id="clipPath7_1">
	<path fill="#FFFFFF" stroke="#040000" stroke-width="0.3386" d="M306.9,395.9L306.9,395.9c0.4,0,0.8,0,1.2,0.1
	c4.7,0.4,9.3,0.6,13.6,0.8l-1.1,74.2c-9.3-0.8-17.5-3.5-19.8-8.8c-0.1-0.3-0.1-0.7-0.2-1.3l0,0C299.4,452,300.6,408.3,306.9,395.9z"
	/>
</clipPath>
<clipPath id="clipPath8">
	<path fill="#FFFFFF" stroke="#040000" stroke-width="0.3386" d="M279.2,395.8C279.2,395.8,279.2,395.7,279.2,395.8
		c-0.4,0-0.8,0-1.2,0.1c-4.7,0.4-9.3,0.6-13.6,0.8l1.1,74.2c9.3-0.8,17.5-3.5,19.8-8.8c0.1-0.3,0.1-0.7,0.2-1.3l0,0
		C286.7,451.9,285.6,408.2,279.2,395.8z"/>
</clipPath>
<clipPath id="clipPath8_1">
	<path fill="#FFFFFF" stroke="#040000" stroke-width="0.3386" d="M334,396.7c5.4-0.1,9.9-0.4,12.8-0.6c1.2-0.1,2.1-0.1,2.8-0.2
	c0.6-0.1,0.9-0.1,0.9-0.1c2.6,8,8.1,41.2,4.8,61.7c-0.2,1.4-0.5,2.8-0.8,4c-0.2,0.8-0.4,1.5-0.6,2.3c-1.4,3.3-9.4,5.9-18.7,6.9
	L334,396.7z"/>
</clipPath>
</defs>
<path fill="#FFFFFF" stroke="#040000" stroke-width="0.3386" d="M317.3,383.2c16.3-1.8,27.9,1.4,32.2,12.7c-0.6,0.1-1.6,0.1-2.8,0.2
	c-6.7,0.5-22,1.2-38.7-0.2c-0.4,0-0.8-0.1-1.1-0.1v0.1C302.6,388.2,312.4,383.7,317.3,383.2z"/>
<path fill="#FFFFFF" stroke="#040000" stroke-width="0.3386" d="M318.8,385.6c14-1.6,24,1.2,27.7,11c-0.6,0.1-1.3,0.1-2.4,0.2
	c-5.8,0.4-18.9,1.1-33.3-0.1c-0.4,0-0.6-0.1-1-0.1c0,0,0,0,0,0.1C306.2,390,314.5,386.1,318.8,385.6z"/>
<g>
	<polyline fill="none" stroke="#808080" stroke-width="0.25" stroke-linecap="round" points="306.9,396.3 309.1,395.2 306.7,395.8
		309,394.9 306.6,395.3 308.9,394.5 306.5,394.9 308.8,394.2 306.4,394.4 308.8,393.8 306.4,393.9 308.7,393.5 306.3,393.4
		308.7,393.1 306.3,392.9 308.7,392.8 306.3,392.5 308.7,392.4 306.4,392 308.8,392.1 306.4,391.5 308.8,391.7 306.5,391
		308.9,391.4 306.7,390.5 309,391 306.8,390 309.1,390.6 307,389.5 309.3,390.4 307.2,389.1 309.4,390 307.4,388.7 309.6,389.7
		307.7,388.2 309.8,389.4 308,387.8 310,389.2 308.4,387.5 310.3,388.9 308.7,387 310.5,388.7 309.1,386.8 310.8,388.4 309.4,386.4
		311.1,388.2 309.8,386.1 311.4,388 310.2,385.8 311.7,387.7 310.6,385.6 312,387.5 311,385.3 312.4,387.4 311.5,385.1 312.7,387.2
		311.9,384.9 313.1,387 312.3,384.8 313.4,386.9 312.7,384.6 313.8,386.8 313.2,384.4 314.2,386.6 313.7,384.3 314.6,386.5
		314.1,384.1 314.9,386.4 314.5,384 315.6,386.2 315.4,383.8 316.3,386.1 316.1,383.6 317,385.8 317,383.4 317.8,385.7 317.8,383.3
		318.6,385.6 318.6,383.2 319.4,385.5 319.5,383 320.2,385.3 320.3,382.9 320.9,385.3 321.1,382.9 321.7,385.2 321.9,382.8
		322.5,385.1 322.8,382.7 323.3,385.1 323.6,382.7 324,385.1 324.4,382.7 324.8,385.1 325.3,382.7 325.7,385.1 326.1,382.7
		326.5,385.1 326.9,382.7 327.2,385.1 327.7,382.7 328,385.2 328.6,382.8 328.8,385.2 329.4,382.9 329.6,385.3 330.3,382.9
		330.3,385.4 331,383.1 331.2,385.5 331.9,383.2 332,385.6 332.7,383.3 332.7,385.8 333.5,383.4 333.5,385.9 334.4,383.6
		334.2,386.1 335.1,383.8 335,386.2 336,384 335.8,386.4 336.8,384.2 336.5,386.6 337.6,384.4 337.3,386.9 338.4,384.7 338,387.1
		339.2,385 338.7,387.4 340,385.3 339.4,387.7 340.8,385.7 340,388 341.6,386.1 340.7,388.4 342.3,386.6 341.1,388.7 342.6,386.8
		341.3,388.8 342.9,387 341.5,389 343.1,387.2 341.7,389.2 343.4,387.4 342,389.4 343.6,387.7 342.2,389.6 343.9,387.9 342.4,389.7
		344.2,388.1 342.6,389.9 344.4,388.3 342.9,390.2 344.6,388.6 343.1,390.4 344.9,388.8 343.3,390.6 345.1,389.1 343.4,390.8
		345.3,389.3 343.6,391 345.5,389.6 343.8,391.3 345.8,389.9 344.1,391.5 346,390.1 344.2,391.7 346.3,390.4 344.4,392 346.4,390.6
		344.6,392.2 346.6,390.9 344.8,392.4 346.8,391.1 345,392.7 347,391.4 345.1,392.9 347.2,391.7 345.3,393.2 347.4,392 345.5,393.4
		347.6,392.3 345.6,393.7 347.7,392.6 345.8,394 347.9,392.8 346,394.2 348.1,393.1 346.1,394.5 348.2,393.4 346.3,394.7
		348.4,393.7 346.4,395 348.6,394 346.5,395.2 348.7,394.3 346.7,395.5 348.9,394.6 346.8,395.8 349,394.9 346.9,396 349.1,395.2
		347,396.3 349.3,395.5 	"/>
</g>
<path fill="#FFFFFF" stroke="#040000" stroke-width="0.3386" d="M350.4,395.5c0,0-0.3,0-0.9,0.1s-1.6,0.1-2.8,0.2
	c-6.7,0.5-22,1.2-38.7-0.2c-0.4,0-0.8-0.1-1.1-0.1v0.1c-6.4,12.4-7.4,56.1-6.4,65l0,0c0.1,0.6,0.1,1,0.2,1.3
	c5.9,13.5,49.4,10,53,1.7c0.2-0.7,0.4-1.5,0.6-2.3c0.3-1.3,0.6-2.6,0.8-4C358.4,436.7,353,403.5,350.4,395.5z"/>
<path fill="#FFFFFF" stroke="#040000" stroke-width="0.3386" d="M334,396.7c5.4-0.1,9.9-0.4,12.8-0.6c1.2-0.1,2.1-0.1,2.8-0.2
	c0.6-0.1,0.9-0.1,0.9-0.1c2.6,8,8.1,41.2,4.8,61.7c-0.2,1.4-0.5,2.8-0.8,4c-0.2,0.8-0.4,1.5-0.6,2.3c-1.4,3.3-9.4,5.9-18.7,6.9
	L334,396.7z"/>
<g style="clip-path:url(#clipPath8_1);" width="60" height="310" x="0" y="0">
	<image xmlns:link="http://www.w3.org/1999/xlink" class="right_part_1" xlink:href="" width="230" height="80" x="330" y="395" preserveAspectRatio="none"/>
	</g>
<path fill="#FFFFFF" stroke="#040000" stroke-width="0.3386" d="M306.9,395.9L306.9,395.9c0.4,0,0.8,0,1.2,0.1
	c4.7,0.4,9.3,0.6,13.6,0.8l-1.1,74.2c-9.3-0.8-17.5-3.5-19.8-8.8c-0.1-0.3-0.1-0.7-0.2-1.3l0,0C299.4,452,300.6,408.3,306.9,395.9z"
	/>
<g style="clip-path:url(#clipPath7_1);" width="60" height="310" x="0" y="0">
<image xmlns:link="http://www.w3.org/1999/xlink" class="left_part_1" xlink:href="" width="230" height="80" x="295" y="395" preserveAspectRatio="none"/>
</g>
<path fill="#FFFFFF" stroke="#040000" stroke-width="0.3386" d="M333.9,396.4"/>
<path fill="#FFFFFF" stroke="#040000" stroke-width="0.3386" d="M335,470.4"/>
<path fill="#FFFFFF" stroke="#040000" stroke-width="0.3386" d="M320.5,470.6"/>
<path fill="#FFFFFF" stroke="#040000" stroke-width="0.3386" d="M321.6,396.4"/>
<line fill="none" stroke="#040000" stroke-width="0.25" stroke-linecap="round" stroke-dasharray="1,1" x1="323.6" y1="396.4" x2="322.4" y2="470.7"/>
<line fill="none" stroke="#040000" stroke-width="0.25" stroke-linecap="round" stroke-dasharray="1,1" x1="331.8" y1="396.4" x2="332.7" y2="470.6"/>
<path fill="none" stroke="#040000" stroke-width="0.25" stroke-linecap="round" stroke-dasharray="1,1" d="M306.2,398.5
	c0,0,20.9,3,44.5-0.2"/>
<path fill="none" stroke="#040000" stroke-width="0.25" stroke-linecap="round" stroke-dasharray="1,1" d="M305.8,399.8
	c0,0,24.7,3.5,45.3-0.5"/>
<path fill="#FFFFFF" stroke="#231815" stroke-width="0.7245" stroke-miterlimit="10" d="M300.5,460.8L300.5,460.8L300.5,460.8
	L300.5,460.8z"/>
<path fill="#FFFFFF" stroke="#040000" stroke-width="0.3386" d="M320.5,470.9"/>
<path fill="#FFFFFF" stroke="#040000" stroke-width="0.3386" d="M321.6,396.7"/>
<path fill="none" stroke="#040000" stroke-width="0.25" stroke-linecap="round" stroke-dasharray="1,1" d="M322.5,470.9"/>
<path fill="none" stroke="#040000" stroke-width="0.25" stroke-linecap="round" stroke-dasharray="1,1" d="M323.6,396.7"/>
<path fill="#FFFFFF" stroke="#040000" stroke-width="0.3386" d="M334.8,470.8"/>
<path fill="none" stroke="#040000" stroke-width="0.25" stroke-linecap="round" stroke-dasharray="1,1" d="M332.7,470.8"/>
<path fill="none" stroke="#040000" stroke-width="0.25" stroke-linecap="round" stroke-dasharray="1,1" d="M331.8,396.7"/>
<path fill="none" stroke="#040000" stroke-width="0.25" stroke-linecap="round" stroke-dasharray="1,1" d="M350.8,398.5"/>
<path fill="none" stroke="#040000" stroke-width="0.25" stroke-linecap="round" stroke-dasharray="1,1" d="M306.2,398.7"/>
<path fill="none" stroke="#040000" stroke-width="0.25" stroke-linecap="round" stroke-dasharray="1,1" d="M305.8,400"/>
<path fill="#FFFFFF" stroke="#231815" stroke-width="0.7245" stroke-miterlimit="10" d="M327.6,475.2c15.2,0,25.2-4.7,27.2-10.3
	c0.8-2.1,1.1-3.8,1.1-5.2c-0.1-0.7-0.4-1.5-0.6-2.2c-0.2,1.4-0.5,2.8-0.8,4c-0.2,0.8-0.4,1.5-0.6,2.3c-3.6,8.3-47.1,11.8-53-1.7
	c-0.1-0.3-0.1-0.7-0.2-1.3c0,0,0,0-0.1,0c-0.4,0.7-0.6,1.6-0.7,2.8c0,0.2,0,0.5-0.1,0.8C300.8,469,306.2,475.2,327.6,475.2z"/>
<path fill="#FFFFFF" stroke="#231815" stroke-width="0.7245" stroke-miterlimit="10" d="M356.1,462c-0.1-0.8-0.1-1.6-0.3-2.3
	c-0.1,1.4-0.3,3.1-1.1,5.2c-2,5.6-11.9,10.3-27.2,10.3c-21.4,0-26.8-6.2-27.9-11c-0.1,2.5,0.3,5.7,0.9,8.9c0.2,1,0.4,2.1,0.6,3
	c0.4,1.6,0.7,3.1,1.1,4.5c2.4,10.6,32.3,7.8,39,7.6c10.5-1,12.2-7.1,13-12.5c0.1-1,0.3-2,0.4-2.9c0.1-0.7,0.2-1.3,0.4-1.9
	c0.6-3.3,1-5.9,1-8.3C356.1,462.5,356.1,462.3,356.1,462z"/>
<path fill="#FFFFFF" stroke="#040000" stroke-width="0.5" stroke-linecap="round" d="M310,472.6c0,0,17,4.1,32.7,0v11.5
	c0,0-14.1,2.8-32.7-0.6V472.6z"/>
<g>
	<g>
		<path class="back_part_1" d="M328.6,478.7c-0.1,0.3-0.2,0.5-0.4,0.8c-0.3,0.1-0.6,0.1-0.8,0.1c0.2,0.2,0.4,0.4,0.6,0.6c-0.1,0.3-0.1,0.6-0.1,0.8
			c0.3-0.1,0.5-0.3,0.8-0.4c0.3,0.1,0.5,0.3,0.8,0.4c-0.1-0.3-0.1-0.6-0.1-0.8c0.2-0.2,0.4-0.4,0.6-0.6c-0.3,0-0.6-0.1-0.8-0.1
			C328.9,479.2,328.8,479,328.6,478.7z"/>
		<path class="back_part_1" d="M316.3,477.3c0.1,0,0.3,0,0.4,0c0,0,0.1,0,0.1,0.1c-0.1,1.5-0.2,2.9-0.3,4.4c0,0,0,0.1-0.1,0.1c-0.1,0-0.3,0-0.5,0
			c-0.1,0-0.1,0.1-0.1,0.1c0,0.1,0,0.3,0,0.4s0.1,0.1,0.1,0.1c0.8,0.1,1.6,0.1,2.3,0.1c0.1,0,0.1-0.1,0.1-0.1c0-0.1,0-0.3,0-0.4
			c0-0.1-0.1-0.1-0.1-0.1c-0.1,0-0.3,0-0.5,0c0,0-0.1,0-0.1-0.1c0.1-1.5,0.2-2.9,0.3-4.4c0,0,0-0.1,0.1-0.1c0.1,0,0.3,0,0.4,0
			c0.1,0,0.1-0.1,0.1-0.1c0-0.1,0-0.3,0-0.4c0-0.1-0.1-0.1-0.1-0.1c-0.7-0.1-1.5-0.1-2.2-0.1c-0.1,0-0.1,0.1-0.1,0.1
			c0,0.1,0,0.3,0,0.4C316.2,477.2,316.2,477.3,316.3,477.3z M330.3,477.6c0.1,0,0.3,0,0.4,0c0,0,0.1,0,0.1,0.1
			c0.1,1.5,0.1,2.9,0.1,4.4c0,0,0,0.1-0.1,0.1c-0.1,0-0.3,0-0.5,0c-0.1,0-0.1,0.1-0.1,0.1c0,0.1,0,0.3,0,0.4s0.1,0.1,0.1,0.1
			c0.8,0,1.6-0.1,2.3-0.1c0.1,0,0.1-0.1,0.1-0.1c0-0.1,0-0.3,0-0.4s-0.1-0.1-0.1-0.1c-0.1,0-0.3,0-0.5,0c0,0-0.1,0-0.1-0.1
			c-0.1-1.5-0.1-2.9-0.1-4.4c0,0,0-0.1,0.1-0.1c0.1,0,0.3,0,0.4,0c0.1,0,0.1-0.1,0.1-0.1c0-0.1,0-0.3,0-0.4s-0.1-0.1-0.1-0.1
			c-0.7,0-1.5,0.1-2.2,0.1c-0.1,0-0.1,0.1-0.1,0.1c0,0.1,0,0.3,0,0.4C330.2,477.5,330.3,477.6,330.3,477.6z M320.9,477
			c-0.5,0-0.9-0.1-1.4-0.1c-0.1,0-0.2,0.1-0.3,0.2c-0.1,1.7-0.2,3.5-0.3,5.2c0,0.1,0.1,0.2,0.2,0.3c0.5,0,1,0.1,1.4,0.1
			c1.1,0.1,2-0.8,2-1.8c0-0.6,0.1-1.3,0.1-1.9C322.8,477.8,321.9,477,320.9,477z M321.5,480.7c0,0.4-0.4,0.7-0.8,0.7
			c-0.1,0-0.3,0-0.4,0c0,0-0.1,0-0.1-0.1c0.1-1.1,0.1-2.2,0.1-3.3c0,0,0-0.1,0.1-0.1c0.1,0,0.3,0,0.4,0c0.4,0,0.7,0.4,0.7,0.8
			C321.6,479.5,321.5,480.1,321.5,480.7z M315.4,476.6c-0.4,0-0.6-0.1-1-0.1c-0.1,0-0.1,0-0.2,0.1c-0.5,0.7-1,1.5-1.6,2.2
			c0,0.1-0.1,0-0.1-0.1c0.1-0.8,0.1-1.6,0.2-2.3c0-0.1-0.1-0.1-0.1-0.1c-0.3,0-0.6-0.1-0.9-0.1c-0.1,0-0.1,0.1-0.1,0.1
			c-0.2,1.8-0.4,3.5-0.6,5.3c0,0.1,0.1,0.1,0.1,0.1c0.4,0.1,0.6,0.1,1,0.1c0.1,0,0.1-0.1,0.1-0.1c0.1-0.8,0.1-1.6,0.3-2.5
			c0-0.1,0.1-0.1,0.1,0c0.4,0.9,0.8,1.8,1.3,2.7c0.1,0.1,0.1,0.1,0.2,0.1c0.4,0,0.7,0.1,1.1,0.1c0.1,0,0.1-0.1,0.1-0.1
			c-0.5-0.9-0.9-1.8-1.3-2.8c-0.1-0.1,0-0.1,0-0.2c0.5-0.8,1.1-1.6,1.6-2.3C315.4,476.7,315.4,476.6,315.4,476.6z M340.5,479
			c-0.1,0-0.2,0-0.3,0c-0.1,0-0.2,0-0.4,0s-0.2,0.1-0.2,0.3c0,0.1,0,0.4,0.1,0.5c0,0.1,0.1,0.2,0.3,0.2c0.1,0,0.1,0,0.2,0
			c0.1,0,0.1,0,0.1,0.1c0,0.1,0,0.2,0,0.4l0,0c0,0.4-0.3,0.6-0.6,0.6c-0.3,0-0.6-0.3-0.6-0.6c-0.1-0.8-0.1-1.6-0.2-2.4
			c0-0.3,0.1-0.6,0.5-0.6c0.3-0.1,0.6,0.1,0.7,0.4c0.1,0.1,0.1,0.1,0.2,0.1c0.2,0,0.5-0.1,0.7-0.1c0.1,0,0.2-0.1,0.2-0.3
			c-0.2-0.8-1.1-1.4-1.9-1.3c-0.9,0.1-1.6,1-1.6,1.9c0.1,0.8,0.1,1.6,0.2,2.3c0.1,0.9,0.8,1.6,1.8,1.6c0.4,0,0.8-0.1,1.1-0.3
			c0,0,0.1,0,0.1,0.1c0,0,0,0,0,0.1c0,0.1,0.1,0.1,0.1,0.1c0.2,0,0.5-0.1,0.7-0.1c0.1,0,0.1-0.1,0.1-0.1c-0.1-0.4-0.1-0.9-0.1-1.3
			c0-0.2-0.1-0.4-0.1-0.7c0-0.3-0.1-0.5-0.1-0.8c0-0.1-0.1-0.2-0.3-0.2C340.9,479,340.7,479,340.5,479z M336,479.8
			c-0.5-1-1.1-1.9-1.6-2.9c0-0.1-0.1-0.1-0.1-0.1c-0.1,0-0.4,0-0.5,0l0,0c-0.1,0-0.3,0-0.4,0c-0.1,0-0.1,0.1-0.1,0.1
			c0.1,1.8,0.1,3.5,0.3,5.4c0,0.1,0.1,0.1,0.1,0.1c0.3,0,0.6,0,0.9-0.1c0.1,0,0.1-0.1,0.1-0.1c-0.1-0.9-0.1-1.8-0.1-2.8
			c0,0,0.1-0.1,0.1,0c0.5,0.9,1,1.8,1.6,2.8c0,0.1,0.1,0.1,0.1,0.1c0.4,0,0.6-0.1,1-0.1c0.1,0,0.1-0.1,0.1-0.1
			c-0.1-1.8-0.3-3.5-0.4-5.3c0-0.1-0.1-0.1-0.1-0.1c-0.3,0-0.6,0.1-0.8,0.1c-0.1,0-0.1,0.1-0.1,0.1
			C335.9,477.9,335.9,478.8,336,479.8L336,479.8z M325.3,479.2c-0.2-0.1-0.8-0.2-0.8-0.6s0.3-0.6,0.6-0.6c0.2,0,0.5,0.2,0.7,0.4
			c0.1,0.1,0.2,0.1,0.3,0.1c0.2-0.1,0.4-0.2,0.6-0.4c0.1-0.1,0.1-0.2,0.1-0.4c-0.4-0.6-1-1-1.7-1c-1,0-1.8,0.8-1.8,1.8
			c0,1,0.8,1.3,1.3,1.6c0.1,0,0.1,0.1,0.2,0.1c0.7,0.4,0.8,0.5,0.8,0.7c0,0.4-0.3,0.6-0.6,0.6c-0.2,0-0.5-0.2-0.7-0.5
			c-0.1-0.1-0.2-0.1-0.4-0.1c-0.2,0.1-0.4,0.3-0.6,0.4c-0.1,0.1-0.1,0.2-0.1,0.3c0.3,0.6,0.9,1,1.7,1.1c1,0,1.8-0.7,1.9-1.7
			C326.9,480,325.9,479.5,325.3,479.2z"/>
	</g>
</g>
<path fill="#FFFFFF" stroke="#231815" stroke-width="0.7245" stroke-miterlimit="10" d="M285.6,460.8L285.6,460.8L285.6,460.8
	L285.6,460.8z"/>
<path fill="#FFFFFF" stroke="#040000" stroke-width="0.3386" d="M268.8,383.2c-16.3-1.8-27.9,1.4-32.2,12.7c0.6,0.1,1.6,0.1,2.8,0.2
	c6.7,0.5,22,1.2,38.7-0.2c0.4,0,0.8-0.1,1.1-0.1v0.1C283.5,388.2,273.8,383.7,268.8,383.2z"/>
<path fill="#FFFFFF" stroke="#040000" stroke-width="0.3386" d="M267.3,385.6c-14-1.6-24,1.2-27.7,11c0.6,0.1,1.3,0.1,2.4,0.2
	c5.8,0.4,18.9,1.1,33.3-0.1c0.4,0,0.6-0.1,1-0.1c0,0,0,0,0,0.1C280,390,271.6,386.1,267.3,385.6z"/>
<path fill="#FFFFFF" stroke="#040000" stroke-width="0.3386" d="M235.7,395.7c0,0,0.3,0,0.9,0.1c0.6,0.1,1.6,0.1,2.8,0.2
	c6.7,0.5,22,1.2,38.7-0.2c0.4,0,0.8-0.1,1.1-0.1v0.1c6.4,12.4,7.4,56.1,6.4,65l0,0c-0.1,0.6-0.1,1-0.2,1.3c-5.9,13.5-49.4,10-53,1.7
	c-0.2-0.7-0.4-1.5-0.6-2.3c-0.3-1.3-0.6-2.6-0.8-4C227.7,436.9,233.1,403.7,235.7,395.7z"/>
<g>
	<path fill="#FFFFFF" stroke="#040000" stroke-width="0.3386" d="M252.1,396.6c-5.4-0.1-9.9-0.4-12.8-0.6c-1.2-0.1-2.1-0.1-2.8-0.2
		c-0.6-0.1-0.9-0.1-0.9-0.1c-2.6,8-8.1,41.2-4.8,61.7c0.2,1.4,0.5,2.8,0.8,4c0.2,0.8,0.4,1.5,0.6,2.3c1.4,3.3,9.4,5.9,18.7,6.9
		L252.1,396.6z"/>
	<g style="clip-path:url(#clipPath7);" width="60" height="310" x="0" y="0">
	<image xmlns:link="http://www.w3.org/1999/xlink" class="left_part_1" xlink:href="" width="230" height="80" x="225" y="395" preserveAspectRatio="none"/>
	</g>
	<path fill="#FFFFFF" stroke="#040000" stroke-width="0.3386" d="M252.7,470.8c2,0.1,4,0.3,5.9,0.3L252.7,470.8z"/>
	<path fill="#FFFFFF" stroke="#040000" stroke-width="0.3386" d="M258.9,471c2.1,0,4.2-0.1,6.3-0.2L258.9,471z"/>
	<path fill="#FFFFFF" stroke="#040000" stroke-width="0.3386" d="M279.2,395.8C279.2,395.8,279.2,395.7,279.2,395.8
		c-0.4,0-0.8,0-1.2,0.1c-4.7,0.4-9.3,0.6-13.6,0.8l1.1,74.2c9.3-0.8,17.5-3.5,19.8-8.8c0.1-0.3,0.1-0.7,0.2-1.3l0,0
		C286.7,451.9,285.6,408.2,279.2,395.8z"/>
	<g style="clip-path:url(#clipPath8);" width="60" height="310" x="0" y="0">
	<image xmlns:link="http://www.w3.org/1999/xlink" class="right_part_1" xlink:href="" width="230" height="80" x="260" y="395" preserveAspectRatio="none"/>
	</g>
</g>
<line fill="none" stroke="#040000" stroke-width="0.25" stroke-linecap="round" stroke-dasharray="1,1" x1="262.5" y1="396.7" x2="263.6" y2="470.9"/>
<line fill="none" stroke="#040000" stroke-width="0.25" stroke-linecap="round" stroke-dasharray="1,1" x1="254.3" y1="396.7" x2="253.4" y2="470.8"/>
<g>
	<polyline fill="none" stroke="#808080" stroke-width="0.25" stroke-linecap="round" points="277,395.4 279.3,396 277.1,395.1
		279.4,395.6 277.2,394.7 279.6,395.1 277.2,394.4 279.6,394.6 277.3,394 279.7,394.1 277.4,393.6 279.8,393.7 277.4,393.3
		279.8,393.2 277.4,392.9 279.8,392.7 277.4,392.6 279.8,392.2 277.4,392.2 279.7,391.7 277.3,391.8 279.6,391.2 277.2,391.5
		279.6,390.7 277.2,391.1 279.4,390.2 277.1,390.9 279.2,389.8 277,390.5 279,389.3 276.8,390.2 278.8,388.9 276.6,389.9
		278.5,388.5 276.4,389.6 278.2,388 276.2,389.3 277.9,387.6 276,389 277.6,387.3 275.8,388.8 277.2,386.9 275.5,388.5 276.9,386.5
		275.2,388.3 276.5,386.3 274.9,388.1 276.1,386 274.6,387.9 275.7,385.7 274.3,387.7 275.3,385.5 273.9,387.5 274.8,385.3
		273.6,387.3 274.4,385.1 273.2,387.1 274,384.8 272.9,387 273.6,384.6 272.5,386.8 273.1,384.5 272.2,386.7 272.7,384.4
		271.7,386.5 272.3,384.2 271.4,386.4 271.8,384.1 270.9,386.3 271.2,383.9 270.2,386.1 270.4,383.7 269.5,385.9 269.5,383.5
		268.7,385.8 268.8,383.4 267.9,385.6 267.9,383.2 267.1,385.5 267.1,383.1 266.4,385.4 266.3,382.9 265.6,385.3 265.4,382.9
		264.8,385.2 264.6,382.8 264,385.2 263.7,382.7 263.2,385.1 263,382.7 262.5,385.1 262.1,382.7 261.7,385.1 261.3,382.7
		260.8,385.1 260.4,382.7 260.1,385.1 259.6,382.7 259.3,385.1 258.8,382.7 258.5,385.1 257.9,382.8 257.7,385.2 257.1,382.8
		256.9,385.3 256.3,382.9 256.1,385.3 255.5,383 255.3,385.4 254.6,383.1 254.5,385.6 253.8,383.2 253.8,385.7 253,383.4 253,385.8
		252.1,383.5 252.2,386 251.4,383.7 251.5,386.1 250.5,383.9 250.7,386.3 249.7,384.1 249.9,386.5 248.9,384.4 249.2,386.8
		248.1,384.6 248.5,387 247.3,384.8 247.8,387.3 246.5,385.2 247,387.5 245.7,385.5 246.4,387.9 244.9,385.9 245.8,388.2
		244.2,386.3 245.1,388.6 243.7,386.7 244.9,388.7 243.4,386.9 244.7,388.9 243.1,387.1 244.5,389.1 242.8,387.3 244.2,389.3
		242.6,387.5 244,389.4 242.3,387.7 243.8,389.7 242,388 243.6,389.9 241.8,388.2 243.4,390.1 241.6,388.5 243.2,390.3 241.3,388.7
		242.9,390.5 241.1,389 242.7,390.7 240.9,389.2 242.5,390.9 240.6,389.4 242.4,391.1 240.4,389.7 242.2,391.4 240.2,389.9
		242,391.6 240,390.2 241.8,391.8 239.8,390.5 241.6,392.1 239.6,390.8 241.4,392.3 239.4,391 241.3,392.6 239.2,391.3 241.1,392.8
		239,391.6 240.9,393.1 238.8,391.8 240.8,393.3 238.6,392.1 240.5,393.5 238.5,392.4 240.4,393.8 238.3,392.7 240.3,394 238.1,393
		240.1,394.3 237.9,393.3 240,394.6 237.8,393.5 239.8,394.9 237.6,393.8 239.6,395.1 237.4,394.1 239.6,395.4 237.3,394.5
		239.4,395.7 237.2,394.7 239.3,395.9 237,395 239.1,396.2 236.9,395.3 239.1,396.4 	"/>
</g>
<path fill="none" stroke="#040000" stroke-width="0.25" stroke-linecap="round" stroke-dasharray="1,1" d="M279.9,398.7
	c0,0-20.9,3-44.5-0.2"/>
<path fill="none" stroke="#040000" stroke-width="0.25" stroke-linecap="round" stroke-dasharray="1,1" d="M280.3,400
	c0,0-24.7,3.5-45.3-0.5"/>
<path fill="#FFFFFF" stroke="#231815" stroke-width="0.7245" stroke-miterlimit="10" d="M258.5,475.2c-15.2,0-25.2-4.7-27.2-10.3
	c-0.8-2.1-1.1-3.8-1.1-5.2c0.1-0.7,0.4-1.5,0.6-2.2c0.2,1.4,0.5,2.8,0.8,4c0.2,0.8,0.4,1.5,0.6,2.3c3.6,8.3,47.1,11.8,53-1.7
	c0.1-0.3,0.1-0.7,0.2-1.3c0,0,0,0,0.1,0c0.4,0.7,0.6,1.6,0.7,2.8c0,0.2,0,0.5,0.1,0.8C285.3,469,279.9,475.2,258.5,475.2z"/>
<path fill="#FFFFFF" stroke="#231815" stroke-width="0.7245" stroke-miterlimit="10" d="M229.9,462c0.1-0.8,0.1-1.6,0.3-2.3
	c0.1,1.4,0.3,3.1,1.1,5.2c2,5.6,11.9,10.3,27.2,10.3c21.4,0,26.8-6.2,27.9-11c0.1,2.5-0.3,5.7-0.9,8.9c-0.2,1-0.4,2.1-0.6,3
	c-0.4,1.6-0.7,3.1-1.1,4.5c-2.4,10.6-32.3,7.8-39,7.6c-10.5-1-12.2-7.1-13-12.5c-0.1-1-0.3-2-0.4-2.9c-0.1-0.7-0.2-1.3-0.4-1.9
	c-0.6-3.3-1-5.9-1-8.3C229.9,462.5,229.9,462.3,229.9,462z"/>
<path fill="#FFFFFF" stroke="#040000" stroke-width="0.5" stroke-linecap="round" d="M276.2,472.6c0,0-17,4.1-32.7,0v11.5
	c0,0,14.1,2.8,32.7-0.6V472.6z"/>
<g>
	<g>
		<path class="back_part_1" d="M262.1,478.3c-0.1,0.3-0.2,0.5-0.4,0.8c-0.3,0.1-0.6,0.1-0.8,0.1c0.2,0.2,0.4,0.4,0.6,0.6c-0.1,0.3-0.1,0.6-0.1,0.8
			c0.3-0.1,0.5-0.3,0.8-0.4c0.3,0.1,0.5,0.3,0.8,0.4c-0.1-0.3-0.1-0.6-0.1-0.8c0.2-0.2,0.4-0.4,0.6-0.6c-0.3,0-0.6-0.1-0.8-0.1
			C262.4,478.7,262.3,478.5,262.1,478.3z"/>
		<path class="back_part_1" d="M249.8,476.8c0.1,0,0.3,0,0.4,0c0,0,0.1,0,0.1,0.1c-0.1,1.5-0.2,2.9-0.3,4.4c0,0,0,0.1-0.1,0.1c-0.1,0-0.3,0-0.5,0
			c-0.1,0-0.1,0.1-0.1,0.1c0,0.1,0,0.3,0,0.4s0.1,0.1,0.1,0.1c0.8,0.1,1.6,0.1,2.3,0.1c0.1,0,0.1-0.1,0.1-0.1c0-0.1,0-0.3,0-0.4
			c0-0.1-0.1-0.1-0.1-0.1c-0.1,0-0.3,0-0.5,0c0,0-0.1,0-0.1-0.1c0.1-1.5,0.2-2.9,0.3-4.4c0,0,0-0.1,0.1-0.1c0.1,0,0.3,0,0.4,0
			c0.1,0,0.1-0.1,0.1-0.1c0-0.1,0-0.3,0-0.4s-0.1-0.1-0.1-0.1c-0.7-0.1-1.5-0.1-2.2-0.1c-0.1,0-0.1,0.1-0.1,0.1c0,0.1,0,0.3,0,0.4
			C249.7,476.7,249.7,476.8,249.8,476.8z M263.8,477.1c0.1,0,0.3,0,0.4,0c0,0,0.1,0,0.1,0.1c0.1,1.5,0.1,2.9,0.1,4.4
			c0,0,0,0.1-0.1,0.1c-0.1,0-0.3,0-0.5,0c-0.1,0-0.1,0.1-0.1,0.1c0,0.1,0,0.3,0,0.4s0.1,0.1,0.1,0.1c0.8,0,1.6-0.1,2.3-0.1
			c0.1,0,0.1-0.1,0.1-0.1c0-0.1,0-0.3,0-0.4s-0.1-0.1-0.1-0.1c-0.1,0-0.3,0-0.5,0c0,0-0.1,0-0.1-0.1c-0.1-1.5-0.1-2.9-0.1-4.4
			c0,0,0-0.1,0.1-0.1c0.1,0,0.3,0,0.4,0c0.1,0,0.1-0.1,0.1-0.1c0-0.1,0-0.3,0-0.4s-0.1-0.1-0.1-0.1c-0.7,0-1.5,0.1-2.2,0.1
			c-0.1,0-0.1,0.1-0.1,0.1c0,0.1,0,0.3,0,0.4C263.7,477.1,263.7,477.1,263.8,477.1z M254.4,476.5c-0.5,0-0.9-0.1-1.4-0.1
			c-0.1,0-0.2,0.1-0.3,0.2c-0.1,1.7-0.2,3.5-0.3,5.2c0,0.1,0.1,0.2,0.2,0.3c0.5,0,1,0.1,1.4,0.1c1.1,0.1,2-0.8,2-1.8
			c0-0.6,0.1-1.3,0.1-1.9C256.2,477.4,255.5,476.5,254.4,476.5z M255,480.2c0,0.4-0.4,0.7-0.8,0.7c-0.1,0-0.3,0-0.4,0
			c0,0-0.1,0-0.1-0.1c0.1-1.1,0.1-2.2,0.1-3.3c0,0,0-0.1,0.1-0.1c0.1,0,0.3,0,0.4,0c0.4,0,0.7,0.4,0.7,0.8
			C255,479,255,479.6,255,480.2z M248.8,476.1c-0.4,0-0.6-0.1-1-0.1c-0.1,0-0.1,0-0.2,0.1c-0.5,0.7-1,1.5-1.6,2.2
			c0,0.1-0.1,0-0.1-0.1c0.1-0.8,0.1-1.6,0.2-2.3c0-0.1-0.1-0.1-0.1-0.1c-0.3,0-0.6-0.1-0.9-0.1c-0.1,0-0.1,0.1-0.1,0.1
			c-0.2,1.8-0.4,3.5-0.6,5.3c0,0.1,0.1,0.1,0.1,0.1c0.4,0.1,0.6,0.1,1,0.1c0.1,0,0.1-0.1,0.1-0.1c0.1-0.8,0.1-1.6,0.3-2.5
			c0-0.1,0.1-0.1,0.1,0c0.4,0.9,0.8,1.8,1.3,2.7c0.1,0.1,0.1,0.1,0.2,0.1c0.4,0,0.7,0.1,1.1,0.1c0.1,0,0.1-0.1,0.1-0.1
			c-0.5-0.9-0.9-1.8-1.3-2.8c-0.1-0.1,0-0.1,0-0.2c0.5-0.8,1.1-1.6,1.6-2.3C249,476.2,248.9,476.1,248.8,476.1z M274,478.5
			c-0.1,0-0.2,0-0.3,0c-0.1,0-0.2,0-0.4,0c-0.1,0-0.2,0.1-0.2,0.3c0,0.1,0,0.4,0.1,0.5c0,0.1,0.1,0.2,0.3,0.2c0.1,0,0.1,0,0.2,0
			c0.1,0,0.1,0,0.1,0.1c0,0.1,0,0.2,0,0.4l0,0c0,0.4-0.3,0.6-0.6,0.6c-0.3,0-0.6-0.3-0.6-0.6c-0.1-0.8-0.1-1.6-0.2-2.4
			c0-0.3,0.1-0.6,0.5-0.6c0.3-0.1,0.6,0.1,0.7,0.4c0.1,0.1,0.1,0.1,0.2,0.1c0.2,0,0.5-0.1,0.7-0.1c0.1,0,0.2-0.1,0.2-0.3
			c-0.2-0.8-1.1-1.4-1.9-1.3c-0.9,0.1-1.6,1-1.6,1.9c0.1,0.8,0.1,1.6,0.2,2.3c0.1,0.9,0.8,1.6,1.8,1.6c0.4,0,0.8-0.1,1.1-0.3
			c0,0,0.1,0,0.1,0.1c0,0,0,0,0,0.1c0,0.1,0.1,0.1,0.1,0.1c0.2,0,0.5-0.1,0.7-0.1c0.1,0,0.1-0.1,0.1-0.1c-0.1-0.4-0.1-0.9-0.1-1.3
			c0-0.2-0.1-0.4-0.1-0.7c0-0.3-0.1-0.5-0.1-0.8c0-0.1-0.1-0.2-0.3-0.2C274.4,478.5,274.2,478.5,274,478.5z M269.5,479.3
			c-0.5-1-1.1-1.9-1.6-2.9c0-0.1-0.1-0.1-0.1-0.1c-0.1,0-0.4,0-0.5,0l0,0c-0.1,0-0.3,0-0.4,0c-0.1,0-0.1,0.1-0.1,0.1
			c0.1,1.8,0.1,3.5,0.3,5.4c0,0.1,0.1,0.1,0.1,0.1c0.3,0,0.6,0,0.9-0.1c0.1,0,0.1-0.1,0.1-0.1c-0.1-0.9-0.1-1.8-0.1-2.8
			c0,0,0.1-0.1,0.1,0c0.5,0.9,1,1.8,1.6,2.8c0,0.1,0.1,0.1,0.1,0.1c0.4,0,0.6-0.1,1-0.1c0.1,0,0.1-0.1,0.1-0.1
			c-0.1-1.8-0.3-3.5-0.4-5.3c0-0.1-0.1-0.1-0.1-0.1c-0.3,0-0.6,0.1-0.8,0.1c-0.1,0-0.1,0.1-0.1,0.1
			C269.4,477.4,269.5,478.3,269.5,479.3C269.5,479.3,269.5,479.4,269.5,479.3z M258.8,478.8c-0.2-0.1-0.8-0.2-0.8-0.6
			c-0.1-0.4,0.3-0.6,0.6-0.6c0.2,0,0.5,0.2,0.7,0.4c0.1,0.1,0.2,0.1,0.3,0.1c0.2-0.1,0.4-0.2,0.6-0.4c0.1-0.1,0.1-0.2,0.1-0.4
			c-0.4-0.6-1-1-1.7-1c-1,0-1.8,0.8-1.8,1.8s0.8,1.3,1.3,1.6c0.1,0,0.1,0.1,0.2,0.1c0.7,0.4,0.8,0.5,0.8,0.7c0,0.4-0.3,0.6-0.6,0.6
			c-0.2,0-0.5-0.2-0.7-0.5c-0.1-0.1-0.2-0.1-0.4-0.1c-0.2,0.1-0.4,0.3-0.6,0.4c-0.1,0.1-0.1,0.2-0.1,0.3c0.3,0.6,0.9,1,1.7,1.1
			c1,0,1.8-0.7,1.9-1.7C260.4,479.5,259.4,479,258.8,478.8z"/>
	</g>
</g>
</svg>
