<?xml version="1.0" encoding="utf-8"?>
<!-- Generator: Adobe Illustrator 18.1.1, SVG Export Plug-In . SVG Version: 6.00 Build 0)  -->
<svg version="1.1" id="图层_1" xmlns="http://www.w3.org/2000/svg" xmlns:xlink="http://www.w3.org/1999/xlink" x="0px" y="0px"
	 viewBox="0 0 335.4 374.5" enable-background="new 0 0 335.4 374.5" xml:space="preserve">
<g>
	<defs>
		<rect id="SVGID_1_" x="-143.2" y="-169.8" width="595.3" height="841.9"/>
		<clipPath id="clipPath5">
			<path clip-path="url(#SVGID_2_)" fill="#FFFFFF" d="M5.7,166.9c2.7-36.1,3.2-32.5,5.6-64.7c3-41.2-0.5-91.7,52.3-99.9v9.8
			c-5.8,2.1-11.1,5.2-15.8,8.7c-12.6,10-20.4,26-24.4,41.9c-8,31.8,19.2,51.6,26.2,62.5c3.2,5,5.6,11.1,6.8,22.1
			c4.1,36.9,8,105.6,1.2,127c-7.3,23.3-22.9,35.3-34.4,39.7C3.4,269.9,3.9,201.1,5.7,166.9"/>
		</clipPath>
		<clipPath id="clipPath5_1">
			<path clip-path="url(#SVGID_2_)" fill="#FFFFFF" d="M240.5,4.7c-0.3,0.1-1,0.2-1.4,0.3c-24.1,5.1-35.2,21.6-40,35.9
		c-8.3,27.2-4.9,50.4-4.9,50.4c5.1,47.3,6.9,57.9-4.3,148.2c-0.1,0.7-0.2,1.5-0.3,2.2c-1.8,21.4,1.2,41.5,10.2,71.3
		c0.1,0.3,0.2,0.5,0.3,0.8c9.7-9,36.1-23.2,36.1-35.2c0-14.1,2.6-125.3-2.1-149.4c-2.2-10.9-22.3-20.9-29.2-28.8
		c-2.7-4.2-3.8-9.2-3.9-10c0.1,0.9-0.1-0.6,0,0c-0.5-4.6-1.5-10.2-1.6-22.1c0,0,0.7-31.5,23.7-46.8c6.3-4.2,12.4-6.9,18.3-8.5V4.6
		C241,4.6,240.7,4.7,240.5,4.7"/>
		</clipPath>
		<clipPath id="clipPath6">
			<path clip-path="url(#SVGID_2_)" fill="#FFFFFF" d="M95,2.4c0.3,0.1,1,0.2,1.4,0.3c24.1,5.1,35.2,21.6,40,35.9
		c8.3,27.2,4.9,50.4,4.9,50.4c-5.1,47.3-6.9,57.9,4.3,148.2c0.1,0.7,0.2,1.5,0.3,2.2c1.8,21.4-1.2,41.5-10.2,71.3
		c-0.1,0.3-0.2,0.5-0.3,0.8c-9.7-9-36.1-23.2-36.1-35.2c0-14.1-2.6-125.3,2.1-149.4c2.2-10.9,22.3-20.9,29.2-28.8
		c2.7-4.2,3.8-9.2,3.9-10c-0.1,0.9,0.1-0.6,0,0c0.5-4.6,1.5-10.2,1.6-22.1c0,0-0.7-31.5-23.7-46.8c-6.3-4.2-12.4-6.9-18.3-8.5V2.2
		C94.4,2.3,94.7,2.3,95,2.4"/>
		</clipPath>
		<clipPath id="clipPath6_1">
			<path clip-path="url(#SVGID_2_)" fill="none" stroke="#060405" stroke-width="0.58" d="M329.7,169.2c-2.7-36.1-3.2-32.5-5.6-64.7
		c-3-41.2,0.5-91.7-52.3-99.9v9.8c5.8,2.1,11.1,5.2,15.8,8.7c12.6,10,20.4,26,24.4,41.9c8,31.8-19.2,51.6-26.2,62.5
		c-3.2,5-5.6,11.1-6.8,22.1c-4.1,36.9-8,105.6-1.2,127c7.3,23.3,22.9,35.3,34.4,39.7C332.1,272.2,331.6,203.4,329.7,169.2z"/>
		</clipPath>
	</defs>
	<clipPath id="SVGID_2_">
		<use xlink:href="#SVGID_1_"  overflow="visible"/>
	</clipPath>
	<path clip-path="url(#SVGID_2_)" fill="#FFFFFF" d="M109.6,15.3c0,0,43.1,28.8,27.7,77C121.9,140.5,15,119.7,17.6,80.5
		C20.3,41.4,27.9,24,36.2,20.2c8.4-3.7,33.5-22.9,63.3-10.9C129.3,21.4,109.6,15.3,109.6,15.3"/>
	<path clip-path="url(#SVGID_2_)" fill="#050404" d="M81.4,81c0.2,0,0.3,0,0.5,0c2.1,0,4.1,0,6.2-0.1c0.1,0,0.3,0,0.4,0
		c0.4,0,0.4,0.1,0.5,0.4c0,0.6,0,1.2,0,1.8c0,0.3-0.1,0.3-0.4,0.4c-0.1,0-0.2,0-0.3,0c-4.2,0-8.4,0.1-12.6,0.1c-0.8,0-0.8,0-0.8-0.7
		c0-0.5,0-1,0-1.5c0-0.3,0.1-0.5,0.5-0.6c2.2-0.9,4.3-1.8,6.4-2.6c0.1-0.1,0.3-0.1,0.4-0.3c-0.2,0-0.3,0-0.5,0c-2,0-4,0-6.1,0.1
		c-0.1,0-0.3,0-0.4,0c-0.2,0-0.4-0.1-0.4-0.3c0-0.6,0-1.2,0-1.8c0-0.2,0.1-0.3,0.4-0.3c0.1,0,0.3,0,0.4,0c4.2,0,8.4-0.1,12.6-0.1
		c0.1,0,0.2,0,0.2,0c0.4,0,0.5,0.1,0.5,0.4c0,0.6,0,1.1,0.1,1.7c0,0.3-0.1,0.5-0.5,0.7c-2.2,0.9-4.4,1.8-6.6,2.7
		C81.7,80.7,81.5,80.8,81.4,81C81.4,80.9,81.4,80.9,81.4,81"/>
	<path clip-path="url(#SVGID_2_)" fill="#050404" d="M81.4,45.1c2,0,4.1,0,6.1-0.1c0.1,0,0.3,0,0.4,0c0.3,0,0.5,0.2,0.5,0.4
		c0,0.1,0,0.1,0,0.2c0,1.1,0,2.2,0,3.3c0,1.4-1.2,3.2-3.6,3.7c-0.3,0.1-0.7,0.1-1,0.1c-1.6,0-3.2,0.1-4.7,0.1c-2.1,0-3.9-1.2-4.5-3
		c-0.1-0.3-0.2-0.6-0.2-0.9c0-1,0-2-0.1-3c0-0.4,0.3-0.7,0.8-0.7C77.2,45.2,79.3,45.1,81.4,45.1 M85.6,47.6c-0.6-0.1-7.9,0-8.3,0.1
		c0,0.4,0.1,0.8,0.1,1.2c0,0.1,0,0.2,0.1,0.2c0.3,0.6,0.8,0.9,1.5,1c0.8,0,1.5,0,2.3,0c0.9,0,1.8,0,2.7-0.1c0.9,0,1.6-0.7,1.6-1.4
		C85.6,48.4,85.6,48,85.6,47.6"/>
	<path clip-path="url(#SVGID_2_)" fill="#050404" d="M80.8,30.9c-0.2,0-0.3,0-0.5,0c-1.8,0-3.6,0-5.5,0.1c-0.1,0-0.2,0-0.3,0
		c-0.3,0-0.4-0.1-0.4-0.3c0-0.7,0-1.3,0-2c0-0.2,0.2-0.3,0.4-0.4c0.1,0,0.3,0,0.4,0c4.2,0,8.3-0.1,12.5-0.1c0.8,0,0.8,0,0.8,0.7
		c0,0.5,0,1,0,1.5c0,0.5-0.1,0.5-0.6,0.5c-1.7,0-3.4,0-5.1,0.1c-0.2,0-0.4-0.1-0.5,0.2c0.2,0.1,0.3,0.2,0.4,0.2
		c1.8,0.8,3.5,1.6,5.3,2.4c0.4,0.2,0.6,0.4,0.6,0.9c0,0.5,0,1.1,0,1.6c0,0.1,0,0.2,0,0.3c0,0.3-0.2,0.4-0.5,0.2
		c-0.1,0-0.2-0.1-0.3-0.1c-1.8-0.8-3.7-1.7-5.5-2.6c-0.4-0.2-0.7-0.2-1,0C79,34.9,77,36,75,37c-0.1,0.1-0.2,0.1-0.3,0.2
		c-0.4,0.2-0.6,0.1-0.6-0.3c0-0.6,0-1.2,0-1.8c0-0.4,0.1-0.6,0.5-0.8c1.9-1,3.9-2,5.8-3c0.1-0.1,0.3-0.2,0.4-0.3
		C80.8,30.9,80.8,30.9,80.8,30.9"/>
	<path clip-path="url(#SVGID_2_)" fill="#050404" d="M79.9,89.9c0-0.2,0-0.4,0-0.6c0-0.4,0.2-0.6,0.7-0.6c0.4,0,0.8,0,1.2,0
		c0.4,0,0.6,0.2,0.7,0.5c0,0.9,0,1.8,0,2.7c0,0.3-0.2,0.5-0.6,0.6c-0.1,0-0.2,0-0.3,0c-2.1,0-4.2,0-6.3,0.1c-0.1,0-0.2,0-0.3,0
		c-0.2,0-0.3-0.1-0.4-0.3c0-0.5,0-0.9,0-1.4c0-0.2,0-0.2,0.5-0.4c-0.1-0.3-0.3-0.6-0.4-0.9c-0.6-2,0.8-4.1,3.1-4.6
		c0.3-0.1,0.7-0.1,1.1-0.1c2,0,4.1-0.1,6.1-0.1c2,0,3.7,1.1,4.3,2.7c0.8,2.1-0.8,4.4-3.3,4.8c-0.5,0.1-0.8-0.1-0.8-0.5
		c0-0.5,0-0.9,0-1.4c0-0.3,0.2-0.5,0.5-0.6c0.5-0.2,0.9-0.5,0.9-1c0.2-0.8-0.5-1.5-1.4-1.5c-0.3,0-0.7,0-1,0c-1.7,0-3.3,0-5,0.1
		c-0.3,0-0.6,0.1-0.9,0.2c-0.6,0.3-0.9,0.8-0.8,1.2c0.1,0.6,0.4,1,1,1.1C78.9,90,79.4,89.9,79.9,89.9"/>
	<path clip-path="url(#SVGID_2_)" fill="#050404" d="M73.9,57.5c0-1.4,0.8-2.6,2.3-3.4c0.5-0.3,0.8-0.2,1.1,0.2
		c0.3,0.3,0.6,0.7,0.9,1c0.3,0.4,0.2,0.6-0.1,0.9c-0.3,0.3-0.7,0.6-0.9,1c-0.4,0.7,0.1,1.5,1,1.7c0.5,0.1,0.9,0,1.2-0.3
		c0.2-0.2,0.4-0.5,0.6-0.8c0.3-0.4,0.5-0.9,0.7-1.3c0.2-0.4,0.4-0.7,0.6-1.1c1-1.6,2.7-2,4.6-1.6c2,0.5,3.4,2.2,3.3,4
		c-0.1,1.5-1,2.6-2.4,3.4c-0.3,0.2-0.7,0.1-0.9-0.2c-0.3-0.4-0.6-0.8-0.8-1.2c-0.2-0.3-0.2-0.5,0.1-0.8c0.3-0.3,0.6-0.6,0.9-1
		c0.3-0.5,0.1-1.2-0.4-1.5c-0.6-0.4-1.3-0.3-1.6,0.2c-0.2,0.3-0.4,0.7-0.5,1c-0.3,0.8-0.7,1.5-1.3,2.2c-2.1,2.5-6,1.9-7.5-0.4
		C74.1,59,73.9,58.3,73.9,57.5"/>
	<path clip-path="url(#SVGID_2_)" fill="#050404" d="M87.3,69.9c0-0.3,0-0.6,0-0.8c0-0.4,0.1-0.4,0.4-0.4c0.2,0,0.4,0,0.6,0
		c0.4,0,0.5,0,0.5,0.4c0,1.5,0.1,3,0.1,4.5c0,0.3-0.1,0.4-0.5,0.4c-1.2,0-1,0-1.1-0.8c0-0.1,0-0.3,0-0.4c-3.7,0-7.4,0.1-11.1,0.1
		c0,0.3,0,0.6,0,0.9c0,0.3-0.1,0.4-0.4,0.4c-0.2,0-0.5,0-0.7,0c-0.2,0-0.3-0.1-0.3-0.3c0-0.1,0-0.2,0-0.3c0-1.4,0-2.8-0.1-4.2
		c0-0.1,0-0.2,0-0.3c0-0.2,0.1-0.2,0.3-0.2c0.3,0,0.6,0,0.8,0c0.3,0,0.4,0.1,0.4,0.3c0,0.3,0,0.6,0,0.9C76.5,70.1,86.5,70,87.3,69.9
		"/>
	<path clip-path="url(#SVGID_2_)" fill="#050404" d="M86.8,39.6c0-0.3,0-0.6,0-0.8c0-0.3,0.1-0.4,0.5-0.4c1.1,0,1-0.1,1,0.8
		c0,1.3,0,2.5,0.1,3.8c0,0.1,0,0.2,0,0.3c0,0.2-0.1,0.3-0.3,0.3c-0.3,0-0.6,0-0.8,0c-0.2,0-0.3-0.1-0.3-0.3c0-0.2,0-0.3,0-0.5
		c0-0.1,0-0.3,0-0.4c-3.7,0-7.4,0.1-11.1,0.1c0,0.3,0,0.5,0,0.8c0,0.4,0,0.5-0.5,0.5c-0.2,0-0.4,0-0.5,0c-0.4,0-0.4,0-0.4-0.3
		c0-0.3,0-0.6,0-0.9c0-1.2,0-2.4-0.1-3.6c0-0.5,0-0.5,0.6-0.5c0.2,0,0.4,0,0.5,0c0.2,0,0.4,0.1,0.4,0.3c0,0.2,0,0.3,0,0.5
		c0,0.1,0,0.3,0,0.5C79.4,39.7,83.1,39.6,86.8,39.6"/>
	<path clip-path="url(#SVGID_2_)" fill="#050404" d="M82.4,67.9c-0.4-0.4-0.8-0.7-1.1-1c-0.3-0.3-0.5-0.3-0.9-0.2
		c-0.5,0.1-1,0.2-1.5,0.3c0.2-0.3,0.3-0.6,0.5-0.8c0.1-0.3,0.4-0.5,0.4-0.8c0-0.3-0.3-0.5-0.4-0.8c-0.2-0.2-0.3-0.5-0.5-0.8
		c0.5,0.1,0.9,0.1,1.3,0.2c0.1,0,0.2,0,0.2,0c0.4,0.1,0.7,0,0.9-0.3c0.3-0.3,0.7-0.6,1-0.9c0.1,0.2,0.1,0.5,0.2,0.7
		c0.1,0.3,0.1,0.5,0.1,0.8c0,0.2,0.1,0.3,0.3,0.3c0.5,0.2,1,0.4,1.6,0.7c-0.4,0.2-0.8,0.3-1.1,0.5c-0.8,0.3-0.8,0.3-0.9,1.1
		C82.5,67.2,82.4,67.5,82.4,67.9"/>
	<path clip-path="url(#SVGID_2_)" fill="#FFFFFF" d="M51.9,275.9c6.8-21.3,0.3-91.2-3.8-127.9c6.9,5.1,15.5,8,26.2,7.2
		c16.8-1.2,28.8-6.3,37.4-13.2c-4.2,40.7-8.6,121.1-8.6,132.6c0,11.8,22.6,24.5,32.2,33.4c-0.4,1.2-0.7,2.3-1.1,3.4
		c-0.9-0.6-1.9-1.1-3.1-1.8c-7.2-4-51.1-1.3-73.5-0.7c-17.4,0.5-25.6,2.3-33.7,5.8c-0.3-0.6-0.6-1.3-0.9-2
		C34.4,308.3,44.6,299,51.9,275.9"/>
	<path clip-path="url(#SVGID_2_)" fill="none" stroke="#060405" stroke-width="0.58" d="M51.9,275.9c6.8-21.3,0.3-91.2-3.8-127.9
		c6.9,5.1,15.5,8,26.2,7.2c16.8-1.2,28.8-6.3,37.4-13.2c-4.2,40.7-8.6,121.1-8.6,132.6c0,11.8,22.6,24.5,32.2,33.4
		c-0.4,1.2-0.7,2.3-1.1,3.4c-0.9-0.6-1.9-1.1-3.1-1.8c-7.2-4-51.1-1.3-73.5-0.7c-17.4,0.5-25.6,2.3-33.7,5.8c-0.3-0.6-0.6-1.3-0.9-2
		C34.4,308.3,44.6,299,51.9,275.9z"/>
	<path class="front_part_3" clip-path="url(#SVGID_2_)" fill="#FFFFFF" stroke="#060405" stroke-width="0.339" d="M0.9,267.9
		C3.6,310.6,27.5,381.6,92.6,371c44-7.2,54.9-67.9,53.6-112.5c-1.5,10.3-4.5,33.2-8.6,45.8c-1.4,4.4-3.1,8.5-4.9,12.4
		c-5.2,6.1-12.8,8-28.8,0.5c-20.4-9.6-43.4-3.1-56.6,3.4c-13.9,6.9-16.2,3-24-5.6L4.9,185.6C1.8,215.4-1.3,234,0.9,267.9z"/>
	<path class="front_part_4" clip-path="url(#SVGID_2_)" fill="#FFFFFF" d="M19.1,192.1c2.8-30.3,5.6-56.9,5.6-62.7c0-12.5-6.7-52.1-6.7-52.1
		c6.4,4.8,26.1,18.9,59.6,19.4c27.9,0.4,49.2-4.7,58.6-9c1-0.4,2.7,2.1,2.2,3c-3.5,6.1-8.1,17.6-7.6,42.8c0.3,12.9-2.4,34-5.5,56.2
		c-5.5,38.9-12.6,81.4-8,90.2c3.9,7.4,20.6,10.9,19.1,17.8c-1,4.8,5.3,12.5-8.8,18.5c-28.9,12.4-20.3,2.6-61.9-5.3
		c-23.4-4.5-39.4,9.7-43,1.9c-3.1-6.9-5.6-12.4-7-26.5C14.2,268.6,15.8,228.2,19.1,192.1"/>
	<path clip-path="url(#SVGID_2_)" fill="none" stroke="#060405" stroke-width="0.339" d="M19.1,192.1c2.8-30.3,5.6-56.9,5.6-62.7
		c0-12.5-6.7-52.1-6.7-52.1c6.4,4.8,26.1,18.9,59.6,19.4c27.9,0.4,49.2-4.7,58.6-9c1-0.4,2.7,2.1,2.2,3c-3.5,6.1-8.1,17.6-7.6,42.8
		c0.3,12.9-2.4,34-5.5,56.2c-5.5,38.9-12.6,81.4-8,90.2c3.9,7.4,20.6,10.9,19.1,17.8c-1,4.8,5.3,12.5-8.8,18.5
		c-28.9,12.4-20.3,2.6-61.9-5.3c-23.4-4.5-39.4,9.7-43,1.9c-3.1-6.9-5.6-12.4-7-26.5C14.2,268.6,15.8,228.2,19.1,192.1z"/>
	<path class="front_part_2" clip-path="url(#SVGID_2_)" fill="#FFFFFF" d="M23.1,314.6c8.1-3.5,16.7-5.3,34.1-5.8c22.4-0.7,66.3-3.3,73.5,0.7
		c1.2,0.7,4.5,1.9,4.5,1.9s-2.7,7.3-5,11.2c-4.3,7.1-10.5,11-26.5,3c-20.4-10.2-36.8-3.3-49.9,3.6c-13.9,7.3-19.8,3.8-26.8-6
		C25.2,320.8,23.6,316.3,23.1,314.6"/>
	<path clip-path="url(#SVGID_2_)" fill="none" stroke="#060405" stroke-width="0.339" d="M23.1,314.6c8.1-3.5,16.7-5.3,34.1-5.8
		c22.4-0.7,66.3-3.3,73.5,0.7c1.2,0.7,4.5,1.9,4.5,1.9s-2.7,7.3-5,11.2c-4.3,7.1-10.5,11-26.5,3c-20.4-10.2-36.8-3.3-49.9,3.6
		c-13.9,7.3-19.8,3.8-26.8-6C25.2,320.8,23.6,316.3,23.1,314.6z"/>

		<path class="front_part_5" clip-path="url(#SVGID_2_)" fill="none" stroke="#050404" stroke-width="3" stroke-linecap="round" stroke-linejoin="round" stroke-miterlimit="10" d="
		M48.9,347.5c0,0,31.8,25.2,64,0"/>
	<path clip-path="url(#SVGID_2_)" fill="#FFFFFF" d="M68.1,0.9c1.2-0.1,2.3-0.1,3.4-0.2C80.1,0,87.7,0.3,94.1,1.5v8.9
		c-11.1-3.2-21.4-2-30.6,1.6V1.5C65,1.3,66.5,1.1,68.1,0.9"/>
	<path clip-path="url(#SVGID_2_)" fill="none" stroke="#060405" stroke-width="0.58" d="M68.1,0.9c1.2-0.1,2.3-0.1,3.4-0.2
		C80.1,0,87.7,0.3,94.1,1.5v8.9c-11.1-3.2-21.4-2-30.6,1.6V1.5C65,1.3,66.5,1.1,68.1,0.9z"/>

		<polyline clip-path="url(#SVGID_2_)" fill="none" stroke="#060405" stroke-width="0.25" stroke-linecap="round" stroke-dasharray="1,1" points="
		49.7,289.8 30.6,281.9 14.2,285.6 	"/>

		<polyline clip-path="url(#SVGID_2_)" fill="none" stroke="#060405" stroke-width="0.25" stroke-linecap="round" stroke-dasharray="1,1" points="
		51.5,286.8 30,278.1 13.2,282.2 	"/>

		<polyline clip-path="url(#SVGID_2_)" fill="none" stroke="#060405" stroke-width="0.25" stroke-linecap="round" stroke-dasharray="1,1" points="
		102.3,283.8 121.2,277.5 141.6,289 	"/>

		<polyline clip-path="url(#SVGID_2_)" fill="none" stroke="#060405" stroke-width="0.25" stroke-linecap="round" stroke-dasharray="1,1" points="
		104,286.5 120.3,281 140.8,293.2 	"/>
	<path clip-path="url(#SVGID_2_)" fill="#FFFFFF" d="M134.6,88C134.6,87.5,134.5,89,134.6,88"/>
	<path clip-path="url(#SVGID_2_)" fill="none" stroke="#060405" stroke-width="0.58" d="M134.6,88C134.6,87.5,134.5,89,134.6,88z"/>

		<line clip-path="url(#SVGID_2_)" fill="none" stroke="#060405" stroke-width="0.25" stroke-linecap="round" stroke-dasharray="1,1" x1="89.7" y1="0.8" x2="89.7" y2="9.4"/>

		<line clip-path="url(#SVGID_2_)" fill="none" stroke="#060405" stroke-width="0.25" stroke-linecap="round" stroke-dasharray="1,1" x1="67.5" y1="1" x2="67.5" y2="10.7"/>
	<path clip-path="url(#SVGID_2_)" fill="#060405" d="M103.6,121.4c0-0.2,0-0.3,0-0.5c0-2.1,0-4.1,0-6.2c0-0.1,0-0.3,0-0.4
		c0-0.4,0.1-0.4,0.5-0.4c0.8,0,1.5,0,2.3,0c0.4,0,0.4,0.1,0.5,0.4c0,0.1,0,0.2,0,0.3c0,4.2,0,8.4-0.1,12.6c0,0.8,0,0.8-0.9,0.8
		c-0.6,0-1.3,0-1.9,0c-0.4,0-0.7-0.2-0.8-0.5c-1.1-2.2-2.2-4.3-3.3-6.5c-0.1-0.1-0.2-0.3-0.3-0.4c0,0.2,0,0.3,0,0.5c0,2,0,4,0,6.1
		c0,0.1,0,0.3,0,0.4c0,0.2-0.2,0.4-0.5,0.4c-0.8,0-1.6,0-2.4,0c-0.3,0-0.4-0.1-0.4-0.4c0-0.1,0-0.3,0-0.4c0-4.2,0-8.4,0.1-12.6
		c0-0.1,0-0.2,0-0.2c0-0.4,0.1-0.5,0.6-0.5c0.7,0,1.4,0,2.1,0c0.4,0,0.7,0.1,0.8,0.5c1.1,2.2,2.2,4.5,3.4,6.7
		c0.1,0.2,0.2,0.3,0.3,0.5C103.5,121.4,103.6,121.4,103.6,121.4"/>
	<path clip-path="url(#SVGID_2_)" fill="#060405" d="M57.5,120.5c0-2,0-4.1,0-6.1c0-0.1,0-0.3,0-0.4c0-0.3,0.2-0.5,0.6-0.5
		c0.1,0,0.1,0,0.2,0c1.4,0,2.8,0,4.2,0.1c1.7,0,4.1,1.2,4.7,3.7c0.1,0.3,0.1,0.7,0.1,1c0,1.6,0,3.2,0,4.7c0,2.1-1.6,3.9-3.9,4.5
		c-0.4,0.1-0.8,0.2-1.2,0.2c-1.3,0-2.6,0-3.9,0c-0.5,0-0.9-0.3-0.9-0.8C57.5,124.7,57.5,122.6,57.5,120.5 M60.8,116.4
		c-0.1,0.6-0.1,8,0,8.4c0.5,0,1,0,1.6-0.1c0.1,0,0.2,0,0.3-0.1c0.8-0.3,1.2-0.8,1.3-1.5c0-0.8,0-1.5,0-2.3c0-0.9,0-1.8,0-2.7
		c0-0.9-0.8-1.6-1.8-1.7C61.8,116.4,61.3,116.4,60.8,116.4"/>
	<path clip-path="url(#SVGID_2_)" fill="#060405" d="M39.1,120.7c0,0.2,0,0.3,0,0.5c0,1.8,0,3.7,0,5.5c0,0.1,0,0.2,0,0.3
		c0,0.3-0.1,0.4-0.4,0.4c-0.9,0-1.7,0-2.6,0c-0.3,0-0.4-0.2-0.4-0.4c0-0.1,0-0.3,0-0.4c0-4.2,0-8.4,0.1-12.5c0-0.8,0-0.8,0.9-0.8
		c0.6,0,1.2,0,1.9,0c0.6,0,0.7,0.1,0.7,0.6c0,1.7,0,3.4,0,5.1c0,0.2-0.1,0.4,0.2,0.5c0.1-0.2,0.2-0.3,0.3-0.4
		c1.1-1.7,2.2-3.5,3.2-5.2c0.3-0.4,0.6-0.6,1.1-0.6c0.7,0,1.4,0,2,0c0.1,0,0.2,0,0.3,0c0.4,0,0.4,0.2,0.3,0.5
		c-0.1,0.1-0.1,0.2-0.2,0.3c-1.1,1.8-2.3,3.7-3.4,5.5c-0.2,0.4-0.2,0.7,0,1c1.3,2,2.6,4,3.9,6c0.1,0.1,0.2,0.2,0.2,0.3
		c0.2,0.4,0.2,0.6-0.4,0.6c-0.8,0-1.5,0-2.3,0c-0.5,0-0.8-0.2-1.1-0.6c-1.2-2-2.5-3.9-3.8-5.9c-0.1-0.2-0.2-0.3-0.3-0.4
		C39.2,120.7,39.2,120.7,39.1,120.7"/>
	<path clip-path="url(#SVGID_2_)" fill="#060405" d="M115.1,123c-0.3,0-0.5,0-0.7,0c-0.5,0-0.8-0.2-0.8-0.7c0-0.4,0-0.8,0-1.2
		c0-0.4,0.3-0.6,0.7-0.6c1.2,0,2.3,0,3.5,0c0.4,0,0.7,0.2,0.7,0.6c0,0.1,0,0.2,0,0.3c0,2.1,0,4.2,0,6.3c0,0.1,0,0.2,0,0.3
		c0,0.2-0.1,0.3-0.4,0.3c-0.6,0-1.2,0-1.8,0c-0.3,0-0.3,0-0.5-0.5c-0.4,0.1-0.8,0.3-1.2,0.4c-2.6,0.6-5.2-0.9-5.9-3.2
		c-0.1-0.3-0.2-0.7-0.2-1.1c0-2,0-4.1,0-6.1c0-2,1.5-3.7,3.6-4.2c2.7-0.7,5.6,0.9,6.1,3.4c0.1,0.5-0.2,0.8-0.7,0.8
		c-0.6,0-1.2,0-1.8,0c-0.4,0-0.6-0.2-0.7-0.5c-0.2-0.5-0.6-0.9-1.2-1c-1-0.2-1.9,0.4-2,1.4c0,0.3,0,0.7,0,1c0,1.7,0,3.3,0,5
		c0,0.3,0.1,0.6,0.2,0.9c0.3,0.7,1,0.9,1.5,0.9c0.7-0.1,1.2-0.4,1.5-1C115.2,124.1,115.1,123.6,115.1,123"/>
	<path clip-path="url(#SVGID_2_)" fill="#060405" d="M73.2,128.3c-1.7-0.1-3.3-0.8-4.3-2.4c-0.3-0.5-0.3-0.8,0.3-1.1
		c0.5-0.3,0.9-0.6,1.4-0.8c0.5-0.3,0.8-0.2,1.2,0.1c0.4,0.3,0.8,0.7,1.2,0.9c0.9,0.4,2-0.1,2.2-0.9c0.1-0.5,0-0.9-0.4-1.2
		c-0.3-0.2-0.7-0.4-1-0.6c-0.6-0.3-1.1-0.5-1.7-0.7c-0.5-0.2-0.9-0.4-1.4-0.6c-2-1.1-2.6-2.7-1.9-4.6c0.7-2,2.8-3.3,5.2-3.2
		c1.9,0.1,3.3,1,4.4,2.4c0.3,0.4,0.2,0.7-0.3,0.9c-0.5,0.3-1,0.6-1.5,0.8c-0.4,0.2-0.6,0.2-1-0.1c-0.4-0.3-0.8-0.6-1.2-0.9
		c-0.7-0.3-1.5-0.1-2,0.4c-0.5,0.6-0.4,1.2,0.2,1.6c0.4,0.2,0.8,0.4,1.3,0.6c1,0.3,1.9,0.8,2.8,1.3c3.2,2.1,2.3,6.1-0.7,7.5
		C75.2,128.1,74.3,128.3,73.2,128.3"/>
	<path clip-path="url(#SVGID_2_)" fill="#060405" d="M89.5,115.2c-0.4,0-0.7,0-1.1,0c-0.5,0-0.5-0.1-0.5-0.5c0-0.2,0-0.4,0-0.6
		c0-0.4,0.1-0.5,0.5-0.5c1.9,0,3.8,0,5.7,0c0.4,0,0.5,0.1,0.5,0.5c0,1.2,0,1-1.1,1c-0.2,0-0.3,0-0.5,0c0,3.7,0,7.4-0.1,11.2
		c0.4,0,0.8,0,1.1,0c0.4,0,0.5,0.1,0.5,0.4c0,0.2,0,0.5,0,0.7c0,0.2-0.1,0.3-0.3,0.3c-0.1,0-0.2,0-0.3,0c-1.8,0-3.6,0-5.4,0
		c-0.1,0-0.3,0-0.4,0c-0.2,0-0.3-0.1-0.3-0.3c0-0.3,0-0.6,0-0.8c0-0.3,0.1-0.4,0.4-0.4c0.4,0,0.8,0,1.1,0
		C89.5,126,89.6,115.9,89.5,115.2"/>
	<path clip-path="url(#SVGID_2_)" fill="#060405" d="M50.5,114.9c-0.4,0-0.7,0-1.1,0c-0.4,0-0.5-0.1-0.5-0.5c0-1.1-0.1-1,1.1-1
		c1.6,0,3.2,0,4.8,0c0.1,0,0.3,0,0.4,0c0.2,0,0.4,0.1,0.4,0.3c0,0.3,0,0.6,0,0.8c0,0.2-0.2,0.3-0.4,0.3c-0.2,0-0.4,0-0.7,0
		c-0.2,0-0.4,0-0.6,0c0,3.7,0,7.4-0.1,11.1c0.3,0,0.7,0,1,0c0.6,0,0.6,0,0.6,0.5c0,0.2,0,0.4,0,0.5c0,0.4-0.1,0.4-0.4,0.4
		c-0.4,0-0.7,0-1.1,0c-1.5,0-3,0-4.6,0c-0.6,0-0.6,0-0.6-0.6c0-0.2,0-0.4,0-0.5c0-0.2,0.1-0.4,0.4-0.4c0.2,0,0.4,0,0.6,0
		c0.2,0,0.4,0,0.6,0C50.5,122.4,50.5,118.7,50.5,114.9"/>
	<path clip-path="url(#SVGID_2_)" fill="#060405" d="M86.9,120.1c-0.5,0.4-0.9,0.8-1.3,1.1c-0.3,0.2-0.4,0.5-0.3,0.9
		c0.1,0.5,0.2,1,0.3,1.6c-0.4-0.2-0.7-0.4-1.1-0.5c-0.3-0.2-0.7-0.4-1-0.4c-0.3,0-0.7,0.3-1,0.4c-0.3,0.1-0.6,0.3-1.1,0.5
		c0.1-0.5,0.2-0.9,0.2-1.3c0-0.1,0-0.2,0.1-0.2c0.1-0.4,0-0.7-0.3-0.9c-0.4-0.3-0.7-0.7-1.1-1.1c0.3,0,0.6-0.1,0.9-0.1
		c0.3,0,0.7-0.1,1-0.1c0.2,0,0.4-0.1,0.5-0.3c0.3-0.5,0.6-1,0.9-1.6c0.2,0.4,0.4,0.8,0.6,1.1c0.4,0.8,0.4,0.8,1.4,0.9
		C85.9,119.9,86.3,120,86.9,120.1"/>
	<path clip-path="url(#SVGID_2_)" fill="#FFFFFF" d="M5.7,166.9c2.7-36.1,3.2-32.5,5.6-64.7c3-41.2-0.5-91.7,52.3-99.9v9.8
		c-5.8,2.1-11.1,5.2-15.8,8.7c-12.6,10-20.4,26-24.4,41.9c-8,31.8,19.2,51.6,26.2,62.5c3.2,5,5.6,11.1,6.8,22.1
		c4.1,36.9,8,105.6,1.2,127c-7.3,23.3-22.9,35.3-34.4,39.7C3.4,269.9,3.9,201.1,5.7,166.9"/>
	<g style="clip-path:url(#clipPath5);" width="60" height="310" x="0" y="0">
	<image xmlns:link="http://www.w3.org/1999/xlink" class="right_part_1" xlink:href="" width="310" height="60" x="0" y="0" preserveAspectRatio="none"/>
	</g>
	<path clip-path="url(#SVGID_2_)" fill="none" stroke="#060405" stroke-width="0.58" d="M5.7,166.9c2.7-36.1,3.2-32.5,5.6-64.7
		c3-41.2-0.5-91.7,52.3-99.9v9.8c-5.8,2.1-11.1,5.2-15.8,8.7c-12.6,10-20.4,26-24.4,41.9c-8,31.8,19.2,51.6,26.2,62.5
		c3.2,5,5.6,11.1,6.8,22.1c4.1,36.9,8,105.6,1.2,127c-7.3,23.3-22.9,35.3-34.4,39.7C3.4,269.9,3.9,201.1,5.7,166.9z"/>
	<path clip-path="url(#SVGID_2_)" fill="#FFFFFF" d="M95,2.4c0.3,0.1,1,0.2,1.4,0.3c24.1,5.1,35.2,21.6,40,35.9
		c8.3,27.2,4.9,50.4,4.9,50.4c-5.1,47.3-6.9,57.9,4.3,148.2c0.1,0.7,0.2,1.5,0.3,2.2c1.8,21.4-1.2,41.5-10.2,71.3
		c-0.1,0.3-0.2,0.5-0.3,0.8c-9.7-9-36.1-23.2-36.1-35.2c0-14.1-2.6-125.3,2.1-149.4c2.2-10.9,22.3-20.9,29.2-28.8
		c2.7-4.2,3.8-9.2,3.9-10c-0.1,0.9,0.1-0.6,0,0c0.5-4.6,1.5-10.2,1.6-22.1c0,0-0.7-31.5-23.7-46.8c-6.3-4.2-12.4-6.9-18.3-8.5V2.2
		C94.4,2.3,94.7,2.3,95,2.4"/>
  <g style="clip-path:url(#clipPath6);" width="60" height="310" x="0" y="0">
	<image xmlns:link="http://www.w3.org/1999/xlink" class="left_part_1" xlink:href="" width="310" height="60" x="100" y="0" preserveAspectRatio="none"/>
  </g>
	<path clip-path="url(#SVGID_2_)" fill="none" stroke="#060405" stroke-width="0.58" d="M95,2.4c0.3,0.1,1,0.2,1.4,0.3
		c24.1,5.1,35.2,21.6,40,35.9c8.3,27.2,4.9,50.4,4.9,50.4c-5.1,47.3-6.9,57.9,4.3,148.2c0.1,0.7,0.2,1.5,0.3,2.2
		c1.8,21.4-1.2,41.5-10.2,71.3c-0.1,0.3-0.2,0.5-0.3,0.8c-9.7-9-36.1-23.2-36.1-35.2c0-14.1-2.6-125.3,2.1-149.4
		c2.2-10.9,22.3-20.9,29.2-28.8c2.7-4.2,3.8-9.2,3.9-10c-0.1,0.9,0.1-0.6,0,0c0.5-4.6,1.5-10.2,1.6-22.1c0,0-0.7-31.5-23.7-46.8
		c-6.3-4.2-12.4-6.9-18.3-8.5V2.2C94.4,2.3,94.7,2.3,95,2.4z"/>

		<path clip-path="url(#SVGID_2_)" fill="none" stroke="#060405" stroke-width="0.25" stroke-linecap="round" stroke-dasharray="1,1" d="
		M136.8,87c-0.2,1.2-1.3,8.5-4.4,12.3c-5.8,7.4-26.3,19.2-28.2,29c-4.7,23.1-1.7,131.8-1.2,146.3c0.3,9.5,14,17.8,23.4,24.9
		c1.9,1.5,8.6,6.2,10.3,7.6"/>

		<path clip-path="url(#SVGID_2_)" fill="none" stroke="#060405" stroke-width="0.25" stroke-linecap="round" stroke-dasharray="1,1" d="
		M136.8,93.2c-1,10.3-28.3,26.4-29.9,35c-4.5,23-0.7,133.1-0.7,147.5c0,5.5,14.1,15.6,22,21.6c0.4,0.3,9.2,6,9.6,6.3"/>

		<path clip-path="url(#SVGID_2_)" fill="none" stroke="#060405" stroke-width="0.25" stroke-linecap="round" stroke-dasharray="1,1" d="
		M22.3,309.8C30,306,48.9,292.6,55,270.9c5-17.9,4-95.7-5.3-140c-1-4.7-11.5-12.3-15.3-17.6c-8.6-12-18.6-30.1-12.9-52.7"/>

		<path clip-path="url(#SVGID_2_)" fill="none" stroke="#060405" stroke-width="0.25" stroke-linecap="round" stroke-dasharray="1,1" d="
		M18.3,70.4c-3.4,19.9,9.9,39.1,13.3,43.8c3.4,4.8,13.5,11.9,14.6,17.9c12.1,61.1,11.4,121.2,5.5,140c-5.7,17.9-22.5,30.8-30.3,34.5
		"/>
	<path clip-path="url(#SVGID_2_)" fill="#FFFFFF" d="M129.2,168.2h2.3c0.8,0,1.4-0.6,1.4-1.4v-29.6c0-0.8-0.6-1.4-1.4-1.4h-2.3
		c-0.8,0-1.4,0.6-1.4,1.4v29.6C127.9,167.6,128.5,168.2,129.2,168.2"/>
	<path clip-path="url(#SVGID_2_)" fill="none" stroke="#060405" stroke-width="0.339" d="M129.2,168.2h2.3c0.8,0,1.4-0.6,1.4-1.4
		v-29.6c0-0.8-0.6-1.4-1.4-1.4h-2.3c-0.8,0-1.4,0.6-1.4,1.4v29.6C127.9,167.6,128.5,168.2,129.2,168.2z"/>
	<path clip-path="url(#SVGID_2_)" fill="#050404" d="M130.4,167.2c0.8,0,1.5-0.6,1.5-1.4v-27.6c0-0.8-0.7-1.4-1.5-1.4
		c-0.8,0-1.5,0.6-1.5,1.4v27.6C128.9,166.6,129.6,167.2,130.4,167.2"/>
	<path clip-path="url(#SVGID_2_)" fill="#FFFFFF" d="M129.2,245.4h2.3c0.8,0,1.4-0.6,1.4-1.4v-29.6c0-0.8-0.6-1.4-1.4-1.4h-2.3
		c-0.8,0-1.4,0.6-1.4,1.4V244C127.9,244.8,128.5,245.4,129.2,245.4"/>
	<path clip-path="url(#SVGID_2_)" fill="none" stroke="#060405" stroke-width="0.339" d="M129.2,245.4h2.3c0.8,0,1.4-0.6,1.4-1.4
		v-29.6c0-0.8-0.6-1.4-1.4-1.4h-2.3c-0.8,0-1.4,0.6-1.4,1.4V244C127.9,244.8,128.5,245.4,129.2,245.4z"/>

		<path clip-path="url(#SVGID_2_)" fill="none" stroke="#060405" stroke-width="0.25" stroke-linecap="round" stroke-dasharray="1,1" d="
		M32.4,104.3c0,0-17.5,166.5,7.4,196.5"/>

		<path clip-path="url(#SVGID_2_)" fill="none" stroke="#060405" stroke-width="0.25" stroke-linecap="round" stroke-dasharray="1,1" d="
		M30.6,101.8c0,0-21.5,156.2,6.2,201.9"/>

		<path clip-path="url(#SVGID_2_)" fill="none" stroke="#060405" stroke-width="0.25" stroke-linecap="round" stroke-dasharray="1,1" d="
		M126.7,102.2c0,0,7.4,167.9-9.8,194.6"/>

		<path clip-path="url(#SVGID_2_)" fill="none" stroke="#060405" stroke-width="0.25" stroke-linecap="round" stroke-dasharray="1,1" d="
		M124.1,104.3c0,0,5.7,162.1-9.3,190.1"/>
	<path class="front_part_1" clip-path="url(#SVGID_2_)" fill="#FFFFFF" d="M28.7,168.2h97.9c2.1,0,3.8-1.7,3.8-3.8v-25.3c0-2.1-1.7-3.8-3.8-3.8H28.7
		c-2.1,0-3.8,1.7-3.8,3.8v25.3C24.9,166.5,26.6,168.2,28.7,168.2"/>
	<path clip-path="url(#SVGID_2_)" fill="none" stroke="#060405" stroke-width="0.339" d="M28.7,168.2h97.9c2.1,0,3.8-1.7,3.8-3.8
		v-25.3c0-2.1-1.7-3.8-3.8-3.8H28.7c-2.1,0-3.8,1.7-3.8,3.8v25.3C24.9,166.5,26.6,168.2,28.7,168.2z"/>

		<path clip-path="url(#SVGID_2_)" fill="none" stroke="#060405" stroke-width="0.25" stroke-linecap="round" stroke-dasharray="1,1" d="
		M128.3,138.5l-96.5,0.1c-2.6,0-4.8,2-4.8,4.5v17.2c0,2.5,2.1,4.5,4.8,4.5h96.1"/>

		<line clip-path="url(#SVGID_2_)" fill="none" stroke="#060405" stroke-width="0.25" stroke-linecap="round" x1="129.3" y1="163.1" x2="128.8" y2="163.1"/>

		<path clip-path="url(#SVGID_2_)" fill="none" stroke="#060405" stroke-width="0.25" stroke-linecap="round" stroke-dasharray="1.004,1.004" d="
		M127.8,163.1l-96-0.1c-1.5,0-2.7-1.1-2.7-2.4v-17.7c0-1.3,1.2-2.4,2.7-2.4h96.5"/>

		<line clip-path="url(#SVGID_2_)" fill="none" stroke="#060405" stroke-width="0.25" stroke-linecap="round" x1="128.8" y1="140.5" x2="129.3" y2="140.5"/>
	<path clip-path="url(#SVGID_2_)" fill="#050404" d="M130.4,244.4c0.8,0,1.5-0.6,1.5-1.4v-27.6c0-0.8-0.7-1.4-1.5-1.4
		c-0.8,0-1.5,0.6-1.5,1.4V243C128.9,243.8,129.6,244.4,130.4,244.4"/>
	<path class="front_part_1" clip-path="url(#SVGID_2_)" fill="#FFFFFF" d="M28.7,245.4h97.9c2.1,0,3.8-1.7,3.8-3.8v-24.9c0-2.1-1.7-3.8-3.8-3.8H28.7
		c-2.1,0-3.8,1.7-3.8,3.8v24.9C24.9,243.7,26.6,245.4,28.7,245.4"/>
	<path clip-path="url(#SVGID_2_)" fill="none" stroke="#060405" stroke-width="0.339" d="M28.7,245.4h97.9c2.1,0,3.8-1.7,3.8-3.8
		v-24.9c0-2.1-1.7-3.8-3.8-3.8H28.7c-2.1,0-3.8,1.7-3.8,3.8v24.9C24.9,243.7,26.6,245.4,28.7,245.4z"/>

		<line clip-path="url(#SVGID_2_)" fill="none" stroke="#060405" stroke-width="0.25" stroke-linecap="round" x1="127.7" y1="215.5" x2="127.2" y2="215.5"/>

		<path clip-path="url(#SVGID_2_)" fill="none" stroke="#060405" stroke-width="0.25" stroke-linecap="round" stroke-dasharray="0.998,0.998" d="
		M126.2,215.5H31.8c-2.9,0-5.3,2.2-5.3,4.8V238c0,2.7,2.4,4.8,5.3,4.8l94.9,0.1"/>

		<line clip-path="url(#SVGID_2_)" fill="none" stroke="#060405" stroke-width="0.25" stroke-linecap="round" x1="127.2" y1="243" x2="127.7" y2="243"/>

		<line clip-path="url(#SVGID_2_)" fill="none" stroke="#060405" stroke-width="0.25" stroke-linecap="round" x1="128.9" y1="216.4" x2="128.4" y2="216.4"/>

		<path clip-path="url(#SVGID_2_)" fill="none" stroke="#060405" stroke-width="0.25" stroke-linecap="round" stroke-dasharray="1.003,1.003" d="
		M127.4,216.4H31.8c-2.4,0-4.3,1.8-4.3,3.9V238c0,2.2,1.9,3.9,4.3,3.9l96.1-0.1"/>

		<line clip-path="url(#SVGID_2_)" fill="none" stroke="#060405" stroke-width="0.25" stroke-linecap="round" x1="128.3" y1="241.9" x2="128.8" y2="241.9"/>
	<path clip-path="url(#SVGID_2_)" fill="#FFFFFF" d="M225.9,17.6c0,0-43.1,28.8-27.7,77S320.5,122,317.8,82.8
		c-2.7-39.1-10.2-56.6-18.6-60.3c-8.4-3.7-33.5-22.9-63.3-10.9C206.1,23.7,225.9,17.6,225.9,17.6"/>
	<path clip-path="url(#SVGID_2_)" fill="#050404" d="M254.1,83.3c-0.2,0-0.3,0-0.5,0c-2.1,0-4.1,0-6.2-0.1c-0.1,0-0.3,0-0.4,0
		c-0.4,0-0.4,0.1-0.5,0.4c0,0.6,0,1.2,0,1.8c0,0.3,0.1,0.3,0.4,0.4c0.1,0,0.2,0,0.3,0c4.2,0,8.4,0.1,12.6,0.1c0.8,0,0.8,0,0.8-0.7
		c0-0.5,0-1,0-1.5c0-0.3-0.1-0.5-0.5-0.6c-2.2-0.9-4.3-1.8-6.4-2.6c-0.1-0.1-0.3-0.1-0.4-0.3c0.2,0,0.3,0,0.5,0c2,0,4,0,6.1,0.1
		c0.1,0,0.3,0,0.4,0c0.2,0,0.4-0.1,0.4-0.3c0-0.6,0-1.2,0-1.8c0-0.2-0.1-0.3-0.4-0.3c-0.1,0-0.3,0-0.4,0c-4.2,0-8.4-0.1-12.6-0.1
		c-0.1,0-0.2,0-0.2,0c-0.4,0-0.5,0.1-0.5,0.4c0,0.6,0,1.1-0.1,1.7c0,0.3,0.1,0.5,0.5,0.7c2.2,0.9,4.4,1.8,6.6,2.7
		C253.8,83,253.9,83.1,254.1,83.3C254.1,83.2,254.1,83.2,254.1,83.3"/>
	<path clip-path="url(#SVGID_2_)" fill="#050404" d="M260.4,47.5c0.5,0,0.8,0.3,0.8,0.7c0,1,0,2-0.1,3c0,0.3-0.1,0.6-0.2,0.9
		c-0.6,1.8-2.4,3-4.5,3c-1.6,0-3.2,0-4.7-0.1c-0.3,0-0.7,0-1-0.1c-2.5-0.5-3.6-2.3-3.6-3.7c0-1.1,0-2.2,0-3.3c0-0.1,0-0.1,0-0.2
		c0.1-0.3,0.2-0.4,0.5-0.4c0.1,0,0.3,0,0.4,0c2,0,4.1,0,6.1,0.1C256.2,47.5,258.3,47.5,260.4,47.5 M249.9,51
		c0.1,0.8,0.7,1.4,1.6,1.4c0.9,0,1.8,0,2.7,0.1c0.8,0,1.5,0,2.3,0c0.7,0,1.3-0.4,1.5-1c0-0.1,0.1-0.2,0.1-0.2c0-0.4,0.1-0.8,0.1-1.2
		c-0.4-0.1-7.7-0.2-8.3-0.1C249.9,50.3,249.8,50.7,249.9,51"/>
	<path clip-path="url(#SVGID_2_)" fill="#050404" d="M254.6,33.2c0.2,0,0.3,0,0.5,0c1.8,0,3.6,0,5.5,0.1c0.1,0,0.2,0,0.3,0
		c0.3,0,0.4-0.1,0.4-0.3c0-0.7,0-1.3,0-2c0-0.2-0.2-0.3-0.4-0.4c-0.1,0-0.3,0-0.4,0c-4.2,0-8.3-0.1-12.5-0.1c-0.8,0-0.8,0-0.8,0.7
		c0,0.5,0,1,0,1.5c0,0.5,0.1,0.5,0.6,0.5c1.7,0,3.4,0,5.1,0.1c0.2,0,0.4-0.1,0.5,0.2c-0.2,0.1-0.3,0.2-0.4,0.2
		c-1.8,0.8-3.5,1.6-5.3,2.4c-0.4,0.2-0.6,0.4-0.6,0.9c0,0.5,0,1.1,0,1.6c0,0.1,0,0.2,0,0.3c0,0.3,0.2,0.4,0.5,0.2
		c0.1,0,0.2-0.1,0.3-0.1c1.8-0.8,3.7-1.7,5.5-2.6c0.4-0.2,0.7-0.2,1,0c2,1,3.9,2.1,5.9,3.1c0.1,0.1,0.2,0.1,0.3,0.2
		c0.4,0.2,0.6,0.1,0.6-0.3c0-0.6,0-1.2,0-1.8c0-0.4-0.1-0.6-0.5-0.8c-1.9-1-3.9-2-5.8-3c-0.1-0.1-0.3-0.2-0.4-0.3L254.6,33.2z"/>
	<path clip-path="url(#SVGID_2_)" fill="#050404" d="M255.5,92.2c0-0.2,0-0.4,0-0.6c0-0.4-0.2-0.6-0.7-0.6c-0.4,0-0.8,0-1.2,0
		c-0.4,0-0.6,0.2-0.7,0.5c0,0.9,0,1.8,0,2.7c0,0.3,0.2,0.5,0.6,0.6c0.1,0,0.2,0,0.3,0c2.1,0,4.2,0,6.3,0.1c0.1,0,0.2,0,0.3,0
		c0.2,0,0.3-0.1,0.4-0.3c0-0.5,0-0.9,0-1.4c0-0.2,0-0.2-0.5-0.4c0.1-0.3,0.3-0.6,0.4-0.9c0.6-2-0.8-4.1-3.1-4.6
		c-0.3-0.1-0.7-0.1-1.1-0.1c-2,0-4.1-0.1-6.1-0.1c-2,0-3.7,1.1-4.3,2.7c-0.8,2.1,0.8,4.4,3.3,4.8c0.5,0.1,0.8-0.1,0.8-0.5
		c0-0.5,0-0.9,0-1.4c0-0.3-0.2-0.5-0.5-0.6c-0.5-0.2-0.9-0.5-0.9-1c-0.2-0.8,0.5-1.5,1.4-1.5c0.3,0,0.7,0,1,0c1.7,0,3.3,0,5,0.1
		c0.3,0,0.6,0.1,0.9,0.2c0.6,0.3,0.9,0.8,0.8,1.2c-0.1,0.6-0.4,1-1,1.1C256.6,92.3,256.1,92.2,255.5,92.2"/>
	<path clip-path="url(#SVGID_2_)" fill="#050404" d="M261.5,59.8c0-1.4-0.8-2.6-2.3-3.4c-0.5-0.3-0.8-0.2-1.1,0.2
		c-0.3,0.3-0.6,0.7-0.9,1c-0.3,0.4-0.2,0.6,0.1,0.9c0.3,0.3,0.7,0.6,0.9,1c0.4,0.7-0.1,1.5-1,1.7c-0.5,0.1-0.9,0-1.2-0.3
		c-0.2-0.2-0.4-0.5-0.6-0.8c-0.3-0.4-0.5-0.9-0.7-1.3c-0.2-0.4-0.4-0.7-0.6-1.1c-1-1.6-2.7-2-4.6-1.6c-2,0.5-3.4,2.2-3.3,4
		c0.1,1.5,1,2.6,2.4,3.4c0.3,0.2,0.7,0.1,0.9-0.2c0.3-0.4,0.6-0.8,0.8-1.2c0.2-0.3,0.2-0.5-0.1-0.8c-0.3-0.3-0.6-0.6-0.9-1
		c-0.3-0.5-0.1-1.2,0.4-1.5c0.6-0.4,1.3-0.3,1.6,0.2c0.2,0.3,0.4,0.7,0.5,1c0.3,0.8,0.7,1.5,1.3,2.2c2.1,2.5,6,1.9,7.5-0.4
		C261.3,61.3,261.5,60.6,261.5,59.8"/>
	<path clip-path="url(#SVGID_2_)" fill="#050404" d="M248.1,72.2c0-0.3,0-0.6,0-0.8c0-0.4-0.1-0.4-0.4-0.4c-0.2,0-0.4,0-0.6,0
		c-0.4,0-0.5,0-0.5,0.4c0,1.5-0.1,3-0.1,4.5c0,0.3,0.1,0.4,0.5,0.4c1.2,0,1,0,1-0.8c0-0.1,0-0.3,0-0.4c3.7,0,7.4,0.1,11.1,0.1
		c0,0.3,0,0.6,0,0.9c0,0.3,0.1,0.4,0.4,0.4c0.2,0,0.5,0,0.7,0c0.2,0,0.3-0.1,0.3-0.3c0-0.1,0-0.2,0-0.3c0-1.4,0-2.8,0.1-4.2
		c0-0.1,0-0.2,0-0.3c0-0.2-0.1-0.2-0.3-0.2c-0.3,0-0.6,0-0.8,0c-0.3,0-0.4,0.1-0.4,0.3c0,0.3,0,0.6,0,0.9
		C258.9,72.4,248.9,72.3,248.1,72.2"/>
	<path clip-path="url(#SVGID_2_)" fill="#050404" d="M248.6,41.9c0-0.3,0-0.6,0-0.8c0-0.3-0.1-0.4-0.5-0.4c-1.1,0-1-0.1-1,0.8
		c0,1.3,0,2.5-0.1,3.8c0,0.1,0,0.2,0,0.3c0,0.2,0.1,0.3,0.3,0.3c0.3,0,0.6,0,0.8,0c0.2,0,0.3-0.1,0.3-0.3c0-0.2,0-0.3,0-0.5
		c0-0.1,0-0.3,0-0.4c3.7,0,7.4,0.1,11.1,0.1c0,0.3,0,0.5,0,0.8c0,0.4,0,0.5,0.5,0.5c0.2,0,0.4,0,0.5,0c0.4,0,0.4,0,0.4-0.3
		c0-0.3,0-0.6,0-0.9c0-1.2,0-2.4,0.1-3.6c0-0.5,0-0.5-0.6-0.5c-0.2,0-0.4,0-0.5,0c-0.2,0-0.4,0.1-0.4,0.3c0,0.2,0,0.3,0,0.5
		c0,0.1,0,0.3,0,0.5C256,42,252.4,42,248.6,41.9"/>
	<path clip-path="url(#SVGID_2_)" fill="#050404" d="M253.1,70.2c0.4-0.4,0.8-0.7,1.1-1c0.3-0.3,0.5-0.3,0.9-0.2
		c0.5,0.1,1,0.2,1.5,0.3c-0.2-0.3-0.3-0.6-0.5-0.8c-0.1-0.3-0.4-0.5-0.4-0.8c0-0.3,0.3-0.5,0.4-0.8c0.2-0.2,0.3-0.5,0.5-0.8
		c-0.5,0.1-0.9,0.1-1.3,0.2c-0.1,0-0.2,0-0.2,0c-0.4,0.1-0.7,0-0.9-0.3c-0.3-0.3-0.7-0.6-1-0.9c-0.1,0.2-0.1,0.5-0.2,0.7
		c-0.1,0.3-0.1,0.5-0.1,0.8c0,0.2-0.1,0.3-0.3,0.3c-0.5,0.2-1,0.4-1.6,0.7c0.4,0.2,0.8,0.3,1.1,0.5c0.8,0.3,0.8,0.3,0.9,1.1
		C253,69.5,253,69.8,253.1,70.2"/>
	<path clip-path="url(#SVGID_2_)" fill="#FFFFFF" d="M283.5,278.2c-6.8-21.3-0.3-91.2,3.8-127.9c-6.9,5.1-15.5,8-26.2,7.2
		c-16.8-1.2-28.8-6.3-37.4-13.2c4.2,40.7,8.6,121.1,8.6,132.6c0,11.8-22.6,24.5-32.2,33.4c0.4,1.2,0.7,2.3,1.1,3.4
		c0.9-0.6,1.9-1.1,3.1-1.8c7.2-4,51.1-1.3,73.5-0.7c17.4,0.5,25.6,2.3,33.7,5.8c0.3-0.6,0.6-1.3,0.9-2
		C301,310.6,290.9,301.3,283.5,278.2"/>
	<path clip-path="url(#SVGID_2_)" fill="none" stroke="#060405" stroke-width="0.58" d="M283.5,278.2c-6.8-21.3-0.3-91.2,3.8-127.9
		c-6.9,5.1-15.5,8-26.2,7.2c-16.8-1.2-28.8-6.3-37.4-13.2c4.2,40.7,8.6,121.1,8.6,132.6c0,11.8-22.6,24.5-32.2,33.4
		c0.4,1.2,0.7,2.3,1.1,3.4c0.9-0.6,1.9-1.1,3.1-1.8c7.2-4,51.1-1.3,73.5-0.7c17.4,0.5,25.6,2.3,33.7,5.8c0.3-0.6,0.6-1.3,0.9-2
		C301,310.6,290.9,301.3,283.5,278.2z"/>
	<path class="front_part_3" clip-path="url(#SVGID_2_)" fill="#FFFFFF" stroke="#060405" stroke-width="0.339" d="M330.5,187.9l-18.4,129.3
		c-7.8,8.6-10.1,12.5-24,5.6c-13.1-6.5-36.2-13-56.6-3.4c-16,7.5-23.6,5.6-28.8-0.5c-1.8-3.9-3.5-8-4.9-12.4
		c-4.1-12.6-7.1-35.5-8.6-45.8c-1.3,44.6,9.6,105.3,53.6,112.5c65.1,10.6,89-60.4,91.8-103.1C336.7,236.3,333.6,217.7,330.5,187.9z"
		/>
	<path class="front_part_4" clip-path="url(#SVGID_2_)" fill="#FFFFFF" d="M316.3,194.4c-2.8-30.3-5.6-56.9-5.6-62.7c0-12.5,6.7-52.1,6.7-52.1
		c-6.4,4.8-26.1,18.9-59.6,19.4c-27.9,0.4-49.2-4.7-58.6-9c-1-0.4-2.7,2.1-2.2,3c3.5,6.1,8.1,17.6,7.6,42.8
		c-0.3,12.9,2.4,34,5.5,56.2c5.5,38.9,12.6,81.4,8,90.2c-3.9,7.4-20.6,10.9-19.1,17.8c1,4.8-5.3,12.5,8.8,18.5
		c28.9,12.4,20.3,2.6,61.9-5.3c23.4-4.5,39.4,9.7,43,1.9c3.1-6.9,5.6-12.4,7-26.5C321.2,270.9,319.6,230.5,316.3,194.4"/>
	<path clip-path="url(#SVGID_2_)" fill="none" stroke="#060405" stroke-width="0.339" d="M316.3,194.4c-2.8-30.3-5.6-56.9-5.6-62.7
		c0-12.5,6.7-52.1,6.7-52.1c-6.4,4.8-26.1,18.9-59.6,19.4c-27.9,0.4-49.2-4.7-58.6-9c-1-0.4-2.7,2.1-2.2,3
		c3.5,6.1,8.1,17.6,7.6,42.8c-0.3,12.9,2.4,34,5.5,56.2c5.5,38.9,12.6,81.4,8,90.2c-3.9,7.4-20.6,10.9-19.1,17.8
		c1,4.8-5.3,12.5,8.8,18.5c28.9,12.4,20.3,2.6,61.9-5.3c23.4-4.5,39.4,9.7,43,1.9c3.1-6.9,5.6-12.4,7-26.5
		C321.2,270.9,319.6,230.5,316.3,194.4z"/>
	<path class="front_part_2" clip-path="url(#SVGID_2_)" fill="#FFFFFF" d="M311.6,316.9L311.6,316.9c-8.1-3.5-16.3-5.3-33.7-5.8
		c-22.4-0.7-66.3-3.3-73.5,0.7c-1.2,0.7-4.5,1.9-4.5,1.9s2.7,7.3,5,11.2c4.3,7.1,10.5,11,26.5,3c20.4-10.2,36.8-3.3,49.9,3.6
		c13.9,7.3,20.6,4.3,26.8-6C313,317.6,311.6,316.9,311.6,316.9"/>
	<path clip-path="url(#SVGID_2_)" fill="none" stroke="#060405" stroke-width="0.339" d="M311.6,316.9L311.6,316.9
		c-8.1-3.5-16.3-5.3-33.7-5.8c-22.4-0.7-66.3-3.3-73.5,0.7c-1.2,0.7-4.5,1.9-4.5,1.9s2.7,7.3,5,11.2c4.3,7.1,10.5,11,26.5,3
		c20.4-10.2,36.8-3.3,49.9,3.6c13.9,7.3,20.6,4.3,26.8-6C313,317.6,311.6,316.9,311.6,316.9z"/>

		<path class="front_part_5" clip-path="url(#SVGID_2_)" fill="none" stroke="#050404" stroke-width="3" stroke-linecap="round" stroke-linejoin="round" stroke-miterlimit="10" d="
		M286.6,349.8c0,0-31.8,25.2-64,0"/>
	<path clip-path="url(#SVGID_2_)" fill="#FFFFFF" d="M267.3,3.2c-1.2-0.1-2.3-0.1-3.4-0.2c-8.6-0.7-16.1-0.4-22.6,0.8v8.9
		c11.1-3.2,21.4-2,30.6,1.6V3.8C270.4,3.6,268.9,3.4,267.3,3.2"/>
	<path clip-path="url(#SVGID_2_)" fill="none" stroke="#060405" stroke-width="0.58" d="M267.3,3.2c-1.2-0.1-2.3-0.1-3.4-0.2
		c-8.6-0.7-16.1-0.4-22.6,0.8v8.9c11.1-3.2,21.4-2,30.6,1.6V3.8C270.4,3.6,268.9,3.4,267.3,3.2z"/>
	<path clip-path="url(#SVGID_2_)" fill="#FFFFFF" d="M311.6,316.9c0.4-0.8,0.3-0.6,0.1-0.2C311.7,316.8,311.7,316.9,311.6,316.9
		L311.6,316.9z"/>
	<path clip-path="url(#SVGID_2_)" fill="none" stroke="#060405" stroke-width="0.339" d="M311.6,316.9c0.4-0.8,0.3-0.6,0.1-0.2
		C311.7,316.8,311.7,316.9,311.6,316.9L311.6,316.9z"/>
	<path clip-path="url(#SVGID_2_)" fill="#FFFFFF" d="M311.6,317.1c0-0.1,0-0.1,0.1-0.1l0,0C311.6,317,311.6,317,311.6,317.1"/>
	<path clip-path="url(#SVGID_2_)" fill="none" stroke="#060405" stroke-width="0.339" d="M311.6,317.1c0-0.1,0-0.1,0.1-0.1l0,0
		C311.6,317,311.6,317,311.6,317.1z"/>
	<path clip-path="url(#SVGID_2_)" fill="#FFFFFF" d="M311.7,316.8c0,0.1-0.1,0.1-0.1,0.2l0,0C311.7,316.9,311.7,316.8,311.7,316.8"
		/>
	<path clip-path="url(#SVGID_2_)" fill="none" stroke="#060405" stroke-width="0.339" d="M311.7,316.8c0,0.1-0.1,0.1-0.1,0.2l0,0
		C311.7,316.9,311.7,316.8,311.7,316.8z"/>

		<polyline clip-path="url(#SVGID_2_)" fill="none" stroke="#060405" stroke-width="0.25" stroke-linecap="round" stroke-dasharray="1,1" points="
		285.8,292.1 304.9,284.2 321.2,287.9 	"/>

		<polyline clip-path="url(#SVGID_2_)" fill="none" stroke="#060405" stroke-width="0.25" stroke-linecap="round" stroke-dasharray="1,1" points="
		284,289.1 305.4,280.5 322.2,284.5 	"/>

		<polyline clip-path="url(#SVGID_2_)" fill="none" stroke="#060405" stroke-width="0.25" stroke-linecap="round" stroke-dasharray="1,1" points="
		233.1,286.1 214.2,279.8 193.9,291.3 	"/>

		<polyline clip-path="url(#SVGID_2_)" fill="none" stroke="#060405" stroke-width="0.25" stroke-linecap="round" stroke-dasharray="1,1" points="
		231.4,288.8 215.1,283.3 194.6,295.5 	"/>
	<path clip-path="url(#SVGID_2_)" fill="#FFFFFF" d="M200.9,90.4C200.8,89.8,201,91.3,200.9,90.4"/>
	<path clip-path="url(#SVGID_2_)" fill="none" stroke="#060405" stroke-width="0.58" d="M200.9,90.4C200.8,89.8,201,91.3,200.9,90.4
		z"/>

		<line clip-path="url(#SVGID_2_)" fill="none" stroke="#060405" stroke-width="0.25" stroke-linecap="round" stroke-dasharray="1,1" x1="245.7" y1="3.1" x2="245.7" y2="11.7"/>

		<line clip-path="url(#SVGID_2_)" fill="none" stroke="#060405" stroke-width="0.25" stroke-linecap="round" stroke-dasharray="1,1" x1="267.9" y1="3.3" x2="267.9" y2="13"/>
	<path clip-path="url(#SVGID_2_)" fill="#060405" d="M285,123.7c0-0.2,0-0.3,0-0.5c0-2.1,0-4.1,0-6.2c0-0.1,0-0.3,0-0.4
		c0-0.4,0.1-0.4,0.5-0.4c0.8,0,1.5,0,2.3,0c0.4,0,0.4,0.1,0.5,0.4c0,0.1,0,0.2,0,0.3c0,4.2,0,8.4-0.1,12.6c0,0.8,0,0.8-0.9,0.8
		c-0.6,0-1.3,0-1.9,0c-0.4,0-0.7-0.2-0.8-0.5c-1.1-2.2-2.2-4.3-3.3-6.5c-0.1-0.1-0.2-0.3-0.3-0.4c0,0.2,0,0.3,0,0.5c0,2,0,4,0,6.1
		c0,0.1,0,0.3,0,0.4c0,0.2-0.2,0.4-0.5,0.4c-0.8,0-1.6,0-2.4,0c-0.3,0-0.4-0.1-0.4-0.4c0-0.1,0-0.3,0-0.4l0.1-12.6
		c0-0.1,0-0.2,0-0.2c0-0.4,0.1-0.5,0.6-0.5c0.7,0,1.4,0,2.1,0c0.4,0,0.7,0.1,0.8,0.5c1.1,2.2,2.2,4.5,3.4,6.7
		c0.1,0.2,0.2,0.3,0.3,0.5C284.9,123.7,284.9,123.7,285,123.7"/>
	<path clip-path="url(#SVGID_2_)" fill="#060405" d="M238.9,122.8c0-2,0-4.1,0-6.1c0-0.1,0-0.3,0-0.4c0-0.3,0.2-0.5,0.6-0.5
		c0.1,0,0.1,0,0.2,0c1.4,0,2.8,0,4.2,0.1c1.7,0,4.1,1.2,4.7,3.7c0.1,0.3,0.1,0.7,0.1,1c0,1.6,0,3.2,0,4.7c0,2.1-1.6,3.9-3.9,4.5
		c-0.4,0.1-0.8,0.2-1.2,0.2c-1.3,0-2.6,0-3.9,0c-0.5,0-0.9-0.3-0.9-0.8C238.9,127.1,238.9,124.9,238.9,122.8 M242.2,118.7
		c-0.1,0.6-0.1,8,0,8.4c0.5,0,1,0,1.6-0.1c0.1,0,0.2,0,0.3-0.1c0.8-0.3,1.2-0.8,1.3-1.5c0-0.8,0-1.5,0-2.3c0-0.9,0-1.8,0-2.7
		c0-0.9-0.8-1.6-1.8-1.7C243.2,118.7,242.7,118.7,242.2,118.7"/>
	<path clip-path="url(#SVGID_2_)" fill="#060405" d="M220.5,123c0,0.2,0,0.3,0,0.5c0,1.8,0,3.7,0,5.5c0,0.1,0,0.2,0,0.3
		c0,0.3-0.1,0.4-0.4,0.4c-0.9,0-1.7,0-2.6,0c-0.3,0-0.4-0.2-0.4-0.4c0-0.1,0-0.3,0-0.4c0-4.2,0-8.4,0.1-12.5c0-0.8,0-0.8,0.9-0.8
		c0.6,0,1.2,0,1.9,0c0.6,0,0.7,0.1,0.7,0.6c0,1.7,0,3.4,0,5.1c0,0.2-0.1,0.4,0.2,0.5c0.1-0.2,0.2-0.3,0.3-0.4
		c1.1-1.7,2.2-3.5,3.2-5.2c0.3-0.4,0.6-0.6,1.1-0.6c0.7,0,1.4,0,2,0c0.1,0,0.2,0,0.3,0c0.4,0,0.4,0.2,0.3,0.5
		c-0.1,0.1-0.1,0.2-0.2,0.3c-1.1,1.8-2.3,3.7-3.4,5.5c-0.2,0.4-0.2,0.7,0,1c1.3,2,2.6,4,3.9,6c0.1,0.1,0.2,0.2,0.2,0.3
		c0.2,0.4,0.2,0.6-0.4,0.6c-0.8,0-1.5,0-2.3,0c-0.5,0-0.8-0.2-1.1-0.6c-1.2-2-2.5-3.9-3.8-5.9c-0.1-0.2-0.2-0.3-0.3-0.4
		C220.6,123,220.6,123,220.5,123"/>
	<path clip-path="url(#SVGID_2_)" fill="#060405" d="M296.4,125.3c-0.3,0-0.5,0-0.7,0c-0.5,0-0.8-0.2-0.8-0.7c0-0.4,0-0.8,0-1.2
		c0-0.4,0.3-0.6,0.7-0.6c1.2,0,2.3,0,3.5,0c0.4,0,0.7,0.2,0.7,0.6c0,0.1,0,0.2,0,0.3c0,2.1,0,4.2,0,6.3c0,0.1,0,0.2,0,0.3
		c0,0.2-0.1,0.3-0.4,0.3c-0.6,0-1.2,0-1.8,0c-0.3,0-0.3,0-0.5-0.5c-0.4,0.1-0.8,0.3-1.2,0.4c-2.6,0.6-5.2-0.9-5.9-3.2
		c-0.1-0.3-0.2-0.7-0.2-1.1c0-2,0-4.1,0-6.1c0-2,1.5-3.7,3.6-4.2c2.7-0.7,5.6,0.9,6.1,3.4c0.1,0.5-0.2,0.8-0.7,0.8
		c-0.6,0-1.2,0-1.8,0c-0.4,0-0.6-0.2-0.7-0.5c-0.2-0.5-0.6-0.9-1.2-1c-1-0.2-1.9,0.4-2,1.4c0,0.3,0,0.7,0,1c0,1.7,0,3.3,0,5
		c0,0.3,0.1,0.6,0.2,0.9c0.3,0.7,1,0.9,1.5,0.9c0.7-0.1,1.2-0.4,1.5-1C296.6,126.4,296.5,125.9,296.4,125.3"/>
	<path clip-path="url(#SVGID_2_)" fill="#060405" d="M254.6,130.6c-1.7-0.1-3.3-0.8-4.3-2.4c-0.3-0.5-0.3-0.8,0.3-1.1
		c0.5-0.3,0.9-0.6,1.4-0.8c0.5-0.3,0.8-0.2,1.2,0.1c0.4,0.3,0.8,0.7,1.2,0.9c0.9,0.4,2-0.1,2.2-0.9c0.1-0.5,0-0.9-0.4-1.2
		c-0.3-0.2-0.7-0.4-1-0.6c-0.6-0.3-1.1-0.5-1.7-0.7c-0.5-0.2-0.9-0.4-1.4-0.6c-2-1.1-2.6-2.7-1.9-4.6c0.7-2,2.8-3.3,5.2-3.2
		c1.9,0.1,3.3,1,4.4,2.4c0.3,0.4,0.2,0.7-0.3,0.9c-0.5,0.3-1,0.6-1.5,0.8c-0.4,0.2-0.6,0.2-1-0.1c-0.4-0.3-0.8-0.6-1.2-0.9
		c-0.7-0.3-1.5-0.1-2,0.4c-0.5,0.6-0.4,1.2,0.2,1.6c0.4,0.2,0.8,0.4,1.3,0.6c1,0.3,1.9,0.8,2.8,1.3c3.2,2.1,2.3,6.1-0.7,7.5
		C256.5,130.4,255.7,130.6,254.6,130.6"/>
	<path clip-path="url(#SVGID_2_)" fill="#060405" d="M270.9,117.5c-0.4,0-0.7,0-1.1,0c-0.5,0-0.5-0.1-0.5-0.5c0-0.2,0-0.4,0-0.6
		c0-0.4,0.1-0.5,0.5-0.5c1.9,0,3.8,0,5.7,0c0.4,0,0.5,0.1,0.5,0.5c0,1.2,0,1-1.1,1c-0.2,0-0.3,0-0.5,0c0,3.7,0,7.4-0.1,11.2
		c0.4,0,0.8,0,1.1,0c0.4,0,0.5,0.1,0.5,0.4c0,0.2,0,0.5,0,0.7c0,0.2-0.1,0.3-0.3,0.3c-0.1,0-0.2,0-0.3,0c-1.8,0-3.6,0-5.4,0
		c-0.1,0-0.3,0-0.4,0c-0.2,0-0.3-0.1-0.3-0.3c0-0.3,0-0.6,0-0.8c0-0.3,0.1-0.4,0.4-0.4c0.4,0,0.8,0,1.1,0
		C270.9,128.3,271,118.2,270.9,117.5"/>
	<path clip-path="url(#SVGID_2_)" fill="#060405" d="M231.9,117.2c-0.4,0-0.7,0-1.1,0c-0.4,0-0.5-0.1-0.5-0.5c0-1.1-0.1-1,1.1-1
		c1.6,0,3.2,0,4.8,0c0.1,0,0.3,0,0.4,0c0.2,0,0.4,0.1,0.4,0.3c0,0.3,0,0.6,0,0.8c0,0.2-0.1,0.3-0.4,0.3c-0.2,0-0.4,0-0.7,0
		c-0.2,0-0.4,0-0.6,0c0,3.7,0,7.4-0.1,11.1c0.3,0,0.7,0,1,0c0.6,0,0.6,0,0.6,0.5c0,0.2,0,0.4,0,0.5c0,0.4-0.1,0.4-0.4,0.4
		c-0.4,0-0.7,0-1.1,0c-1.5,0-3,0-4.6,0c-0.6,0-0.6,0-0.6-0.6c0-0.2,0-0.4,0-0.5c0-0.2,0.1-0.4,0.4-0.4c0.2,0,0.4,0,0.6,0
		c0.2,0,0.4,0,0.6,0C231.9,124.7,231.9,121,231.9,117.2"/>
	<path clip-path="url(#SVGID_2_)" fill="#060405" d="M268.2,122.4c-0.5,0.4-0.9,0.8-1.3,1.1c-0.3,0.2-0.4,0.5-0.3,0.9
		c0.1,0.5,0.2,1,0.3,1.6c-0.4-0.2-0.7-0.4-1.1-0.5c-0.3-0.2-0.7-0.4-1-0.4c-0.3,0-0.7,0.3-1,0.4c-0.3,0.1-0.6,0.3-1.1,0.5
		c0.1-0.5,0.2-0.9,0.2-1.3c0-0.1,0-0.2,0.1-0.2c0.1-0.4,0-0.7-0.3-0.9c-0.4-0.3-0.7-0.7-1.1-1.1c0.3,0,0.6-0.1,0.9-0.1
		c0.3,0,0.7-0.1,1-0.1c0.2,0,0.4-0.1,0.5-0.3c0.3-0.5,0.6-1,0.9-1.6c0.2,0.4,0.4,0.8,0.6,1.1c0.4,0.8,0.4,0.8,1.4,0.9
		C267.3,122.3,267.7,122.3,268.2,122.4"/>
	<path clip-path="url(#SVGID_2_)" fill="#FFFFFF" d="M329.7,169.2c-2.7-36.1-3.2-32.5-5.6-64.7c-3-41.2,0.5-91.7-52.3-99.9v9.8
		c5.8,2.1,11.1,5.2,15.8,8.7c12.6,10,20.4,26,24.4,41.9c8,31.8-19.2,51.6-26.2,62.5c-3.2,5-5.6,11.1-6.8,22.1
		c-4.1,36.9-8,105.6-1.2,127c7.3,23.3,22.9,35.3,34.4,39.7C332.1,272.2,331.6,203.4,329.7,169.2"/>
	<path clip-path="url(#SVGID_2_)" fill="none" stroke="#060405" stroke-width="0.58" d="M329.7,169.2c-2.7-36.1-3.2-32.5-5.6-64.7
		c-3-41.2,0.5-91.7-52.3-99.9v9.8c5.8,2.1,11.1,5.2,15.8,8.7c12.6,10,20.4,26,24.4,41.9c8,31.8-19.2,51.6-26.2,62.5
		c-3.2,5-5.6,11.1-6.8,22.1c-4.1,36.9-8,105.6-1.2,127c7.3,23.3,22.9,35.3,34.4,39.7C332.1,272.2,331.6,203.4,329.7,169.2z"/>
  <g style="clip-path:url(#clipPath6_1);" width="60" height="310" x="0" y="0">
	<image xmlns:link="http://www.w3.org/1999/xlink" class="left_part_1" xlink:href="" width="310" height="60" x="275" y="0" preserveAspectRatio="none"/>
  </g>
	<path clip-path="url(#SVGID_2_)" fill="#FFFFFF" d="M240.5,4.7c-0.3,0.1-1,0.2-1.4,0.3c-24.1,5.1-35.2,21.6-40,35.9
		c-8.3,27.2-4.9,50.4-4.9,50.4c5.1,47.3,6.9,57.9-4.3,148.2c-0.1,0.7-0.2,1.5-0.3,2.2c-1.8,21.4,1.2,41.5,10.2,71.3
		c0.1,0.3,0.2,0.5,0.3,0.8c9.7-9,36.1-23.2,36.1-35.2c0-14.1,2.6-125.3-2.1-149.4c-2.2-10.9-22.3-20.9-29.2-28.8
		c-2.7-4.2-3.8-9.2-3.9-10c0.1,0.9-0.1-0.6,0,0c-0.5-4.6-1.5-10.2-1.6-22.1c0,0,0.7-31.5,23.7-46.8c6.3-4.2,12.4-6.9,18.3-8.5V4.6
		C241,4.6,240.7,4.7,240.5,4.7"/>
  <g style="clip-path:url(#clipPath5_1);" width="60" height="310" x="0" y="0">
	<image xmlns:link="http://www.w3.org/1999/xlink" class="right_part_1 right_part_1_2" xlink:href="" width="310" height="60" x="190" y="0" preserveAspectRatio="none"/>
  </g>
	<path clip-path="url(#SVGID_2_)" fill="none" stroke="#060405" stroke-width="0.58" d="M240.5,4.7c-0.3,0.1-1,0.2-1.4,0.3
		c-24.1,5.1-35.2,21.6-40,35.9c-8.3,27.2-4.9,50.4-4.9,50.4c5.1,47.3,6.9,57.9-4.3,148.2c-0.1,0.7-0.2,1.5-0.3,2.2
		c-1.8,21.4,1.2,41.5,10.2,71.3c0.1,0.3,0.2,0.5,0.3,0.8c9.7-9,36.1-23.2,36.1-35.2c0-14.1,2.6-125.3-2.1-149.4
		c-2.2-10.9-22.3-20.9-29.2-28.8c-2.7-4.2-3.8-9.2-3.9-10c0.1,0.9-0.1-0.6,0,0c-0.5-4.6-1.5-10.2-1.6-22.1c0,0,0.7-31.5,23.7-46.8
		c6.3-4.2,12.4-6.9,18.3-8.5V4.6C241,4.6,240.7,4.7,240.5,4.7z"/>

		<path clip-path="url(#SVGID_2_)" fill="none" stroke="#060405" stroke-width="0.25" stroke-linecap="round" stroke-dasharray="1,1" d="
		M198.6,89.3c0.2,1.2,1.3,8.5,4.4,12.3c5.8,7.4,26.3,19.2,28.2,29c4.7,23.1,1.7,131.8,1.2,146.3c-0.3,9.5-14,17.8-23.4,24.9
		c-1.9,1.5-8.6,6.2-10.3,7.6"/>

		<path clip-path="url(#SVGID_2_)" fill="none" stroke="#060405" stroke-width="0.25" stroke-linecap="round" stroke-dasharray="1,1" d="
		M198.6,95.5c1,10.3,28.3,26.4,29.9,35c4.5,23,0.7,133.1,0.7,147.5c0,5.5-14.1,15.6-22,21.6c-0.4,0.3-9.2,6-9.6,6.3"/>

		<path clip-path="url(#SVGID_2_)" fill="none" stroke="#060405" stroke-width="0.25" stroke-linecap="round" stroke-dasharray="1,1" d="
		M313.2,312.1c-7.8-3.8-26.7-17.2-32.7-38.9c-5-17.9-4-95.7,5.3-140c1-4.7,11.5-12.3,15.3-17.6c8.6-12,18.6-30.1,12.9-52.7"/>

		<path clip-path="url(#SVGID_2_)" fill="none" stroke="#060405" stroke-width="0.25" stroke-linecap="round" stroke-dasharray="1,1" d="
		M314,308.9c-7.8-3.7-24.6-16.6-30.3-34.5c-5.9-18.8-6.6-78.9,5.5-140c1.2-6,11.2-13.1,14.6-17.9c3.4-4.8,16.8-23.9,13.3-43.8"/>
	<path clip-path="url(#SVGID_2_)" fill="#FFFFFF" d="M206.2,170.5h-2.3c-0.8,0-1.4-0.6-1.4-1.4v-29.6c0-0.8,0.6-1.4,1.4-1.4h2.3
		c0.8,0,1.4,0.6,1.4,1.4v29.6C207.6,169.9,207,170.5,206.2,170.5"/>
	<path clip-path="url(#SVGID_2_)" fill="none" stroke="#060405" stroke-width="0.339" d="M206.2,170.5h-2.3c-0.8,0-1.4-0.6-1.4-1.4
		v-29.6c0-0.8,0.6-1.4,1.4-1.4h2.3c0.8,0,1.4,0.6,1.4,1.4v29.6C207.6,169.9,207,170.5,206.2,170.5z"/>
	<path clip-path="url(#SVGID_2_)" fill="#050404" d="M205.1,169.5c-0.8,0-1.5-0.6-1.5-1.4v-27.6c0-0.8,0.7-1.4,1.5-1.4
		c0.8,0,1.5,0.6,1.5,1.4v27.6C206.5,168.9,205.9,169.5,205.1,169.5"/>
	<path clip-path="url(#SVGID_2_)" fill="#FFFFFF" d="M206.2,247.7h-2.3c-0.8,0-1.4-0.6-1.4-1.4v-29.6c0-0.8,0.6-1.4,1.4-1.4h2.3
		c0.8,0,1.4,0.6,1.4,1.4v29.6C207.6,247.1,207,247.7,206.2,247.7"/>
	<path clip-path="url(#SVGID_2_)" fill="none" stroke="#060405" stroke-width="0.339" d="M206.2,247.7h-2.3c-0.8,0-1.4-0.6-1.4-1.4
		v-29.6c0-0.8,0.6-1.4,1.4-1.4h2.3c0.8,0,1.4,0.6,1.4,1.4v29.6C207.6,247.1,207,247.7,206.2,247.7z"/>

		<path clip-path="url(#SVGID_2_)" fill="none" stroke="#060405" stroke-width="0.25" stroke-linecap="round" stroke-dasharray="1,1" d="
		M303,106.6c0,0,17.5,166.5-7.4,196.5"/>

		<path clip-path="url(#SVGID_2_)" fill="none" stroke="#060405" stroke-width="0.25" stroke-linecap="round" stroke-dasharray="1,1" d="
		M304.9,104.1c0,0,21.5,156.2-6.2,201.9"/>

		<path clip-path="url(#SVGID_2_)" fill="none" stroke="#060405" stroke-width="0.25" stroke-linecap="round" stroke-dasharray="1,1" d="
		M208.7,104.5c0,0-7.4,167.9,9.8,194.6"/>

		<path clip-path="url(#SVGID_2_)" fill="none" stroke="#060405" stroke-width="0.25" stroke-linecap="round" stroke-dasharray="1,1" d="
		M211.3,106.6c0,0-5.7,162.1,9.3,190.1"/>
	<path class="front_part_1" clip-path="url(#SVGID_2_)" fill="#FFFFFF" d="M306.8,170.5h-97.9c-2.1,0-3.8-1.7-3.8-3.8v-25.3c0-2.1,1.7-3.8,3.8-3.8h97.9
		c2.1,0,3.8,1.7,3.8,3.8v25.3C310.5,168.8,308.8,170.5,306.8,170.5"/>
	<path clip-path="url(#SVGID_2_)" fill="none" stroke="#060405" stroke-width="0.339" d="M306.8,170.5h-97.9c-2.1,0-3.8-1.7-3.8-3.8
		v-25.3c0-2.1,1.7-3.8,3.8-3.8h97.9c2.1,0,3.8,1.7,3.8,3.8v25.3C310.5,168.8,308.8,170.5,306.8,170.5z"/>

		<path clip-path="url(#SVGID_2_)" fill="none" stroke="#060405" stroke-width="0.25" stroke-linecap="round" stroke-dasharray="1,1" d="
		M207.1,140.8l96.5,0.1c2.6,0,4.8,2,4.8,4.5v17.2c0,2.5-2.1,4.5-4.8,4.5h-96.1"/>

		<line clip-path="url(#SVGID_2_)" fill="none" stroke="#060405" stroke-width="0.25" stroke-linecap="round" x1="206.1" y1="165.4" x2="206.6" y2="165.4"/>

		<path clip-path="url(#SVGID_2_)" fill="none" stroke="#060405" stroke-width="0.25" stroke-linecap="round" stroke-dasharray="1.004,1.004" d="
		M207.6,165.4l96-0.1c1.5,0,2.7-1.1,2.7-2.4v-17.7c0-1.3-1.2-2.4-2.7-2.4h-96.5"/>

		<line clip-path="url(#SVGID_2_)" fill="none" stroke="#060405" stroke-width="0.25" stroke-linecap="round" x1="206.6" y1="142.8" x2="206.1" y2="142.8"/>
	<path clip-path="url(#SVGID_2_)" fill="#050404" d="M205.1,246.7c-0.8,0-1.5-0.6-1.5-1.4v-27.6c0-0.8,0.7-1.4,1.5-1.4
		c0.8,0,1.5,0.6,1.5,1.4v27.6C206.5,246.1,205.9,246.7,205.1,246.7"/>
	<path class="front_part_1" clip-path="url(#SVGID_2_)" fill="#FFFFFF" d="M306.8,247.7h-97.9c-2.1,0-3.8-1.7-3.8-3.8v-24.9c0-2.1,1.7-3.8,3.8-3.8h97.9
		c2.1,0,3.8,1.7,3.8,3.8V244C310.5,246,308.8,247.7,306.8,247.7"/>
	<path clip-path="url(#SVGID_2_)" fill="none" stroke="#060405" stroke-width="0.339" d="M306.8,247.7h-97.9c-2.1,0-3.8-1.7-3.8-3.8
		v-24.9c0-2.1,1.7-3.8,3.8-3.8h97.9c2.1,0,3.8,1.7,3.8,3.8V244C310.5,246,308.8,247.7,306.8,247.7z"/>

		<line clip-path="url(#SVGID_2_)" fill="none" stroke="#060405" stroke-width="0.25" stroke-linecap="round" x1="207.8" y1="217.8" x2="208.3" y2="217.8"/>

		<path clip-path="url(#SVGID_2_)" fill="none" stroke="#060405" stroke-width="0.25" stroke-linecap="round" stroke-dasharray="0.998,0.998" d="
		M209.3,217.8h94.4c2.9,0,5.3,2.2,5.3,4.8v17.7c0,2.7-2.4,4.8-5.3,4.8l-94.9,0.1"/>

		<line clip-path="url(#SVGID_2_)" fill="none" stroke="#060405" stroke-width="0.25" stroke-linecap="round" x1="208.2" y1="245.3" x2="207.7" y2="245.3"/>

		<line clip-path="url(#SVGID_2_)" fill="none" stroke="#060405" stroke-width="0.25" stroke-linecap="round" x1="206.6" y1="218.7" x2="207.1" y2="218.7"/>

		<path clip-path="url(#SVGID_2_)" fill="none" stroke="#060405" stroke-width="0.25" stroke-linecap="round" stroke-dasharray="1.003,1.003" d="
		M208.1,218.7h95.6c2.3,0,4.3,1.8,4.3,3.9v17.7c0,2.2-1.9,3.9-4.3,3.9l-96.1-0.1"/>

		<line clip-path="url(#SVGID_2_)" fill="none" stroke="#060405" stroke-width="0.25" stroke-linecap="round" x1="207.1" y1="244.2" x2="206.6" y2="244.2"/>
</g>
</svg>
