<svg id="图层_1" data-name="图层 1" xmlns="http://www.w3.org/2000/svg" viewBox="0 0 386.02 227.11"><defs><style>.cls-1{fill:#090204;}.cls-2,.cls-3,.cls-6{fill:#fff;}.cls-2{stroke:#18182e;stroke-width:0.56px;}.cls-2,.cls-4,.cls-5,.cls-7{stroke-miterlimit:10;}.cls-3,.cls-7{stroke:#070001;}.cls-3,.cls-5{stroke-width:0.58px;}.cls-4,.cls-5{fill:none;stroke:#080103;stroke-linecap:round;}.cls-4{stroke-width:0.12px;}.cls-5{stroke-dasharray:1.62 1.28;}.cls-6{stroke:#595857;stroke-width:0.95px;}.cls-7{fill:#313232;stroke-width:0.61px;}</style><clipPath id="clipPath"><path class="cls-3" d="M447.74,438.47c-3.16-9.6-9.85-28.43-12-44.72-1.51-11.32-1-33.31-.55-45.67,0-.59-.71-1.52-1.1-1.43q-1.77.4-3.5.75c-28.72,5.83-50.37,2.8-64.48-1.82l-1.94-.66q-3.15-1.1-6.05-2.34l-1.83-.76c-11-4.51-18.67-6.07-25.25-4.46a45.07,45.07,0,0,0-6.15,2,24.77,24.77,0,0,0-7.46,4.48c-14,12.85-27.48,45.32-45.9,65.39s-51.28,22.74-62.52,28c-3.41,1.58-9.64,6.89-12.95,10.68l-.52.6c-5.26,6-10.61,12.74-14.95,18.32-1.46,4.85-3.87,10-7.79,13.39A247.73,247.73,0,0,0,203,485.91C274.21,494,340.13,491.2,354,491.13s78.06-2.62,85.52-3.18c2-.15,3.75-.41,5.29-.65a26.18,26.18,0,0,1,4.65-.5C452.75,473.37,450.18,445.9,447.74,438.47Z" transform="translate(-104.37 -308.75)"/></clipPath></defs><title>左侧面</title><ellipse id="_路径_" data-name="&lt;路径&gt;" class="cls-1" cx="173.6" cy="224.98" rx="173.6" ry="2.13"/><path class="cls-1" d="M127.42,473.83c2.07-2.06.5-5.48-4-8.42a20.46,20.46,0,0,1-1.73-1.24c-.08.38,1.24.78.49.83-3.42.24-6.19,3.49-7,5.51,0,.11-.27.11-.55.09a8.48,8.48,0,0,0,1.2.46C118.1,471.69,125.23,476,127.42,473.83Z" transform="translate(-104.37 -308.75)"/><path class="cls-2" d="M215.49,430.45s-2.14,1-2.32,6.1,4.77,4,4.77,4l2.19-8.54Z" transform="translate(-104.37 -308.75)"/><path class="cls-3" d="M185.25,451.61c-.2.91-2.06,1.78-3.33,9.08a52.88,52.88,0,0,1-1.43,6.07c4.34-5.59,9.69-12.28,14.95-18.32-3.58,1-7.33,1.92-10.27,2.56A.91.91,0,0,1,185.25,451.61Z" transform="translate(-104.37 -308.75)"/><path class="cls-3" d="M356.2,341.83c.44-9.61-1.5-13.35-6.61-19.46-2.4-2.87-6.34-5.14-9.81-6.74a5.16,5.16,0,0,1-.82,1.85c-2,2.84-10.61,16.29-14.17,21.86a45.08,45.08,0,0,1,6.15-2C337.53,335.76,345.17,337.31,356.2,341.83Z" transform="translate(-104.37 -308.75)"/><path class="cls-3" d="M349.59,322.37c5.11,6.11,7,9.85,6.61,19.46l1.83.76q2.9,1.23,6.05,2.34c1-14.06-1.89-20.49-7.79-27.53-3.05-3.65-8.59-6.33-12.48-7.89-4.33,1.94-3.52,3.88-4,6.11C343.25,317.22,347.18,319.5,349.59,322.37Z" transform="translate(-104.37 -308.75)"/><path class="cls-4" d="M342.38,308.81c.2.07-2.38,6.9-2.13,7s3-6.68,3.11-6.62-2.6,6.83-2.46,6.89,3.2-6.58,3.33-6.51-2.8,6.75-2.67,6.81,3.38-6.48,3.51-6.42-3,6.68-2.85,6.74,3.55-6.39,3.67-6.33-3.14,6.6-3,6.67,3.7-6.31,3.82-6.24-3.3,6.52-3.17,6.59,3.85-6.22,4-6.15-3.45,6.45-3.33,6.52,4-6.13,4.11-6.05-3.6,6.36-3.48,6.44,4.14-6,4.25-6-3.74,6.28-3.63,6.35,4.28-5.93,4.39-5.85-3.89,6.19-3.78,6.27,4.42-5.83,4.53-5.75-4,6.09-3.93,6.17,4.56-5.72,4.67-5.63-4.19,6-4.08,6.08,4.7-5.6,4.81-5.52-4.33,5.89-4.23,6,4.84-5.48,4.95-5.39-4.48,5.77-4.38,5.86,5-5.36,5.08-5.26-4.63,5.66-4.53,5.75,5.12-5.22,5.22-5.13-4.78,5.53-4.68,5.63,5.26-5.08,5.36-5-4.93,5.4-4.83,5.5,5.39-4.94,5.49-4.84-5.08,5.26-5,5.36,5.53-4.78,5.63-4.68-5.22,5.11-5.13,5.22,5.67-4.62,5.76-4.52-5.37,5-5.28,5.07,5.8-4.45,5.89-4.34-5.52,4.8-5.43,4.91,5.93-4.28,6-4.17-5.66,4.63-5.58,4.74,6.06-4.09,6.14-4-5.8,4.45-5.72,4.56,6.18-3.9,6.26-3.78-5.94,4.26-5.86,4.38,6.3-3.7,6.38-3.58-6.07,4.07-6,4.19,6.42-3.5,6.49-3.38-6.2,3.87-6.13,4,6.53-3.29,6.6-3.17-6.32,3.67-6.26,3.79,6.63-3.07,6.7-2.95-6.44,3.46-6.38,3.59,6.73-2.85,6.79-2.73-6.55,3.24-6.49,3.37,6.82-2.63,6.88-2.5-6.65,3-6.6,3.15,6.91-2.4,7-2.27-6.75,2.8-6.7,2.93,7-2.17,7-2-6.84,2.57-6.8,2.71,7.05-1.93,7.09-1.8-6.92,2.35-6.88,2.48,7.11-1.7,7.15-1.56-7,2.12-7,2.25,7.16-1.46,7.2-1.33-7.06,1.89-7,2,7.21-1.23,7.24-1.09-7.12,1.66-7.09,1.8,7.24-1,7.27-.86-7.17,1.43-7.15,1.57,7.27-.77,7.29-.63-7.21,1.21-7.19,1.35,7.29-.54,7.31-.4-7.24,1-7.23,1.12,7.3-.32,7.32-.18-7.27.77-7.26.91,7.31-.11,7.32,0-7.29.55-7.28.69,7.31.1,7.31.24-7.3.35-7.3.49,7.31.31,7.3.45-7.31.14-7.31.28,7.29.51,7.29.65-7.31-.05-7.32.09,7.28.7,7.27.84-7.31-.24-7.32-.1,7.26.89,7.24,1-7.3-.43-7.31-.29,7.23,1.07,7.22,1.21-7.28-.61-7.3-.47,7.2,1.25,7.18,1.39-7.27-.78-7.29-.64,7.17,1.42,7.15,1.56-7.25-.95-7.27-.81,7.14,1.58,7.11,1.72-7.23-1.11-7.25-1,7.1,1.74,7.07,1.87S356,345,356,345.11" transform="translate(-104.37 -308.75)"/><path class="cls-3" d="M290.69,397.1s-10-10-12.35-11.89.62-7.48,6.43-.94l12.52,7.26Z" transform="translate(-104.37 -308.75)"/><path class="cls-3" d="M442.29,438.21c-3.16-9.6-9.85-28.43-12-44.72-1.56-11.68,5.66-48.57,3.71-47.61-32.59,6.65-54.7,3.19-68.82-1.43l-1.94-.66c-2.1-.73-7.28-2.85-7.88-3.1-11-4.51-18.55-5.67-25.13-4.06a45.1,45.1,0,0,0-6.15,2,24.77,24.77,0,0,0-7.46,4.48c-14,12.85-27.48,45.32-45.9,65.39s-51.28,22.74-62.52,28c-3.41,1.58-9.64,6.89-12.95,10.68l-.52.6c-5.26,6-10.61,12.74-14.95,18.32-1.46,4.85-3.87,10-7.79,13.39a247.74,247.74,0,0,0,30.22,5.76c71.21,8.11,137.13,5.29,151,5.23s78.06-2.62,85.52-3.18c2-.15,3.75-.41,5.29-.65C447.31,473.15,444.74,445.64,442.29,438.21Z" transform="translate(-104.37 -308.75)"/><path class="cls-3" d="M447.74,438.47c-3.16-9.6-9.85-28.43-12-44.72-1.51-11.32-1-33.31-.55-45.67,0-.59-.71-1.52-1.1-1.43q-1.77.4-3.5.75c-28.72,5.83-50.37,2.8-64.48-1.82l-1.94-.66q-3.15-1.1-6.05-2.34l-1.83-.76c-11-4.51-18.67-6.07-25.25-4.46a45.07,45.07,0,0,0-6.15,2,24.77,24.77,0,0,0-7.46,4.48c-14,12.85-27.48,45.32-45.9,65.39s-51.28,22.74-62.52,28c-3.41,1.58-9.64,6.89-12.95,10.68l-.52.6c-5.26,6-10.61,12.74-14.95,18.32-1.46,4.85-3.87,10-7.79,13.39A247.73,247.73,0,0,0,203,485.91C274.21,494,340.13,491.2,354,491.13s78.06-2.62,85.52-3.18c2-.15,3.75-.41,5.29-.65a26.18,26.18,0,0,1,4.65-.5C452.75,473.37,450.18,445.9,447.74,438.47Z" transform="translate(-104.37 -308.75)"/><image xmlns:link="http://www.w3.org/1999/xlink" id="imgPath" xlink:href="" width="72%" height="68.18%" x="70" y="30" preserveAspectRatio="none" style="clip-path:url(#clipPath);"/><path class="cls-3" d="M435.72,393.76c-1.51-11.32-1-33.31-.55-45.67,0-.59-.71-1.52-1.1-1.43q-1.77.4-3.5.75c-.87.18-.86.16-1.72.32-.22,6.42-.1,18.72.59,28.36,1.16,16.23,3.88,38.69,12.33,60.75,5.14,13.4,4.46,36,2.73,50.53l.36-.05a26.18,26.18,0,0,1,4.65-.5c3.24-13.44.67-40.91-1.77-48.33C444.58,428.88,437.89,410,435.72,393.76Z" transform="translate(-104.37 -308.75)"/><path class="cls-5" d="M430.4,347.32c-.22,6.42-.1,18.72.59,28.36,1.16,16.23,3.88,38.69,12.33,60.75,5.14,13.4,4.46,36,2.73,50.53l.36-.05" transform="translate(-104.37 -308.75)"/><path class="cls-5" d="M434,349.16c-10.72,2-27.3,4.14-37.22,3.91A110,110,0,0,1,365.24,348l-2-.67c-2.1-.74-4.19-1.54-6.2-2.4l-1.8-.75c-8-3.26-13.66-4.77-18.43-4.88a19.94,19.94,0,0,0-5.29.54,42.24,42.24,0,0,0-5.81,1.85,22.25,22.25,0,0,0-6.71,4c-6.74,6.18-13.58,17.46-20.83,29.4-7.64,12.59-15.53,25.61-24.92,35.83-13.78,15-34.74,20.48-50,24.48-5.54,1.45-10.33,2.7-13.26,4.06s-8.78,6.23-12.12,10.06l-.51.59c-4.36,5-9.26,11-14.58,17.85-4,6.48-4.87,8.82-7,12.3" transform="translate(-104.37 -308.75)"/><path class="cls-5" d="M178.58,480.75c1.13-3.82,4.84-8.68,6.41-11.65,5.18-6.65,10-12.51,14.22-17.4l.51-.59c3.41-3.9,9-8.35,11.29-9.43,2.74-1.27,7.42-2.49,12.84-3.91,15.61-4.08,37-9.66,51.25-25.2,9.56-10.41,17.52-23.53,25.22-36.22,7.15-11.79,13.91-22.92,20.38-28.86a19.81,19.81,0,0,1,6-3.53,39.74,39.74,0,0,1,5.47-1.74,17.5,17.5,0,0,1,4.63-.47c4.46.11,9.87,1.56,17.55,4.7l1.78.74c2,.87,4.18,1.69,6.35,2.45l2,.69a112.49,112.49,0,0,0,32.29,5.24c9.14.22,27.41-2.2,37.23-3.83" transform="translate(-104.37 -308.75)"/><path class="cls-3" d="M205.1,514.82c-1.2-2-2.3-3.87-3.27-5.53-.72-1.24-1.38-2.34-1.94-3.26-3.39-5.5-8.29-9-14.69-11.21a51.82,51.82,0,0,0-5.78-1.65c-9.29-2.11-22.8-10-28.76-16.72a16.82,16.82,0,0,1-2.42-3.53c-3.08-6.08-1.39-13,5.69-17.1L157,454l.47-.27a7.19,7.19,0,0,0-5.29-1.3c-5.39.67-20.87,2.81-30.33,11.26-.09.08-.16.12-.17.19a20.46,20.46,0,0,0,1.73,1.24c4.54,2.94,6.1,6.36,4,8.42s-9.33-2.15-11.65-2.77a8.46,8.46,0,0,1-1.2-.46c-.47,0-1.1-.18-1.23,0-8.07,9.22-8.53,22.68-3.7,32.91a359.68,359.68,0,0,0,53.43,18.89A268.28,268.28,0,0,0,216.16,531c.54,0,.67-.64.2-1.07C212.42,526.38,208.4,520.28,205.1,514.82Z" transform="translate(-104.37 -308.75)"/><path class="cls-3" d="M453.84,498.13l-2.15-.05-3.86-.09a6,6,0,0,0-.95,1.36,10.78,10.78,0,0,0-1,3.17c-.29,1.67-.78,5-1.33,8.85-.23,1.65-.48,3.41-.73,5.19-.63,4.54-1.27,9.25-1.75,12.84a34.09,34.09,0,0,0,7.7-1.38c2.79-2.83,3.89-14,5-18.74C456.21,503.43,456,498.18,453.84,498.13Z" transform="translate(-104.37 -308.75)"/><path class="cls-6" d="M185.18,451c-.35-.7-1.69-1.24-4.84-.6-2.74.55-12.46,1.7-22.68,3.53L157,454l-3.05,1.77c-7.08,4.13-8.77,11-5.69,17.1,8.2,2.85,16.56,5.27,24.47,7.24,3.92-3.41,6.33-8.54,7.79-13.39a52.88,52.88,0,0,0,1.43-6.07c1.27-7.29,3.12-8.16,3.33-9.08A.91.91,0,0,0,185.18,451Z" transform="translate(-104.37 -308.75)"/><path class="cls-2" d="M157.66,453.92l-.22-.15L157,454Z" transform="translate(-104.37 -308.75)"/><path class="cls-3" d="M310.06,403.12c9.64,5.11,16,5.56,25.93-12.27,11-19.74-.43-24.28-10.41-30.43-3.46-2.13-13.84-7.79-18-8.89s-7.17-3.89-13.5,5.72S282.66,374,280,377.49c-3.63,4.83-1.45,9.72-.24,8C281.29,383.35,300.42,398,310.06,403.12Z" transform="translate(-104.37 -308.75)"/><path class="cls-3 part2" d="M309.91,401.45c9.64,5.11,15.33,6.71,25.28-11.12,11-19.74.23-25.43-9.76-31.59-3.46-2.13-13.84-7.79-18-8.89S300.3,346,294,355.57s-10.46,16.11-13.1,19.62c-3.63,4.83-4.41,10.22-2.78,8.92C281.45,381.46,300.27,396.33,309.91,401.45Z" transform="translate(-104.37 -308.75)"/><path class="cls-5" d="M300.35,350.29a33.27,33.27,0,0,1,4.81,1.23c.55.18,1.11.37,1.72.53,3.62,1,13.43,6.21,17.35,8.63l1,.62c9.79,6,17.52,10.75,7.95,27.91-6.64,11.92-10.58,13.45-13.55,13.38-2.36-.06-5-1.2-8.66-3.17-3.14-1.66-7.3-4.41-11.7-7.31-9.35-6.17-17.78-11.61-21.4-9.87" transform="translate(-104.37 -308.75)"/><path class="cls-5" d="M297.48,351.87c.43.08,6.19,1.56,7,1.82.58.19,1.18.39,1.85.57,3.29.88,12.83,6,16.74,8.36l1,.63c9.76,6,15.65,9.6,7.15,24.85-6.87,12.32-10.24,12.24-11.5,12.21-1.9,0-4.33-1.14-7.65-2.9-3-1.61-7.13-4.31-11.47-7.17-7.79-5.13-15.4-10.38-21.51-11.35" transform="translate(-104.37 -308.75)"/><path class="cls-3" d="M217.5,437.85c1.9,5.56,1.46,5.77,5.74,15.42,4.42,10,6.87,13.59,26.16,6.9,21.16-7.34,19.27-20.56,14-31-1.83-3.63-2.29-5.77-4.8-9.62-2.33-3.58-2.94-8-13.36-3.16s-21.79,9.44-25.88,11c-3.67,1.44-6.1,4.27-4.78,5C216.1,433.26,216.31,434.38,217.5,437.85Z" transform="translate(-104.37 -308.75)"/><path class="cls-3 part2" d="M218.43,437.48c.92,2.53.58,3.58,5.28,14,4.5,9.94,6.87,13.59,26.16,6.9,21.16-7.34,19.27-20.56,14-31-1.83-3.63-2.29-5.77-4.8-9.62-2.33-3.58-2.94-8-13.36-3.16s-18.91,9.66-23,11.27c-3.15,1.24-10.3,5.32-7.81,5.64C216.64,431.67,218,436.31,218.43,437.48Z" transform="translate(-104.37 -308.75)"/><path class="cls-5" d="M252.49,412.73c1.46,0,2.6,2.65,3.77,4.71.28.49.57,1,.9,1.5a34.61,34.61,0,0,1,3,5.82c.48,1.1,1,2.23,1.65,3.59,3.34,6.63,4.09,12,2.28,16.47-1.93,4.77-7,8.6-15,11.38-6.63,2.3-11.18,3.34-14.3,3.26h0c-4.56-.11-6-2.41-9-9-4.29-9.34-7.24-21.34-9.84-20.79" transform="translate(-104.37 -308.75)"/><path class="cls-5" d="M251.08,412.69c.26.24,3,5.49,3.19,5.87s.6,1,1,1.62a32.25,32.25,0,0,1,2.84,5.48c.49,1.13,1,2.29,1.71,3.71,3,6,3.75,10.77,2.2,14.59-1.68,4.14-6.26,7.53-13.61,10.08-6.28,2.18-10.69,3.2-13.5,3.14h0c-3.08-.07-4-1.07-7-7.63-4.1-8.92-7-20.57-10.34-21.1" transform="translate(-104.37 -308.75)"/><polyline class="cls-5" points="80.3 152.36 106.92 159.96 97.09 176.98"/><polyline class="cls-5" points="82.73 149.41 110.82 158.28 100.47 177.37"/><path class="cls-3" d="M451.8,488.86c-.16-1.47-1-2-2.37-2.06a26.18,26.18,0,0,0-4.65.5c-1.54.24-3.31.5-5.29.65-7.46.55-71.6,3.12-85.52,3.18s-79.84,2.88-151-5.23a247.73,247.73,0,0,1-30.22-5.76c-7.91-2-16.27-4.39-24.47-7.24a16.82,16.82,0,0,0,2.42,3.53c6,6.75,19.47,14.61,28.76,16.72a51.82,51.82,0,0,1,5.78,1.65h0c6.4,2.26,11.29,5.71,14.69,11.21.56.92,1.22,2,1.94,3.26,1,1.66,2.08,3.56,3.27,5.53,3.7,6.13,7.47,12.4,11.86,15.64,16.1.93,29.09.8,37.07.8,15.38,0,134.75.2,151.6.28,7.72,0,22.47-.89,36.43-2.14.48-3.6,1.12-8.31,1.75-12.84.25-1.78.49-3.54.73-5.19.55-3.88,1-7.18,1.33-8.85a10.78,10.78,0,0,1,1-3.17h0a6,6,0,0,1,.95-1.36l3.86.09A64.51,64.51,0,0,0,451.8,488.86Z" transform="translate(-104.37 -308.75)"/><path class="cls-3" d="M447.74,438.72c.32,1.17.59,2.3.84,3.43A34.54,34.54,0,0,0,447.74,438.72Z" transform="translate(-104.37 -308.75)"/><path class="cls-7" d="M448.58,442.15c.44,2.2.86,5,1.22,8A59.35,59.35,0,0,0,448.58,442.15Z" transform="translate(-104.37 -308.75)"/><path class="cls-5" d="M180,465.89s28,5.15,69.23-4.7,85.2-53.74,114.89-116.26" transform="translate(-104.37 -308.75)"/><path class="cls-5" d="M178.86,468.65s30.43,6.13,73.21-5.6c40.9-11.22,81.78-50.84,113.09-115" transform="translate(-104.37 -308.75)"/><path class="cls-7" d="M447.74,438.72c-.43-1.58-.93-3.22-1.5-4.93s-1.2-3.44-1.83-5.13c1.24,3.8,2.38,7.17,3.25,9.81Z" transform="translate(-104.37 -308.75)"/><g id="_编组_" data-name="&lt;编组&gt;"><path id="_路径_2" data-name="&lt;路径&gt;" class="cls-1" d="M482.68,514.65c0-.1,0-.2,0-.3q0-1.79,0-3.58c0-.08,0-.15,0-.23s.05-.25.26-.26h1.17c.19,0,.23.05.25.23s0,.13,0,.2q0,3.63.07,7.25c0,.46,0,.46-.45.47s-.66,0-1,0a.39.39,0,0,1-.43-.28c-.58-1.25-1.16-2.49-1.74-3.73a.57.57,0,0,0-.17-.23c0,.1,0,.2,0,.29q0,1.75,0,3.5c0,.08,0,.15,0,.23a.22.22,0,0,1-.23.24h-1.22a.21.21,0,0,1-.23-.21,1.87,1.87,0,0,1,0-.23q0-3.64-.07-7.28s0-.09,0-.14c0-.23.06-.29.28-.29s.74,0,1.11,0a.4.4,0,0,1,.43.27c.59,1.28,1.19,2.56,1.79,3.83l.14.27Z" transform="translate(-104.37 -308.75)"/><path id="_复合路径_" data-name="&lt;复合路径&gt;" class="cls-1" d="M458.86,514.57q0-1.76,0-3.53a2,2,0,0,1,0-.23.33.33,0,0,1,.28-.31h.11c.72,0,1.44,0,2.16,0a2.65,2.65,0,0,1,2.45,2.1,2.87,2.87,0,0,1,.07.59c0,.91,0,1.82,0,2.73a2.69,2.69,0,0,1-2,2.61,2.53,2.53,0,0,1-.61.1c-.66,0-1.33,0-2,0a.41.41,0,0,1-.46-.44C458.89,517,458.87,515.78,458.86,514.57Zm1.69-2.41c-.07.36,0,4.59.07,4.82l.81,0a.53.53,0,0,0,.16,0,1,1,0,0,0,.65-.89c0-.44,0-.89,0-1.34s0-1,0-1.56a1,1,0,0,0-.94-.94C461,512.13,460.81,512.15,460.56,512.15Z" transform="translate(-104.37 -308.75)"/><path id="_路径_3" data-name="&lt;路径&gt;" class="cls-1" d="M449.39,514.85c0,.1,0,.2,0,.3q0,1.58,0,3.16c0,.07,0,.13,0,.2s-.06.24-.22.24h-1.34c-.15,0-.22-.09-.23-.23s0-.15,0-.23q0-3.61-.07-7.22c0-.45,0-.46.46-.47h1c.33,0,.36,0,.36.35,0,1,0,2,0,3,0,.09,0,.21.1.3.05-.09.11-.17.16-.26.54-1,1.09-2,1.62-3a.56.56,0,0,1,.58-.35c.35,0,.7,0,1.05,0H453c.19,0,.23.1.16.26s-.06.12-.09.18c-.57,1.06-1.13,2.12-1.71,3.18a.54.54,0,0,0,0,.6c.69,1.13,1.36,2.28,2,3.41l.12.2c.13.24.09.32-.19.33s-.8,0-1.19,0a.54.54,0,0,1-.55-.31c-.66-1.12-1.32-2.23-2-3.35l-.17-.25Z" transform="translate(-104.37 -308.75)"/><path id="_路径_4" data-name="&lt;路径&gt;" class="cls-1" d="M488.61,515.51h-.37c-.28,0-.4-.13-.41-.4s0-.45,0-.68a.34.34,0,0,1,.37-.38l1.79,0a.34.34,0,0,1,.37.35c0,.07,0,.13,0,.2q0,1.82,0,3.64c0,.07,0,.13,0,.2a.18.18,0,0,1-.19.2h-.91c-.13,0-.13,0-.25-.27a6.62,6.62,0,0,1-.63.23,2.51,2.51,0,0,1-3.06-1.81,2.62,2.62,0,0,1-.09-.62c0-1.18,0-2.35,0-3.53a2.53,2.53,0,0,1,5-.53.37.37,0,0,1-.36.49c-.31,0-.63,0-.94,0a.39.39,0,0,1-.38-.28.79.79,0,0,0-.63-.55.85.85,0,0,0-1,.81c0,.19,0,.38,0,.57,0,1,0,1.91,0,2.87a1.31,1.31,0,0,0,.1.49.79.79,0,0,0,.8.48.83.83,0,0,0,.75-.6A2.2,2.2,0,0,0,488.61,515.51Z" transform="translate(-104.37 -308.75)"/><path id="_路径_5" data-name="&lt;路径&gt;" class="cls-1" d="M467.06,518.91a2.67,2.67,0,0,1-2.26-1.34c-.17-.28-.14-.44.12-.63l.7-.49a.41.41,0,0,1,.6.06,3.08,3.08,0,0,0,.64.5.8.8,0,0,0,1.13-.55.61.61,0,0,0-.22-.69,3.48,3.48,0,0,0-.53-.33c-.29-.15-.59-.27-.88-.4s-.48-.22-.71-.35a2.14,2.14,0,0,1-1-2.65,2.6,2.6,0,0,1,2.64-1.88,2.9,2.9,0,0,1,2.28,1.37.35.35,0,0,1-.12.53l-.77.48c-.21.13-.31.1-.51-.07a4,4,0,0,0-.65-.5.79.79,0,0,0-1,.25.63.63,0,0,0,.14.95,3.16,3.16,0,0,0,.66.31,6.25,6.25,0,0,1,1.46.75,2.53,2.53,0,0,1-.3,4.33A2.86,2.86,0,0,1,467.06,518.91Z" transform="translate(-104.37 -308.75)"/><path id="_路径_6" data-name="&lt;路径&gt;" class="cls-1" d="M475.36,511.2h-.55c-.24,0-.27,0-.27-.26s0-.23,0-.34,0-.26.27-.26l3,0c.23,0,.26,0,.27.26,0,.69,0,.59-.56.6h-.27l.06,6.43h.58c.21,0,.25,0,.26.25s0,.28,0,.43a.16.16,0,0,1-.18.18h-.17l-2.79,0h-.2a.15.15,0,0,1-.16-.16c0-.16,0-.32,0-.48s.07-.21.21-.21h.59C475.46,517.43,475.42,511.65,475.36,511.2Z" transform="translate(-104.37 -308.75)"/><path id="_路径_7" data-name="&lt;路径&gt;" class="cls-1" d="M455.21,511.4h-.56c-.22,0-.27,0-.27-.27,0-.66-.06-.59.56-.6l2.5,0h.23c.12,0,.2.05.2.19s0,.32,0,.48-.07.19-.2.19h-.34l-.29,0,.06,6.42h.53c.29,0,.31,0,.31.3,0,.1,0,.21,0,.31s0,.23-.23.24h-.57l-2.36,0c-.32,0-.33,0-.34-.34,0-.1,0-.21,0-.31a.19.19,0,0,1,.21-.21h.62Z" transform="translate(-104.37 -308.75)"/><path id="_路径_8" data-name="&lt;路径&gt;" class="cls-1" d="M474,514.05c-.24.25-.44.47-.66.65a.45.45,0,0,0-.15.5c.06.28.1.55.17.89l-.56-.28a1.45,1.45,0,0,0-.54-.23c-.17,0-.34.15-.5.24l-.54.28.11-.74a1.14,1.14,0,0,1,0-.14.47.47,0,0,0-.18-.54,7.63,7.63,0,0,1-.6-.61l.48-.09a4.85,4.85,0,0,1,.51-.07.25.25,0,0,0,.23-.17l.46-.94.33.64c.23.46.23.46.73.51Z" transform="translate(-104.37 -308.75)"/></g></svg>